<?xml version="1.0" encoding="utf-8" standalone="no"?>
<!DOCTYPE svg PUBLIC "-//W3C//DTD SVG 1.1//EN"
  "http://www.w3.org/Graphics/SVG/1.1/DTD/svg11.dtd">
<svg xmlns:xlink="http://www.w3.org/1999/xlink" width="864pt" height="648pt" viewBox="0 0 864 648" xmlns="http://www.w3.org/2000/svg" version="1.1">
 <metadata>
  <rdf:RDF xmlns:dc="http://purl.org/dc/elements/1.1/" xmlns:cc="http://creativecommons.org/ns#" xmlns:rdf="http://www.w3.org/1999/02/22-rdf-syntax-ns#">
   <cc:Work>
    <dc:type rdf:resource="http://purl.org/dc/dcmitype/StillImage"/>
    <dc:date>2023-02-05T12:03:54.278437</dc:date>
    <dc:format>image/svg+xml</dc:format>
    <dc:creator>
     <cc:Agent>
      <dc:title>Matplotlib v3.6.2, https://matplotlib.org/</dc:title>
     </cc:Agent>
    </dc:creator>
   </cc:Work>
  </rdf:RDF>
 </metadata>
 <defs>
  <style type="text/css">*{stroke-linejoin: round; stroke-linecap: butt}</style>
 </defs>
 <g id="figure_1">
  <g id="patch_1">
   <path d="M 0 648 
L 864 648 
L 864 0 
L 0 0 
L 0 648 
z
" style="fill: none"/>
  </g>
  <g id="axes_1">
   <g id="patch_2">
    <path d="M 55.8 311.765625 
L 426.6 311.765625 
L 426.6 55.678125 
L 55.8 55.678125 
z
" style="fill: #ffffff"/>
   </g>
   <g id="matplotlib.axis_1">
    <g id="xtick_1">
     <g id="line2d_1">
      <path d="M 65.691903 311.765625 
L 65.691903 55.678125 
" clip-path="url(#p3cb5586c4b)" style="fill: none; stroke: #cccccc; stroke-linecap: round"/>
     </g>
    </g>
    <g id="xtick_2">
     <g id="line2d_2">
      <path d="M 135.037256 311.765625 
L 135.037256 55.678125 
" clip-path="url(#p3cb5586c4b)" style="fill: none; stroke: #cccccc; stroke-linecap: round"/>
     </g>
    </g>
    <g id="xtick_3">
     <g id="line2d_3">
      <path d="M 204.382609 311.765625 
L 204.382609 55.678125 
" clip-path="url(#p3cb5586c4b)" style="fill: none; stroke: #cccccc; stroke-linecap: round"/>
     </g>
    </g>
    <g id="xtick_4">
     <g id="line2d_4">
      <path d="M 273.727962 311.765625 
L 273.727962 55.678125 
" clip-path="url(#p3cb5586c4b)" style="fill: none; stroke: #cccccc; stroke-linecap: round"/>
     </g>
    </g>
    <g id="xtick_5">
     <g id="line2d_5">
      <path d="M 343.073315 311.765625 
L 343.073315 55.678125 
" clip-path="url(#p3cb5586c4b)" style="fill: none; stroke: #cccccc; stroke-linecap: round"/>
     </g>
    </g>
    <g id="xtick_6">
     <g id="line2d_6">
      <path d="M 412.418668 311.765625 
L 412.418668 55.678125 
" clip-path="url(#p3cb5586c4b)" style="fill: none; stroke: #cccccc; stroke-linecap: round"/>
     </g>
    </g>
   </g>
   <g id="matplotlib.axis_2">
    <g id="ytick_1">
     <g id="line2d_7">
      <path d="M 55.8 311.765625 
L 426.6 311.765625 
" clip-path="url(#p3cb5586c4b)" style="fill: none; stroke: #cccccc; stroke-linecap: round"/>
     </g>
     <g id="text_1">
      <!-- 0.0 -->
      <g style="fill: #262626" transform="translate(31.01 315.702422) scale(0.11 -0.11)">
       <defs>
        <path id="ArialMT-30" d="M 266 2259 
Q 266 3072 433 3567 
Q 600 4063 929 4331 
Q 1259 4600 1759 4600 
Q 2128 4600 2406 4451 
Q 2684 4303 2865 4023 
Q 3047 3744 3150 3342 
Q 3253 2941 3253 2259 
Q 3253 1453 3087 958 
Q 2922 463 2592 192 
Q 2263 -78 1759 -78 
Q 1097 -78 719 397 
Q 266 969 266 2259 
z
M 844 2259 
Q 844 1131 1108 757 
Q 1372 384 1759 384 
Q 2147 384 2411 759 
Q 2675 1134 2675 2259 
Q 2675 3391 2411 3762 
Q 2147 4134 1753 4134 
Q 1366 4134 1134 3806 
Q 844 3388 844 2259 
z
" transform="scale(0.015625)"/>
        <path id="ArialMT-2e" d="M 581 0 
L 581 641 
L 1222 641 
L 1222 0 
L 581 0 
z
" transform="scale(0.015625)"/>
       </defs>
       <use xlink:href="#ArialMT-30"/>
       <use xlink:href="#ArialMT-2e" x="55.615234"/>
       <use xlink:href="#ArialMT-30" x="83.398438"/>
      </g>
     </g>
    </g>
    <g id="ytick_2">
     <g id="line2d_8">
      <path d="M 55.8 281.279018 
L 426.6 281.279018 
" clip-path="url(#p3cb5586c4b)" style="fill: none; stroke: #cccccc; stroke-linecap: round"/>
     </g>
     <g id="text_2">
      <!-- 2.5 -->
      <g style="fill: #262626" transform="translate(31.01 285.215815) scale(0.11 -0.11)">
       <defs>
        <path id="ArialMT-32" d="M 3222 541 
L 3222 0 
L 194 0 
Q 188 203 259 391 
Q 375 700 629 1000 
Q 884 1300 1366 1694 
Q 2113 2306 2375 2664 
Q 2638 3022 2638 3341 
Q 2638 3675 2398 3904 
Q 2159 4134 1775 4134 
Q 1369 4134 1125 3890 
Q 881 3647 878 3216 
L 300 3275 
Q 359 3922 746 4261 
Q 1134 4600 1788 4600 
Q 2447 4600 2831 4234 
Q 3216 3869 3216 3328 
Q 3216 3053 3103 2787 
Q 2991 2522 2730 2228 
Q 2469 1934 1863 1422 
Q 1356 997 1212 845 
Q 1069 694 975 541 
L 3222 541 
z
" transform="scale(0.015625)"/>
        <path id="ArialMT-35" d="M 266 1200 
L 856 1250 
Q 922 819 1161 601 
Q 1400 384 1738 384 
Q 2144 384 2425 690 
Q 2706 997 2706 1503 
Q 2706 1984 2436 2262 
Q 2166 2541 1728 2541 
Q 1456 2541 1237 2417 
Q 1019 2294 894 2097 
L 366 2166 
L 809 4519 
L 3088 4519 
L 3088 3981 
L 1259 3981 
L 1013 2750 
Q 1425 3038 1878 3038 
Q 2478 3038 2890 2622 
Q 3303 2206 3303 1553 
Q 3303 931 2941 478 
Q 2500 -78 1738 -78 
Q 1113 -78 717 272 
Q 322 622 266 1200 
z
" transform="scale(0.015625)"/>
       </defs>
       <use xlink:href="#ArialMT-32"/>
       <use xlink:href="#ArialMT-2e" x="55.615234"/>
       <use xlink:href="#ArialMT-35" x="83.398438"/>
      </g>
     </g>
    </g>
    <g id="ytick_3">
     <g id="line2d_9">
      <path d="M 55.8 250.792411 
L 426.6 250.792411 
" clip-path="url(#p3cb5586c4b)" style="fill: none; stroke: #cccccc; stroke-linecap: round"/>
     </g>
     <g id="text_3">
      <!-- 5.0 -->
      <g style="fill: #262626" transform="translate(31.01 254.729208) scale(0.11 -0.11)">
       <use xlink:href="#ArialMT-35"/>
       <use xlink:href="#ArialMT-2e" x="55.615234"/>
       <use xlink:href="#ArialMT-30" x="83.398438"/>
      </g>
     </g>
    </g>
    <g id="ytick_4">
     <g id="line2d_10">
      <path d="M 55.8 220.305804 
L 426.6 220.305804 
" clip-path="url(#p3cb5586c4b)" style="fill: none; stroke: #cccccc; stroke-linecap: round"/>
     </g>
     <g id="text_4">
      <!-- 7.5 -->
      <g style="fill: #262626" transform="translate(31.01 224.2426) scale(0.11 -0.11)">
       <defs>
        <path id="ArialMT-37" d="M 303 3981 
L 303 4522 
L 3269 4522 
L 3269 4084 
Q 2831 3619 2401 2847 
Q 1972 2075 1738 1259 
Q 1569 684 1522 0 
L 944 0 
Q 953 541 1156 1306 
Q 1359 2072 1739 2783 
Q 2119 3494 2547 3981 
L 303 3981 
z
" transform="scale(0.015625)"/>
       </defs>
       <use xlink:href="#ArialMT-37"/>
       <use xlink:href="#ArialMT-2e" x="55.615234"/>
       <use xlink:href="#ArialMT-35" x="83.398438"/>
      </g>
     </g>
    </g>
    <g id="ytick_5">
     <g id="line2d_11">
      <path d="M 55.8 189.819196 
L 426.6 189.819196 
" clip-path="url(#p3cb5586c4b)" style="fill: none; stroke: #cccccc; stroke-linecap: round"/>
     </g>
     <g id="text_5">
      <!-- 10.0 -->
      <g style="fill: #262626" transform="translate(24.892969 193.755993) scale(0.11 -0.11)">
       <defs>
        <path id="ArialMT-31" d="M 2384 0 
L 1822 0 
L 1822 3584 
Q 1619 3391 1289 3197 
Q 959 3003 697 2906 
L 697 3450 
Q 1169 3672 1522 3987 
Q 1875 4303 2022 4600 
L 2384 4600 
L 2384 0 
z
" transform="scale(0.015625)"/>
       </defs>
       <use xlink:href="#ArialMT-31"/>
       <use xlink:href="#ArialMT-30" x="55.615234"/>
       <use xlink:href="#ArialMT-2e" x="111.230469"/>
       <use xlink:href="#ArialMT-30" x="139.013672"/>
      </g>
     </g>
    </g>
    <g id="ytick_6">
     <g id="line2d_12">
      <path d="M 55.8 159.332589 
L 426.6 159.332589 
" clip-path="url(#p3cb5586c4b)" style="fill: none; stroke: #cccccc; stroke-linecap: round"/>
     </g>
     <g id="text_6">
      <!-- 12.5 -->
      <g style="fill: #262626" transform="translate(24.892969 163.269386) scale(0.11 -0.11)">
       <use xlink:href="#ArialMT-31"/>
       <use xlink:href="#ArialMT-32" x="55.615234"/>
       <use xlink:href="#ArialMT-2e" x="111.230469"/>
       <use xlink:href="#ArialMT-35" x="139.013672"/>
      </g>
     </g>
    </g>
    <g id="ytick_7">
     <g id="line2d_13">
      <path d="M 55.8 128.845982 
L 426.6 128.845982 
" clip-path="url(#p3cb5586c4b)" style="fill: none; stroke: #cccccc; stroke-linecap: round"/>
     </g>
     <g id="text_7">
      <!-- 15.0 -->
      <g style="fill: #262626" transform="translate(24.892969 132.782779) scale(0.11 -0.11)">
       <use xlink:href="#ArialMT-31"/>
       <use xlink:href="#ArialMT-35" x="55.615234"/>
       <use xlink:href="#ArialMT-2e" x="111.230469"/>
       <use xlink:href="#ArialMT-30" x="139.013672"/>
      </g>
     </g>
    </g>
    <g id="ytick_8">
     <g id="line2d_14">
      <path d="M 55.8 98.359375 
L 426.6 98.359375 
" clip-path="url(#p3cb5586c4b)" style="fill: none; stroke: #cccccc; stroke-linecap: round"/>
     </g>
     <g id="text_8">
      <!-- 17.5 -->
      <g style="fill: #262626" transform="translate(24.892969 102.296172) scale(0.11 -0.11)">
       <use xlink:href="#ArialMT-31"/>
       <use xlink:href="#ArialMT-37" x="55.615234"/>
       <use xlink:href="#ArialMT-2e" x="111.230469"/>
       <use xlink:href="#ArialMT-35" x="139.013672"/>
      </g>
     </g>
    </g>
    <g id="ytick_9">
     <g id="line2d_15">
      <path d="M 55.8 67.872768 
L 426.6 67.872768 
" clip-path="url(#p3cb5586c4b)" style="fill: none; stroke: #cccccc; stroke-linecap: round"/>
     </g>
     <g id="text_9">
      <!-- 20.0 -->
      <g style="fill: #262626" transform="translate(24.892969 71.809565) scale(0.11 -0.11)">
       <use xlink:href="#ArialMT-32"/>
       <use xlink:href="#ArialMT-30" x="55.615234"/>
       <use xlink:href="#ArialMT-2e" x="111.230469"/>
       <use xlink:href="#ArialMT-30" x="139.013672"/>
      </g>
     </g>
    </g>
    <g id="text_10">
     <!-- Count -->
     <g style="fill: #262626" transform="translate(18.507969 199.731562) rotate(-90) scale(0.12 -0.12)">
      <defs>
       <path id="ArialMT-43" d="M 3763 1606 
L 4369 1453 
Q 4178 706 3683 314 
Q 3188 -78 2472 -78 
Q 1731 -78 1267 223 
Q 803 525 561 1097 
Q 319 1669 319 2325 
Q 319 3041 592 3573 
Q 866 4106 1370 4382 
Q 1875 4659 2481 4659 
Q 3169 4659 3637 4309 
Q 4106 3959 4291 3325 
L 3694 3184 
Q 3534 3684 3231 3912 
Q 2928 4141 2469 4141 
Q 1941 4141 1586 3887 
Q 1231 3634 1087 3207 
Q 944 2781 944 2328 
Q 944 1744 1114 1308 
Q 1284 872 1643 656 
Q 2003 441 2422 441 
Q 2931 441 3284 734 
Q 3638 1028 3763 1606 
z
" transform="scale(0.015625)"/>
       <path id="ArialMT-6f" d="M 213 1659 
Q 213 2581 725 3025 
Q 1153 3394 1769 3394 
Q 2453 3394 2887 2945 
Q 3322 2497 3322 1706 
Q 3322 1066 3130 698 
Q 2938 331 2570 128 
Q 2203 -75 1769 -75 
Q 1072 -75 642 372 
Q 213 819 213 1659 
z
M 791 1659 
Q 791 1022 1069 705 
Q 1347 388 1769 388 
Q 2188 388 2466 706 
Q 2744 1025 2744 1678 
Q 2744 2294 2464 2611 
Q 2184 2928 1769 2928 
Q 1347 2928 1069 2612 
Q 791 2297 791 1659 
z
" transform="scale(0.015625)"/>
       <path id="ArialMT-75" d="M 2597 0 
L 2597 488 
Q 2209 -75 1544 -75 
Q 1250 -75 995 37 
Q 741 150 617 320 
Q 494 491 444 738 
Q 409 903 409 1263 
L 409 3319 
L 972 3319 
L 972 1478 
Q 972 1038 1006 884 
Q 1059 663 1231 536 
Q 1403 409 1656 409 
Q 1909 409 2131 539 
Q 2353 669 2445 892 
Q 2538 1116 2538 1541 
L 2538 3319 
L 3100 3319 
L 3100 0 
L 2597 0 
z
" transform="scale(0.015625)"/>
       <path id="ArialMT-6e" d="M 422 0 
L 422 3319 
L 928 3319 
L 928 2847 
Q 1294 3394 1984 3394 
Q 2284 3394 2536 3286 
Q 2788 3178 2913 3003 
Q 3038 2828 3088 2588 
Q 3119 2431 3119 2041 
L 3119 0 
L 2556 0 
L 2556 2019 
Q 2556 2363 2490 2533 
Q 2425 2703 2258 2804 
Q 2091 2906 1866 2906 
Q 1506 2906 1245 2678 
Q 984 2450 984 1813 
L 984 0 
L 422 0 
z
" transform="scale(0.015625)"/>
       <path id="ArialMT-74" d="M 1650 503 
L 1731 6 
Q 1494 -44 1306 -44 
Q 1000 -44 831 53 
Q 663 150 594 308 
Q 525 466 525 972 
L 525 2881 
L 113 2881 
L 113 3319 
L 525 3319 
L 525 4141 
L 1084 4478 
L 1084 3319 
L 1650 3319 
L 1650 2881 
L 1084 2881 
L 1084 941 
Q 1084 700 1114 631 
Q 1144 563 1211 522 
Q 1278 481 1403 481 
Q 1497 481 1650 503 
z
" transform="scale(0.015625)"/>
      </defs>
      <use xlink:href="#ArialMT-43"/>
      <use xlink:href="#ArialMT-6f" x="72.216797"/>
      <use xlink:href="#ArialMT-75" x="127.832031"/>
      <use xlink:href="#ArialMT-6e" x="183.447266"/>
      <use xlink:href="#ArialMT-74" x="239.0625"/>
     </g>
    </g>
   </g>
   <g id="patch_3">
    <path d="M 72.654545 311.765625 
L 95.230174 311.765625 
L 95.230174 262.987054 
L 72.654545 262.987054 
z
" clip-path="url(#p3cb5586c4b)" style="fill: #4c72b0; fill-opacity: 0.5; stroke: #000000; stroke-linejoin: miter"/>
   </g>
   <g id="patch_4">
    <path d="M 95.230174 311.765625 
L 117.805803 311.765625 
L 117.805803 67.872768 
L 95.230174 67.872768 
z
" clip-path="url(#p3cb5586c4b)" style="fill: #4c72b0; fill-opacity: 0.5; stroke: #000000; stroke-linejoin: miter"/>
   </g>
   <g id="patch_5">
    <path d="M 117.805803 311.765625 
L 140.381432 311.765625 
L 140.381432 128.845982 
L 117.805803 128.845982 
z
" clip-path="url(#p3cb5586c4b)" style="fill: #4c72b0; fill-opacity: 0.5; stroke: #000000; stroke-linejoin: miter"/>
   </g>
   <g id="patch_6">
    <path d="M 140.381432 311.765625 
L 162.957061 311.765625 
L 162.957061 141.040625 
L 140.381432 141.040625 
z
" clip-path="url(#p3cb5586c4b)" style="fill: #4c72b0; fill-opacity: 0.5; stroke: #000000; stroke-linejoin: miter"/>
   </g>
   <g id="patch_7">
    <path d="M 162.957061 311.765625 
L 185.532689 311.765625 
L 185.532689 226.403125 
L 162.957061 226.403125 
z
" clip-path="url(#p3cb5586c4b)" style="fill: #4c72b0; fill-opacity: 0.5; stroke: #000000; stroke-linejoin: miter"/>
   </g>
   <g id="patch_8">
    <path d="M 185.532689 311.765625 
L 208.108318 311.765625 
L 208.108318 128.845982 
L 185.532689 128.845982 
z
" clip-path="url(#p3cb5586c4b)" style="fill: #4c72b0; fill-opacity: 0.5; stroke: #000000; stroke-linejoin: miter"/>
   </g>
   <g id="patch_9">
    <path d="M 208.108318 311.765625 
L 230.683947 311.765625 
L 230.683947 92.262054 
L 208.108318 92.262054 
z
" clip-path="url(#p3cb5586c4b)" style="fill: #4c72b0; fill-opacity: 0.5; stroke: #000000; stroke-linejoin: miter"/>
   </g>
   <g id="patch_10">
    <path d="M 230.683947 311.765625 
L 253.259576 311.765625 
L 253.259576 226.403125 
L 230.683947 226.403125 
z
" clip-path="url(#p3cb5586c4b)" style="fill: #4c72b0; fill-opacity: 0.5; stroke: #000000; stroke-linejoin: miter"/>
   </g>
   <g id="line2d_16">
    <path d="M 72.654545 270.837627 
L 75.377234 262.850783 
L 78.099923 253.925784 
L 80.822612 244.108999 
L 83.545301 233.488134 
L 87.175553 218.307203 
L 92.620931 194.244985 
L 98.066309 170.283013 
L 101.69656 155.369065 
L 104.419249 145.155387 
L 107.141938 136.014051 
L 108.957064 130.604315 
L 110.77219 125.791828 
L 112.587316 121.608555 
L 114.402442 118.076587 
L 116.217568 115.208025 
L 118.032694 113.005128 
L 118.940257 112.151412 
L 119.84782 111.46071 
L 120.755383 110.930751 
L 121.662946 110.558757 
L 122.570509 110.341479 
L 123.478072 110.275224 
L 124.385635 110.355887 
L 125.293198 110.578986 
L 126.200761 110.9397 
L 127.108323 111.432897 
L 128.923449 112.794906 
L 130.738575 114.619209 
L 132.553701 116.857371 
L 134.368827 119.459412 
L 136.183953 122.374787 
L 138.906642 127.225763 
L 142.536894 134.332109 
L 148.889835 147.530059 
L 153.42765 156.773648 
L 157.057901 163.648348 
L 159.78059 168.335302 
L 162.503279 172.504795 
L 164.318405 174.946255 
L 166.133531 177.08232 
L 167.948657 178.884253 
L 169.763783 180.325069 
L 171.578909 181.380429 
L 173.394035 182.029665 
L 175.209161 182.256891 
L 177.024287 182.052131 
L 178.839413 181.412378 
L 180.654539 180.342515 
L 182.469664 178.856037 
L 184.28479 176.975494 
L 186.099916 174.732632 
L 187.915042 172.16821 
L 190.637731 167.828505 
L 194.267983 161.437578 
L 199.713361 151.686619 
L 202.43605 147.280561 
L 204.251176 144.685512 
L 206.066302 142.44454 
L 207.881428 140.62093 
L 209.696553 139.271899 
L 210.604116 138.791335 
L 211.511679 138.447648 
L 212.419242 138.245884 
L 213.326805 138.190559 
L 214.234368 138.285639 
L 215.141931 138.534524 
L 216.049494 138.940034 
L 216.957057 139.504396 
L 217.86462 140.229236 
L 218.772183 141.115569 
L 220.587309 143.373685 
L 222.402435 146.27448 
L 224.217561 149.803791 
L 226.032687 153.937726 
L 227.847813 158.643036 
L 229.662939 163.877678 
L 232.385628 172.610689 
L 235.108317 182.223052 
L 238.738568 196.018529 
L 250.536887 242.118812 
L 253.259576 251.77395 
L 253.259576 251.77395 
" clip-path="url(#p3cb5586c4b)" style="fill: none; stroke: #4c72b0; stroke-width: 1.5; stroke-linecap: round"/>
   </g>
   <g id="line2d_17">
    <path d="M 167.959421 311.765625 
L 167.959421 55.678125 
" clip-path="url(#p3cb5586c4b)" style="fill: none; stroke-dasharray: 5.55,2.4; stroke-dashoffset: 0; stroke: #55a868; stroke-width: 1.5"/>
   </g>
   <g id="patch_11">
    <path d="M 55.8 311.765625 
L 55.8 55.678125 
" style="fill: none; stroke: #cccccc; stroke-width: 1.25; stroke-linejoin: miter; stroke-linecap: square"/>
   </g>
   <g id="patch_12">
    <path d="M 426.6 311.765625 
L 426.6 55.678125 
" style="fill: none; stroke: #cccccc; stroke-width: 1.25; stroke-linejoin: miter; stroke-linecap: square"/>
   </g>
   <g id="patch_13">
    <path d="M 55.8 311.765625 
L 426.6 311.765625 
" style="fill: none; stroke: #cccccc; stroke-width: 1.25; stroke-linejoin: miter; stroke-linecap: square"/>
   </g>
   <g id="patch_14">
    <path d="M 55.8 55.678125 
L 426.6 55.678125 
" style="fill: none; stroke: #cccccc; stroke-width: 1.25; stroke-linejoin: miter; stroke-linecap: square"/>
   </g>
   <g id="text_11">
    <!-- OLS ($\mu = 141.5044, \sigma = 68.9359$) -->
    <g style="fill: #262626" transform="translate(128.92 49.678125) scale(0.14 -0.14)">
     <defs>
      <path id="ArialMT-4f" d="M 309 2231 
Q 309 3372 921 4017 
Q 1534 4663 2503 4663 
Q 3138 4663 3647 4359 
Q 4156 4056 4423 3514 
Q 4691 2972 4691 2284 
Q 4691 1588 4409 1038 
Q 4128 488 3612 205 
Q 3097 -78 2500 -78 
Q 1853 -78 1343 234 
Q 834 547 571 1087 
Q 309 1628 309 2231 
z
M 934 2222 
Q 934 1394 1379 917 
Q 1825 441 2497 441 
Q 3181 441 3623 922 
Q 4066 1403 4066 2288 
Q 4066 2847 3877 3264 
Q 3688 3681 3323 3911 
Q 2959 4141 2506 4141 
Q 1863 4141 1398 3698 
Q 934 3256 934 2222 
z
" transform="scale(0.015625)"/>
      <path id="ArialMT-4c" d="M 469 0 
L 469 4581 
L 1075 4581 
L 1075 541 
L 3331 541 
L 3331 0 
L 469 0 
z
" transform="scale(0.015625)"/>
      <path id="ArialMT-53" d="M 288 1472 
L 859 1522 
Q 900 1178 1048 958 
Q 1197 738 1509 602 
Q 1822 466 2213 466 
Q 2559 466 2825 569 
Q 3091 672 3220 851 
Q 3350 1031 3350 1244 
Q 3350 1459 3225 1620 
Q 3100 1781 2813 1891 
Q 2628 1963 1997 2114 
Q 1366 2266 1113 2400 
Q 784 2572 623 2826 
Q 463 3081 463 3397 
Q 463 3744 659 4045 
Q 856 4347 1234 4503 
Q 1613 4659 2075 4659 
Q 2584 4659 2973 4495 
Q 3363 4331 3572 4012 
Q 3781 3694 3797 3291 
L 3216 3247 
Q 3169 3681 2898 3903 
Q 2628 4125 2100 4125 
Q 1550 4125 1298 3923 
Q 1047 3722 1047 3438 
Q 1047 3191 1225 3031 
Q 1400 2872 2139 2705 
Q 2878 2538 3153 2413 
Q 3553 2228 3743 1945 
Q 3934 1663 3934 1294 
Q 3934 928 3725 604 
Q 3516 281 3123 101 
Q 2731 -78 2241 -78 
Q 1619 -78 1198 103 
Q 778 284 539 648 
Q 300 1013 288 1472 
z
" transform="scale(0.015625)"/>
      <path id="ArialMT-20" transform="scale(0.015625)"/>
      <path id="ArialMT-28" d="M 1497 -1347 
Q 1031 -759 709 28 
Q 388 816 388 1659 
Q 388 2403 628 3084 
Q 909 3875 1497 4659 
L 1900 4659 
Q 1522 4009 1400 3731 
Q 1209 3300 1100 2831 
Q 966 2247 966 1656 
Q 966 153 1900 -1347 
L 1497 -1347 
z
" transform="scale(0.015625)"/>
      <path id="DejaVuSans-Oblique-3bc" d="M -84 -1331 
L 856 3500 
L 1434 3500 
L 1009 1322 
Q 997 1256 987 1175 
Q 978 1094 978 1013 
Q 978 722 1161 565 
Q 1344 409 1684 409 
Q 2147 409 2431 671 
Q 2716 934 2816 1459 
L 3213 3500 
L 3788 3500 
L 3266 809 
Q 3253 750 3248 706 
Q 3244 663 3244 628 
Q 3244 531 3283 486 
Q 3322 441 3406 441 
Q 3438 441 3492 456 
Q 3547 472 3647 513 
L 3559 50 
Q 3422 -19 3297 -55 
Q 3172 -91 3053 -91 
Q 2847 -91 2730 40 
Q 2613 172 2613 403 
Q 2438 153 2195 31 
Q 1953 -91 1625 -91 
Q 1334 -91 1117 43 
Q 900 178 831 397 
L 494 -1331 
L -84 -1331 
z
" transform="scale(0.015625)"/>
      <path id="DejaVuSans-3d" d="M 678 2906 
L 4684 2906 
L 4684 2381 
L 678 2381 
L 678 2906 
z
M 678 1631 
L 4684 1631 
L 4684 1100 
L 678 1100 
L 678 1631 
z
" transform="scale(0.015625)"/>
      <path id="DejaVuSans-31" d="M 794 531 
L 1825 531 
L 1825 4091 
L 703 3866 
L 703 4441 
L 1819 4666 
L 2450 4666 
L 2450 531 
L 3481 531 
L 3481 0 
L 794 0 
L 794 531 
z
" transform="scale(0.015625)"/>
      <path id="DejaVuSans-34" d="M 2419 4116 
L 825 1625 
L 2419 1625 
L 2419 4116 
z
M 2253 4666 
L 3047 4666 
L 3047 1625 
L 3713 1625 
L 3713 1100 
L 3047 1100 
L 3047 0 
L 2419 0 
L 2419 1100 
L 313 1100 
L 313 1709 
L 2253 4666 
z
" transform="scale(0.015625)"/>
      <path id="DejaVuSans-2e" d="M 684 794 
L 1344 794 
L 1344 0 
L 684 0 
L 684 794 
z
" transform="scale(0.015625)"/>
      <path id="DejaVuSans-35" d="M 691 4666 
L 3169 4666 
L 3169 4134 
L 1269 4134 
L 1269 2991 
Q 1406 3038 1543 3061 
Q 1681 3084 1819 3084 
Q 2600 3084 3056 2656 
Q 3513 2228 3513 1497 
Q 3513 744 3044 326 
Q 2575 -91 1722 -91 
Q 1428 -91 1123 -41 
Q 819 9 494 109 
L 494 744 
Q 775 591 1075 516 
Q 1375 441 1709 441 
Q 2250 441 2565 725 
Q 2881 1009 2881 1497 
Q 2881 1984 2565 2268 
Q 2250 2553 1709 2553 
Q 1456 2553 1204 2497 
Q 953 2441 691 2322 
L 691 4666 
z
" transform="scale(0.015625)"/>
      <path id="DejaVuSans-30" d="M 2034 4250 
Q 1547 4250 1301 3770 
Q 1056 3291 1056 2328 
Q 1056 1369 1301 889 
Q 1547 409 2034 409 
Q 2525 409 2770 889 
Q 3016 1369 3016 2328 
Q 3016 3291 2770 3770 
Q 2525 4250 2034 4250 
z
M 2034 4750 
Q 2819 4750 3233 4129 
Q 3647 3509 3647 2328 
Q 3647 1150 3233 529 
Q 2819 -91 2034 -91 
Q 1250 -91 836 529 
Q 422 1150 422 2328 
Q 422 3509 836 4129 
Q 1250 4750 2034 4750 
z
" transform="scale(0.015625)"/>
      <path id="DejaVuSans-2c" d="M 750 794 
L 1409 794 
L 1409 256 
L 897 -744 
L 494 -744 
L 750 256 
L 750 794 
z
" transform="scale(0.015625)"/>
      <path id="DejaVuSans-Oblique-3c3" d="M 2219 3044 
Q 1744 3044 1422 2700 
Q 1081 2341 969 1747 
Q 844 1119 1044 756 
Q 1241 397 1706 397 
Q 2166 397 2503 759 
Q 2844 1122 2966 1747 
Q 3075 2319 2881 2700 
Q 2700 3044 2219 3044 
z
M 2309 3503 
L 4219 3500 
L 4106 2925 
L 3463 2925 
Q 3706 2438 3575 1747 
Q 3406 888 2884 400 
Q 2359 -91 1609 -91 
Q 856 -91 525 400 
Q 194 888 363 1747 
Q 528 2609 1050 3097 
Q 1484 3503 2309 3503 
z
" transform="scale(0.015625)"/>
      <path id="DejaVuSans-36" d="M 2113 2584 
Q 1688 2584 1439 2293 
Q 1191 2003 1191 1497 
Q 1191 994 1439 701 
Q 1688 409 2113 409 
Q 2538 409 2786 701 
Q 3034 994 3034 1497 
Q 3034 2003 2786 2293 
Q 2538 2584 2113 2584 
z
M 3366 4563 
L 3366 3988 
Q 3128 4100 2886 4159 
Q 2644 4219 2406 4219 
Q 1781 4219 1451 3797 
Q 1122 3375 1075 2522 
Q 1259 2794 1537 2939 
Q 1816 3084 2150 3084 
Q 2853 3084 3261 2657 
Q 3669 2231 3669 1497 
Q 3669 778 3244 343 
Q 2819 -91 2113 -91 
Q 1303 -91 875 529 
Q 447 1150 447 2328 
Q 447 3434 972 4092 
Q 1497 4750 2381 4750 
Q 2619 4750 2861 4703 
Q 3103 4656 3366 4563 
z
" transform="scale(0.015625)"/>
      <path id="DejaVuSans-38" d="M 2034 2216 
Q 1584 2216 1326 1975 
Q 1069 1734 1069 1313 
Q 1069 891 1326 650 
Q 1584 409 2034 409 
Q 2484 409 2743 651 
Q 3003 894 3003 1313 
Q 3003 1734 2745 1975 
Q 2488 2216 2034 2216 
z
M 1403 2484 
Q 997 2584 770 2862 
Q 544 3141 544 3541 
Q 544 4100 942 4425 
Q 1341 4750 2034 4750 
Q 2731 4750 3128 4425 
Q 3525 4100 3525 3541 
Q 3525 3141 3298 2862 
Q 3072 2584 2669 2484 
Q 3125 2378 3379 2068 
Q 3634 1759 3634 1313 
Q 3634 634 3220 271 
Q 2806 -91 2034 -91 
Q 1263 -91 848 271 
Q 434 634 434 1313 
Q 434 1759 690 2068 
Q 947 2378 1403 2484 
z
M 1172 3481 
Q 1172 3119 1398 2916 
Q 1625 2713 2034 2713 
Q 2441 2713 2670 2916 
Q 2900 3119 2900 3481 
Q 2900 3844 2670 4047 
Q 2441 4250 2034 4250 
Q 1625 4250 1398 4047 
Q 1172 3844 1172 3481 
z
" transform="scale(0.015625)"/>
      <path id="DejaVuSans-39" d="M 703 97 
L 703 672 
Q 941 559 1184 500 
Q 1428 441 1663 441 
Q 2288 441 2617 861 
Q 2947 1281 2994 2138 
Q 2813 1869 2534 1725 
Q 2256 1581 1919 1581 
Q 1219 1581 811 2004 
Q 403 2428 403 3163 
Q 403 3881 828 4315 
Q 1253 4750 1959 4750 
Q 2769 4750 3195 4129 
Q 3622 3509 3622 2328 
Q 3622 1225 3098 567 
Q 2575 -91 1691 -91 
Q 1453 -91 1209 -44 
Q 966 3 703 97 
z
M 1959 2075 
Q 2384 2075 2632 2365 
Q 2881 2656 2881 3163 
Q 2881 3666 2632 3958 
Q 2384 4250 1959 4250 
Q 1534 4250 1286 3958 
Q 1038 3666 1038 3163 
Q 1038 2656 1286 2365 
Q 1534 2075 1959 2075 
z
" transform="scale(0.015625)"/>
      <path id="DejaVuSans-33" d="M 2597 2516 
Q 3050 2419 3304 2112 
Q 3559 1806 3559 1356 
Q 3559 666 3084 287 
Q 2609 -91 1734 -91 
Q 1441 -91 1130 -33 
Q 819 25 488 141 
L 488 750 
Q 750 597 1062 519 
Q 1375 441 1716 441 
Q 2309 441 2620 675 
Q 2931 909 2931 1356 
Q 2931 1769 2642 2001 
Q 2353 2234 1838 2234 
L 1294 2234 
L 1294 2753 
L 1863 2753 
Q 2328 2753 2575 2939 
Q 2822 3125 2822 3475 
Q 2822 3834 2567 4026 
Q 2313 4219 1838 4219 
Q 1578 4219 1281 4162 
Q 984 4106 628 3988 
L 628 4550 
Q 988 4650 1302 4700 
Q 1616 4750 1894 4750 
Q 2613 4750 3031 4423 
Q 3450 4097 3450 3541 
Q 3450 3153 3228 2886 
Q 3006 2619 2597 2516 
z
" transform="scale(0.015625)"/>
      <path id="ArialMT-29" d="M 791 -1347 
L 388 -1347 
Q 1322 153 1322 1656 
Q 1322 2244 1188 2822 
Q 1081 3291 891 3722 
Q 769 4003 388 4659 
L 791 4659 
Q 1378 3875 1659 3084 
Q 1900 2403 1900 1659 
Q 1900 816 1576 28 
Q 1253 -759 791 -1347 
z
" transform="scale(0.015625)"/>
     </defs>
     <use xlink:href="#ArialMT-4f" transform="translate(0 0.78125)"/>
     <use xlink:href="#ArialMT-4c" transform="translate(77.783203 0.78125)"/>
     <use xlink:href="#ArialMT-53" transform="translate(133.398438 0.78125)"/>
     <use xlink:href="#ArialMT-20" transform="translate(200.097656 0.78125)"/>
     <use xlink:href="#ArialMT-28" transform="translate(227.880859 0.78125)"/>
     <use xlink:href="#DejaVuSans-Oblique-3bc" transform="translate(261.181641 0.78125)"/>
     <use xlink:href="#DejaVuSans-3d" transform="translate(344.287109 0.78125)"/>
     <use xlink:href="#DejaVuSans-31" transform="translate(447.558594 0.78125)"/>
     <use xlink:href="#DejaVuSans-34" transform="translate(511.181641 0.78125)"/>
     <use xlink:href="#DejaVuSans-31" transform="translate(574.804688 0.78125)"/>
     <use xlink:href="#DejaVuSans-2e" transform="translate(638.427734 0.78125)"/>
     <use xlink:href="#DejaVuSans-35" transform="translate(670.214844 0.78125)"/>
     <use xlink:href="#DejaVuSans-30" transform="translate(733.837891 0.78125)"/>
     <use xlink:href="#DejaVuSans-34" transform="translate(797.460938 0.78125)"/>
     <use xlink:href="#DejaVuSans-34" transform="translate(861.083984 0.78125)"/>
     <use xlink:href="#DejaVuSans-2c" transform="translate(924.707031 0.78125)"/>
     <use xlink:href="#DejaVuSans-Oblique-3c3" transform="translate(975.976562 0.78125)"/>
     <use xlink:href="#DejaVuSans-3d" transform="translate(1058.837891 0.78125)"/>
     <use xlink:href="#DejaVuSans-36" transform="translate(1162.109375 0.78125)"/>
     <use xlink:href="#DejaVuSans-38" transform="translate(1225.732422 0.78125)"/>
     <use xlink:href="#DejaVuSans-2e" transform="translate(1289.355469 0.78125)"/>
     <use xlink:href="#DejaVuSans-39" transform="translate(1321.142578 0.78125)"/>
     <use xlink:href="#DejaVuSans-33" transform="translate(1384.765625 0.78125)"/>
     <use xlink:href="#DejaVuSans-35" transform="translate(1448.388672 0.78125)"/>
     <use xlink:href="#DejaVuSans-39" transform="translate(1506.511719 0.78125)"/>
     <use xlink:href="#ArialMT-29" transform="translate(1570.134766 0.78125)"/>
    </g>
   </g>
   <g id="legend_1">
    <g id="patch_15">
     <path d="M 311.564062 80.037969 
L 418.9 80.037969 
Q 421.1 80.037969 421.1 77.837969 
L 421.1 63.378125 
Q 421.1 61.178125 418.9 61.178125 
L 311.564062 61.178125 
Q 309.364062 61.178125 309.364062 63.378125 
L 309.364062 77.837969 
Q 309.364062 80.037969 311.564062 80.037969 
z
" style="fill: #ffffff; opacity: 0.8; stroke: #cccccc; stroke-linejoin: miter"/>
    </g>
    <g id="line2d_18">
     <path d="M 313.764062 69.601719 
L 324.764062 69.601719 
L 335.764062 69.601719 
" style="fill: none; stroke-dasharray: 5.55,2.4; stroke-dashoffset: 0; stroke: #55a868; stroke-width: 1.5"/>
    </g>
    <g id="text_12">
     <!-- Pop. Estimator -->
     <g style="fill: #262626" transform="translate(344.564062 73.451719) scale(0.11 -0.11)">
      <defs>
       <path id="ArialMT-50" d="M 494 0 
L 494 4581 
L 2222 4581 
Q 2678 4581 2919 4538 
Q 3256 4481 3484 4323 
Q 3713 4166 3852 3881 
Q 3991 3597 3991 3256 
Q 3991 2672 3619 2267 
Q 3247 1863 2275 1863 
L 1100 1863 
L 1100 0 
L 494 0 
z
M 1100 2403 
L 2284 2403 
Q 2872 2403 3119 2622 
Q 3366 2841 3366 3238 
Q 3366 3525 3220 3729 
Q 3075 3934 2838 4000 
Q 2684 4041 2272 4041 
L 1100 4041 
L 1100 2403 
z
" transform="scale(0.015625)"/>
       <path id="ArialMT-70" d="M 422 -1272 
L 422 3319 
L 934 3319 
L 934 2888 
Q 1116 3141 1344 3267 
Q 1572 3394 1897 3394 
Q 2322 3394 2647 3175 
Q 2972 2956 3137 2557 
Q 3303 2159 3303 1684 
Q 3303 1175 3120 767 
Q 2938 359 2589 142 
Q 2241 -75 1856 -75 
Q 1575 -75 1351 44 
Q 1128 163 984 344 
L 984 -1272 
L 422 -1272 
z
M 931 1641 
Q 931 1000 1190 694 
Q 1450 388 1819 388 
Q 2194 388 2461 705 
Q 2728 1022 2728 1688 
Q 2728 2322 2467 2637 
Q 2206 2953 1844 2953 
Q 1484 2953 1207 2617 
Q 931 2281 931 1641 
z
" transform="scale(0.015625)"/>
       <path id="ArialMT-45" d="M 506 0 
L 506 4581 
L 3819 4581 
L 3819 4041 
L 1113 4041 
L 1113 2638 
L 3647 2638 
L 3647 2100 
L 1113 2100 
L 1113 541 
L 3925 541 
L 3925 0 
L 506 0 
z
" transform="scale(0.015625)"/>
       <path id="ArialMT-73" d="M 197 991 
L 753 1078 
Q 800 744 1014 566 
Q 1228 388 1613 388 
Q 2000 388 2187 545 
Q 2375 703 2375 916 
Q 2375 1106 2209 1216 
Q 2094 1291 1634 1406 
Q 1016 1563 777 1677 
Q 538 1791 414 1992 
Q 291 2194 291 2438 
Q 291 2659 392 2848 
Q 494 3038 669 3163 
Q 800 3259 1026 3326 
Q 1253 3394 1513 3394 
Q 1903 3394 2198 3281 
Q 2494 3169 2634 2976 
Q 2775 2784 2828 2463 
L 2278 2388 
Q 2241 2644 2061 2787 
Q 1881 2931 1553 2931 
Q 1166 2931 1000 2803 
Q 834 2675 834 2503 
Q 834 2394 903 2306 
Q 972 2216 1119 2156 
Q 1203 2125 1616 2013 
Q 2213 1853 2448 1751 
Q 2684 1650 2818 1456 
Q 2953 1263 2953 975 
Q 2953 694 2789 445 
Q 2625 197 2315 61 
Q 2006 -75 1616 -75 
Q 969 -75 630 194 
Q 291 463 197 991 
z
" transform="scale(0.015625)"/>
       <path id="ArialMT-69" d="M 425 3934 
L 425 4581 
L 988 4581 
L 988 3934 
L 425 3934 
z
M 425 0 
L 425 3319 
L 988 3319 
L 988 0 
L 425 0 
z
" transform="scale(0.015625)"/>
       <path id="ArialMT-6d" d="M 422 0 
L 422 3319 
L 925 3319 
L 925 2853 
Q 1081 3097 1340 3245 
Q 1600 3394 1931 3394 
Q 2300 3394 2536 3241 
Q 2772 3088 2869 2813 
Q 3263 3394 3894 3394 
Q 4388 3394 4653 3120 
Q 4919 2847 4919 2278 
L 4919 0 
L 4359 0 
L 4359 2091 
Q 4359 2428 4304 2576 
Q 4250 2725 4106 2815 
Q 3963 2906 3769 2906 
Q 3419 2906 3187 2673 
Q 2956 2441 2956 1928 
L 2956 0 
L 2394 0 
L 2394 2156 
Q 2394 2531 2256 2718 
Q 2119 2906 1806 2906 
Q 1569 2906 1367 2781 
Q 1166 2656 1075 2415 
Q 984 2175 984 1722 
L 984 0 
L 422 0 
z
" transform="scale(0.015625)"/>
       <path id="ArialMT-61" d="M 2588 409 
Q 2275 144 1986 34 
Q 1697 -75 1366 -75 
Q 819 -75 525 192 
Q 231 459 231 875 
Q 231 1119 342 1320 
Q 453 1522 633 1644 
Q 813 1766 1038 1828 
Q 1203 1872 1538 1913 
Q 2219 1994 2541 2106 
Q 2544 2222 2544 2253 
Q 2544 2597 2384 2738 
Q 2169 2928 1744 2928 
Q 1347 2928 1158 2789 
Q 969 2650 878 2297 
L 328 2372 
Q 403 2725 575 2942 
Q 747 3159 1072 3276 
Q 1397 3394 1825 3394 
Q 2250 3394 2515 3294 
Q 2781 3194 2906 3042 
Q 3031 2891 3081 2659 
Q 3109 2516 3109 2141 
L 3109 1391 
Q 3109 606 3145 398 
Q 3181 191 3288 0 
L 2700 0 
Q 2613 175 2588 409 
z
M 2541 1666 
Q 2234 1541 1622 1453 
Q 1275 1403 1131 1340 
Q 988 1278 909 1158 
Q 831 1038 831 891 
Q 831 666 1001 516 
Q 1172 366 1500 366 
Q 1825 366 2078 508 
Q 2331 650 2450 897 
Q 2541 1088 2541 1459 
L 2541 1666 
z
" transform="scale(0.015625)"/>
       <path id="ArialMT-72" d="M 416 0 
L 416 3319 
L 922 3319 
L 922 2816 
Q 1116 3169 1280 3281 
Q 1444 3394 1641 3394 
Q 1925 3394 2219 3213 
L 2025 2691 
Q 1819 2813 1613 2813 
Q 1428 2813 1281 2702 
Q 1134 2591 1072 2394 
Q 978 2094 978 1738 
L 978 0 
L 416 0 
z
" transform="scale(0.015625)"/>
      </defs>
      <use xlink:href="#ArialMT-50"/>
      <use xlink:href="#ArialMT-6f" x="66.699219"/>
      <use xlink:href="#ArialMT-70" x="122.314453"/>
      <use xlink:href="#ArialMT-2e" x="177.929688"/>
      <use xlink:href="#ArialMT-20" x="205.712891"/>
      <use xlink:href="#ArialMT-45" x="233.496094"/>
      <use xlink:href="#ArialMT-73" x="300.195312"/>
      <use xlink:href="#ArialMT-74" x="350.195312"/>
      <use xlink:href="#ArialMT-69" x="377.978516"/>
      <use xlink:href="#ArialMT-6d" x="400.195312"/>
      <use xlink:href="#ArialMT-61" x="483.496094"/>
      <use xlink:href="#ArialMT-74" x="539.111328"/>
      <use xlink:href="#ArialMT-6f" x="566.894531"/>
      <use xlink:href="#ArialMT-72" x="622.509766"/>
     </g>
    </g>
   </g>
  </g>
  <g id="axes_2">
   <g id="patch_16">
    <path d="M 482.4 311.765625 
L 853.2 311.765625 
L 853.2 55.678125 
L 482.4 55.678125 
z
" style="fill: #ffffff"/>
   </g>
   <g id="matplotlib.axis_3">
    <g id="xtick_7">
     <g id="line2d_19">
      <path d="M 492.291903 311.765625 
L 492.291903 55.678125 
" clip-path="url(#p0f3ca9e291)" style="fill: none; stroke: #cccccc; stroke-linecap: round"/>
     </g>
    </g>
    <g id="xtick_8">
     <g id="line2d_20">
      <path d="M 561.637256 311.765625 
L 561.637256 55.678125 
" clip-path="url(#p0f3ca9e291)" style="fill: none; stroke: #cccccc; stroke-linecap: round"/>
     </g>
    </g>
    <g id="xtick_9">
     <g id="line2d_21">
      <path d="M 630.982609 311.765625 
L 630.982609 55.678125 
" clip-path="url(#p0f3ca9e291)" style="fill: none; stroke: #cccccc; stroke-linecap: round"/>
     </g>
    </g>
    <g id="xtick_10">
     <g id="line2d_22">
      <path d="M 700.327962 311.765625 
L 700.327962 55.678125 
" clip-path="url(#p0f3ca9e291)" style="fill: none; stroke: #cccccc; stroke-linecap: round"/>
     </g>
    </g>
    <g id="xtick_11">
     <g id="line2d_23">
      <path d="M 769.673315 311.765625 
L 769.673315 55.678125 
" clip-path="url(#p0f3ca9e291)" style="fill: none; stroke: #cccccc; stroke-linecap: round"/>
     </g>
    </g>
    <g id="xtick_12">
     <g id="line2d_24">
      <path d="M 839.018668 311.765625 
L 839.018668 55.678125 
" clip-path="url(#p0f3ca9e291)" style="fill: none; stroke: #cccccc; stroke-linecap: round"/>
     </g>
    </g>
   </g>
   <g id="matplotlib.axis_4">
    <g id="ytick_10">
     <g id="line2d_25">
      <path d="M 482.4 311.765625 
L 853.2 311.765625 
" clip-path="url(#p0f3ca9e291)" style="fill: none; stroke: #cccccc; stroke-linecap: round"/>
     </g>
     <g id="text_13">
      <!-- 0.0 -->
      <g style="fill: #262626" transform="translate(457.61 315.702422) scale(0.11 -0.11)">
       <use xlink:href="#ArialMT-30"/>
       <use xlink:href="#ArialMT-2e" x="55.615234"/>
       <use xlink:href="#ArialMT-30" x="83.398438"/>
      </g>
     </g>
    </g>
    <g id="ytick_11">
     <g id="line2d_26">
      <path d="M 482.4 277.891617 
L 853.2 277.891617 
" clip-path="url(#p0f3ca9e291)" style="fill: none; stroke: #cccccc; stroke-linecap: round"/>
     </g>
     <g id="text_14">
      <!-- 2.5 -->
      <g style="fill: #262626" transform="translate(457.61 281.828414) scale(0.11 -0.11)">
       <use xlink:href="#ArialMT-32"/>
       <use xlink:href="#ArialMT-2e" x="55.615234"/>
       <use xlink:href="#ArialMT-35" x="83.398438"/>
      </g>
     </g>
    </g>
    <g id="ytick_12">
     <g id="line2d_27">
      <path d="M 482.4 244.017609 
L 853.2 244.017609 
" clip-path="url(#p0f3ca9e291)" style="fill: none; stroke: #cccccc; stroke-linecap: round"/>
     </g>
     <g id="text_15">
      <!-- 5.0 -->
      <g style="fill: #262626" transform="translate(457.61 247.954406) scale(0.11 -0.11)">
       <use xlink:href="#ArialMT-35"/>
       <use xlink:href="#ArialMT-2e" x="55.615234"/>
       <use xlink:href="#ArialMT-30" x="83.398438"/>
      </g>
     </g>
    </g>
    <g id="ytick_13">
     <g id="line2d_28">
      <path d="M 482.4 210.143601 
L 853.2 210.143601 
" clip-path="url(#p0f3ca9e291)" style="fill: none; stroke: #cccccc; stroke-linecap: round"/>
     </g>
     <g id="text_16">
      <!-- 7.5 -->
      <g style="fill: #262626" transform="translate(457.61 214.080398) scale(0.11 -0.11)">
       <use xlink:href="#ArialMT-37"/>
       <use xlink:href="#ArialMT-2e" x="55.615234"/>
       <use xlink:href="#ArialMT-35" x="83.398438"/>
      </g>
     </g>
    </g>
    <g id="ytick_14">
     <g id="line2d_29">
      <path d="M 482.4 176.269593 
L 853.2 176.269593 
" clip-path="url(#p0f3ca9e291)" style="fill: none; stroke: #cccccc; stroke-linecap: round"/>
     </g>
     <g id="text_17">
      <!-- 10.0 -->
      <g style="fill: #262626" transform="translate(451.492969 180.20639) scale(0.11 -0.11)">
       <use xlink:href="#ArialMT-31"/>
       <use xlink:href="#ArialMT-30" x="55.615234"/>
       <use xlink:href="#ArialMT-2e" x="111.230469"/>
       <use xlink:href="#ArialMT-30" x="139.013672"/>
      </g>
     </g>
    </g>
    <g id="ytick_15">
     <g id="line2d_30">
      <path d="M 482.4 142.395585 
L 853.2 142.395585 
" clip-path="url(#p0f3ca9e291)" style="fill: none; stroke: #cccccc; stroke-linecap: round"/>
     </g>
     <g id="text_18">
      <!-- 12.5 -->
      <g style="fill: #262626" transform="translate(451.492969 146.332382) scale(0.11 -0.11)">
       <use xlink:href="#ArialMT-31"/>
       <use xlink:href="#ArialMT-32" x="55.615234"/>
       <use xlink:href="#ArialMT-2e" x="111.230469"/>
       <use xlink:href="#ArialMT-35" x="139.013672"/>
      </g>
     </g>
    </g>
    <g id="ytick_16">
     <g id="line2d_31">
      <path d="M 482.4 108.521577 
L 853.2 108.521577 
" clip-path="url(#p0f3ca9e291)" style="fill: none; stroke: #cccccc; stroke-linecap: round"/>
     </g>
     <g id="text_19">
      <!-- 15.0 -->
      <g style="fill: #262626" transform="translate(451.492969 112.458374) scale(0.11 -0.11)">
       <use xlink:href="#ArialMT-31"/>
       <use xlink:href="#ArialMT-35" x="55.615234"/>
       <use xlink:href="#ArialMT-2e" x="111.230469"/>
       <use xlink:href="#ArialMT-30" x="139.013672"/>
      </g>
     </g>
    </g>
    <g id="ytick_17">
     <g id="line2d_32">
      <path d="M 482.4 74.647569 
L 853.2 74.647569 
" clip-path="url(#p0f3ca9e291)" style="fill: none; stroke: #cccccc; stroke-linecap: round"/>
     </g>
     <g id="text_20">
      <!-- 17.5 -->
      <g style="fill: #262626" transform="translate(451.492969 78.584366) scale(0.11 -0.11)">
       <use xlink:href="#ArialMT-31"/>
       <use xlink:href="#ArialMT-37" x="55.615234"/>
       <use xlink:href="#ArialMT-2e" x="111.230469"/>
       <use xlink:href="#ArialMT-35" x="139.013672"/>
      </g>
     </g>
    </g>
    <g id="text_21">
     <!-- Count -->
     <g style="fill: #262626" transform="translate(445.107969 199.731562) rotate(-90) scale(0.12 -0.12)">
      <use xlink:href="#ArialMT-43"/>
      <use xlink:href="#ArialMT-6f" x="72.216797"/>
      <use xlink:href="#ArialMT-75" x="127.832031"/>
      <use xlink:href="#ArialMT-6e" x="183.447266"/>
      <use xlink:href="#ArialMT-74" x="239.0625"/>
     </g>
    </g>
   </g>
   <g id="patch_17">
    <path d="M 502.5701 311.765625 
L 517.140446 311.765625 
L 517.140446 257.567212 
L 502.5701 257.567212 
z
" clip-path="url(#p0f3ca9e291)" style="fill: #4c72b0; fill-opacity: 0.5; stroke: #000000; stroke-linejoin: miter"/>
   </g>
   <g id="patch_18">
    <path d="M 517.140446 311.765625 
L 531.710792 311.765625 
L 531.710792 94.971974 
L 517.140446 94.971974 
z
" clip-path="url(#p0f3ca9e291)" style="fill: #4c72b0; fill-opacity: 0.5; stroke: #000000; stroke-linejoin: miter"/>
   </g>
   <g id="patch_19">
    <path d="M 531.710792 311.765625 
L 546.281138 311.765625 
L 546.281138 67.872768 
L 531.710792 67.872768 
z
" clip-path="url(#p0f3ca9e291)" style="fill: #4c72b0; fill-opacity: 0.5; stroke: #000000; stroke-linejoin: miter"/>
   </g>
   <g id="patch_20">
    <path d="M 546.281138 311.765625 
L 560.851484 311.765625 
L 560.851484 81.422371 
L 546.281138 81.422371 
z
" clip-path="url(#p0f3ca9e291)" style="fill: #4c72b0; fill-opacity: 0.5; stroke: #000000; stroke-linejoin: miter"/>
   </g>
   <g id="patch_21">
    <path d="M 560.851484 311.765625 
L 575.421829 311.765625 
L 575.421829 122.071181 
L 560.851484 122.071181 
z
" clip-path="url(#p0f3ca9e291)" style="fill: #4c72b0; fill-opacity: 0.5; stroke: #000000; stroke-linejoin: miter"/>
   </g>
   <g id="patch_22">
    <path d="M 575.421829 311.765625 
L 589.992175 311.765625 
L 589.992175 162.71999 
L 575.421829 162.71999 
z
" clip-path="url(#p0f3ca9e291)" style="fill: #4c72b0; fill-opacity: 0.5; stroke: #000000; stroke-linejoin: miter"/>
   </g>
   <g id="patch_23">
    <path d="M 589.992175 311.765625 
L 604.562521 311.765625 
L 604.562521 189.819196 
L 589.992175 189.819196 
z
" clip-path="url(#p0f3ca9e291)" style="fill: #4c72b0; fill-opacity: 0.5; stroke: #000000; stroke-linejoin: miter"/>
   </g>
   <g id="patch_24">
    <path d="M 604.562521 311.765625 
L 619.132867 311.765625 
L 619.132867 162.71999 
L 604.562521 162.71999 
z
" clip-path="url(#p0f3ca9e291)" style="fill: #4c72b0; fill-opacity: 0.5; stroke: #000000; stroke-linejoin: miter"/>
   </g>
   <g id="line2d_33">
    <path d="M 502.5701 270.653561 
L 504.327328 262.804022 
L 506.084556 253.97696 
L 507.841783 244.166879 
L 510.184753 229.61129 
L 512.527724 213.540211 
L 515.456436 191.821997 
L 523.071089 134.042771 
L 525.41406 118.361118 
L 527.171287 107.892696 
L 528.928515 98.727547 
L 530.685742 90.979451 
L 531.857228 86.630113 
L 533.028713 82.936801 
L 534.200198 79.890168 
L 535.371683 77.471425 
L 536.543168 75.653766 
L 537.714653 74.40393 
L 538.886138 73.683788 
L 539.471881 73.509484 
L 540.643366 73.505478 
L 541.814851 73.924256 
L 542.986336 74.721732 
L 544.157821 75.854533 
L 545.329306 77.280696 
L 547.086534 79.882998 
L 548.843761 82.930465 
L 551.186732 87.49442 
L 554.701187 94.972685 
L 571.687721 132.492501 
L 579.888116 150.654688 
L 582.816829 156.609743 
L 585.745542 162.030663 
L 588.674255 166.885697 
L 591.602967 171.29215 
L 597.460393 179.93626 
L 599.803363 183.900676 
L 601.560591 187.26414 
L 603.317818 191.049464 
L 605.075046 195.31866 
L 606.832274 200.113565 
L 608.589501 205.452237 
L 610.932471 213.397953 
L 613.275442 222.196005 
L 616.204154 234.108553 
L 619.132867 246.55438 
L 619.132867 246.55438 
" clip-path="url(#p0f3ca9e291)" style="fill: none; stroke: #4c72b0; stroke-width: 1.5; stroke-linecap: round"/>
   </g>
   <g id="line2d_34">
    <path d="M 548.796121 311.765625 
L 548.796121 55.678125 
" clip-path="url(#p0f3ca9e291)" style="fill: none; stroke-dasharray: 5.55,2.4; stroke-dashoffset: 0; stroke: #55a868; stroke-width: 1.5"/>
   </g>
   <g id="patch_25">
    <path d="M 482.4 311.765625 
L 482.4 55.678125 
" style="fill: none; stroke: #cccccc; stroke-width: 1.25; stroke-linejoin: miter; stroke-linecap: square"/>
   </g>
   <g id="patch_26">
    <path d="M 853.2 311.765625 
L 853.2 55.678125 
" style="fill: none; stroke: #cccccc; stroke-width: 1.25; stroke-linejoin: miter; stroke-linecap: square"/>
   </g>
   <g id="patch_27">
    <path d="M 482.4 311.765625 
L 853.2 311.765625 
" style="fill: none; stroke: #cccccc; stroke-width: 1.25; stroke-linejoin: miter; stroke-linecap: square"/>
   </g>
   <g id="patch_28">
    <path d="M 482.4 55.678125 
L 853.2 55.678125 
" style="fill: none; stroke: #cccccc; stroke-width: 1.25; stroke-linejoin: miter; stroke-linecap: square"/>
   </g>
   <g id="text_22">
    <!-- LAD ($\mu = 96.8842, \sigma = 42.4558$) -->
    <g style="fill: #262626" transform="translate(560.14 49.678125) scale(0.14 -0.14)">
     <defs>
      <path id="ArialMT-41" d="M -9 0 
L 1750 4581 
L 2403 4581 
L 4278 0 
L 3588 0 
L 3053 1388 
L 1138 1388 
L 634 0 
L -9 0 
z
M 1313 1881 
L 2866 1881 
L 2388 3150 
Q 2169 3728 2063 4100 
Q 1975 3659 1816 3225 
L 1313 1881 
z
" transform="scale(0.015625)"/>
      <path id="ArialMT-44" d="M 494 0 
L 494 4581 
L 2072 4581 
Q 2606 4581 2888 4516 
Q 3281 4425 3559 4188 
Q 3922 3881 4101 3404 
Q 4281 2928 4281 2316 
Q 4281 1794 4159 1391 
Q 4038 988 3847 723 
Q 3656 459 3429 307 
Q 3203 156 2883 78 
Q 2563 0 2147 0 
L 494 0 
z
M 1100 541 
L 2078 541 
Q 2531 541 2789 625 
Q 3047 709 3200 863 
Q 3416 1078 3536 1442 
Q 3656 1806 3656 2325 
Q 3656 3044 3420 3430 
Q 3184 3816 2847 3947 
Q 2603 4041 2063 4041 
L 1100 4041 
L 1100 541 
z
" transform="scale(0.015625)"/>
      <path id="DejaVuSans-32" d="M 1228 531 
L 3431 531 
L 3431 0 
L 469 0 
L 469 531 
Q 828 903 1448 1529 
Q 2069 2156 2228 2338 
Q 2531 2678 2651 2914 
Q 2772 3150 2772 3378 
Q 2772 3750 2511 3984 
Q 2250 4219 1831 4219 
Q 1534 4219 1204 4116 
Q 875 4013 500 3803 
L 500 4441 
Q 881 4594 1212 4672 
Q 1544 4750 1819 4750 
Q 2544 4750 2975 4387 
Q 3406 4025 3406 3419 
Q 3406 3131 3298 2873 
Q 3191 2616 2906 2266 
Q 2828 2175 2409 1742 
Q 1991 1309 1228 531 
z
" transform="scale(0.015625)"/>
     </defs>
     <use xlink:href="#ArialMT-4c" transform="translate(0 0.78125)"/>
     <use xlink:href="#ArialMT-41" transform="translate(55.615234 0.78125)"/>
     <use xlink:href="#ArialMT-44" transform="translate(122.314453 0.78125)"/>
     <use xlink:href="#ArialMT-20" transform="translate(194.53125 0.78125)"/>
     <use xlink:href="#ArialMT-28" transform="translate(222.314453 0.78125)"/>
     <use xlink:href="#DejaVuSans-Oblique-3bc" transform="translate(255.615234 0.78125)"/>
     <use xlink:href="#DejaVuSans-3d" transform="translate(338.720703 0.78125)"/>
     <use xlink:href="#DejaVuSans-39" transform="translate(441.992188 0.78125)"/>
     <use xlink:href="#DejaVuSans-36" transform="translate(505.615234 0.78125)"/>
     <use xlink:href="#DejaVuSans-2e" transform="translate(569.238281 0.78125)"/>
     <use xlink:href="#DejaVuSans-38" transform="translate(598.400391 0.78125)"/>
     <use xlink:href="#DejaVuSans-38" transform="translate(662.023438 0.78125)"/>
     <use xlink:href="#DejaVuSans-34" transform="translate(725.646484 0.78125)"/>
     <use xlink:href="#DejaVuSans-32" transform="translate(789.269531 0.78125)"/>
     <use xlink:href="#DejaVuSans-2c" transform="translate(852.892578 0.78125)"/>
     <use xlink:href="#DejaVuSans-Oblique-3c3" transform="translate(904.162109 0.78125)"/>
     <use xlink:href="#DejaVuSans-3d" transform="translate(987.023438 0.78125)"/>
     <use xlink:href="#DejaVuSans-34" transform="translate(1090.294922 0.78125)"/>
     <use xlink:href="#DejaVuSans-32" transform="translate(1153.917969 0.78125)"/>
     <use xlink:href="#DejaVuSans-2e" transform="translate(1217.541016 0.78125)"/>
     <use xlink:href="#DejaVuSans-34" transform="translate(1249.328125 0.78125)"/>
     <use xlink:href="#DejaVuSans-35" transform="translate(1312.951172 0.78125)"/>
     <use xlink:href="#DejaVuSans-35" transform="translate(1376.574219 0.78125)"/>
     <use xlink:href="#DejaVuSans-38" transform="translate(1440.197266 0.78125)"/>
     <use xlink:href="#ArialMT-29" transform="translate(1503.820312 0.78125)"/>
    </g>
   </g>
   <g id="legend_2">
    <g id="patch_29">
     <path d="M 738.164062 80.037969 
L 845.5 80.037969 
Q 847.7 80.037969 847.7 77.837969 
L 847.7 63.378125 
Q 847.7 61.178125 845.5 61.178125 
L 738.164062 61.178125 
Q 735.964062 61.178125 735.964062 63.378125 
L 735.964062 77.837969 
Q 735.964062 80.037969 738.164062 80.037969 
z
" style="fill: #ffffff; opacity: 0.8; stroke: #cccccc; stroke-linejoin: miter"/>
    </g>
    <g id="line2d_35">
     <path d="M 740.364062 69.601719 
L 751.364062 69.601719 
L 762.364062 69.601719 
" style="fill: none; stroke-dasharray: 5.55,2.4; stroke-dashoffset: 0; stroke: #55a868; stroke-width: 1.5"/>
    </g>
    <g id="text_23">
     <!-- Pop. Estimator -->
     <g style="fill: #262626" transform="translate(771.164062 73.451719) scale(0.11 -0.11)">
      <use xlink:href="#ArialMT-50"/>
      <use xlink:href="#ArialMT-6f" x="66.699219"/>
      <use xlink:href="#ArialMT-70" x="122.314453"/>
      <use xlink:href="#ArialMT-2e" x="177.929688"/>
      <use xlink:href="#ArialMT-20" x="205.712891"/>
      <use xlink:href="#ArialMT-45" x="233.496094"/>
      <use xlink:href="#ArialMT-73" x="300.195312"/>
      <use xlink:href="#ArialMT-74" x="350.195312"/>
      <use xlink:href="#ArialMT-69" x="377.978516"/>
      <use xlink:href="#ArialMT-6d" x="400.195312"/>
      <use xlink:href="#ArialMT-61" x="483.496094"/>
      <use xlink:href="#ArialMT-74" x="539.111328"/>
      <use xlink:href="#ArialMT-6f" x="566.894531"/>
      <use xlink:href="#ArialMT-72" x="622.509766"/>
     </g>
    </g>
   </g>
  </g>
  <g id="axes_3">
   <g id="patch_30">
    <path d="M 55.8 603.653125 
L 426.6 603.653125 
L 426.6 347.565625 
L 55.8 347.565625 
z
" style="fill: #ffffff"/>
   </g>
   <g id="matplotlib.axis_5">
    <g id="xtick_13">
     <g id="line2d_36">
      <path d="M 65.691903 603.653125 
L 65.691903 347.565625 
" clip-path="url(#pba6552a2e8)" style="fill: none; stroke: #cccccc; stroke-linecap: round"/>
     </g>
     <g id="text_24">
      <!-- 0 -->
      <g style="fill: #262626" transform="translate(62.633387 621.026719) scale(0.11 -0.11)">
       <use xlink:href="#ArialMT-30"/>
      </g>
     </g>
    </g>
    <g id="xtick_14">
     <g id="line2d_37">
      <path d="M 135.037256 603.653125 
L 135.037256 347.565625 
" clip-path="url(#pba6552a2e8)" style="fill: none; stroke: #cccccc; stroke-linecap: round"/>
     </g>
     <g id="text_25">
      <!-- 100 -->
      <g style="fill: #262626" transform="translate(125.861709 621.026719) scale(0.11 -0.11)">
       <use xlink:href="#ArialMT-31"/>
       <use xlink:href="#ArialMT-30" x="55.615234"/>
       <use xlink:href="#ArialMT-30" x="111.230469"/>
      </g>
     </g>
    </g>
    <g id="xtick_15">
     <g id="line2d_38">
      <path d="M 204.382609 603.653125 
L 204.382609 347.565625 
" clip-path="url(#pba6552a2e8)" style="fill: none; stroke: #cccccc; stroke-linecap: round"/>
     </g>
     <g id="text_26">
      <!-- 200 -->
      <g style="fill: #262626" transform="translate(195.207062 621.026719) scale(0.11 -0.11)">
       <use xlink:href="#ArialMT-32"/>
       <use xlink:href="#ArialMT-30" x="55.615234"/>
       <use xlink:href="#ArialMT-30" x="111.230469"/>
      </g>
     </g>
    </g>
    <g id="xtick_16">
     <g id="line2d_39">
      <path d="M 273.727962 603.653125 
L 273.727962 347.565625 
" clip-path="url(#pba6552a2e8)" style="fill: none; stroke: #cccccc; stroke-linecap: round"/>
     </g>
     <g id="text_27">
      <!-- 300 -->
      <g style="fill: #262626" transform="translate(264.552415 621.026719) scale(0.11 -0.11)">
       <defs>
        <path id="ArialMT-33" d="M 269 1209 
L 831 1284 
Q 928 806 1161 595 
Q 1394 384 1728 384 
Q 2125 384 2398 659 
Q 2672 934 2672 1341 
Q 2672 1728 2419 1979 
Q 2166 2231 1775 2231 
Q 1616 2231 1378 2169 
L 1441 2663 
Q 1497 2656 1531 2656 
Q 1891 2656 2178 2843 
Q 2466 3031 2466 3422 
Q 2466 3731 2256 3934 
Q 2047 4138 1716 4138 
Q 1388 4138 1169 3931 
Q 950 3725 888 3313 
L 325 3413 
Q 428 3978 793 4289 
Q 1159 4600 1703 4600 
Q 2078 4600 2393 4439 
Q 2709 4278 2876 4000 
Q 3044 3722 3044 3409 
Q 3044 3113 2884 2869 
Q 2725 2625 2413 2481 
Q 2819 2388 3044 2092 
Q 3269 1797 3269 1353 
Q 3269 753 2831 336 
Q 2394 -81 1725 -81 
Q 1122 -81 723 278 
Q 325 638 269 1209 
z
" transform="scale(0.015625)"/>
       </defs>
       <use xlink:href="#ArialMT-33"/>
       <use xlink:href="#ArialMT-30" x="55.615234"/>
       <use xlink:href="#ArialMT-30" x="111.230469"/>
      </g>
     </g>
    </g>
    <g id="xtick_17">
     <g id="line2d_40">
      <path d="M 343.073315 603.653125 
L 343.073315 347.565625 
" clip-path="url(#pba6552a2e8)" style="fill: none; stroke: #cccccc; stroke-linecap: round"/>
     </g>
     <g id="text_28">
      <!-- 400 -->
      <g style="fill: #262626" transform="translate(333.897768 621.026719) scale(0.11 -0.11)">
       <defs>
        <path id="ArialMT-34" d="M 2069 0 
L 2069 1097 
L 81 1097 
L 81 1613 
L 2172 4581 
L 2631 4581 
L 2631 1613 
L 3250 1613 
L 3250 1097 
L 2631 1097 
L 2631 0 
L 2069 0 
z
M 2069 1613 
L 2069 3678 
L 634 1613 
L 2069 1613 
z
" transform="scale(0.015625)"/>
       </defs>
       <use xlink:href="#ArialMT-34"/>
       <use xlink:href="#ArialMT-30" x="55.615234"/>
       <use xlink:href="#ArialMT-30" x="111.230469"/>
      </g>
     </g>
    </g>
    <g id="xtick_18">
     <g id="line2d_41">
      <path d="M 412.418668 603.653125 
L 412.418668 347.565625 
" clip-path="url(#pba6552a2e8)" style="fill: none; stroke: #cccccc; stroke-linecap: round"/>
     </g>
     <g id="text_29">
      <!-- 500 -->
      <g style="fill: #262626" transform="translate(403.243121 621.026719) scale(0.11 -0.11)">
       <use xlink:href="#ArialMT-35"/>
       <use xlink:href="#ArialMT-30" x="55.615234"/>
       <use xlink:href="#ArialMT-30" x="111.230469"/>
      </g>
     </g>
    </g>
    <g id="text_30">
     <!-- intercept -->
     <g style="fill: #262626" transform="translate(218.189062 635.802344) scale(0.12 -0.12)">
      <defs>
       <path id="ArialMT-65" d="M 2694 1069 
L 3275 997 
Q 3138 488 2766 206 
Q 2394 -75 1816 -75 
Q 1088 -75 661 373 
Q 234 822 234 1631 
Q 234 2469 665 2931 
Q 1097 3394 1784 3394 
Q 2450 3394 2872 2941 
Q 3294 2488 3294 1666 
Q 3294 1616 3291 1516 
L 816 1516 
Q 847 969 1125 678 
Q 1403 388 1819 388 
Q 2128 388 2347 550 
Q 2566 713 2694 1069 
z
M 847 1978 
L 2700 1978 
Q 2663 2397 2488 2606 
Q 2219 2931 1791 2931 
Q 1403 2931 1139 2672 
Q 875 2413 847 1978 
z
" transform="scale(0.015625)"/>
       <path id="ArialMT-63" d="M 2588 1216 
L 3141 1144 
Q 3050 572 2676 248 
Q 2303 -75 1759 -75 
Q 1078 -75 664 370 
Q 250 816 250 1647 
Q 250 2184 428 2587 
Q 606 2991 970 3192 
Q 1334 3394 1763 3394 
Q 2303 3394 2647 3120 
Q 2991 2847 3088 2344 
L 2541 2259 
Q 2463 2594 2264 2762 
Q 2066 2931 1784 2931 
Q 1359 2931 1093 2626 
Q 828 2322 828 1663 
Q 828 994 1084 691 
Q 1341 388 1753 388 
Q 2084 388 2306 591 
Q 2528 794 2588 1216 
z
" transform="scale(0.015625)"/>
      </defs>
      <use xlink:href="#ArialMT-69"/>
      <use xlink:href="#ArialMT-6e" x="22.216797"/>
      <use xlink:href="#ArialMT-74" x="77.832031"/>
      <use xlink:href="#ArialMT-65" x="105.615234"/>
      <use xlink:href="#ArialMT-72" x="161.230469"/>
      <use xlink:href="#ArialMT-63" x="194.53125"/>
      <use xlink:href="#ArialMT-65" x="244.53125"/>
      <use xlink:href="#ArialMT-70" x="300.146484"/>
      <use xlink:href="#ArialMT-74" x="355.761719"/>
     </g>
    </g>
   </g>
   <g id="matplotlib.axis_6">
    <g id="ytick_18">
     <g id="line2d_42">
      <path d="M 55.8 603.653125 
L 426.6 603.653125 
" clip-path="url(#pba6552a2e8)" style="fill: none; stroke: #cccccc; stroke-linecap: round"/>
     </g>
     <g id="text_31">
      <!-- 0 -->
      <g style="fill: #262626" transform="translate(40.182969 607.589922) scale(0.11 -0.11)">
       <use xlink:href="#ArialMT-30"/>
      </g>
     </g>
    </g>
    <g id="ytick_19">
     <g id="line2d_43">
      <path d="M 55.8 568.811288 
L 426.6 568.811288 
" clip-path="url(#pba6552a2e8)" style="fill: none; stroke: #cccccc; stroke-linecap: round"/>
     </g>
     <g id="text_32">
      <!-- 5 -->
      <g style="fill: #262626" transform="translate(40.182969 572.748085) scale(0.11 -0.11)">
       <use xlink:href="#ArialMT-35"/>
      </g>
     </g>
    </g>
    <g id="ytick_20">
     <g id="line2d_44">
      <path d="M 55.8 533.969452 
L 426.6 533.969452 
" clip-path="url(#pba6552a2e8)" style="fill: none; stroke: #cccccc; stroke-linecap: round"/>
     </g>
     <g id="text_33">
      <!-- 10 -->
      <g style="fill: #262626" transform="translate(34.065938 537.906248) scale(0.11 -0.11)">
       <use xlink:href="#ArialMT-31"/>
       <use xlink:href="#ArialMT-30" x="55.615234"/>
      </g>
     </g>
    </g>
    <g id="ytick_21">
     <g id="line2d_45">
      <path d="M 55.8 499.127615 
L 426.6 499.127615 
" clip-path="url(#pba6552a2e8)" style="fill: none; stroke: #cccccc; stroke-linecap: round"/>
     </g>
     <g id="text_34">
      <!-- 15 -->
      <g style="fill: #262626" transform="translate(34.065938 503.064412) scale(0.11 -0.11)">
       <use xlink:href="#ArialMT-31"/>
       <use xlink:href="#ArialMT-35" x="55.615234"/>
      </g>
     </g>
    </g>
    <g id="ytick_22">
     <g id="line2d_46">
      <path d="M 55.8 464.285778 
L 426.6 464.285778 
" clip-path="url(#pba6552a2e8)" style="fill: none; stroke: #cccccc; stroke-linecap: round"/>
     </g>
     <g id="text_35">
      <!-- 20 -->
      <g style="fill: #262626" transform="translate(34.065938 468.222575) scale(0.11 -0.11)">
       <use xlink:href="#ArialMT-32"/>
       <use xlink:href="#ArialMT-30" x="55.615234"/>
      </g>
     </g>
    </g>
    <g id="ytick_23">
     <g id="line2d_47">
      <path d="M 55.8 429.443941 
L 426.6 429.443941 
" clip-path="url(#pba6552a2e8)" style="fill: none; stroke: #cccccc; stroke-linecap: round"/>
     </g>
     <g id="text_36">
      <!-- 25 -->
      <g style="fill: #262626" transform="translate(34.065938 433.380738) scale(0.11 -0.11)">
       <use xlink:href="#ArialMT-32"/>
       <use xlink:href="#ArialMT-35" x="55.615234"/>
      </g>
     </g>
    </g>
    <g id="ytick_24">
     <g id="line2d_48">
      <path d="M 55.8 394.602105 
L 426.6 394.602105 
" clip-path="url(#pba6552a2e8)" style="fill: none; stroke: #cccccc; stroke-linecap: round"/>
     </g>
     <g id="text_37">
      <!-- 30 -->
      <g style="fill: #262626" transform="translate(34.065938 398.538901) scale(0.11 -0.11)">
       <use xlink:href="#ArialMT-33"/>
       <use xlink:href="#ArialMT-30" x="55.615234"/>
      </g>
     </g>
    </g>
    <g id="ytick_25">
     <g id="line2d_49">
      <path d="M 55.8 359.760268 
L 426.6 359.760268 
" clip-path="url(#pba6552a2e8)" style="fill: none; stroke: #cccccc; stroke-linecap: round"/>
     </g>
     <g id="text_38">
      <!-- 35 -->
      <g style="fill: #262626" transform="translate(34.065938 363.697065) scale(0.11 -0.11)">
       <use xlink:href="#ArialMT-33"/>
       <use xlink:href="#ArialMT-35" x="55.615234"/>
      </g>
     </g>
    </g>
    <g id="text_39">
     <!-- Count -->
     <g style="fill: #262626" transform="translate(27.680938 491.619062) rotate(-90) scale(0.12 -0.12)">
      <use xlink:href="#ArialMT-43"/>
      <use xlink:href="#ArialMT-6f" x="72.216797"/>
      <use xlink:href="#ArialMT-75" x="127.832031"/>
      <use xlink:href="#ArialMT-6e" x="183.447266"/>
      <use xlink:href="#ArialMT-74" x="239.0625"/>
     </g>
    </g>
   </g>
   <g id="patch_31">
    <path d="M 72.654545 603.653125 
L 110.109091 603.653125 
L 110.109091 499.127615 
L 72.654545 499.127615 
z
" clip-path="url(#pba6552a2e8)" style="fill: #c44e52; fill-opacity: 0.5; stroke: #000000; stroke-linejoin: miter"/>
   </g>
   <g id="patch_32">
    <path d="M 110.109091 603.653125 
L 147.563636 603.653125 
L 147.563636 373.697003 
L 110.109091 373.697003 
z
" clip-path="url(#pba6552a2e8)" style="fill: #c44e52; fill-opacity: 0.5; stroke: #000000; stroke-linejoin: miter"/>
   </g>
   <g id="patch_33">
    <path d="M 147.563636 603.653125 
L 185.018182 603.653125 
L 185.018182 513.064349 
L 147.563636 513.064349 
z
" clip-path="url(#pba6552a2e8)" style="fill: #c44e52; fill-opacity: 0.5; stroke: #000000; stroke-linejoin: miter"/>
   </g>
   <g id="patch_34">
    <path d="M 185.018182 603.653125 
L 222.472727 603.653125 
L 222.472727 401.570472 
L 185.018182 401.570472 
z
" clip-path="url(#pba6552a2e8)" style="fill: #c44e52; fill-opacity: 0.5; stroke: #000000; stroke-linejoin: miter"/>
   </g>
   <g id="patch_35">
    <path d="M 222.472727 603.653125 
L 259.927273 603.653125 
L 259.927273 464.285778 
L 222.472727 464.285778 
z
" clip-path="url(#pba6552a2e8)" style="fill: #c44e52; fill-opacity: 0.5; stroke: #000000; stroke-linejoin: miter"/>
   </g>
   <g id="patch_36">
    <path d="M 259.927273 603.653125 
L 297.381818 603.653125 
L 297.381818 554.874554 
L 259.927273 554.874554 
z
" clip-path="url(#pba6552a2e8)" style="fill: #c44e52; fill-opacity: 0.5; stroke: #000000; stroke-linejoin: miter"/>
   </g>
   <g id="patch_37">
    <path d="M 297.381818 603.653125 
L 334.836364 603.653125 
L 334.836364 366.728635 
L 297.381818 366.728635 
z
" clip-path="url(#pba6552a2e8)" style="fill: #c44e52; fill-opacity: 0.5; stroke: #000000; stroke-linejoin: miter"/>
   </g>
   <g id="patch_38">
    <path d="M 334.836364 603.653125 
L 372.290909 603.653125 
L 372.290909 359.760268 
L 334.836364 359.760268 
z
" clip-path="url(#pba6552a2e8)" style="fill: #c44e52; fill-opacity: 0.5; stroke: #000000; stroke-linejoin: miter"/>
   </g>
   <g id="patch_39">
    <path d="M 372.290909 603.653125 
L 409.745455 603.653125 
L 409.745455 506.095982 
L 372.290909 506.095982 
z
" clip-path="url(#pba6552a2e8)" style="fill: #c44e52; fill-opacity: 0.5; stroke: #000000; stroke-linejoin: miter"/>
   </g>
   <g id="line2d_50">
    <path d="M 72.654545 540.370798 
L 77.736318 529.245739 
L 84.512015 513.733534 
L 92.981635 494.355419 
L 98.063408 483.37682 
L 101.451256 476.546744 
L 104.839105 470.218141 
L 108.226953 464.471996 
L 111.614801 459.373812 
L 115.00265 454.971074 
L 116.696574 453.039934 
L 118.390498 451.291382 
L 120.084422 449.725585 
L 121.778346 448.341376 
L 123.47227 447.136267 
L 125.166195 446.106476 
L 126.860119 445.246963 
L 128.554043 444.551483 
L 130.247967 444.012647 
L 131.941891 443.621999 
L 133.635815 443.370098 
L 135.32974 443.246618 
L 138.717588 443.339805 
L 142.105436 443.805337 
L 145.493285 444.540189 
L 150.575057 445.916669 
L 157.350754 447.734421 
L 160.738602 448.4361 
L 164.12645 448.90644 
L 167.514299 449.097779 
L 170.902147 448.983013 
L 174.289995 448.556935 
L 177.677844 447.836635 
L 181.065692 446.86089 
L 186.147465 445.051905 
L 194.617085 441.820093 
L 198.004934 440.741091 
L 201.392782 439.939809 
L 204.78063 439.513651 
L 206.474555 439.468644 
L 208.168479 439.548394 
L 209.862403 439.760986 
L 211.556327 440.113192 
L 213.250251 440.610349 
L 214.944175 441.256264 
L 216.6381 442.05313 
L 218.332024 443.001463 
L 220.025948 444.100056 
L 221.719872 445.345955 
L 225.10772 448.259113 
L 228.495569 451.68272 
L 231.883417 455.532471 
L 235.271265 459.700701 
L 247.128735 474.842676 
L 250.516583 478.706818 
L 253.904431 482.088557 
L 255.598355 483.554974 
L 257.29228 484.850418 
L 258.986204 485.96034 
L 260.680128 486.871527 
L 262.374052 487.572224 
L 264.067976 488.052247 
L 265.7619 488.303082 
L 267.455825 488.317964 
L 269.149749 488.09194 
L 270.843673 487.621916 
L 272.537597 486.906689 
L 274.231521 485.94696 
L 275.925445 484.745327 
L 277.61937 483.306265 
L 279.313294 481.636089 
L 281.007218 479.742903 
L 282.701142 477.636526 
L 284.395066 475.328414 
L 287.782915 470.160405 
L 291.170763 464.359299 
L 294.558611 458.064382 
L 299.640384 448.034981 
L 308.110005 431.132496 
L 311.497853 424.788874 
L 314.885701 418.917335 
L 318.27355 413.65662 
L 319.967474 411.294176 
L 321.661398 409.128739 
L 323.355322 407.172538 
L 325.049246 405.436487 
L 326.74317 403.930154 
L 328.437095 402.661732 
L 330.131019 401.638031 
L 331.824943 400.864479 
L 333.518867 400.34513 
L 335.212791 400.082683 
L 336.906715 400.078518 
L 338.60064 400.332729 
L 340.294564 400.844171 
L 341.988488 401.610514 
L 343.682412 402.6283 
L 345.376336 403.893009 
L 347.07026 405.399121 
L 348.764185 407.140194 
L 350.458109 409.108931 
L 352.152033 411.297258 
L 353.845957 413.696396 
L 357.233805 419.088933 
L 360.621654 425.205112 
L 364.009502 431.956987 
L 367.39735 439.252316 
L 370.785199 446.996615 
L 375.866971 459.247677 
L 382.642668 476.283134 
L 392.806213 501.961591 
L 397.887985 514.320518 
L 402.969758 526.090199 
L 408.05153 537.115715 
L 409.745455 540.60425 
L 409.745455 540.60425 
" clip-path="url(#pba6552a2e8)" style="fill: none; stroke: #c44e52; stroke-width: 1.5; stroke-linecap: round"/>
   </g>
   <g id="line2d_51">
    <path d="M 167.959421 603.653125 
L 167.959421 347.565625 
" clip-path="url(#pba6552a2e8)" style="fill: none; stroke-dasharray: 5.55,2.4; stroke-dashoffset: 0; stroke: #55a868; stroke-width: 1.5"/>
   </g>
   <g id="patch_40">
    <path d="M 55.8 603.653125 
L 55.8 347.565625 
" style="fill: none; stroke: #cccccc; stroke-width: 1.25; stroke-linejoin: miter; stroke-linecap: square"/>
   </g>
   <g id="patch_41">
    <path d="M 426.6 603.653125 
L 426.6 347.565625 
" style="fill: none; stroke: #cccccc; stroke-width: 1.25; stroke-linejoin: miter; stroke-linecap: square"/>
   </g>
   <g id="patch_42">
    <path d="M 55.8 603.653125 
L 426.6 603.653125 
" style="fill: none; stroke: #cccccc; stroke-width: 1.25; stroke-linejoin: miter; stroke-linecap: square"/>
   </g>
   <g id="patch_43">
    <path d="M 55.8 347.565625 
L 426.6 347.565625 
" style="fill: none; stroke: #cccccc; stroke-width: 1.25; stroke-linejoin: miter; stroke-linecap: square"/>
   </g>
   <g id="text_40">
    <!-- OLS with Outlier ($\mu = 258.1948, \sigma = 136.6373$) -->
    <g style="fill: #262626" transform="translate(87.13 341.565625) scale(0.14 -0.14)">
     <defs>
      <path id="ArialMT-77" d="M 1034 0 
L 19 3319 
L 600 3319 
L 1128 1403 
L 1325 691 
Q 1338 744 1497 1375 
L 2025 3319 
L 2603 3319 
L 3100 1394 
L 3266 759 
L 3456 1400 
L 4025 3319 
L 4572 3319 
L 3534 0 
L 2950 0 
L 2422 1988 
L 2294 2553 
L 1622 0 
L 1034 0 
z
" transform="scale(0.015625)"/>
      <path id="ArialMT-68" d="M 422 0 
L 422 4581 
L 984 4581 
L 984 2938 
Q 1378 3394 1978 3394 
Q 2347 3394 2619 3248 
Q 2891 3103 3008 2847 
Q 3125 2591 3125 2103 
L 3125 0 
L 2563 0 
L 2563 2103 
Q 2563 2525 2380 2717 
Q 2197 2909 1863 2909 
Q 1613 2909 1392 2779 
Q 1172 2650 1078 2428 
Q 984 2206 984 1816 
L 984 0 
L 422 0 
z
" transform="scale(0.015625)"/>
      <path id="ArialMT-6c" d="M 409 0 
L 409 4581 
L 972 4581 
L 972 0 
L 409 0 
z
" transform="scale(0.015625)"/>
      <path id="DejaVuSans-37" d="M 525 4666 
L 3525 4666 
L 3525 4397 
L 1831 0 
L 1172 0 
L 2766 4134 
L 525 4134 
L 525 4666 
z
" transform="scale(0.015625)"/>
     </defs>
     <use xlink:href="#ArialMT-4f" transform="translate(0 0.78125)"/>
     <use xlink:href="#ArialMT-4c" transform="translate(77.783203 0.78125)"/>
     <use xlink:href="#ArialMT-53" transform="translate(133.398438 0.78125)"/>
     <use xlink:href="#ArialMT-20" transform="translate(200.097656 0.78125)"/>
     <use xlink:href="#ArialMT-77" transform="translate(227.880859 0.78125)"/>
     <use xlink:href="#ArialMT-69" transform="translate(300.097656 0.78125)"/>
     <use xlink:href="#ArialMT-74" transform="translate(322.314453 0.78125)"/>
     <use xlink:href="#ArialMT-68" transform="translate(350.097656 0.78125)"/>
     <use xlink:href="#ArialMT-20" transform="translate(405.712891 0.78125)"/>
     <use xlink:href="#ArialMT-4f" transform="translate(433.496094 0.78125)"/>
     <use xlink:href="#ArialMT-75" transform="translate(511.279297 0.78125)"/>
     <use xlink:href="#ArialMT-74" transform="translate(566.894531 0.78125)"/>
     <use xlink:href="#ArialMT-6c" transform="translate(594.677734 0.78125)"/>
     <use xlink:href="#ArialMT-69" transform="translate(616.894531 0.78125)"/>
     <use xlink:href="#ArialMT-65" transform="translate(639.111328 0.78125)"/>
     <use xlink:href="#ArialMT-72" transform="translate(694.726562 0.78125)"/>
     <use xlink:href="#ArialMT-20" transform="translate(728.027344 0.78125)"/>
     <use xlink:href="#ArialMT-28" transform="translate(755.810547 0.78125)"/>
     <use xlink:href="#DejaVuSans-Oblique-3bc" transform="translate(789.111328 0.78125)"/>
     <use xlink:href="#DejaVuSans-3d" transform="translate(872.216797 0.78125)"/>
     <use xlink:href="#DejaVuSans-32" transform="translate(975.488281 0.78125)"/>
     <use xlink:href="#DejaVuSans-35" transform="translate(1039.111328 0.78125)"/>
     <use xlink:href="#DejaVuSans-38" transform="translate(1102.734375 0.78125)"/>
     <use xlink:href="#DejaVuSans-2e" transform="translate(1166.357422 0.78125)"/>
     <use xlink:href="#DejaVuSans-31" transform="translate(1198.144531 0.78125)"/>
     <use xlink:href="#DejaVuSans-39" transform="translate(1261.767578 0.78125)"/>
     <use xlink:href="#DejaVuSans-34" transform="translate(1325.390625 0.78125)"/>
     <use xlink:href="#DejaVuSans-38" transform="translate(1389.013672 0.78125)"/>
     <use xlink:href="#DejaVuSans-2c" transform="translate(1452.636719 0.78125)"/>
     <use xlink:href="#DejaVuSans-Oblique-3c3" transform="translate(1503.90625 0.78125)"/>
     <use xlink:href="#DejaVuSans-3d" transform="translate(1586.767578 0.78125)"/>
     <use xlink:href="#DejaVuSans-31" transform="translate(1690.039062 0.78125)"/>
     <use xlink:href="#DejaVuSans-33" transform="translate(1753.662109 0.78125)"/>
     <use xlink:href="#DejaVuSans-36" transform="translate(1817.285156 0.78125)"/>
     <use xlink:href="#DejaVuSans-2e" transform="translate(1880.908203 0.78125)"/>
     <use xlink:href="#DejaVuSans-36" transform="translate(1912.695312 0.78125)"/>
     <use xlink:href="#DejaVuSans-33" transform="translate(1976.318359 0.78125)"/>
     <use xlink:href="#DejaVuSans-37" transform="translate(2039.941406 0.78125)"/>
     <use xlink:href="#DejaVuSans-33" transform="translate(2103.564453 0.78125)"/>
     <use xlink:href="#ArialMT-29" transform="translate(2167.1875 0.78125)"/>
    </g>
   </g>
   <g id="legend_3">
    <g id="patch_44">
     <path d="M 187.532031 371.925469 
L 294.867969 371.925469 
Q 297.067969 371.925469 297.067969 369.725469 
L 297.067969 355.265625 
Q 297.067969 353.065625 294.867969 353.065625 
L 187.532031 353.065625 
Q 185.332031 353.065625 185.332031 355.265625 
L 185.332031 369.725469 
Q 185.332031 371.925469 187.532031 371.925469 
z
" style="fill: #ffffff; opacity: 0.8; stroke: #cccccc; stroke-linejoin: miter"/>
    </g>
    <g id="line2d_52">
     <path d="M 189.732031 361.489219 
L 200.732031 361.489219 
L 211.732031 361.489219 
" style="fill: none; stroke-dasharray: 5.55,2.4; stroke-dashoffset: 0; stroke: #55a868; stroke-width: 1.5"/>
    </g>
    <g id="text_41">
     <!-- Pop. Estimator -->
     <g style="fill: #262626" transform="translate(220.532031 365.339219) scale(0.11 -0.11)">
      <use xlink:href="#ArialMT-50"/>
      <use xlink:href="#ArialMT-6f" x="66.699219"/>
      <use xlink:href="#ArialMT-70" x="122.314453"/>
      <use xlink:href="#ArialMT-2e" x="177.929688"/>
      <use xlink:href="#ArialMT-20" x="205.712891"/>
      <use xlink:href="#ArialMT-45" x="233.496094"/>
      <use xlink:href="#ArialMT-73" x="300.195312"/>
      <use xlink:href="#ArialMT-74" x="350.195312"/>
      <use xlink:href="#ArialMT-69" x="377.978516"/>
      <use xlink:href="#ArialMT-6d" x="400.195312"/>
      <use xlink:href="#ArialMT-61" x="483.496094"/>
      <use xlink:href="#ArialMT-74" x="539.111328"/>
      <use xlink:href="#ArialMT-6f" x="566.894531"/>
      <use xlink:href="#ArialMT-72" x="622.509766"/>
     </g>
    </g>
   </g>
  </g>
  <g id="axes_4">
   <g id="patch_45">
    <path d="M 482.4 603.653125 
L 853.2 603.653125 
L 853.2 347.565625 
L 482.4 347.565625 
z
" style="fill: #ffffff"/>
   </g>
   <g id="matplotlib.axis_7">
    <g id="xtick_19">
     <g id="line2d_53">
      <path d="M 492.291903 603.653125 
L 492.291903 347.565625 
" clip-path="url(#pece0641cc3)" style="fill: none; stroke: #cccccc; stroke-linecap: round"/>
     </g>
     <g id="text_42">
      <!-- 0 -->
      <g style="fill: #262626" transform="translate(489.233387 621.026719) scale(0.11 -0.11)">
       <use xlink:href="#ArialMT-30"/>
      </g>
     </g>
    </g>
    <g id="xtick_20">
     <g id="line2d_54">
      <path d="M 561.637256 603.653125 
L 561.637256 347.565625 
" clip-path="url(#pece0641cc3)" style="fill: none; stroke: #cccccc; stroke-linecap: round"/>
     </g>
     <g id="text_43">
      <!-- 100 -->
      <g style="fill: #262626" transform="translate(552.461709 621.026719) scale(0.11 -0.11)">
       <use xlink:href="#ArialMT-31"/>
       <use xlink:href="#ArialMT-30" x="55.615234"/>
       <use xlink:href="#ArialMT-30" x="111.230469"/>
      </g>
     </g>
    </g>
    <g id="xtick_21">
     <g id="line2d_55">
      <path d="M 630.982609 603.653125 
L 630.982609 347.565625 
" clip-path="url(#pece0641cc3)" style="fill: none; stroke: #cccccc; stroke-linecap: round"/>
     </g>
     <g id="text_44">
      <!-- 200 -->
      <g style="fill: #262626" transform="translate(621.807062 621.026719) scale(0.11 -0.11)">
       <use xlink:href="#ArialMT-32"/>
       <use xlink:href="#ArialMT-30" x="55.615234"/>
       <use xlink:href="#ArialMT-30" x="111.230469"/>
      </g>
     </g>
    </g>
    <g id="xtick_22">
     <g id="line2d_56">
      <path d="M 700.327962 603.653125 
L 700.327962 347.565625 
" clip-path="url(#pece0641cc3)" style="fill: none; stroke: #cccccc; stroke-linecap: round"/>
     </g>
     <g id="text_45">
      <!-- 300 -->
      <g style="fill: #262626" transform="translate(691.152415 621.026719) scale(0.11 -0.11)">
       <use xlink:href="#ArialMT-33"/>
       <use xlink:href="#ArialMT-30" x="55.615234"/>
       <use xlink:href="#ArialMT-30" x="111.230469"/>
      </g>
     </g>
    </g>
    <g id="xtick_23">
     <g id="line2d_57">
      <path d="M 769.673315 603.653125 
L 769.673315 347.565625 
" clip-path="url(#pece0641cc3)" style="fill: none; stroke: #cccccc; stroke-linecap: round"/>
     </g>
     <g id="text_46">
      <!-- 400 -->
      <g style="fill: #262626" transform="translate(760.497768 621.026719) scale(0.11 -0.11)">
       <use xlink:href="#ArialMT-34"/>
       <use xlink:href="#ArialMT-30" x="55.615234"/>
       <use xlink:href="#ArialMT-30" x="111.230469"/>
      </g>
     </g>
    </g>
    <g id="xtick_24">
     <g id="line2d_58">
      <path d="M 839.018668 603.653125 
L 839.018668 347.565625 
" clip-path="url(#pece0641cc3)" style="fill: none; stroke: #cccccc; stroke-linecap: round"/>
     </g>
     <g id="text_47">
      <!-- 500 -->
      <g style="fill: #262626" transform="translate(829.843121 621.026719) scale(0.11 -0.11)">
       <use xlink:href="#ArialMT-35"/>
       <use xlink:href="#ArialMT-30" x="55.615234"/>
       <use xlink:href="#ArialMT-30" x="111.230469"/>
      </g>
     </g>
    </g>
    <g id="text_48">
     <!-- intercept -->
     <g style="fill: #262626" transform="translate(644.789062 635.802344) scale(0.12 -0.12)">
      <use xlink:href="#ArialMT-69"/>
      <use xlink:href="#ArialMT-6e" x="22.216797"/>
      <use xlink:href="#ArialMT-74" x="77.832031"/>
      <use xlink:href="#ArialMT-65" x="105.615234"/>
      <use xlink:href="#ArialMT-72" x="161.230469"/>
      <use xlink:href="#ArialMT-63" x="194.53125"/>
      <use xlink:href="#ArialMT-65" x="244.53125"/>
      <use xlink:href="#ArialMT-70" x="300.146484"/>
      <use xlink:href="#ArialMT-74" x="355.761719"/>
     </g>
    </g>
   </g>
   <g id="matplotlib.axis_8">
    <g id="ytick_26">
     <g id="line2d_59">
      <path d="M 482.4 603.653125 
L 853.2 603.653125 
" clip-path="url(#pece0641cc3)" style="fill: none; stroke: #cccccc; stroke-linecap: round"/>
     </g>
     <g id="text_49">
      <!-- 0 -->
      <g style="fill: #262626" transform="translate(466.782969 607.589922) scale(0.11 -0.11)">
       <use xlink:href="#ArialMT-30"/>
      </g>
     </g>
    </g>
    <g id="ytick_27">
     <g id="line2d_60">
      <path d="M 482.4 546.933856 
L 853.2 546.933856 
" clip-path="url(#pece0641cc3)" style="fill: none; stroke: #cccccc; stroke-linecap: round"/>
     </g>
     <g id="text_50">
      <!-- 10 -->
      <g style="fill: #262626" transform="translate(460.665937 550.870653) scale(0.11 -0.11)">
       <use xlink:href="#ArialMT-31"/>
       <use xlink:href="#ArialMT-30" x="55.615234"/>
      </g>
     </g>
    </g>
    <g id="ytick_28">
     <g id="line2d_61">
      <path d="M 482.4 490.214587 
L 853.2 490.214587 
" clip-path="url(#pece0641cc3)" style="fill: none; stroke: #cccccc; stroke-linecap: round"/>
     </g>
     <g id="text_51">
      <!-- 20 -->
      <g style="fill: #262626" transform="translate(460.665937 494.151384) scale(0.11 -0.11)">
       <use xlink:href="#ArialMT-32"/>
       <use xlink:href="#ArialMT-30" x="55.615234"/>
      </g>
     </g>
    </g>
    <g id="ytick_29">
     <g id="line2d_62">
      <path d="M 482.4 433.495318 
L 853.2 433.495318 
" clip-path="url(#pece0641cc3)" style="fill: none; stroke: #cccccc; stroke-linecap: round"/>
     </g>
     <g id="text_52">
      <!-- 30 -->
      <g style="fill: #262626" transform="translate(460.665937 437.432115) scale(0.11 -0.11)">
       <use xlink:href="#ArialMT-33"/>
       <use xlink:href="#ArialMT-30" x="55.615234"/>
      </g>
     </g>
    </g>
    <g id="ytick_30">
     <g id="line2d_63">
      <path d="M 482.4 376.776049 
L 853.2 376.776049 
" clip-path="url(#pece0641cc3)" style="fill: none; stroke: #cccccc; stroke-linecap: round"/>
     </g>
     <g id="text_53">
      <!-- 40 -->
      <g style="fill: #262626" transform="translate(460.665937 380.712845) scale(0.11 -0.11)">
       <use xlink:href="#ArialMT-34"/>
       <use xlink:href="#ArialMT-30" x="55.615234"/>
      </g>
     </g>
    </g>
    <g id="text_54">
     <!-- Count -->
     <g style="fill: #262626" transform="translate(454.280937 491.619062) rotate(-90) scale(0.12 -0.12)">
      <use xlink:href="#ArialMT-43"/>
      <use xlink:href="#ArialMT-6f" x="72.216797"/>
      <use xlink:href="#ArialMT-75" x="127.832031"/>
      <use xlink:href="#ArialMT-6e" x="183.447266"/>
      <use xlink:href="#ArialMT-74" x="239.0625"/>
     </g>
    </g>
   </g>
   <g id="patch_46">
    <path d="M 502.5701 603.653125 
L 525.377899 603.653125 
L 525.377899 535.590002 
L 502.5701 535.590002 
z
" clip-path="url(#pece0641cc3)" style="fill: #c44e52; fill-opacity: 0.5; stroke: #000000; stroke-linejoin: miter"/>
   </g>
   <g id="patch_47">
    <path d="M 525.377899 603.653125 
L 548.185698 603.653125 
L 548.185698 416.479537 
L 525.377899 416.479537 
z
" clip-path="url(#pece0641cc3)" style="fill: #c44e52; fill-opacity: 0.5; stroke: #000000; stroke-linejoin: miter"/>
   </g>
   <g id="patch_48">
    <path d="M 548.185698 603.653125 
L 570.993497 603.653125 
L 570.993497 410.80761 
L 548.185698 410.80761 
z
" clip-path="url(#pece0641cc3)" style="fill: #c44e52; fill-opacity: 0.5; stroke: #000000; stroke-linejoin: miter"/>
   </g>
   <g id="patch_49">
    <path d="M 570.993497 603.653125 
L 593.801295 603.653125 
L 593.801295 467.526879 
L 570.993497 467.526879 
z
" clip-path="url(#pece0641cc3)" style="fill: #c44e52; fill-opacity: 0.5; stroke: #000000; stroke-linejoin: miter"/>
   </g>
   <g id="patch_50">
    <path d="M 593.801295 603.653125 
L 616.609094 603.653125 
L 616.609094 359.760268 
L 593.801295 359.760268 
z
" clip-path="url(#pece0641cc3)" style="fill: #c44e52; fill-opacity: 0.5; stroke: #000000; stroke-linejoin: miter"/>
   </g>
   <g id="patch_51">
    <path d="M 616.609094 603.653125 
L 639.416893 603.653125 
L 639.416893 461.854952 
L 616.609094 461.854952 
z
" clip-path="url(#pece0641cc3)" style="fill: #c44e52; fill-opacity: 0.5; stroke: #000000; stroke-linejoin: miter"/>
   </g>
   <g id="patch_52">
    <path d="M 639.416893 603.653125 
L 662.224692 603.653125 
L 662.224692 535.590002 
L 639.416893 535.590002 
z
" clip-path="url(#pece0641cc3)" style="fill: #c44e52; fill-opacity: 0.5; stroke: #000000; stroke-linejoin: miter"/>
   </g>
   <g id="patch_53">
    <path d="M 662.224692 603.653125 
L 685.03249 603.653125 
L 685.03249 563.949637 
L 662.224692 563.949637 
z
" clip-path="url(#pece0641cc3)" style="fill: #c44e52; fill-opacity: 0.5; stroke: #000000; stroke-linejoin: miter"/>
   </g>
   <g id="patch_54">
    <path d="M 685.03249 603.653125 
L 707.840289 603.653125 
L 707.840289 563.949637 
L 685.03249 563.949637 
z
" clip-path="url(#pece0641cc3)" style="fill: #c44e52; fill-opacity: 0.5; stroke: #000000; stroke-linejoin: miter"/>
   </g>
   <g id="patch_55">
    <path d="M 707.840289 603.653125 
L 730.648088 603.653125 
L 730.648088 597.981198 
L 707.840289 597.981198 
z
" clip-path="url(#pece0641cc3)" style="fill: #c44e52; fill-opacity: 0.5; stroke: #000000; stroke-linejoin: miter"/>
   </g>
   <g id="patch_56">
    <path d="M 730.648088 603.653125 
L 753.455887 603.653125 
L 753.455887 603.653125 
L 730.648088 603.653125 
z
" clip-path="url(#pece0641cc3)" style="fill: #c44e52; fill-opacity: 0.5; stroke: #000000; stroke-linejoin: miter"/>
   </g>
   <g id="patch_57">
    <path d="M 753.455887 603.653125 
L 776.263685 603.653125 
L 776.263685 592.309271 
L 753.455887 592.309271 
z
" clip-path="url(#pece0641cc3)" style="fill: #c44e52; fill-opacity: 0.5; stroke: #000000; stroke-linejoin: miter"/>
   </g>
   <g id="line2d_64">
    <path d="M 502.5701 558.358259 
L 505.32079 549.744455 
L 508.071479 540.349637 
L 512.197513 525.082287 
L 524.575615 477.334943 
L 527.326304 467.8941 
L 530.076993 459.374014 
L 532.827683 451.937302 
L 534.203027 448.661068 
L 535.578372 445.691207 
L 536.953716 443.031595 
L 538.329061 440.682256 
L 539.704406 438.639461 
L 541.07975 436.895912 
L 542.455095 435.440976 
L 543.83044 434.260972 
L 545.205784 433.339513 
L 546.581129 432.657863 
L 547.956474 432.195331 
L 549.331818 431.929662 
L 550.707163 431.837433 
L 552.082508 431.894442 
L 554.833197 432.357624 
L 557.583886 433.123232 
L 563.085265 434.825493 
L 565.835954 435.43812 
L 568.586643 435.714672 
L 569.961988 435.695021 
L 571.337333 435.556877 
L 572.712677 435.292884 
L 574.088022 434.897853 
L 575.463367 434.368865 
L 576.838711 433.70538 
L 579.589401 431.985278 
L 582.34009 429.784461 
L 585.090779 427.192823 
L 589.216813 422.873596 
L 593.342847 418.588802 
L 596.093536 416.114268 
L 597.468881 415.078685 
L 598.844226 414.215874 
L 600.21957 413.553288 
L 601.594915 413.116706 
L 602.97026 412.929712 
L 604.345604 413.013202 
L 605.720949 413.384954 
L 607.096294 414.059245 
L 608.471638 415.046557 
L 609.846983 416.353357 
L 611.222327 417.981968 
L 612.597672 419.930539 
L 613.973017 422.193109 
L 615.348361 424.759758 
L 616.723706 427.616853 
L 619.474395 434.131297 
L 622.225085 441.567024 
L 624.975774 449.721886 
L 629.101808 462.824274 
L 638.72922 493.895235 
L 642.855254 506.142242 
L 645.605944 513.691161 
L 648.356633 520.675778 
L 651.107322 527.052419 
L 653.858012 532.788715 
L 656.608701 537.862134 
L 659.35939 542.261326 
L 662.110079 545.989773 
L 664.860769 549.070617 
L 667.611458 551.551097 
L 670.362147 553.505026 
L 673.112837 555.032029 
L 675.863526 556.252952 
L 685.490938 560.034597 
L 688.241628 561.458647 
L 690.992317 563.176344 
L 693.743006 565.208987 
L 696.493696 567.542846 
L 699.244385 570.13419 
L 703.370419 574.355977 
L 711.622487 583.015009 
L 715.748521 586.970007 
L 718.49921 589.354597 
L 721.249899 591.507825 
L 724.000589 593.418467 
L 726.751278 595.084754 
L 729.501967 596.511273 
L 732.252657 597.706217 
L 735.003346 598.679336 
L 737.754035 599.44074 
L 740.504724 600.00057 
L 743.255414 600.369405 
L 746.006103 600.559214 
L 748.756792 600.584571 
L 752.882826 600.355783 
L 757.00886 599.881951 
L 770.762307 598.003268 
L 774.888341 597.79622 
L 776.263685 597.791688 
L 776.263685 597.791688 
" clip-path="url(#pece0641cc3)" style="fill: none; stroke: #c44e52; stroke-width: 1.5; stroke-linecap: round"/>
   </g>
   <g id="line2d_65">
    <path d="M 548.796121 603.653125 
L 548.796121 347.565625 
" clip-path="url(#pece0641cc3)" style="fill: none; stroke-dasharray: 5.55,2.4; stroke-dashoffset: 0; stroke: #55a868; stroke-width: 1.5"/>
   </g>
   <g id="patch_58">
    <path d="M 482.4 603.653125 
L 482.4 347.565625 
" style="fill: none; stroke: #cccccc; stroke-width: 1.25; stroke-linejoin: miter; stroke-linecap: square"/>
   </g>
   <g id="patch_59">
    <path d="M 853.2 603.653125 
L 853.2 347.565625 
" style="fill: none; stroke: #cccccc; stroke-width: 1.25; stroke-linejoin: miter; stroke-linecap: square"/>
   </g>
   <g id="patch_60">
    <path d="M 482.4 603.653125 
L 853.2 603.653125 
" style="fill: none; stroke: #cccccc; stroke-width: 1.25; stroke-linejoin: miter; stroke-linecap: square"/>
   </g>
   <g id="patch_61">
    <path d="M 482.4 347.565625 
L 853.2 347.565625 
" style="fill: none; stroke: #cccccc; stroke-width: 1.25; stroke-linejoin: miter; stroke-linecap: square"/>
   </g>
   <g id="text_55">
    <!-- LAD with Outlier ($\mu = 143.0307, \sigma = 73.4213$) -->
    <g style="fill: #262626" transform="translate(518.56 341.565625) scale(0.14 -0.14)">
     <use xlink:href="#ArialMT-4c" transform="translate(0 0.78125)"/>
     <use xlink:href="#ArialMT-41" transform="translate(55.615234 0.78125)"/>
     <use xlink:href="#ArialMT-44" transform="translate(122.314453 0.78125)"/>
     <use xlink:href="#ArialMT-20" transform="translate(194.53125 0.78125)"/>
     <use xlink:href="#ArialMT-77" transform="translate(222.314453 0.78125)"/>
     <use xlink:href="#ArialMT-69" transform="translate(294.53125 0.78125)"/>
     <use xlink:href="#ArialMT-74" transform="translate(316.748047 0.78125)"/>
     <use xlink:href="#ArialMT-68" transform="translate(344.53125 0.78125)"/>
     <use xlink:href="#ArialMT-20" transform="translate(400.146484 0.78125)"/>
     <use xlink:href="#ArialMT-4f" transform="translate(427.929688 0.78125)"/>
     <use xlink:href="#ArialMT-75" transform="translate(505.712891 0.78125)"/>
     <use xlink:href="#ArialMT-74" transform="translate(561.328125 0.78125)"/>
     <use xlink:href="#ArialMT-6c" transform="translate(589.111328 0.78125)"/>
     <use xlink:href="#ArialMT-69" transform="translate(611.328125 0.78125)"/>
     <use xlink:href="#ArialMT-65" transform="translate(633.544922 0.78125)"/>
     <use xlink:href="#ArialMT-72" transform="translate(689.160156 0.78125)"/>
     <use xlink:href="#ArialMT-20" transform="translate(722.460938 0.78125)"/>
     <use xlink:href="#ArialMT-28" transform="translate(750.244141 0.78125)"/>
     <use xlink:href="#DejaVuSans-Oblique-3bc" transform="translate(783.544922 0.78125)"/>
     <use xlink:href="#DejaVuSans-3d" transform="translate(866.650391 0.78125)"/>
     <use xlink:href="#DejaVuSans-31" transform="translate(969.921875 0.78125)"/>
     <use xlink:href="#DejaVuSans-34" transform="translate(1033.544922 0.78125)"/>
     <use xlink:href="#DejaVuSans-33" transform="translate(1097.167969 0.78125)"/>
     <use xlink:href="#DejaVuSans-2e" transform="translate(1160.791016 0.78125)"/>
     <use xlink:href="#DejaVuSans-30" transform="translate(1192.578125 0.78125)"/>
     <use xlink:href="#DejaVuSans-33" transform="translate(1256.201172 0.78125)"/>
     <use xlink:href="#DejaVuSans-30" transform="translate(1319.824219 0.78125)"/>
     <use xlink:href="#DejaVuSans-37" transform="translate(1383.447266 0.78125)"/>
     <use xlink:href="#DejaVuSans-2c" transform="translate(1447.070312 0.78125)"/>
     <use xlink:href="#DejaVuSans-Oblique-3c3" transform="translate(1498.339844 0.78125)"/>
     <use xlink:href="#DejaVuSans-3d" transform="translate(1581.201172 0.78125)"/>
     <use xlink:href="#DejaVuSans-37" transform="translate(1684.472656 0.78125)"/>
     <use xlink:href="#DejaVuSans-33" transform="translate(1748.095703 0.78125)"/>
     <use xlink:href="#DejaVuSans-2e" transform="translate(1811.71875 0.78125)"/>
     <use xlink:href="#DejaVuSans-34" transform="translate(1843.505859 0.78125)"/>
     <use xlink:href="#DejaVuSans-32" transform="translate(1907.128906 0.78125)"/>
     <use xlink:href="#DejaVuSans-31" transform="translate(1970.751953 0.78125)"/>
     <use xlink:href="#DejaVuSans-33" transform="translate(2034.375 0.78125)"/>
     <use xlink:href="#ArialMT-29" transform="translate(2097.998047 0.78125)"/>
    </g>
   </g>
   <g id="legend_4">
    <g id="patch_62">
     <path d="M 738.164062 371.925469 
L 845.5 371.925469 
Q 847.7 371.925469 847.7 369.725469 
L 847.7 355.265625 
Q 847.7 353.065625 845.5 353.065625 
L 738.164062 353.065625 
Q 735.964062 353.065625 735.964062 355.265625 
L 735.964062 369.725469 
Q 735.964062 371.925469 738.164062 371.925469 
z
" style="fill: #ffffff; opacity: 0.8; stroke: #cccccc; stroke-linejoin: miter"/>
    </g>
    <g id="line2d_66">
     <path d="M 740.364062 361.489219 
L 751.364062 361.489219 
L 762.364062 361.489219 
" style="fill: none; stroke-dasharray: 5.55,2.4; stroke-dashoffset: 0; stroke: #55a868; stroke-width: 1.5"/>
    </g>
    <g id="text_56">
     <!-- Pop. Estimator -->
     <g style="fill: #262626" transform="translate(771.164062 365.339219) scale(0.11 -0.11)">
      <use xlink:href="#ArialMT-50"/>
      <use xlink:href="#ArialMT-6f" x="66.699219"/>
      <use xlink:href="#ArialMT-70" x="122.314453"/>
      <use xlink:href="#ArialMT-2e" x="177.929688"/>
      <use xlink:href="#ArialMT-20" x="205.712891"/>
      <use xlink:href="#ArialMT-45" x="233.496094"/>
      <use xlink:href="#ArialMT-73" x="300.195312"/>
      <use xlink:href="#ArialMT-74" x="350.195312"/>
      <use xlink:href="#ArialMT-69" x="377.978516"/>
      <use xlink:href="#ArialMT-6d" x="400.195312"/>
      <use xlink:href="#ArialMT-61" x="483.496094"/>
      <use xlink:href="#ArialMT-74" x="539.111328"/>
      <use xlink:href="#ArialMT-6f" x="566.894531"/>
      <use xlink:href="#ArialMT-72" x="622.509766"/>
     </g>
    </g>
   </g>
  </g>
  <g id="text_57">
   <!-- Histogram of intercept (# Samples = 100 | # Regressions = 100) -->
   <g style="fill: #262626" transform="translate(205.82125 24.6075) scale(0.16 -0.16)">
    <defs>
     <path id="ArialMT-48" d="M 513 0 
L 513 4581 
L 1119 4581 
L 1119 2700 
L 3500 2700 
L 3500 4581 
L 4106 4581 
L 4106 0 
L 3500 0 
L 3500 2159 
L 1119 2159 
L 1119 0 
L 513 0 
z
" transform="scale(0.015625)"/>
     <path id="ArialMT-67" d="M 319 -275 
L 866 -356 
Q 900 -609 1056 -725 
Q 1266 -881 1628 -881 
Q 2019 -881 2231 -725 
Q 2444 -569 2519 -288 
Q 2563 -116 2559 434 
Q 2191 0 1641 0 
Q 956 0 581 494 
Q 206 988 206 1678 
Q 206 2153 378 2554 
Q 550 2956 876 3175 
Q 1203 3394 1644 3394 
Q 2231 3394 2613 2919 
L 2613 3319 
L 3131 3319 
L 3131 450 
Q 3131 -325 2973 -648 
Q 2816 -972 2473 -1159 
Q 2131 -1347 1631 -1347 
Q 1038 -1347 672 -1080 
Q 306 -813 319 -275 
z
M 784 1719 
Q 784 1066 1043 766 
Q 1303 466 1694 466 
Q 2081 466 2343 764 
Q 2606 1063 2606 1700 
Q 2606 2309 2336 2618 
Q 2066 2928 1684 2928 
Q 1309 2928 1046 2623 
Q 784 2319 784 1719 
z
" transform="scale(0.015625)"/>
     <path id="ArialMT-66" d="M 556 0 
L 556 2881 
L 59 2881 
L 59 3319 
L 556 3319 
L 556 3672 
Q 556 4006 616 4169 
Q 697 4388 901 4523 
Q 1106 4659 1475 4659 
Q 1713 4659 2000 4603 
L 1916 4113 
Q 1741 4144 1584 4144 
Q 1328 4144 1222 4034 
Q 1116 3925 1116 3625 
L 1116 3319 
L 1763 3319 
L 1763 2881 
L 1116 2881 
L 1116 0 
L 556 0 
z
" transform="scale(0.015625)"/>
     <path id="ArialMT-23" d="M 322 -78 
L 594 1253 
L 66 1253 
L 66 1719 
L 688 1719 
L 919 2853 
L 66 2853 
L 66 3319 
L 1013 3319 
L 1284 4659 
L 1753 4659 
L 1481 3319 
L 2466 3319 
L 2738 4659 
L 3209 4659 
L 2938 3319 
L 3478 3319 
L 3478 2853 
L 2844 2853 
L 2609 1719 
L 3478 1719 
L 3478 1253 
L 2516 1253 
L 2244 -78 
L 1775 -78 
L 2044 1253 
L 1063 1253 
L 791 -78 
L 322 -78 
z
M 1156 1719 
L 2138 1719 
L 2372 2853 
L 1388 2853 
L 1156 1719 
z
" transform="scale(0.015625)"/>
     <path id="ArialMT-3d" d="M 3381 2694 
L 356 2694 
L 356 3219 
L 3381 3219 
L 3381 2694 
z
M 3381 1303 
L 356 1303 
L 356 1828 
L 3381 1828 
L 3381 1303 
z
" transform="scale(0.015625)"/>
     <path id="ArialMT-7c" d="M 588 -1347 
L 588 4659 
L 1078 4659 
L 1078 -1347 
L 588 -1347 
z
" transform="scale(0.015625)"/>
     <path id="ArialMT-52" d="M 503 0 
L 503 4581 
L 2534 4581 
Q 3147 4581 3465 4457 
Q 3784 4334 3975 4021 
Q 4166 3709 4166 3331 
Q 4166 2844 3850 2509 
Q 3534 2175 2875 2084 
Q 3116 1969 3241 1856 
Q 3506 1613 3744 1247 
L 4541 0 
L 3778 0 
L 3172 953 
Q 2906 1366 2734 1584 
Q 2563 1803 2427 1890 
Q 2291 1978 2150 2013 
Q 2047 2034 1813 2034 
L 1109 2034 
L 1109 0 
L 503 0 
z
M 1109 2559 
L 2413 2559 
Q 2828 2559 3062 2645 
Q 3297 2731 3419 2920 
Q 3541 3109 3541 3331 
Q 3541 3656 3305 3865 
Q 3069 4075 2559 4075 
L 1109 4075 
L 1109 2559 
z
" transform="scale(0.015625)"/>
    </defs>
    <use xlink:href="#ArialMT-48"/>
    <use xlink:href="#ArialMT-69" x="72.216797"/>
    <use xlink:href="#ArialMT-73" x="94.433594"/>
    <use xlink:href="#ArialMT-74" x="144.433594"/>
    <use xlink:href="#ArialMT-6f" x="172.216797"/>
    <use xlink:href="#ArialMT-67" x="227.832031"/>
    <use xlink:href="#ArialMT-72" x="283.447266"/>
    <use xlink:href="#ArialMT-61" x="316.748047"/>
    <use xlink:href="#ArialMT-6d" x="372.363281"/>
    <use xlink:href="#ArialMT-20" x="455.664062"/>
    <use xlink:href="#ArialMT-6f" x="483.447266"/>
    <use xlink:href="#ArialMT-66" x="539.0625"/>
    <use xlink:href="#ArialMT-20" x="566.845703"/>
    <use xlink:href="#ArialMT-69" x="594.628906"/>
    <use xlink:href="#ArialMT-6e" x="616.845703"/>
    <use xlink:href="#ArialMT-74" x="672.460938"/>
    <use xlink:href="#ArialMT-65" x="700.244141"/>
    <use xlink:href="#ArialMT-72" x="755.859375"/>
    <use xlink:href="#ArialMT-63" x="789.160156"/>
    <use xlink:href="#ArialMT-65" x="839.160156"/>
    <use xlink:href="#ArialMT-70" x="894.775391"/>
    <use xlink:href="#ArialMT-74" x="950.390625"/>
    <use xlink:href="#ArialMT-20" x="978.173828"/>
    <use xlink:href="#ArialMT-28" x="1005.957031"/>
    <use xlink:href="#ArialMT-23" x="1039.257812"/>
    <use xlink:href="#ArialMT-20" x="1094.873047"/>
    <use xlink:href="#ArialMT-53" x="1122.65625"/>
    <use xlink:href="#ArialMT-61" x="1189.355469"/>
    <use xlink:href="#ArialMT-6d" x="1244.970703"/>
    <use xlink:href="#ArialMT-70" x="1328.271484"/>
    <use xlink:href="#ArialMT-6c" x="1383.886719"/>
    <use xlink:href="#ArialMT-65" x="1406.103516"/>
    <use xlink:href="#ArialMT-73" x="1461.71875"/>
    <use xlink:href="#ArialMT-20" x="1511.71875"/>
    <use xlink:href="#ArialMT-3d" x="1539.501953"/>
    <use xlink:href="#ArialMT-20" x="1597.900391"/>
    <use xlink:href="#ArialMT-31" x="1625.683594"/>
    <use xlink:href="#ArialMT-30" x="1681.298828"/>
    <use xlink:href="#ArialMT-30" x="1736.914062"/>
    <use xlink:href="#ArialMT-20" x="1792.529297"/>
    <use xlink:href="#ArialMT-7c" x="1820.3125"/>
    <use xlink:href="#ArialMT-20" x="1846.289062"/>
    <use xlink:href="#ArialMT-23" x="1874.072266"/>
    <use xlink:href="#ArialMT-20" x="1929.6875"/>
    <use xlink:href="#ArialMT-52" x="1957.470703"/>
    <use xlink:href="#ArialMT-65" x="2029.6875"/>
    <use xlink:href="#ArialMT-67" x="2085.302734"/>
    <use xlink:href="#ArialMT-72" x="2140.917969"/>
    <use xlink:href="#ArialMT-65" x="2174.21875"/>
    <use xlink:href="#ArialMT-73" x="2229.833984"/>
    <use xlink:href="#ArialMT-73" x="2279.833984"/>
    <use xlink:href="#ArialMT-69" x="2329.833984"/>
    <use xlink:href="#ArialMT-6f" x="2352.050781"/>
    <use xlink:href="#ArialMT-6e" x="2407.666016"/>
    <use xlink:href="#ArialMT-73" x="2463.28125"/>
    <use xlink:href="#ArialMT-20" x="2513.28125"/>
    <use xlink:href="#ArialMT-3d" x="2541.064453"/>
    <use xlink:href="#ArialMT-20" x="2599.462891"/>
    <use xlink:href="#ArialMT-31" x="2627.246094"/>
    <use xlink:href="#ArialMT-30" x="2682.861328"/>
    <use xlink:href="#ArialMT-30" x="2738.476562"/>
    <use xlink:href="#ArialMT-29" x="2794.091797"/>
   </g>
  </g>
 </g>
 <defs>
  <clipPath id="p3cb5586c4b">
   <rect x="55.8" y="55.678125" width="370.8" height="256.0875"/>
  </clipPath>
  <clipPath id="p0f3ca9e291">
   <rect x="482.4" y="55.678125" width="370.8" height="256.0875"/>
  </clipPath>
  <clipPath id="pba6552a2e8">
   <rect x="55.8" y="347.565625" width="370.8" height="256.0875"/>
  </clipPath>
  <clipPath id="pece0641cc3">
   <rect x="482.4" y="347.565625" width="370.8" height="256.0875"/>
  </clipPath>
 </defs>
</svg>
