<?xml version="1.0" encoding="utf-8" standalone="no"?>
<!DOCTYPE svg PUBLIC "-//W3C//DTD SVG 1.1//EN"
  "http://www.w3.org/Graphics/SVG/1.1/DTD/svg11.dtd">
<svg xmlns:xlink="http://www.w3.org/1999/xlink" width="864pt" height="648pt" viewBox="0 0 864 648" xmlns="http://www.w3.org/2000/svg" version="1.1">
 <metadata>
  <rdf:RDF xmlns:dc="http://purl.org/dc/elements/1.1/" xmlns:cc="http://creativecommons.org/ns#" xmlns:rdf="http://www.w3.org/1999/02/22-rdf-syntax-ns#">
   <cc:Work>
    <dc:type rdf:resource="http://purl.org/dc/dcmitype/StillImage"/>
    <dc:date>2023-02-04T11:49:54.668154</dc:date>
    <dc:format>image/svg+xml</dc:format>
    <dc:creator>
     <cc:Agent>
      <dc:title>Matplotlib v3.6.2, https://matplotlib.org/</dc:title>
     </cc:Agent>
    </dc:creator>
   </cc:Work>
  </rdf:RDF>
 </metadata>
 <defs>
  <style type="text/css">*{stroke-linejoin: round; stroke-linecap: butt}</style>
 </defs>
 <g id="figure_1">
  <g id="patch_1">
   <path d="M 0 648 
L 864 648 
L 864 0 
L 0 0 
L 0 648 
z
" style="fill: none"/>
  </g>
  <g id="axes_1">
   <g id="patch_2">
    <path d="M 55.8 311.890625 
L 426.6 311.890625 
L 426.6 55.88125 
L 55.8 55.88125 
z
" style="fill: #ffffff"/>
   </g>
   <g id="matplotlib.axis_1">
    <g id="xtick_1">
     <g id="line2d_1">
      <path d="M 99.716734 311.890625 
L 99.716734 55.88125 
" clip-path="url(#p4269c19be9)" style="fill: none; stroke: #cccccc; stroke-linecap: round"/>
     </g>
    </g>
    <g id="xtick_2">
     <g id="line2d_2">
      <path d="M 173.891548 311.890625 
L 173.891548 55.88125 
" clip-path="url(#p4269c19be9)" style="fill: none; stroke: #cccccc; stroke-linecap: round"/>
     </g>
    </g>
    <g id="xtick_3">
     <g id="line2d_3">
      <path d="M 248.066363 311.890625 
L 248.066363 55.88125 
" clip-path="url(#p4269c19be9)" style="fill: none; stroke: #cccccc; stroke-linecap: round"/>
     </g>
    </g>
    <g id="xtick_4">
     <g id="line2d_4">
      <path d="M 322.241178 311.890625 
L 322.241178 55.88125 
" clip-path="url(#p4269c19be9)" style="fill: none; stroke: #cccccc; stroke-linecap: round"/>
     </g>
    </g>
    <g id="xtick_5">
     <g id="line2d_5">
      <path d="M 396.415993 311.890625 
L 396.415993 55.88125 
" clip-path="url(#p4269c19be9)" style="fill: none; stroke: #cccccc; stroke-linecap: round"/>
     </g>
    </g>
   </g>
   <g id="matplotlib.axis_2">
    <g id="ytick_1">
     <g id="line2d_6">
      <path d="M 55.8 311.890625 
L 426.6 311.890625 
" clip-path="url(#p4269c19be9)" style="fill: none; stroke: #cccccc; stroke-linecap: round"/>
     </g>
     <g id="text_1">
      <!-- 0.0 -->
      <g style="fill: #262626" transform="translate(31.01 315.827422) scale(0.11 -0.11)">
       <defs>
        <path id="ArialMT-30" d="M 266 2259 
Q 266 3072 433 3567 
Q 600 4063 929 4331 
Q 1259 4600 1759 4600 
Q 2128 4600 2406 4451 
Q 2684 4303 2865 4023 
Q 3047 3744 3150 3342 
Q 3253 2941 3253 2259 
Q 3253 1453 3087 958 
Q 2922 463 2592 192 
Q 2263 -78 1759 -78 
Q 1097 -78 719 397 
Q 266 969 266 2259 
z
M 844 2259 
Q 844 1131 1108 757 
Q 1372 384 1759 384 
Q 2147 384 2411 759 
Q 2675 1134 2675 2259 
Q 2675 3391 2411 3762 
Q 2147 4134 1753 4134 
Q 1366 4134 1134 3806 
Q 844 3388 844 2259 
z
" transform="scale(0.015625)"/>
        <path id="ArialMT-2e" d="M 581 0 
L 581 641 
L 1222 641 
L 1222 0 
L 581 0 
z
" transform="scale(0.015625)"/>
       </defs>
       <use xlink:href="#ArialMT-30"/>
       <use xlink:href="#ArialMT-2e" x="55.615234"/>
       <use xlink:href="#ArialMT-30" x="83.398438"/>
      </g>
     </g>
    </g>
    <g id="ytick_2">
     <g id="line2d_7">
      <path d="M 55.8 281.413318 
L 426.6 281.413318 
" clip-path="url(#p4269c19be9)" style="fill: none; stroke: #cccccc; stroke-linecap: round"/>
     </g>
     <g id="text_2">
      <!-- 2.5 -->
      <g style="fill: #262626" transform="translate(31.01 285.350115) scale(0.11 -0.11)">
       <defs>
        <path id="ArialMT-32" d="M 3222 541 
L 3222 0 
L 194 0 
Q 188 203 259 391 
Q 375 700 629 1000 
Q 884 1300 1366 1694 
Q 2113 2306 2375 2664 
Q 2638 3022 2638 3341 
Q 2638 3675 2398 3904 
Q 2159 4134 1775 4134 
Q 1369 4134 1125 3890 
Q 881 3647 878 3216 
L 300 3275 
Q 359 3922 746 4261 
Q 1134 4600 1788 4600 
Q 2447 4600 2831 4234 
Q 3216 3869 3216 3328 
Q 3216 3053 3103 2787 
Q 2991 2522 2730 2228 
Q 2469 1934 1863 1422 
Q 1356 997 1212 845 
Q 1069 694 975 541 
L 3222 541 
z
" transform="scale(0.015625)"/>
        <path id="ArialMT-35" d="M 266 1200 
L 856 1250 
Q 922 819 1161 601 
Q 1400 384 1738 384 
Q 2144 384 2425 690 
Q 2706 997 2706 1503 
Q 2706 1984 2436 2262 
Q 2166 2541 1728 2541 
Q 1456 2541 1237 2417 
Q 1019 2294 894 2097 
L 366 2166 
L 809 4519 
L 3088 4519 
L 3088 3981 
L 1259 3981 
L 1013 2750 
Q 1425 3038 1878 3038 
Q 2478 3038 2890 2622 
Q 3303 2206 3303 1553 
Q 3303 931 2941 478 
Q 2500 -78 1738 -78 
Q 1113 -78 717 272 
Q 322 622 266 1200 
z
" transform="scale(0.015625)"/>
       </defs>
       <use xlink:href="#ArialMT-32"/>
       <use xlink:href="#ArialMT-2e" x="55.615234"/>
       <use xlink:href="#ArialMT-35" x="83.398438"/>
      </g>
     </g>
    </g>
    <g id="ytick_3">
     <g id="line2d_8">
      <path d="M 55.8 250.936012 
L 426.6 250.936012 
" clip-path="url(#p4269c19be9)" style="fill: none; stroke: #cccccc; stroke-linecap: round"/>
     </g>
     <g id="text_3">
      <!-- 5.0 -->
      <g style="fill: #262626" transform="translate(31.01 254.872809) scale(0.11 -0.11)">
       <use xlink:href="#ArialMT-35"/>
       <use xlink:href="#ArialMT-2e" x="55.615234"/>
       <use xlink:href="#ArialMT-30" x="83.398438"/>
      </g>
     </g>
    </g>
    <g id="ytick_4">
     <g id="line2d_9">
      <path d="M 55.8 220.458705 
L 426.6 220.458705 
" clip-path="url(#p4269c19be9)" style="fill: none; stroke: #cccccc; stroke-linecap: round"/>
     </g>
     <g id="text_4">
      <!-- 7.5 -->
      <g style="fill: #262626" transform="translate(31.01 224.395502) scale(0.11 -0.11)">
       <defs>
        <path id="ArialMT-37" d="M 303 3981 
L 303 4522 
L 3269 4522 
L 3269 4084 
Q 2831 3619 2401 2847 
Q 1972 2075 1738 1259 
Q 1569 684 1522 0 
L 944 0 
Q 953 541 1156 1306 
Q 1359 2072 1739 2783 
Q 2119 3494 2547 3981 
L 303 3981 
z
" transform="scale(0.015625)"/>
       </defs>
       <use xlink:href="#ArialMT-37"/>
       <use xlink:href="#ArialMT-2e" x="55.615234"/>
       <use xlink:href="#ArialMT-35" x="83.398438"/>
      </g>
     </g>
    </g>
    <g id="ytick_5">
     <g id="line2d_10">
      <path d="M 55.8 189.981399 
L 426.6 189.981399 
" clip-path="url(#p4269c19be9)" style="fill: none; stroke: #cccccc; stroke-linecap: round"/>
     </g>
     <g id="text_5">
      <!-- 10.0 -->
      <g style="fill: #262626" transform="translate(24.892969 193.918196) scale(0.11 -0.11)">
       <defs>
        <path id="ArialMT-31" d="M 2384 0 
L 1822 0 
L 1822 3584 
Q 1619 3391 1289 3197 
Q 959 3003 697 2906 
L 697 3450 
Q 1169 3672 1522 3987 
Q 1875 4303 2022 4600 
L 2384 4600 
L 2384 0 
z
" transform="scale(0.015625)"/>
       </defs>
       <use xlink:href="#ArialMT-31"/>
       <use xlink:href="#ArialMT-30" x="55.615234"/>
       <use xlink:href="#ArialMT-2e" x="111.230469"/>
       <use xlink:href="#ArialMT-30" x="139.013672"/>
      </g>
     </g>
    </g>
    <g id="ytick_6">
     <g id="line2d_11">
      <path d="M 55.8 159.504092 
L 426.6 159.504092 
" clip-path="url(#p4269c19be9)" style="fill: none; stroke: #cccccc; stroke-linecap: round"/>
     </g>
     <g id="text_6">
      <!-- 12.5 -->
      <g style="fill: #262626" transform="translate(24.892969 163.440889) scale(0.11 -0.11)">
       <use xlink:href="#ArialMT-31"/>
       <use xlink:href="#ArialMT-32" x="55.615234"/>
       <use xlink:href="#ArialMT-2e" x="111.230469"/>
       <use xlink:href="#ArialMT-35" x="139.013672"/>
      </g>
     </g>
    </g>
    <g id="ytick_7">
     <g id="line2d_12">
      <path d="M 55.8 129.026786 
L 426.6 129.026786 
" clip-path="url(#p4269c19be9)" style="fill: none; stroke: #cccccc; stroke-linecap: round"/>
     </g>
     <g id="text_7">
      <!-- 15.0 -->
      <g style="fill: #262626" transform="translate(24.892969 132.963583) scale(0.11 -0.11)">
       <use xlink:href="#ArialMT-31"/>
       <use xlink:href="#ArialMT-35" x="55.615234"/>
       <use xlink:href="#ArialMT-2e" x="111.230469"/>
       <use xlink:href="#ArialMT-30" x="139.013672"/>
      </g>
     </g>
    </g>
    <g id="ytick_8">
     <g id="line2d_13">
      <path d="M 55.8 98.549479 
L 426.6 98.549479 
" clip-path="url(#p4269c19be9)" style="fill: none; stroke: #cccccc; stroke-linecap: round"/>
     </g>
     <g id="text_8">
      <!-- 17.5 -->
      <g style="fill: #262626" transform="translate(24.892969 102.486276) scale(0.11 -0.11)">
       <use xlink:href="#ArialMT-31"/>
       <use xlink:href="#ArialMT-37" x="55.615234"/>
       <use xlink:href="#ArialMT-2e" x="111.230469"/>
       <use xlink:href="#ArialMT-35" x="139.013672"/>
      </g>
     </g>
    </g>
    <g id="ytick_9">
     <g id="line2d_14">
      <path d="M 55.8 68.072173 
L 426.6 68.072173 
" clip-path="url(#p4269c19be9)" style="fill: none; stroke: #cccccc; stroke-linecap: round"/>
     </g>
     <g id="text_9">
      <!-- 20.0 -->
      <g style="fill: #262626" transform="translate(24.892969 72.008969) scale(0.11 -0.11)">
       <use xlink:href="#ArialMT-32"/>
       <use xlink:href="#ArialMT-30" x="55.615234"/>
       <use xlink:href="#ArialMT-2e" x="111.230469"/>
       <use xlink:href="#ArialMT-30" x="139.013672"/>
      </g>
     </g>
    </g>
    <g id="text_10">
     <!-- Count -->
     <g style="fill: #262626" transform="translate(18.507969 199.895625) rotate(-90) scale(0.12 -0.12)">
      <defs>
       <path id="ArialMT-43" d="M 3763 1606 
L 4369 1453 
Q 4178 706 3683 314 
Q 3188 -78 2472 -78 
Q 1731 -78 1267 223 
Q 803 525 561 1097 
Q 319 1669 319 2325 
Q 319 3041 592 3573 
Q 866 4106 1370 4382 
Q 1875 4659 2481 4659 
Q 3169 4659 3637 4309 
Q 4106 3959 4291 3325 
L 3694 3184 
Q 3534 3684 3231 3912 
Q 2928 4141 2469 4141 
Q 1941 4141 1586 3887 
Q 1231 3634 1087 3207 
Q 944 2781 944 2328 
Q 944 1744 1114 1308 
Q 1284 872 1643 656 
Q 2003 441 2422 441 
Q 2931 441 3284 734 
Q 3638 1028 3763 1606 
z
" transform="scale(0.015625)"/>
       <path id="ArialMT-6f" d="M 213 1659 
Q 213 2581 725 3025 
Q 1153 3394 1769 3394 
Q 2453 3394 2887 2945 
Q 3322 2497 3322 1706 
Q 3322 1066 3130 698 
Q 2938 331 2570 128 
Q 2203 -75 1769 -75 
Q 1072 -75 642 372 
Q 213 819 213 1659 
z
M 791 1659 
Q 791 1022 1069 705 
Q 1347 388 1769 388 
Q 2188 388 2466 706 
Q 2744 1025 2744 1678 
Q 2744 2294 2464 2611 
Q 2184 2928 1769 2928 
Q 1347 2928 1069 2612 
Q 791 2297 791 1659 
z
" transform="scale(0.015625)"/>
       <path id="ArialMT-75" d="M 2597 0 
L 2597 488 
Q 2209 -75 1544 -75 
Q 1250 -75 995 37 
Q 741 150 617 320 
Q 494 491 444 738 
Q 409 903 409 1263 
L 409 3319 
L 972 3319 
L 972 1478 
Q 972 1038 1006 884 
Q 1059 663 1231 536 
Q 1403 409 1656 409 
Q 1909 409 2131 539 
Q 2353 669 2445 892 
Q 2538 1116 2538 1541 
L 2538 3319 
L 3100 3319 
L 3100 0 
L 2597 0 
z
" transform="scale(0.015625)"/>
       <path id="ArialMT-6e" d="M 422 0 
L 422 3319 
L 928 3319 
L 928 2847 
Q 1294 3394 1984 3394 
Q 2284 3394 2536 3286 
Q 2788 3178 2913 3003 
Q 3038 2828 3088 2588 
Q 3119 2431 3119 2041 
L 3119 0 
L 2556 0 
L 2556 2019 
Q 2556 2363 2490 2533 
Q 2425 2703 2258 2804 
Q 2091 2906 1866 2906 
Q 1506 2906 1245 2678 
Q 984 2450 984 1813 
L 984 0 
L 422 0 
z
" transform="scale(0.015625)"/>
       <path id="ArialMT-74" d="M 1650 503 
L 1731 6 
Q 1494 -44 1306 -44 
Q 1000 -44 831 53 
Q 663 150 594 308 
Q 525 466 525 972 
L 525 2881 
L 113 2881 
L 113 3319 
L 525 3319 
L 525 4141 
L 1084 4478 
L 1084 3319 
L 1650 3319 
L 1650 2881 
L 1084 2881 
L 1084 941 
Q 1084 700 1114 631 
Q 1144 563 1211 522 
Q 1278 481 1403 481 
Q 1497 481 1650 503 
z
" transform="scale(0.015625)"/>
      </defs>
      <use xlink:href="#ArialMT-43"/>
      <use xlink:href="#ArialMT-6f" x="72.216797"/>
      <use xlink:href="#ArialMT-75" x="127.832031"/>
      <use xlink:href="#ArialMT-6e" x="183.447266"/>
      <use xlink:href="#ArialMT-74" x="239.0625"/>
     </g>
    </g>
   </g>
   <g id="patch_3">
    <path d="M 79.592715 311.890625 
L 99.72379 311.890625 
L 99.72379 287.50878 
L 79.592715 287.50878 
z
" clip-path="url(#p4269c19be9)" style="fill: #4c72b0; fill-opacity: 0.5; stroke: #000000; stroke-linejoin: miter"/>
   </g>
   <g id="patch_4">
    <path d="M 99.72379 311.890625 
L 119.854866 311.890625 
L 119.854866 311.890625 
L 99.72379 311.890625 
z
" clip-path="url(#p4269c19be9)" style="fill: #4c72b0; fill-opacity: 0.5; stroke: #000000; stroke-linejoin: miter"/>
   </g>
   <g id="patch_5">
    <path d="M 119.854866 311.890625 
L 139.985941 311.890625 
L 139.985941 250.936012 
L 119.854866 250.936012 
z
" clip-path="url(#p4269c19be9)" style="fill: #4c72b0; fill-opacity: 0.5; stroke: #000000; stroke-linejoin: miter"/>
   </g>
   <g id="patch_6">
    <path d="M 139.985941 311.890625 
L 160.117016 311.890625 
L 160.117016 165.599554 
L 139.985941 165.599554 
z
" clip-path="url(#p4269c19be9)" style="fill: #4c72b0; fill-opacity: 0.5; stroke: #000000; stroke-linejoin: miter"/>
   </g>
   <g id="patch_7">
    <path d="M 160.117016 311.890625 
L 180.248091 311.890625 
L 180.248091 68.072173 
L 160.117016 68.072173 
z
" clip-path="url(#p4269c19be9)" style="fill: #4c72b0; fill-opacity: 0.5; stroke: #000000; stroke-linejoin: miter"/>
   </g>
   <g id="patch_8">
    <path d="M 180.248091 311.890625 
L 200.379167 311.890625 
L 200.379167 80.263095 
L 180.248091 80.263095 
z
" clip-path="url(#p4269c19be9)" style="fill: #4c72b0; fill-opacity: 0.5; stroke: #000000; stroke-linejoin: miter"/>
   </g>
   <g id="patch_9">
    <path d="M 200.379167 311.890625 
L 220.510242 311.890625 
L 220.510242 92.454018 
L 200.379167 92.454018 
z
" clip-path="url(#p4269c19be9)" style="fill: #4c72b0; fill-opacity: 0.5; stroke: #000000; stroke-linejoin: miter"/>
   </g>
   <g id="patch_10">
    <path d="M 220.510242 311.890625 
L 240.641317 311.890625 
L 240.641317 189.981399 
L 220.510242 189.981399 
z
" clip-path="url(#p4269c19be9)" style="fill: #4c72b0; fill-opacity: 0.5; stroke: #000000; stroke-linejoin: miter"/>
   </g>
   <g id="patch_11">
    <path d="M 240.641317 311.890625 
L 260.772392 311.890625 
L 260.772392 189.981399 
L 240.641317 189.981399 
z
" clip-path="url(#p4269c19be9)" style="fill: #4c72b0; fill-opacity: 0.5; stroke: #000000; stroke-linejoin: miter"/>
   </g>
   <g id="patch_12">
    <path d="M 260.772392 311.890625 
L 280.903468 311.890625 
L 280.903468 287.50878 
L 260.772392 287.50878 
z
" clip-path="url(#p4269c19be9)" style="fill: #4c72b0; fill-opacity: 0.5; stroke: #000000; stroke-linejoin: miter"/>
   </g>
   <g id="patch_13">
    <path d="M 280.903468 311.890625 
L 301.034543 311.890625 
L 301.034543 287.50878 
L 280.903468 287.50878 
z
" clip-path="url(#p4269c19be9)" style="fill: #4c72b0; fill-opacity: 0.5; stroke: #000000; stroke-linejoin: miter"/>
   </g>
   <g id="line2d_15">
    <path d="M 79.592715 300.65121 
L 82.931034 299.836746 
L 86.269353 299.245488 
L 96.28431 297.732377 
L 98.509856 297.093124 
L 100.735402 296.196097 
L 102.960948 294.973456 
L 105.186494 293.363952 
L 107.41204 291.316079 
L 109.637586 288.790357 
L 111.863132 285.760604 
L 114.088678 282.214116 
L 116.314224 278.150841 
L 118.53977 273.581699 
L 120.765316 268.526328 
L 122.990862 263.010526 
L 126.329181 253.938251 
L 129.6675 243.999263 
L 133.005819 233.290467 
L 136.344138 221.896147 
L 140.79523 205.758924 
L 145.246322 188.678748 
L 150.810187 166.272419 
L 161.937917 120.669828 
L 165.276236 108.057783 
L 167.501782 100.326393 
L 169.727328 93.311514 
L 171.952874 87.159029 
L 174.17842 82.000007 
L 175.291193 79.827444 
L 176.403966 77.940584 
L 177.516739 76.347325 
L 178.629512 75.053009 
L 179.742285 74.060287 
L 180.855058 73.369034 
L 181.967831 72.976336 
L 183.080604 72.876531 
L 184.193377 73.061313 
L 185.30615 73.519891 
L 186.418923 74.23921 
L 187.531696 75.204206 
L 188.644469 76.398111 
L 189.757242 77.802784 
L 191.982788 81.167112 
L 194.208334 85.138096 
L 196.43388 89.55733 
L 199.772199 96.708857 
L 212.012703 123.507267 
L 226.478752 153.985499 
L 230.929844 164.19828 
L 235.380936 175.124992 
L 239.832028 186.766393 
L 245.395893 202.117706 
L 257.636396 236.410783 
L 260.974715 245.141599 
L 264.313034 253.323535 
L 267.651353 260.835133 
L 269.876899 265.423381 
L 272.102445 269.653059 
L 274.327991 273.513329 
L 276.553537 277.002037 
L 278.779083 280.126196 
L 281.004629 282.902086 
L 283.230175 285.354835 
L 285.455721 287.517376 
L 287.681267 289.428758 
L 291.019586 291.919142 
L 294.357905 294.08791 
L 298.808997 296.701924 
L 301.034543 297.953095 
L 301.034543 297.953095 
" clip-path="url(#p4269c19be9)" style="fill: none; stroke: #4c72b0; stroke-width: 1.5; stroke-linecap: round"/>
   </g>
   <g id="line2d_16">
    <path d="M 90.317309 311.890625 
L 90.317309 55.88125 
" clip-path="url(#p4269c19be9)" style="fill: none; stroke-dasharray: 5.55,2.4; stroke-dashoffset: 0; stroke: #55a868; stroke-width: 1.5"/>
   </g>
   <g id="patch_14">
    <path d="M 55.8 311.890625 
L 55.8 55.88125 
" style="fill: none; stroke: #cccccc; stroke-width: 1.25; stroke-linejoin: miter; stroke-linecap: square"/>
   </g>
   <g id="patch_15">
    <path d="M 426.6 311.890625 
L 426.6 55.88125 
" style="fill: none; stroke: #cccccc; stroke-width: 1.25; stroke-linejoin: miter; stroke-linecap: square"/>
   </g>
   <g id="patch_16">
    <path d="M 55.8 311.890625 
L 426.6 311.890625 
" style="fill: none; stroke: #cccccc; stroke-width: 1.25; stroke-linejoin: miter; stroke-linecap: square"/>
   </g>
   <g id="patch_17">
    <path d="M 55.8 55.88125 
L 426.6 55.88125 
" style="fill: none; stroke: #cccccc; stroke-width: 1.25; stroke-linejoin: miter; stroke-linecap: square"/>
   </g>
   <g id="text_11">
    <!-- OLS ($\mu = 0.0213, \sigma = 0.0027$) -->
    <g style="fill: #262626" transform="translate(141.87 49.88125) scale(0.14 -0.14)">
     <defs>
      <path id="ArialMT-4f" d="M 309 2231 
Q 309 3372 921 4017 
Q 1534 4663 2503 4663 
Q 3138 4663 3647 4359 
Q 4156 4056 4423 3514 
Q 4691 2972 4691 2284 
Q 4691 1588 4409 1038 
Q 4128 488 3612 205 
Q 3097 -78 2500 -78 
Q 1853 -78 1343 234 
Q 834 547 571 1087 
Q 309 1628 309 2231 
z
M 934 2222 
Q 934 1394 1379 917 
Q 1825 441 2497 441 
Q 3181 441 3623 922 
Q 4066 1403 4066 2288 
Q 4066 2847 3877 3264 
Q 3688 3681 3323 3911 
Q 2959 4141 2506 4141 
Q 1863 4141 1398 3698 
Q 934 3256 934 2222 
z
" transform="scale(0.015625)"/>
      <path id="ArialMT-4c" d="M 469 0 
L 469 4581 
L 1075 4581 
L 1075 541 
L 3331 541 
L 3331 0 
L 469 0 
z
" transform="scale(0.015625)"/>
      <path id="ArialMT-53" d="M 288 1472 
L 859 1522 
Q 900 1178 1048 958 
Q 1197 738 1509 602 
Q 1822 466 2213 466 
Q 2559 466 2825 569 
Q 3091 672 3220 851 
Q 3350 1031 3350 1244 
Q 3350 1459 3225 1620 
Q 3100 1781 2813 1891 
Q 2628 1963 1997 2114 
Q 1366 2266 1113 2400 
Q 784 2572 623 2826 
Q 463 3081 463 3397 
Q 463 3744 659 4045 
Q 856 4347 1234 4503 
Q 1613 4659 2075 4659 
Q 2584 4659 2973 4495 
Q 3363 4331 3572 4012 
Q 3781 3694 3797 3291 
L 3216 3247 
Q 3169 3681 2898 3903 
Q 2628 4125 2100 4125 
Q 1550 4125 1298 3923 
Q 1047 3722 1047 3438 
Q 1047 3191 1225 3031 
Q 1400 2872 2139 2705 
Q 2878 2538 3153 2413 
Q 3553 2228 3743 1945 
Q 3934 1663 3934 1294 
Q 3934 928 3725 604 
Q 3516 281 3123 101 
Q 2731 -78 2241 -78 
Q 1619 -78 1198 103 
Q 778 284 539 648 
Q 300 1013 288 1472 
z
" transform="scale(0.015625)"/>
      <path id="ArialMT-20" transform="scale(0.015625)"/>
      <path id="ArialMT-28" d="M 1497 -1347 
Q 1031 -759 709 28 
Q 388 816 388 1659 
Q 388 2403 628 3084 
Q 909 3875 1497 4659 
L 1900 4659 
Q 1522 4009 1400 3731 
Q 1209 3300 1100 2831 
Q 966 2247 966 1656 
Q 966 153 1900 -1347 
L 1497 -1347 
z
" transform="scale(0.015625)"/>
      <path id="DejaVuSans-Oblique-3bc" d="M -84 -1331 
L 856 3500 
L 1434 3500 
L 1009 1322 
Q 997 1256 987 1175 
Q 978 1094 978 1013 
Q 978 722 1161 565 
Q 1344 409 1684 409 
Q 2147 409 2431 671 
Q 2716 934 2816 1459 
L 3213 3500 
L 3788 3500 
L 3266 809 
Q 3253 750 3248 706 
Q 3244 663 3244 628 
Q 3244 531 3283 486 
Q 3322 441 3406 441 
Q 3438 441 3492 456 
Q 3547 472 3647 513 
L 3559 50 
Q 3422 -19 3297 -55 
Q 3172 -91 3053 -91 
Q 2847 -91 2730 40 
Q 2613 172 2613 403 
Q 2438 153 2195 31 
Q 1953 -91 1625 -91 
Q 1334 -91 1117 43 
Q 900 178 831 397 
L 494 -1331 
L -84 -1331 
z
" transform="scale(0.015625)"/>
      <path id="DejaVuSans-3d" d="M 678 2906 
L 4684 2906 
L 4684 2381 
L 678 2381 
L 678 2906 
z
M 678 1631 
L 4684 1631 
L 4684 1100 
L 678 1100 
L 678 1631 
z
" transform="scale(0.015625)"/>
      <path id="DejaVuSans-30" d="M 2034 4250 
Q 1547 4250 1301 3770 
Q 1056 3291 1056 2328 
Q 1056 1369 1301 889 
Q 1547 409 2034 409 
Q 2525 409 2770 889 
Q 3016 1369 3016 2328 
Q 3016 3291 2770 3770 
Q 2525 4250 2034 4250 
z
M 2034 4750 
Q 2819 4750 3233 4129 
Q 3647 3509 3647 2328 
Q 3647 1150 3233 529 
Q 2819 -91 2034 -91 
Q 1250 -91 836 529 
Q 422 1150 422 2328 
Q 422 3509 836 4129 
Q 1250 4750 2034 4750 
z
" transform="scale(0.015625)"/>
      <path id="DejaVuSans-2e" d="M 684 794 
L 1344 794 
L 1344 0 
L 684 0 
L 684 794 
z
" transform="scale(0.015625)"/>
      <path id="DejaVuSans-32" d="M 1228 531 
L 3431 531 
L 3431 0 
L 469 0 
L 469 531 
Q 828 903 1448 1529 
Q 2069 2156 2228 2338 
Q 2531 2678 2651 2914 
Q 2772 3150 2772 3378 
Q 2772 3750 2511 3984 
Q 2250 4219 1831 4219 
Q 1534 4219 1204 4116 
Q 875 4013 500 3803 
L 500 4441 
Q 881 4594 1212 4672 
Q 1544 4750 1819 4750 
Q 2544 4750 2975 4387 
Q 3406 4025 3406 3419 
Q 3406 3131 3298 2873 
Q 3191 2616 2906 2266 
Q 2828 2175 2409 1742 
Q 1991 1309 1228 531 
z
" transform="scale(0.015625)"/>
      <path id="DejaVuSans-31" d="M 794 531 
L 1825 531 
L 1825 4091 
L 703 3866 
L 703 4441 
L 1819 4666 
L 2450 4666 
L 2450 531 
L 3481 531 
L 3481 0 
L 794 0 
L 794 531 
z
" transform="scale(0.015625)"/>
      <path id="DejaVuSans-33" d="M 2597 2516 
Q 3050 2419 3304 2112 
Q 3559 1806 3559 1356 
Q 3559 666 3084 287 
Q 2609 -91 1734 -91 
Q 1441 -91 1130 -33 
Q 819 25 488 141 
L 488 750 
Q 750 597 1062 519 
Q 1375 441 1716 441 
Q 2309 441 2620 675 
Q 2931 909 2931 1356 
Q 2931 1769 2642 2001 
Q 2353 2234 1838 2234 
L 1294 2234 
L 1294 2753 
L 1863 2753 
Q 2328 2753 2575 2939 
Q 2822 3125 2822 3475 
Q 2822 3834 2567 4026 
Q 2313 4219 1838 4219 
Q 1578 4219 1281 4162 
Q 984 4106 628 3988 
L 628 4550 
Q 988 4650 1302 4700 
Q 1616 4750 1894 4750 
Q 2613 4750 3031 4423 
Q 3450 4097 3450 3541 
Q 3450 3153 3228 2886 
Q 3006 2619 2597 2516 
z
" transform="scale(0.015625)"/>
      <path id="DejaVuSans-2c" d="M 750 794 
L 1409 794 
L 1409 256 
L 897 -744 
L 494 -744 
L 750 256 
L 750 794 
z
" transform="scale(0.015625)"/>
      <path id="DejaVuSans-Oblique-3c3" d="M 2219 3044 
Q 1744 3044 1422 2700 
Q 1081 2341 969 1747 
Q 844 1119 1044 756 
Q 1241 397 1706 397 
Q 2166 397 2503 759 
Q 2844 1122 2966 1747 
Q 3075 2319 2881 2700 
Q 2700 3044 2219 3044 
z
M 2309 3503 
L 4219 3500 
L 4106 2925 
L 3463 2925 
Q 3706 2438 3575 1747 
Q 3406 888 2884 400 
Q 2359 -91 1609 -91 
Q 856 -91 525 400 
Q 194 888 363 1747 
Q 528 2609 1050 3097 
Q 1484 3503 2309 3503 
z
" transform="scale(0.015625)"/>
      <path id="DejaVuSans-37" d="M 525 4666 
L 3525 4666 
L 3525 4397 
L 1831 0 
L 1172 0 
L 2766 4134 
L 525 4134 
L 525 4666 
z
" transform="scale(0.015625)"/>
      <path id="ArialMT-29" d="M 791 -1347 
L 388 -1347 
Q 1322 153 1322 1656 
Q 1322 2244 1188 2822 
Q 1081 3291 891 3722 
Q 769 4003 388 4659 
L 791 4659 
Q 1378 3875 1659 3084 
Q 1900 2403 1900 1659 
Q 1900 816 1576 28 
Q 1253 -759 791 -1347 
z
" transform="scale(0.015625)"/>
     </defs>
     <use xlink:href="#ArialMT-4f" transform="translate(0 0.78125)"/>
     <use xlink:href="#ArialMT-4c" transform="translate(77.783203 0.78125)"/>
     <use xlink:href="#ArialMT-53" transform="translate(133.398438 0.78125)"/>
     <use xlink:href="#ArialMT-20" transform="translate(200.097656 0.78125)"/>
     <use xlink:href="#ArialMT-28" transform="translate(227.880859 0.78125)"/>
     <use xlink:href="#DejaVuSans-Oblique-3bc" transform="translate(261.181641 0.78125)"/>
     <use xlink:href="#DejaVuSans-3d" transform="translate(344.287109 0.78125)"/>
     <use xlink:href="#DejaVuSans-30" transform="translate(447.558594 0.78125)"/>
     <use xlink:href="#DejaVuSans-2e" transform="translate(511.181641 0.78125)"/>
     <use xlink:href="#DejaVuSans-30" transform="translate(542.96875 0.78125)"/>
     <use xlink:href="#DejaVuSans-32" transform="translate(606.591797 0.78125)"/>
     <use xlink:href="#DejaVuSans-31" transform="translate(670.214844 0.78125)"/>
     <use xlink:href="#DejaVuSans-33" transform="translate(733.837891 0.78125)"/>
     <use xlink:href="#DejaVuSans-2c" transform="translate(797.460938 0.78125)"/>
     <use xlink:href="#DejaVuSans-Oblique-3c3" transform="translate(848.730469 0.78125)"/>
     <use xlink:href="#DejaVuSans-3d" transform="translate(931.591797 0.78125)"/>
     <use xlink:href="#DejaVuSans-30" transform="translate(1034.863281 0.78125)"/>
     <use xlink:href="#DejaVuSans-2e" transform="translate(1098.486328 0.78125)"/>
     <use xlink:href="#DejaVuSans-30" transform="translate(1130.273438 0.78125)"/>
     <use xlink:href="#DejaVuSans-30" transform="translate(1193.896484 0.78125)"/>
     <use xlink:href="#DejaVuSans-32" transform="translate(1257.519531 0.78125)"/>
     <use xlink:href="#DejaVuSans-37" transform="translate(1321.142578 0.78125)"/>
     <use xlink:href="#ArialMT-29" transform="translate(1384.765625 0.78125)"/>
    </g>
   </g>
   <g id="legend_1">
    <g id="patch_18">
     <path d="M 311.988594 80.241094 
L 418.9 80.241094 
Q 421.1 80.241094 421.1 78.041094 
L 421.1 63.58125 
Q 421.1 61.38125 418.9 61.38125 
L 311.988594 61.38125 
Q 309.788594 61.38125 309.788594 63.58125 
L 309.788594 78.041094 
Q 309.788594 80.241094 311.988594 80.241094 
z
" style="fill: #ffffff; opacity: 0.8; stroke: #cccccc; stroke-linejoin: miter"/>
    </g>
    <g id="line2d_17">
     <path d="M 314.188594 69.804844 
L 325.188594 69.804844 
L 336.188594 69.804844 
" style="fill: none; stroke-dasharray: 5.55,2.4; stroke-dashoffset: 0; stroke: #55a868; stroke-width: 1.5"/>
    </g>
    <g id="text_12">
     <!-- True Estimator -->
     <g style="fill: #262626" transform="translate(344.988594 73.654844) scale(0.11 -0.11)">
      <defs>
       <path id="ArialMT-54" d="M 1659 0 
L 1659 4041 
L 150 4041 
L 150 4581 
L 3781 4581 
L 3781 4041 
L 2266 4041 
L 2266 0 
L 1659 0 
z
" transform="scale(0.015625)"/>
       <path id="ArialMT-72" d="M 416 0 
L 416 3319 
L 922 3319 
L 922 2816 
Q 1116 3169 1280 3281 
Q 1444 3394 1641 3394 
Q 1925 3394 2219 3213 
L 2025 2691 
Q 1819 2813 1613 2813 
Q 1428 2813 1281 2702 
Q 1134 2591 1072 2394 
Q 978 2094 978 1738 
L 978 0 
L 416 0 
z
" transform="scale(0.015625)"/>
       <path id="ArialMT-65" d="M 2694 1069 
L 3275 997 
Q 3138 488 2766 206 
Q 2394 -75 1816 -75 
Q 1088 -75 661 373 
Q 234 822 234 1631 
Q 234 2469 665 2931 
Q 1097 3394 1784 3394 
Q 2450 3394 2872 2941 
Q 3294 2488 3294 1666 
Q 3294 1616 3291 1516 
L 816 1516 
Q 847 969 1125 678 
Q 1403 388 1819 388 
Q 2128 388 2347 550 
Q 2566 713 2694 1069 
z
M 847 1978 
L 2700 1978 
Q 2663 2397 2488 2606 
Q 2219 2931 1791 2931 
Q 1403 2931 1139 2672 
Q 875 2413 847 1978 
z
" transform="scale(0.015625)"/>
       <path id="ArialMT-45" d="M 506 0 
L 506 4581 
L 3819 4581 
L 3819 4041 
L 1113 4041 
L 1113 2638 
L 3647 2638 
L 3647 2100 
L 1113 2100 
L 1113 541 
L 3925 541 
L 3925 0 
L 506 0 
z
" transform="scale(0.015625)"/>
       <path id="ArialMT-73" d="M 197 991 
L 753 1078 
Q 800 744 1014 566 
Q 1228 388 1613 388 
Q 2000 388 2187 545 
Q 2375 703 2375 916 
Q 2375 1106 2209 1216 
Q 2094 1291 1634 1406 
Q 1016 1563 777 1677 
Q 538 1791 414 1992 
Q 291 2194 291 2438 
Q 291 2659 392 2848 
Q 494 3038 669 3163 
Q 800 3259 1026 3326 
Q 1253 3394 1513 3394 
Q 1903 3394 2198 3281 
Q 2494 3169 2634 2976 
Q 2775 2784 2828 2463 
L 2278 2388 
Q 2241 2644 2061 2787 
Q 1881 2931 1553 2931 
Q 1166 2931 1000 2803 
Q 834 2675 834 2503 
Q 834 2394 903 2306 
Q 972 2216 1119 2156 
Q 1203 2125 1616 2013 
Q 2213 1853 2448 1751 
Q 2684 1650 2818 1456 
Q 2953 1263 2953 975 
Q 2953 694 2789 445 
Q 2625 197 2315 61 
Q 2006 -75 1616 -75 
Q 969 -75 630 194 
Q 291 463 197 991 
z
" transform="scale(0.015625)"/>
       <path id="ArialMT-69" d="M 425 3934 
L 425 4581 
L 988 4581 
L 988 3934 
L 425 3934 
z
M 425 0 
L 425 3319 
L 988 3319 
L 988 0 
L 425 0 
z
" transform="scale(0.015625)"/>
       <path id="ArialMT-6d" d="M 422 0 
L 422 3319 
L 925 3319 
L 925 2853 
Q 1081 3097 1340 3245 
Q 1600 3394 1931 3394 
Q 2300 3394 2536 3241 
Q 2772 3088 2869 2813 
Q 3263 3394 3894 3394 
Q 4388 3394 4653 3120 
Q 4919 2847 4919 2278 
L 4919 0 
L 4359 0 
L 4359 2091 
Q 4359 2428 4304 2576 
Q 4250 2725 4106 2815 
Q 3963 2906 3769 2906 
Q 3419 2906 3187 2673 
Q 2956 2441 2956 1928 
L 2956 0 
L 2394 0 
L 2394 2156 
Q 2394 2531 2256 2718 
Q 2119 2906 1806 2906 
Q 1569 2906 1367 2781 
Q 1166 2656 1075 2415 
Q 984 2175 984 1722 
L 984 0 
L 422 0 
z
" transform="scale(0.015625)"/>
       <path id="ArialMT-61" d="M 2588 409 
Q 2275 144 1986 34 
Q 1697 -75 1366 -75 
Q 819 -75 525 192 
Q 231 459 231 875 
Q 231 1119 342 1320 
Q 453 1522 633 1644 
Q 813 1766 1038 1828 
Q 1203 1872 1538 1913 
Q 2219 1994 2541 2106 
Q 2544 2222 2544 2253 
Q 2544 2597 2384 2738 
Q 2169 2928 1744 2928 
Q 1347 2928 1158 2789 
Q 969 2650 878 2297 
L 328 2372 
Q 403 2725 575 2942 
Q 747 3159 1072 3276 
Q 1397 3394 1825 3394 
Q 2250 3394 2515 3294 
Q 2781 3194 2906 3042 
Q 3031 2891 3081 2659 
Q 3109 2516 3109 2141 
L 3109 1391 
Q 3109 606 3145 398 
Q 3181 191 3288 0 
L 2700 0 
Q 2613 175 2588 409 
z
M 2541 1666 
Q 2234 1541 1622 1453 
Q 1275 1403 1131 1340 
Q 988 1278 909 1158 
Q 831 1038 831 891 
Q 831 666 1001 516 
Q 1172 366 1500 366 
Q 1825 366 2078 508 
Q 2331 650 2450 897 
Q 2541 1088 2541 1459 
L 2541 1666 
z
" transform="scale(0.015625)"/>
      </defs>
      <use xlink:href="#ArialMT-54"/>
      <use xlink:href="#ArialMT-72" x="57.333984"/>
      <use xlink:href="#ArialMT-75" x="90.634766"/>
      <use xlink:href="#ArialMT-65" x="146.25"/>
      <use xlink:href="#ArialMT-20" x="201.865234"/>
      <use xlink:href="#ArialMT-45" x="229.648438"/>
      <use xlink:href="#ArialMT-73" x="296.347656"/>
      <use xlink:href="#ArialMT-74" x="346.347656"/>
      <use xlink:href="#ArialMT-69" x="374.130859"/>
      <use xlink:href="#ArialMT-6d" x="396.347656"/>
      <use xlink:href="#ArialMT-61" x="479.648438"/>
      <use xlink:href="#ArialMT-74" x="535.263672"/>
      <use xlink:href="#ArialMT-6f" x="563.046875"/>
      <use xlink:href="#ArialMT-72" x="618.662109"/>
     </g>
    </g>
   </g>
  </g>
  <g id="axes_2">
   <g id="patch_19">
    <path d="M 482.4 311.890625 
L 853.2 311.890625 
L 853.2 55.88125 
L 482.4 55.88125 
z
" style="fill: #ffffff"/>
   </g>
   <g id="matplotlib.axis_3">
    <g id="xtick_6">
     <g id="line2d_18">
      <path d="M 526.316734 311.890625 
L 526.316734 55.88125 
" clip-path="url(#p2cf7668631)" style="fill: none; stroke: #cccccc; stroke-linecap: round"/>
     </g>
    </g>
    <g id="xtick_7">
     <g id="line2d_19">
      <path d="M 600.491548 311.890625 
L 600.491548 55.88125 
" clip-path="url(#p2cf7668631)" style="fill: none; stroke: #cccccc; stroke-linecap: round"/>
     </g>
    </g>
    <g id="xtick_8">
     <g id="line2d_20">
      <path d="M 674.666363 311.890625 
L 674.666363 55.88125 
" clip-path="url(#p2cf7668631)" style="fill: none; stroke: #cccccc; stroke-linecap: round"/>
     </g>
    </g>
    <g id="xtick_9">
     <g id="line2d_21">
      <path d="M 748.841178 311.890625 
L 748.841178 55.88125 
" clip-path="url(#p2cf7668631)" style="fill: none; stroke: #cccccc; stroke-linecap: round"/>
     </g>
    </g>
    <g id="xtick_10">
     <g id="line2d_22">
      <path d="M 823.015993 311.890625 
L 823.015993 55.88125 
" clip-path="url(#p2cf7668631)" style="fill: none; stroke: #cccccc; stroke-linecap: round"/>
     </g>
    </g>
   </g>
   <g id="matplotlib.axis_4">
    <g id="ytick_10">
     <g id="line2d_23">
      <path d="M 482.4 311.890625 
L 853.2 311.890625 
" clip-path="url(#p2cf7668631)" style="fill: none; stroke: #cccccc; stroke-linecap: round"/>
     </g>
     <g id="text_13">
      <!-- 0.0 -->
      <g style="fill: #262626" transform="translate(457.61 315.827422) scale(0.11 -0.11)">
       <use xlink:href="#ArialMT-30"/>
       <use xlink:href="#ArialMT-2e" x="55.615234"/>
       <use xlink:href="#ArialMT-30" x="83.398438"/>
      </g>
     </g>
    </g>
    <g id="ytick_11">
     <g id="line2d_24">
      <path d="M 482.4 282.864619 
L 853.2 282.864619 
" clip-path="url(#p2cf7668631)" style="fill: none; stroke: #cccccc; stroke-linecap: round"/>
     </g>
     <g id="text_14">
      <!-- 2.5 -->
      <g style="fill: #262626" transform="translate(457.61 286.801416) scale(0.11 -0.11)">
       <use xlink:href="#ArialMT-32"/>
       <use xlink:href="#ArialMT-2e" x="55.615234"/>
       <use xlink:href="#ArialMT-35" x="83.398438"/>
      </g>
     </g>
    </g>
    <g id="ytick_12">
     <g id="line2d_25">
      <path d="M 482.4 253.838613 
L 853.2 253.838613 
" clip-path="url(#p2cf7668631)" style="fill: none; stroke: #cccccc; stroke-linecap: round"/>
     </g>
     <g id="text_15">
      <!-- 5.0 -->
      <g style="fill: #262626" transform="translate(457.61 257.775409) scale(0.11 -0.11)">
       <use xlink:href="#ArialMT-35"/>
       <use xlink:href="#ArialMT-2e" x="55.615234"/>
       <use xlink:href="#ArialMT-30" x="83.398438"/>
      </g>
     </g>
    </g>
    <g id="ytick_13">
     <g id="line2d_26">
      <path d="M 482.4 224.812606 
L 853.2 224.812606 
" clip-path="url(#p2cf7668631)" style="fill: none; stroke: #cccccc; stroke-linecap: round"/>
     </g>
     <g id="text_16">
      <!-- 7.5 -->
      <g style="fill: #262626" transform="translate(457.61 228.749403) scale(0.11 -0.11)">
       <use xlink:href="#ArialMT-37"/>
       <use xlink:href="#ArialMT-2e" x="55.615234"/>
       <use xlink:href="#ArialMT-35" x="83.398438"/>
      </g>
     </g>
    </g>
    <g id="ytick_14">
     <g id="line2d_27">
      <path d="M 482.4 195.7866 
L 853.2 195.7866 
" clip-path="url(#p2cf7668631)" style="fill: none; stroke: #cccccc; stroke-linecap: round"/>
     </g>
     <g id="text_17">
      <!-- 10.0 -->
      <g style="fill: #262626" transform="translate(451.492969 199.723397) scale(0.11 -0.11)">
       <use xlink:href="#ArialMT-31"/>
       <use xlink:href="#ArialMT-30" x="55.615234"/>
       <use xlink:href="#ArialMT-2e" x="111.230469"/>
       <use xlink:href="#ArialMT-30" x="139.013672"/>
      </g>
     </g>
    </g>
    <g id="ytick_15">
     <g id="line2d_28">
      <path d="M 482.4 166.760594 
L 853.2 166.760594 
" clip-path="url(#p2cf7668631)" style="fill: none; stroke: #cccccc; stroke-linecap: round"/>
     </g>
     <g id="text_18">
      <!-- 12.5 -->
      <g style="fill: #262626" transform="translate(451.492969 170.697391) scale(0.11 -0.11)">
       <use xlink:href="#ArialMT-31"/>
       <use xlink:href="#ArialMT-32" x="55.615234"/>
       <use xlink:href="#ArialMT-2e" x="111.230469"/>
       <use xlink:href="#ArialMT-35" x="139.013672"/>
      </g>
     </g>
    </g>
    <g id="ytick_16">
     <g id="line2d_29">
      <path d="M 482.4 137.734588 
L 853.2 137.734588 
" clip-path="url(#p2cf7668631)" style="fill: none; stroke: #cccccc; stroke-linecap: round"/>
     </g>
     <g id="text_19">
      <!-- 15.0 -->
      <g style="fill: #262626" transform="translate(451.492969 141.671384) scale(0.11 -0.11)">
       <use xlink:href="#ArialMT-31"/>
       <use xlink:href="#ArialMT-35" x="55.615234"/>
       <use xlink:href="#ArialMT-2e" x="111.230469"/>
       <use xlink:href="#ArialMT-30" x="139.013672"/>
      </g>
     </g>
    </g>
    <g id="ytick_17">
     <g id="line2d_30">
      <path d="M 482.4 108.708581 
L 853.2 108.708581 
" clip-path="url(#p2cf7668631)" style="fill: none; stroke: #cccccc; stroke-linecap: round"/>
     </g>
     <g id="text_20">
      <!-- 17.5 -->
      <g style="fill: #262626" transform="translate(451.492969 112.645378) scale(0.11 -0.11)">
       <use xlink:href="#ArialMT-31"/>
       <use xlink:href="#ArialMT-37" x="55.615234"/>
       <use xlink:href="#ArialMT-2e" x="111.230469"/>
       <use xlink:href="#ArialMT-35" x="139.013672"/>
      </g>
     </g>
    </g>
    <g id="ytick_18">
     <g id="line2d_31">
      <path d="M 482.4 79.682575 
L 853.2 79.682575 
" clip-path="url(#p2cf7668631)" style="fill: none; stroke: #cccccc; stroke-linecap: round"/>
     </g>
     <g id="text_21">
      <!-- 20.0 -->
      <g style="fill: #262626" transform="translate(451.492969 83.619372) scale(0.11 -0.11)">
       <use xlink:href="#ArialMT-32"/>
       <use xlink:href="#ArialMT-30" x="55.615234"/>
       <use xlink:href="#ArialMT-2e" x="111.230469"/>
       <use xlink:href="#ArialMT-30" x="139.013672"/>
      </g>
     </g>
    </g>
    <g id="text_22">
     <!-- Count -->
     <g style="fill: #262626" transform="translate(445.107969 199.895625) rotate(-90) scale(0.12 -0.12)">
      <use xlink:href="#ArialMT-43"/>
      <use xlink:href="#ArialMT-6f" x="72.216797"/>
      <use xlink:href="#ArialMT-75" x="127.832031"/>
      <use xlink:href="#ArialMT-6e" x="183.447266"/>
      <use xlink:href="#ArialMT-74" x="239.0625"/>
     </g>
    </g>
   </g>
   <g id="patch_20">
    <path d="M 504.470866 311.890625 
L 536.547329 311.890625 
L 536.547329 219.007405 
L 504.470866 219.007405 
z
" clip-path="url(#p2cf7668631)" style="fill: #4c72b0; fill-opacity: 0.5; stroke: #000000; stroke-linejoin: miter"/>
   </g>
   <g id="patch_21">
    <path d="M 536.547329 311.890625 
L 568.623792 311.890625 
L 568.623792 195.7866 
L 536.547329 195.7866 
z
" clip-path="url(#p2cf7668631)" style="fill: #4c72b0; fill-opacity: 0.5; stroke: #000000; stroke-linejoin: miter"/>
   </g>
   <g id="patch_22">
    <path d="M 568.623792 311.890625 
L 600.700255 311.890625 
L 600.700255 207.397003 
L 568.623792 207.397003 
z
" clip-path="url(#p2cf7668631)" style="fill: #4c72b0; fill-opacity: 0.5; stroke: #000000; stroke-linejoin: miter"/>
   </g>
   <g id="patch_23">
    <path d="M 600.700255 311.890625 
L 632.776718 311.890625 
L 632.776718 68.072173 
L 600.700255 68.072173 
z
" clip-path="url(#p2cf7668631)" style="fill: #4c72b0; fill-opacity: 0.5; stroke: #000000; stroke-linejoin: miter"/>
   </g>
   <g id="patch_24">
    <path d="M 632.776718 311.890625 
L 664.853181 311.890625 
L 664.853181 114.513783 
L 632.776718 114.513783 
z
" clip-path="url(#p2cf7668631)" style="fill: #4c72b0; fill-opacity: 0.5; stroke: #000000; stroke-linejoin: miter"/>
   </g>
   <g id="patch_25">
    <path d="M 664.853181 311.890625 
L 696.929644 311.890625 
L 696.929644 114.513783 
L 664.853181 114.513783 
z
" clip-path="url(#p2cf7668631)" style="fill: #4c72b0; fill-opacity: 0.5; stroke: #000000; stroke-linejoin: miter"/>
   </g>
   <g id="patch_26">
    <path d="M 696.929644 311.890625 
L 729.006107 311.890625 
L 729.006107 172.565795 
L 696.929644 172.565795 
z
" clip-path="url(#p2cf7668631)" style="fill: #4c72b0; fill-opacity: 0.5; stroke: #000000; stroke-linejoin: miter"/>
   </g>
   <g id="patch_27">
    <path d="M 729.006107 311.890625 
L 761.08257 311.890625 
L 761.08257 242.22821 
L 729.006107 242.22821 
z
" clip-path="url(#p2cf7668631)" style="fill: #4c72b0; fill-opacity: 0.5; stroke: #000000; stroke-linejoin: miter"/>
   </g>
   <g id="line2d_32">
    <path d="M 504.470866 270.898312 
L 509.62889 263.090055 
L 516.07642 252.812184 
L 525.102963 237.888726 
L 536.708517 218.702112 
L 541.866541 210.541698 
L 547.024565 202.846029 
L 550.893084 197.484197 
L 554.761602 192.539057 
L 558.63012 188.039912 
L 562.498638 183.975891 
L 566.367156 180.288037 
L 571.52518 175.763245 
L 579.262217 169.051292 
L 583.130735 165.354756 
L 586.999253 161.239581 
L 589.578265 158.222314 
L 593.446783 153.272483 
L 597.315301 147.860931 
L 602.473326 140.140147 
L 611.499868 126.477983 
L 615.368386 121.072858 
L 619.236904 116.160114 
L 621.815916 113.200819 
L 624.394928 110.506097 
L 626.973941 108.073793 
L 629.552953 105.893216 
L 632.131965 103.94818 
L 634.710977 102.22049 
L 637.289989 100.693495 
L 639.869001 99.355353 
L 642.448013 98.201677 
L 645.027025 97.237269 
L 647.606037 96.476805 
L 650.185049 95.944379 
L 652.764062 95.671973 
L 655.343074 95.697031 
L 657.922086 96.059381 
L 660.501098 96.797852 
L 663.08011 97.946909 
L 665.659122 99.533669 
L 668.238134 101.575574 
L 670.817146 104.078923 
L 673.396158 107.038379 
L 675.97517 110.437437 
L 678.554183 114.249751 
L 681.133195 118.441124 
L 683.712207 122.971903 
L 687.580725 130.311117 
L 691.449243 138.174272 
L 696.607267 149.246856 
L 703.054798 163.676984 
L 723.686894 210.37284 
L 728.844919 221.370804 
L 734.002943 231.826317 
L 739.160967 241.659198 
L 743.029485 248.603366 
L 746.898003 255.177413 
L 750.766521 261.388133 
L 754.63504 267.243829 
L 758.503558 272.749638 
L 761.08257 276.22558 
L 761.08257 276.22558 
" clip-path="url(#p2cf7668631)" style="fill: none; stroke: #4c72b0; stroke-width: 1.5; stroke-linecap: round"/>
   </g>
   <g id="line2d_33">
    <path d="M 499.254545 311.890625 
L 499.254545 55.88125 
" clip-path="url(#p2cf7668631)" style="fill: none; stroke-dasharray: 5.55,2.4; stroke-dashoffset: 0; stroke: #55a868; stroke-width: 1.5"/>
   </g>
   <g id="patch_28">
    <path d="M 482.4 311.890625 
L 482.4 55.88125 
" style="fill: none; stroke: #cccccc; stroke-width: 1.25; stroke-linejoin: miter; stroke-linecap: square"/>
   </g>
   <g id="patch_29">
    <path d="M 853.2 311.890625 
L 853.2 55.88125 
" style="fill: none; stroke: #cccccc; stroke-width: 1.25; stroke-linejoin: miter; stroke-linecap: square"/>
   </g>
   <g id="patch_30">
    <path d="M 482.4 311.890625 
L 853.2 311.890625 
" style="fill: none; stroke: #cccccc; stroke-width: 1.25; stroke-linejoin: miter; stroke-linecap: square"/>
   </g>
   <g id="patch_31">
    <path d="M 482.4 55.88125 
L 853.2 55.88125 
" style="fill: none; stroke: #cccccc; stroke-width: 1.25; stroke-linejoin: miter; stroke-linecap: square"/>
   </g>
   <g id="text_23">
    <!-- LAD ($\mu = 0.0223, \sigma = 0.0041$) -->
    <g style="fill: #262626" transform="translate(568.89 49.88125) scale(0.14 -0.14)">
     <defs>
      <path id="ArialMT-41" d="M -9 0 
L 1750 4581 
L 2403 4581 
L 4278 0 
L 3588 0 
L 3053 1388 
L 1138 1388 
L 634 0 
L -9 0 
z
M 1313 1881 
L 2866 1881 
L 2388 3150 
Q 2169 3728 2063 4100 
Q 1975 3659 1816 3225 
L 1313 1881 
z
" transform="scale(0.015625)"/>
      <path id="ArialMT-44" d="M 494 0 
L 494 4581 
L 2072 4581 
Q 2606 4581 2888 4516 
Q 3281 4425 3559 4188 
Q 3922 3881 4101 3404 
Q 4281 2928 4281 2316 
Q 4281 1794 4159 1391 
Q 4038 988 3847 723 
Q 3656 459 3429 307 
Q 3203 156 2883 78 
Q 2563 0 2147 0 
L 494 0 
z
M 1100 541 
L 2078 541 
Q 2531 541 2789 625 
Q 3047 709 3200 863 
Q 3416 1078 3536 1442 
Q 3656 1806 3656 2325 
Q 3656 3044 3420 3430 
Q 3184 3816 2847 3947 
Q 2603 4041 2063 4041 
L 1100 4041 
L 1100 541 
z
" transform="scale(0.015625)"/>
      <path id="DejaVuSans-34" d="M 2419 4116 
L 825 1625 
L 2419 1625 
L 2419 4116 
z
M 2253 4666 
L 3047 4666 
L 3047 1625 
L 3713 1625 
L 3713 1100 
L 3047 1100 
L 3047 0 
L 2419 0 
L 2419 1100 
L 313 1100 
L 313 1709 
L 2253 4666 
z
" transform="scale(0.015625)"/>
     </defs>
     <use xlink:href="#ArialMT-4c" transform="translate(0 0.78125)"/>
     <use xlink:href="#ArialMT-41" transform="translate(55.615234 0.78125)"/>
     <use xlink:href="#ArialMT-44" transform="translate(122.314453 0.78125)"/>
     <use xlink:href="#ArialMT-20" transform="translate(194.53125 0.78125)"/>
     <use xlink:href="#ArialMT-28" transform="translate(222.314453 0.78125)"/>
     <use xlink:href="#DejaVuSans-Oblique-3bc" transform="translate(255.615234 0.78125)"/>
     <use xlink:href="#DejaVuSans-3d" transform="translate(338.720703 0.78125)"/>
     <use xlink:href="#DejaVuSans-30" transform="translate(441.992188 0.78125)"/>
     <use xlink:href="#DejaVuSans-2e" transform="translate(505.615234 0.78125)"/>
     <use xlink:href="#DejaVuSans-30" transform="translate(537.402344 0.78125)"/>
     <use xlink:href="#DejaVuSans-32" transform="translate(601.025391 0.78125)"/>
     <use xlink:href="#DejaVuSans-32" transform="translate(664.648438 0.78125)"/>
     <use xlink:href="#DejaVuSans-33" transform="translate(728.271484 0.78125)"/>
     <use xlink:href="#DejaVuSans-2c" transform="translate(791.894531 0.78125)"/>
     <use xlink:href="#DejaVuSans-Oblique-3c3" transform="translate(843.164062 0.78125)"/>
     <use xlink:href="#DejaVuSans-3d" transform="translate(926.025391 0.78125)"/>
     <use xlink:href="#DejaVuSans-30" transform="translate(1029.296875 0.78125)"/>
     <use xlink:href="#DejaVuSans-2e" transform="translate(1092.919922 0.78125)"/>
     <use xlink:href="#DejaVuSans-30" transform="translate(1124.707031 0.78125)"/>
     <use xlink:href="#DejaVuSans-30" transform="translate(1188.330078 0.78125)"/>
     <use xlink:href="#DejaVuSans-34" transform="translate(1251.953125 0.78125)"/>
     <use xlink:href="#DejaVuSans-31" transform="translate(1315.576172 0.78125)"/>
     <use xlink:href="#ArialMT-29" transform="translate(1379.199219 0.78125)"/>
    </g>
   </g>
   <g id="legend_2">
    <g id="patch_32">
     <path d="M 738.588594 80.241094 
L 845.5 80.241094 
Q 847.7 80.241094 847.7 78.041094 
L 847.7 63.58125 
Q 847.7 61.38125 845.5 61.38125 
L 738.588594 61.38125 
Q 736.388594 61.38125 736.388594 63.58125 
L 736.388594 78.041094 
Q 736.388594 80.241094 738.588594 80.241094 
z
" style="fill: #ffffff; opacity: 0.8; stroke: #cccccc; stroke-linejoin: miter"/>
    </g>
    <g id="line2d_34">
     <path d="M 740.788594 69.804844 
L 751.788594 69.804844 
L 762.788594 69.804844 
" style="fill: none; stroke-dasharray: 5.55,2.4; stroke-dashoffset: 0; stroke: #55a868; stroke-width: 1.5"/>
    </g>
    <g id="text_24">
     <!-- True Estimator -->
     <g style="fill: #262626" transform="translate(771.588594 73.654844) scale(0.11 -0.11)">
      <use xlink:href="#ArialMT-54"/>
      <use xlink:href="#ArialMT-72" x="57.333984"/>
      <use xlink:href="#ArialMT-75" x="90.634766"/>
      <use xlink:href="#ArialMT-65" x="146.25"/>
      <use xlink:href="#ArialMT-20" x="201.865234"/>
      <use xlink:href="#ArialMT-45" x="229.648438"/>
      <use xlink:href="#ArialMT-73" x="296.347656"/>
      <use xlink:href="#ArialMT-74" x="346.347656"/>
      <use xlink:href="#ArialMT-69" x="374.130859"/>
      <use xlink:href="#ArialMT-6d" x="396.347656"/>
      <use xlink:href="#ArialMT-61" x="479.648438"/>
      <use xlink:href="#ArialMT-74" x="535.263672"/>
      <use xlink:href="#ArialMT-6f" x="563.046875"/>
      <use xlink:href="#ArialMT-72" x="618.662109"/>
     </g>
    </g>
   </g>
  </g>
  <g id="axes_3">
   <g id="patch_33">
    <path d="M 55.8 603.7 
L 426.6 603.7 
L 426.6 347.690625 
L 55.8 347.690625 
z
" style="fill: #ffffff"/>
   </g>
   <g id="matplotlib.axis_5">
    <g id="xtick_11">
     <g id="line2d_35">
      <path d="M 99.716734 603.7 
L 99.716734 347.690625 
" clip-path="url(#p7ae1834821)" style="fill: none; stroke: #cccccc; stroke-linecap: round"/>
     </g>
     <g id="text_25">
      <!-- 0.015 -->
      <g style="fill: #262626" transform="translate(85.954702 621.073594) scale(0.11 -0.11)">
       <use xlink:href="#ArialMT-30"/>
       <use xlink:href="#ArialMT-2e" x="55.615234"/>
       <use xlink:href="#ArialMT-30" x="83.398438"/>
       <use xlink:href="#ArialMT-31" x="139.013672"/>
       <use xlink:href="#ArialMT-35" x="194.628906"/>
      </g>
     </g>
    </g>
    <g id="xtick_12">
     <g id="line2d_36">
      <path d="M 173.891548 603.7 
L 173.891548 347.690625 
" clip-path="url(#p7ae1834821)" style="fill: none; stroke: #cccccc; stroke-linecap: round"/>
     </g>
     <g id="text_26">
      <!-- 0.020 -->
      <g style="fill: #262626" transform="translate(160.129517 621.073594) scale(0.11 -0.11)">
       <use xlink:href="#ArialMT-30"/>
       <use xlink:href="#ArialMT-2e" x="55.615234"/>
       <use xlink:href="#ArialMT-30" x="83.398438"/>
       <use xlink:href="#ArialMT-32" x="139.013672"/>
       <use xlink:href="#ArialMT-30" x="194.628906"/>
      </g>
     </g>
    </g>
    <g id="xtick_13">
     <g id="line2d_37">
      <path d="M 248.066363 603.7 
L 248.066363 347.690625 
" clip-path="url(#p7ae1834821)" style="fill: none; stroke: #cccccc; stroke-linecap: round"/>
     </g>
     <g id="text_27">
      <!-- 0.025 -->
      <g style="fill: #262626" transform="translate(234.304332 621.073594) scale(0.11 -0.11)">
       <use xlink:href="#ArialMT-30"/>
       <use xlink:href="#ArialMT-2e" x="55.615234"/>
       <use xlink:href="#ArialMT-30" x="83.398438"/>
       <use xlink:href="#ArialMT-32" x="139.013672"/>
       <use xlink:href="#ArialMT-35" x="194.628906"/>
      </g>
     </g>
    </g>
    <g id="xtick_14">
     <g id="line2d_38">
      <path d="M 322.241178 603.7 
L 322.241178 347.690625 
" clip-path="url(#p7ae1834821)" style="fill: none; stroke: #cccccc; stroke-linecap: round"/>
     </g>
     <g id="text_28">
      <!-- 0.030 -->
      <g style="fill: #262626" transform="translate(308.479147 621.073594) scale(0.11 -0.11)">
       <defs>
        <path id="ArialMT-33" d="M 269 1209 
L 831 1284 
Q 928 806 1161 595 
Q 1394 384 1728 384 
Q 2125 384 2398 659 
Q 2672 934 2672 1341 
Q 2672 1728 2419 1979 
Q 2166 2231 1775 2231 
Q 1616 2231 1378 2169 
L 1441 2663 
Q 1497 2656 1531 2656 
Q 1891 2656 2178 2843 
Q 2466 3031 2466 3422 
Q 2466 3731 2256 3934 
Q 2047 4138 1716 4138 
Q 1388 4138 1169 3931 
Q 950 3725 888 3313 
L 325 3413 
Q 428 3978 793 4289 
Q 1159 4600 1703 4600 
Q 2078 4600 2393 4439 
Q 2709 4278 2876 4000 
Q 3044 3722 3044 3409 
Q 3044 3113 2884 2869 
Q 2725 2625 2413 2481 
Q 2819 2388 3044 2092 
Q 3269 1797 3269 1353 
Q 3269 753 2831 336 
Q 2394 -81 1725 -81 
Q 1122 -81 723 278 
Q 325 638 269 1209 
z
" transform="scale(0.015625)"/>
       </defs>
       <use xlink:href="#ArialMT-30"/>
       <use xlink:href="#ArialMT-2e" x="55.615234"/>
       <use xlink:href="#ArialMT-30" x="83.398438"/>
       <use xlink:href="#ArialMT-33" x="139.013672"/>
       <use xlink:href="#ArialMT-30" x="194.628906"/>
      </g>
     </g>
    </g>
    <g id="xtick_15">
     <g id="line2d_39">
      <path d="M 396.415993 603.7 
L 396.415993 347.690625 
" clip-path="url(#p7ae1834821)" style="fill: none; stroke: #cccccc; stroke-linecap: round"/>
     </g>
     <g id="text_29">
      <!-- 0.035 -->
      <g style="fill: #262626" transform="translate(382.653962 621.073594) scale(0.11 -0.11)">
       <use xlink:href="#ArialMT-30"/>
       <use xlink:href="#ArialMT-2e" x="55.615234"/>
       <use xlink:href="#ArialMT-30" x="83.398438"/>
       <use xlink:href="#ArialMT-33" x="139.013672"/>
       <use xlink:href="#ArialMT-35" x="194.628906"/>
      </g>
     </g>
    </g>
    <g id="text_30">
     <!-- beta_1_se -->
     <g style="fill: #262626" transform="translate(213.177188 635.884844) scale(0.12 -0.12)">
      <defs>
       <path id="ArialMT-62" d="M 941 0 
L 419 0 
L 419 4581 
L 981 4581 
L 981 2947 
Q 1338 3394 1891 3394 
Q 2197 3394 2470 3270 
Q 2744 3147 2920 2923 
Q 3097 2700 3197 2384 
Q 3297 2069 3297 1709 
Q 3297 856 2875 390 
Q 2453 -75 1863 -75 
Q 1275 -75 941 416 
L 941 0 
z
M 934 1684 
Q 934 1088 1097 822 
Q 1363 388 1816 388 
Q 2184 388 2453 708 
Q 2722 1028 2722 1663 
Q 2722 2313 2464 2622 
Q 2206 2931 1841 2931 
Q 1472 2931 1203 2611 
Q 934 2291 934 1684 
z
" transform="scale(0.015625)"/>
       <path id="ArialMT-5f" d="M -97 -1272 
L -97 -866 
L 3631 -866 
L 3631 -1272 
L -97 -1272 
z
" transform="scale(0.015625)"/>
      </defs>
      <use xlink:href="#ArialMT-62"/>
      <use xlink:href="#ArialMT-65" x="55.615234"/>
      <use xlink:href="#ArialMT-74" x="111.230469"/>
      <use xlink:href="#ArialMT-61" x="139.013672"/>
      <use xlink:href="#ArialMT-5f" x="194.628906"/>
      <use xlink:href="#ArialMT-31" x="250.244141"/>
      <use xlink:href="#ArialMT-5f" x="305.859375"/>
      <use xlink:href="#ArialMT-73" x="361.474609"/>
      <use xlink:href="#ArialMT-65" x="411.474609"/>
     </g>
    </g>
   </g>
   <g id="matplotlib.axis_6">
    <g id="ytick_19">
     <g id="line2d_40">
      <path d="M 55.8 603.7 
L 426.6 603.7 
" clip-path="url(#p7ae1834821)" style="fill: none; stroke: #cccccc; stroke-linecap: round"/>
     </g>
     <g id="text_31">
      <!-- 0 -->
      <g style="fill: #262626" transform="translate(40.182969 607.636797) scale(0.11 -0.11)">
       <use xlink:href="#ArialMT-30"/>
      </g>
     </g>
    </g>
    <g id="ytick_20">
     <g id="line2d_41">
      <path d="M 55.8 573.966042 
L 426.6 573.966042 
" clip-path="url(#p7ae1834821)" style="fill: none; stroke: #cccccc; stroke-linecap: round"/>
     </g>
     <g id="text_32">
      <!-- 5 -->
      <g style="fill: #262626" transform="translate(40.182969 577.902839) scale(0.11 -0.11)">
       <use xlink:href="#ArialMT-35"/>
      </g>
     </g>
    </g>
    <g id="ytick_21">
     <g id="line2d_42">
      <path d="M 55.8 544.232085 
L 426.6 544.232085 
" clip-path="url(#p7ae1834821)" style="fill: none; stroke: #cccccc; stroke-linecap: round"/>
     </g>
     <g id="text_33">
      <!-- 10 -->
      <g style="fill: #262626" transform="translate(34.065938 548.168882) scale(0.11 -0.11)">
       <use xlink:href="#ArialMT-31"/>
       <use xlink:href="#ArialMT-30" x="55.615234"/>
      </g>
     </g>
    </g>
    <g id="ytick_22">
     <g id="line2d_43">
      <path d="M 55.8 514.498127 
L 426.6 514.498127 
" clip-path="url(#p7ae1834821)" style="fill: none; stroke: #cccccc; stroke-linecap: round"/>
     </g>
     <g id="text_34">
      <!-- 15 -->
      <g style="fill: #262626" transform="translate(34.065938 518.434924) scale(0.11 -0.11)">
       <use xlink:href="#ArialMT-31"/>
       <use xlink:href="#ArialMT-35" x="55.615234"/>
      </g>
     </g>
    </g>
    <g id="ytick_23">
     <g id="line2d_44">
      <path d="M 55.8 484.76417 
L 426.6 484.76417 
" clip-path="url(#p7ae1834821)" style="fill: none; stroke: #cccccc; stroke-linecap: round"/>
     </g>
     <g id="text_35">
      <!-- 20 -->
      <g style="fill: #262626" transform="translate(34.065938 488.700966) scale(0.11 -0.11)">
       <use xlink:href="#ArialMT-32"/>
       <use xlink:href="#ArialMT-30" x="55.615234"/>
      </g>
     </g>
    </g>
    <g id="ytick_24">
     <g id="line2d_45">
      <path d="M 55.8 455.030212 
L 426.6 455.030212 
" clip-path="url(#p7ae1834821)" style="fill: none; stroke: #cccccc; stroke-linecap: round"/>
     </g>
     <g id="text_36">
      <!-- 25 -->
      <g style="fill: #262626" transform="translate(34.065938 458.967009) scale(0.11 -0.11)">
       <use xlink:href="#ArialMT-32"/>
       <use xlink:href="#ArialMT-35" x="55.615234"/>
      </g>
     </g>
    </g>
    <g id="ytick_25">
     <g id="line2d_46">
      <path d="M 55.8 425.296254 
L 426.6 425.296254 
" clip-path="url(#p7ae1834821)" style="fill: none; stroke: #cccccc; stroke-linecap: round"/>
     </g>
     <g id="text_37">
      <!-- 30 -->
      <g style="fill: #262626" transform="translate(34.065938 429.233051) scale(0.11 -0.11)">
       <use xlink:href="#ArialMT-33"/>
       <use xlink:href="#ArialMT-30" x="55.615234"/>
      </g>
     </g>
    </g>
    <g id="ytick_26">
     <g id="line2d_47">
      <path d="M 55.8 395.562297 
L 426.6 395.562297 
" clip-path="url(#p7ae1834821)" style="fill: none; stroke: #cccccc; stroke-linecap: round"/>
     </g>
     <g id="text_38">
      <!-- 35 -->
      <g style="fill: #262626" transform="translate(34.065938 399.499094) scale(0.11 -0.11)">
       <use xlink:href="#ArialMT-33"/>
       <use xlink:href="#ArialMT-35" x="55.615234"/>
      </g>
     </g>
    </g>
    <g id="ytick_27">
     <g id="line2d_48">
      <path d="M 55.8 365.828339 
L 426.6 365.828339 
" clip-path="url(#p7ae1834821)" style="fill: none; stroke: #cccccc; stroke-linecap: round"/>
     </g>
     <g id="text_39">
      <!-- 40 -->
      <g style="fill: #262626" transform="translate(34.065938 369.765136) scale(0.11 -0.11)">
       <defs>
        <path id="ArialMT-34" d="M 2069 0 
L 2069 1097 
L 81 1097 
L 81 1613 
L 2172 4581 
L 2631 4581 
L 2631 1613 
L 3250 1613 
L 3250 1097 
L 2631 1097 
L 2631 0 
L 2069 0 
z
M 2069 1613 
L 2069 3678 
L 634 1613 
L 2069 1613 
z
" transform="scale(0.015625)"/>
       </defs>
       <use xlink:href="#ArialMT-34"/>
       <use xlink:href="#ArialMT-30" x="55.615234"/>
      </g>
     </g>
    </g>
    <g id="text_40">
     <!-- Count -->
     <g style="fill: #262626" transform="translate(27.680938 491.705) rotate(-90) scale(0.12 -0.12)">
      <use xlink:href="#ArialMT-43"/>
      <use xlink:href="#ArialMT-6f" x="72.216797"/>
      <use xlink:href="#ArialMT-75" x="127.832031"/>
      <use xlink:href="#ArialMT-6e" x="183.447266"/>
      <use xlink:href="#ArialMT-74" x="239.0625"/>
     </g>
    </g>
   </g>
   <g id="patch_34">
    <path d="M 79.592715 603.7 
L 116.276353 603.7 
L 116.276353 591.806417 
L 79.592715 591.806417 
z
" clip-path="url(#p7ae1834821)" style="fill: #c44e52; fill-opacity: 0.5; stroke: #000000; stroke-linejoin: miter"/>
   </g>
   <g id="patch_35">
    <path d="M 116.276353 603.7 
L 152.959991 603.7 
L 152.959991 538.285293 
L 116.276353 538.285293 
z
" clip-path="url(#p7ae1834821)" style="fill: #c44e52; fill-opacity: 0.5; stroke: #000000; stroke-linejoin: miter"/>
   </g>
   <g id="patch_36">
    <path d="M 152.959991 603.7 
L 189.643628 603.7 
L 189.643628 359.881548 
L 152.959991 359.881548 
z
" clip-path="url(#p7ae1834821)" style="fill: #c44e52; fill-opacity: 0.5; stroke: #000000; stroke-linejoin: miter"/>
   </g>
   <g id="patch_37">
    <path d="M 189.643628 603.7 
L 226.327266 603.7 
L 226.327266 401.509088 
L 189.643628 401.509088 
z
" clip-path="url(#p7ae1834821)" style="fill: #c44e52; fill-opacity: 0.5; stroke: #000000; stroke-linejoin: miter"/>
   </g>
   <g id="patch_38">
    <path d="M 226.327266 603.7 
L 263.010904 603.7 
L 263.010904 413.402671 
L 226.327266 413.402671 
z
" clip-path="url(#p7ae1834821)" style="fill: #c44e52; fill-opacity: 0.5; stroke: #000000; stroke-linejoin: miter"/>
   </g>
   <g id="patch_39">
    <path d="M 263.010904 603.7 
L 299.694541 603.7 
L 299.694541 460.977003 
L 263.010904 460.977003 
z
" clip-path="url(#p7ae1834821)" style="fill: #c44e52; fill-opacity: 0.5; stroke: #000000; stroke-linejoin: miter"/>
   </g>
   <g id="patch_40">
    <path d="M 299.694541 603.7 
L 336.378179 603.7 
L 336.378179 478.817378 
L 299.694541 478.817378 
z
" clip-path="url(#p7ae1834821)" style="fill: #c44e52; fill-opacity: 0.5; stroke: #000000; stroke-linejoin: miter"/>
   </g>
   <g id="patch_41">
    <path d="M 336.378179 603.7 
L 373.061817 603.7 
L 373.061817 437.189837 
L 336.378179 437.189837 
z
" clip-path="url(#p7ae1834821)" style="fill: #c44e52; fill-opacity: 0.5; stroke: #000000; stroke-linejoin: miter"/>
   </g>
   <g id="patch_42">
    <path d="M 373.061817 603.7 
L 409.745455 603.7 
L 409.745455 562.072459 
L 373.061817 562.072459 
z
" clip-path="url(#p7ae1834821)" style="fill: #c44e52; fill-opacity: 0.5; stroke: #000000; stroke-linejoin: miter"/>
   </g>
   <g id="line2d_49">
    <path d="M 79.592715 593.477525 
L 82.910833 592.185126 
L 86.228951 590.715186 
L 89.547069 589.022221 
L 92.865187 587.054137 
L 96.183305 584.754027 
L 99.501423 582.062516 
L 102.819541 578.92047 
L 106.137659 575.271865 
L 109.455777 571.066625 
L 112.773895 566.26323 
L 116.092013 560.830984 
L 119.410131 554.751863 
L 122.728249 548.021947 
L 126.046367 540.652474 
L 129.364485 532.670599 
L 132.682603 524.119901 
L 136.000721 515.06068 
L 140.977898 500.691503 
L 147.614134 480.607981 
L 155.909429 455.429999 
L 160.886606 441.137973 
L 164.204724 432.250952 
L 167.522842 424.031767 
L 170.84096 416.594504 
L 174.159078 410.030166 
L 175.818137 407.09631 
L 177.477196 404.40209 
L 179.136255 401.950625 
L 180.795314 399.743053 
L 182.454373 397.778553 
L 184.113432 396.054405 
L 185.772491 394.566082 
L 187.43155 393.307373 
L 189.090609 392.270529 
L 190.749668 391.446442 
L 192.408727 390.824832 
L 194.067786 390.39446 
L 195.726845 390.143337 
L 197.385904 390.05895 
L 199.044963 390.128472 
L 200.704022 390.338974 
L 202.363081 390.677624 
L 205.681199 391.689584 
L 208.999316 393.069975 
L 212.317434 394.735298 
L 215.635552 396.615383 
L 220.612729 399.719547 
L 227.248965 404.197862 
L 235.54426 410.122146 
L 245.498614 417.52434 
L 262.089204 429.950742 
L 268.72544 434.670982 
L 275.361676 439.10575 
L 280.338853 442.195731 
L 285.31603 445.044511 
L 290.293207 447.612042 
L 295.270384 449.854029 
L 298.588502 451.147109 
L 301.90662 452.2688 
L 305.224738 453.217478 
L 308.542856 454.001254 
L 313.520033 454.917722 
L 325.133446 456.741027 
L 328.451564 457.536277 
L 331.769682 458.635244 
L 335.0878 460.142107 
L 336.746859 461.07918 
L 338.405918 462.153409 
L 340.064977 463.374409 
L 341.724036 464.750387 
L 343.383095 466.287954 
L 345.042154 467.991967 
L 346.701213 469.865396 
L 350.019331 474.122453 
L 353.337449 479.042752 
L 356.655567 484.578221 
L 359.973685 490.652052 
L 363.291803 497.16394 
L 368.26898 507.494865 
L 379.882393 532.062576 
L 384.85957 541.914661 
L 388.177688 548.065682 
L 391.495806 553.834254 
L 394.813924 559.19936 
L 398.132042 564.155485 
L 401.45016 568.709173 
L 404.768278 572.875428 
L 408.086396 576.674333 
L 409.745455 578.442977 
L 409.745455 578.442977 
" clip-path="url(#p7ae1834821)" style="fill: none; stroke: #c44e52; stroke-width: 1.5; stroke-linecap: round"/>
   </g>
   <g id="line2d_50">
    <path d="M 90.317309 603.7 
L 90.317309 347.690625 
" clip-path="url(#p7ae1834821)" style="fill: none; stroke-dasharray: 5.55,2.4; stroke-dashoffset: 0; stroke: #55a868; stroke-width: 1.5"/>
   </g>
   <g id="patch_43">
    <path d="M 55.8 603.7 
L 55.8 347.690625 
" style="fill: none; stroke: #cccccc; stroke-width: 1.25; stroke-linejoin: miter; stroke-linecap: square"/>
   </g>
   <g id="patch_44">
    <path d="M 426.6 603.7 
L 426.6 347.690625 
" style="fill: none; stroke: #cccccc; stroke-width: 1.25; stroke-linejoin: miter; stroke-linecap: square"/>
   </g>
   <g id="patch_45">
    <path d="M 55.8 603.7 
L 426.6 603.7 
" style="fill: none; stroke: #cccccc; stroke-width: 1.25; stroke-linejoin: miter; stroke-linecap: square"/>
   </g>
   <g id="patch_46">
    <path d="M 55.8 347.690625 
L 426.6 347.690625 
" style="fill: none; stroke: #cccccc; stroke-width: 1.25; stroke-linejoin: miter; stroke-linecap: square"/>
   </g>
   <g id="text_41">
    <!-- OLS with Outlier ($\mu = 0.025, \sigma = 0.0048$) -->
    <g style="fill: #262626" transform="translate(109.39 341.690625) scale(0.14 -0.14)">
     <defs>
      <path id="ArialMT-77" d="M 1034 0 
L 19 3319 
L 600 3319 
L 1128 1403 
L 1325 691 
Q 1338 744 1497 1375 
L 2025 3319 
L 2603 3319 
L 3100 1394 
L 3266 759 
L 3456 1400 
L 4025 3319 
L 4572 3319 
L 3534 0 
L 2950 0 
L 2422 1988 
L 2294 2553 
L 1622 0 
L 1034 0 
z
" transform="scale(0.015625)"/>
      <path id="ArialMT-68" d="M 422 0 
L 422 4581 
L 984 4581 
L 984 2938 
Q 1378 3394 1978 3394 
Q 2347 3394 2619 3248 
Q 2891 3103 3008 2847 
Q 3125 2591 3125 2103 
L 3125 0 
L 2563 0 
L 2563 2103 
Q 2563 2525 2380 2717 
Q 2197 2909 1863 2909 
Q 1613 2909 1392 2779 
Q 1172 2650 1078 2428 
Q 984 2206 984 1816 
L 984 0 
L 422 0 
z
" transform="scale(0.015625)"/>
      <path id="ArialMT-6c" d="M 409 0 
L 409 4581 
L 972 4581 
L 972 0 
L 409 0 
z
" transform="scale(0.015625)"/>
      <path id="DejaVuSans-35" d="M 691 4666 
L 3169 4666 
L 3169 4134 
L 1269 4134 
L 1269 2991 
Q 1406 3038 1543 3061 
Q 1681 3084 1819 3084 
Q 2600 3084 3056 2656 
Q 3513 2228 3513 1497 
Q 3513 744 3044 326 
Q 2575 -91 1722 -91 
Q 1428 -91 1123 -41 
Q 819 9 494 109 
L 494 744 
Q 775 591 1075 516 
Q 1375 441 1709 441 
Q 2250 441 2565 725 
Q 2881 1009 2881 1497 
Q 2881 1984 2565 2268 
Q 2250 2553 1709 2553 
Q 1456 2553 1204 2497 
Q 953 2441 691 2322 
L 691 4666 
z
" transform="scale(0.015625)"/>
      <path id="DejaVuSans-38" d="M 2034 2216 
Q 1584 2216 1326 1975 
Q 1069 1734 1069 1313 
Q 1069 891 1326 650 
Q 1584 409 2034 409 
Q 2484 409 2743 651 
Q 3003 894 3003 1313 
Q 3003 1734 2745 1975 
Q 2488 2216 2034 2216 
z
M 1403 2484 
Q 997 2584 770 2862 
Q 544 3141 544 3541 
Q 544 4100 942 4425 
Q 1341 4750 2034 4750 
Q 2731 4750 3128 4425 
Q 3525 4100 3525 3541 
Q 3525 3141 3298 2862 
Q 3072 2584 2669 2484 
Q 3125 2378 3379 2068 
Q 3634 1759 3634 1313 
Q 3634 634 3220 271 
Q 2806 -91 2034 -91 
Q 1263 -91 848 271 
Q 434 634 434 1313 
Q 434 1759 690 2068 
Q 947 2378 1403 2484 
z
M 1172 3481 
Q 1172 3119 1398 2916 
Q 1625 2713 2034 2713 
Q 2441 2713 2670 2916 
Q 2900 3119 2900 3481 
Q 2900 3844 2670 4047 
Q 2441 4250 2034 4250 
Q 1625 4250 1398 4047 
Q 1172 3844 1172 3481 
z
" transform="scale(0.015625)"/>
     </defs>
     <use xlink:href="#ArialMT-4f" transform="translate(0 0.78125)"/>
     <use xlink:href="#ArialMT-4c" transform="translate(77.783203 0.78125)"/>
     <use xlink:href="#ArialMT-53" transform="translate(133.398438 0.78125)"/>
     <use xlink:href="#ArialMT-20" transform="translate(200.097656 0.78125)"/>
     <use xlink:href="#ArialMT-77" transform="translate(227.880859 0.78125)"/>
     <use xlink:href="#ArialMT-69" transform="translate(300.097656 0.78125)"/>
     <use xlink:href="#ArialMT-74" transform="translate(322.314453 0.78125)"/>
     <use xlink:href="#ArialMT-68" transform="translate(350.097656 0.78125)"/>
     <use xlink:href="#ArialMT-20" transform="translate(405.712891 0.78125)"/>
     <use xlink:href="#ArialMT-4f" transform="translate(433.496094 0.78125)"/>
     <use xlink:href="#ArialMT-75" transform="translate(511.279297 0.78125)"/>
     <use xlink:href="#ArialMT-74" transform="translate(566.894531 0.78125)"/>
     <use xlink:href="#ArialMT-6c" transform="translate(594.677734 0.78125)"/>
     <use xlink:href="#ArialMT-69" transform="translate(616.894531 0.78125)"/>
     <use xlink:href="#ArialMT-65" transform="translate(639.111328 0.78125)"/>
     <use xlink:href="#ArialMT-72" transform="translate(694.726562 0.78125)"/>
     <use xlink:href="#ArialMT-20" transform="translate(728.027344 0.78125)"/>
     <use xlink:href="#ArialMT-28" transform="translate(755.810547 0.78125)"/>
     <use xlink:href="#DejaVuSans-Oblique-3bc" transform="translate(789.111328 0.78125)"/>
     <use xlink:href="#DejaVuSans-3d" transform="translate(872.216797 0.78125)"/>
     <use xlink:href="#DejaVuSans-30" transform="translate(975.488281 0.78125)"/>
     <use xlink:href="#DejaVuSans-2e" transform="translate(1039.111328 0.78125)"/>
     <use xlink:href="#DejaVuSans-30" transform="translate(1070.898438 0.78125)"/>
     <use xlink:href="#DejaVuSans-32" transform="translate(1134.521484 0.78125)"/>
     <use xlink:href="#DejaVuSans-35" transform="translate(1198.144531 0.78125)"/>
     <use xlink:href="#DejaVuSans-2c" transform="translate(1261.767578 0.78125)"/>
     <use xlink:href="#DejaVuSans-Oblique-3c3" transform="translate(1313.037109 0.78125)"/>
     <use xlink:href="#DejaVuSans-3d" transform="translate(1395.898438 0.78125)"/>
     <use xlink:href="#DejaVuSans-30" transform="translate(1499.169922 0.78125)"/>
     <use xlink:href="#DejaVuSans-2e" transform="translate(1562.792969 0.78125)"/>
     <use xlink:href="#DejaVuSans-30" transform="translate(1594.580078 0.78125)"/>
     <use xlink:href="#DejaVuSans-30" transform="translate(1658.203125 0.78125)"/>
     <use xlink:href="#DejaVuSans-34" transform="translate(1721.826172 0.78125)"/>
     <use xlink:href="#DejaVuSans-38" transform="translate(1785.449219 0.78125)"/>
     <use xlink:href="#ArialMT-29" transform="translate(1849.072266 0.78125)"/>
    </g>
   </g>
   <g id="legend_3">
    <g id="patch_47">
     <path d="M 311.988594 372.050469 
L 418.9 372.050469 
Q 421.1 372.050469 421.1 369.850469 
L 421.1 355.390625 
Q 421.1 353.190625 418.9 353.190625 
L 311.988594 353.190625 
Q 309.788594 353.190625 309.788594 355.390625 
L 309.788594 369.850469 
Q 309.788594 372.050469 311.988594 372.050469 
z
" style="fill: #ffffff; opacity: 0.8; stroke: #cccccc; stroke-linejoin: miter"/>
    </g>
    <g id="line2d_51">
     <path d="M 314.188594 361.614219 
L 325.188594 361.614219 
L 336.188594 361.614219 
" style="fill: none; stroke-dasharray: 5.55,2.4; stroke-dashoffset: 0; stroke: #55a868; stroke-width: 1.5"/>
    </g>
    <g id="text_42">
     <!-- True Estimator -->
     <g style="fill: #262626" transform="translate(344.988594 365.464219) scale(0.11 -0.11)">
      <use xlink:href="#ArialMT-54"/>
      <use xlink:href="#ArialMT-72" x="57.333984"/>
      <use xlink:href="#ArialMT-75" x="90.634766"/>
      <use xlink:href="#ArialMT-65" x="146.25"/>
      <use xlink:href="#ArialMT-20" x="201.865234"/>
      <use xlink:href="#ArialMT-45" x="229.648438"/>
      <use xlink:href="#ArialMT-73" x="296.347656"/>
      <use xlink:href="#ArialMT-74" x="346.347656"/>
      <use xlink:href="#ArialMT-69" x="374.130859"/>
      <use xlink:href="#ArialMT-6d" x="396.347656"/>
      <use xlink:href="#ArialMT-61" x="479.648438"/>
      <use xlink:href="#ArialMT-74" x="535.263672"/>
      <use xlink:href="#ArialMT-6f" x="563.046875"/>
      <use xlink:href="#ArialMT-72" x="618.662109"/>
     </g>
    </g>
   </g>
  </g>
  <g id="axes_4">
   <g id="patch_48">
    <path d="M 482.4 603.7 
L 853.2 603.7 
L 853.2 347.690625 
L 482.4 347.690625 
z
" style="fill: #ffffff"/>
   </g>
   <g id="matplotlib.axis_7">
    <g id="xtick_16">
     <g id="line2d_52">
      <path d="M 526.316734 603.7 
L 526.316734 347.690625 
" clip-path="url(#pa71c584003)" style="fill: none; stroke: #cccccc; stroke-linecap: round"/>
     </g>
     <g id="text_43">
      <!-- 0.015 -->
      <g style="fill: #262626" transform="translate(512.554702 621.073594) scale(0.11 -0.11)">
       <use xlink:href="#ArialMT-30"/>
       <use xlink:href="#ArialMT-2e" x="55.615234"/>
       <use xlink:href="#ArialMT-30" x="83.398438"/>
       <use xlink:href="#ArialMT-31" x="139.013672"/>
       <use xlink:href="#ArialMT-35" x="194.628906"/>
      </g>
     </g>
    </g>
    <g id="xtick_17">
     <g id="line2d_53">
      <path d="M 600.491548 603.7 
L 600.491548 347.690625 
" clip-path="url(#pa71c584003)" style="fill: none; stroke: #cccccc; stroke-linecap: round"/>
     </g>
     <g id="text_44">
      <!-- 0.020 -->
      <g style="fill: #262626" transform="translate(586.729517 621.073594) scale(0.11 -0.11)">
       <use xlink:href="#ArialMT-30"/>
       <use xlink:href="#ArialMT-2e" x="55.615234"/>
       <use xlink:href="#ArialMT-30" x="83.398438"/>
       <use xlink:href="#ArialMT-32" x="139.013672"/>
       <use xlink:href="#ArialMT-30" x="194.628906"/>
      </g>
     </g>
    </g>
    <g id="xtick_18">
     <g id="line2d_54">
      <path d="M 674.666363 603.7 
L 674.666363 347.690625 
" clip-path="url(#pa71c584003)" style="fill: none; stroke: #cccccc; stroke-linecap: round"/>
     </g>
     <g id="text_45">
      <!-- 0.025 -->
      <g style="fill: #262626" transform="translate(660.904332 621.073594) scale(0.11 -0.11)">
       <use xlink:href="#ArialMT-30"/>
       <use xlink:href="#ArialMT-2e" x="55.615234"/>
       <use xlink:href="#ArialMT-30" x="83.398438"/>
       <use xlink:href="#ArialMT-32" x="139.013672"/>
       <use xlink:href="#ArialMT-35" x="194.628906"/>
      </g>
     </g>
    </g>
    <g id="xtick_19">
     <g id="line2d_55">
      <path d="M 748.841178 603.7 
L 748.841178 347.690625 
" clip-path="url(#pa71c584003)" style="fill: none; stroke: #cccccc; stroke-linecap: round"/>
     </g>
     <g id="text_46">
      <!-- 0.030 -->
      <g style="fill: #262626" transform="translate(735.079147 621.073594) scale(0.11 -0.11)">
       <use xlink:href="#ArialMT-30"/>
       <use xlink:href="#ArialMT-2e" x="55.615234"/>
       <use xlink:href="#ArialMT-30" x="83.398438"/>
       <use xlink:href="#ArialMT-33" x="139.013672"/>
       <use xlink:href="#ArialMT-30" x="194.628906"/>
      </g>
     </g>
    </g>
    <g id="xtick_20">
     <g id="line2d_56">
      <path d="M 823.015993 603.7 
L 823.015993 347.690625 
" clip-path="url(#pa71c584003)" style="fill: none; stroke: #cccccc; stroke-linecap: round"/>
     </g>
     <g id="text_47">
      <!-- 0.035 -->
      <g style="fill: #262626" transform="translate(809.253962 621.073594) scale(0.11 -0.11)">
       <use xlink:href="#ArialMT-30"/>
       <use xlink:href="#ArialMT-2e" x="55.615234"/>
       <use xlink:href="#ArialMT-30" x="83.398438"/>
       <use xlink:href="#ArialMT-33" x="139.013672"/>
       <use xlink:href="#ArialMT-35" x="194.628906"/>
      </g>
     </g>
    </g>
    <g id="text_48">
     <!-- beta_1_se -->
     <g style="fill: #262626" transform="translate(639.777187 635.884844) scale(0.12 -0.12)">
      <use xlink:href="#ArialMT-62"/>
      <use xlink:href="#ArialMT-65" x="55.615234"/>
      <use xlink:href="#ArialMT-74" x="111.230469"/>
      <use xlink:href="#ArialMT-61" x="139.013672"/>
      <use xlink:href="#ArialMT-5f" x="194.628906"/>
      <use xlink:href="#ArialMT-31" x="250.244141"/>
      <use xlink:href="#ArialMT-5f" x="305.859375"/>
      <use xlink:href="#ArialMT-73" x="361.474609"/>
      <use xlink:href="#ArialMT-65" x="411.474609"/>
     </g>
    </g>
   </g>
   <g id="matplotlib.axis_8">
    <g id="ytick_28">
     <g id="line2d_57">
      <path d="M 482.4 603.7 
L 853.2 603.7 
" clip-path="url(#pa71c584003)" style="fill: none; stroke: #cccccc; stroke-linecap: round"/>
     </g>
     <g id="text_49">
      <!-- 0 -->
      <g style="fill: #262626" transform="translate(466.782969 607.636797) scale(0.11 -0.11)">
       <use xlink:href="#ArialMT-30"/>
      </g>
     </g>
    </g>
    <g id="ytick_29">
     <g id="line2d_58">
      <path d="M 482.4 574.673994 
L 853.2 574.673994 
" clip-path="url(#pa71c584003)" style="fill: none; stroke: #cccccc; stroke-linecap: round"/>
     </g>
     <g id="text_50">
      <!-- 5 -->
      <g style="fill: #262626" transform="translate(466.782969 578.610791) scale(0.11 -0.11)">
       <use xlink:href="#ArialMT-35"/>
      </g>
     </g>
    </g>
    <g id="ytick_30">
     <g id="line2d_59">
      <path d="M 482.4 545.647988 
L 853.2 545.647988 
" clip-path="url(#pa71c584003)" style="fill: none; stroke: #cccccc; stroke-linecap: round"/>
     </g>
     <g id="text_51">
      <!-- 10 -->
      <g style="fill: #262626" transform="translate(460.665937 549.584784) scale(0.11 -0.11)">
       <use xlink:href="#ArialMT-31"/>
       <use xlink:href="#ArialMT-30" x="55.615234"/>
      </g>
     </g>
    </g>
    <g id="ytick_31">
     <g id="line2d_60">
      <path d="M 482.4 516.621981 
L 853.2 516.621981 
" clip-path="url(#pa71c584003)" style="fill: none; stroke: #cccccc; stroke-linecap: round"/>
     </g>
     <g id="text_52">
      <!-- 15 -->
      <g style="fill: #262626" transform="translate(460.665937 520.558778) scale(0.11 -0.11)">
       <use xlink:href="#ArialMT-31"/>
       <use xlink:href="#ArialMT-35" x="55.615234"/>
      </g>
     </g>
    </g>
    <g id="ytick_32">
     <g id="line2d_61">
      <path d="M 482.4 487.595975 
L 853.2 487.595975 
" clip-path="url(#pa71c584003)" style="fill: none; stroke: #cccccc; stroke-linecap: round"/>
     </g>
     <g id="text_53">
      <!-- 20 -->
      <g style="fill: #262626" transform="translate(460.665937 491.532772) scale(0.11 -0.11)">
       <use xlink:href="#ArialMT-32"/>
       <use xlink:href="#ArialMT-30" x="55.615234"/>
      </g>
     </g>
    </g>
    <g id="ytick_33">
     <g id="line2d_62">
      <path d="M 482.4 458.569969 
L 853.2 458.569969 
" clip-path="url(#pa71c584003)" style="fill: none; stroke: #cccccc; stroke-linecap: round"/>
     </g>
     <g id="text_54">
      <!-- 25 -->
      <g style="fill: #262626" transform="translate(460.665937 462.506766) scale(0.11 -0.11)">
       <use xlink:href="#ArialMT-32"/>
       <use xlink:href="#ArialMT-35" x="55.615234"/>
      </g>
     </g>
    </g>
    <g id="ytick_34">
     <g id="line2d_63">
      <path d="M 482.4 429.543963 
L 853.2 429.543963 
" clip-path="url(#pa71c584003)" style="fill: none; stroke: #cccccc; stroke-linecap: round"/>
     </g>
     <g id="text_55">
      <!-- 30 -->
      <g style="fill: #262626" transform="translate(460.665937 433.480759) scale(0.11 -0.11)">
       <use xlink:href="#ArialMT-33"/>
       <use xlink:href="#ArialMT-30" x="55.615234"/>
      </g>
     </g>
    </g>
    <g id="ytick_35">
     <g id="line2d_64">
      <path d="M 482.4 400.517956 
L 853.2 400.517956 
" clip-path="url(#pa71c584003)" style="fill: none; stroke: #cccccc; stroke-linecap: round"/>
     </g>
     <g id="text_56">
      <!-- 35 -->
      <g style="fill: #262626" transform="translate(460.665937 404.454753) scale(0.11 -0.11)">
       <use xlink:href="#ArialMT-33"/>
       <use xlink:href="#ArialMT-35" x="55.615234"/>
      </g>
     </g>
    </g>
    <g id="ytick_36">
     <g id="line2d_65">
      <path d="M 482.4 371.49195 
L 853.2 371.49195 
" clip-path="url(#pa71c584003)" style="fill: none; stroke: #cccccc; stroke-linecap: round"/>
     </g>
     <g id="text_57">
      <!-- 40 -->
      <g style="fill: #262626" transform="translate(460.665937 375.428747) scale(0.11 -0.11)">
       <use xlink:href="#ArialMT-34"/>
       <use xlink:href="#ArialMT-30" x="55.615234"/>
      </g>
     </g>
    </g>
    <g id="text_58">
     <!-- Count -->
     <g style="fill: #262626" transform="translate(454.280937 491.705) rotate(-90) scale(0.12 -0.12)">
      <use xlink:href="#ArialMT-43"/>
      <use xlink:href="#ArialMT-6f" x="72.216797"/>
      <use xlink:href="#ArialMT-75" x="127.832031"/>
      <use xlink:href="#ArialMT-6e" x="183.447266"/>
      <use xlink:href="#ArialMT-74" x="239.0625"/>
     </g>
    </g>
   </g>
   <g id="patch_49">
    <path d="M 504.470866 603.7 
L 530.132036 603.7 
L 530.132036 551.453189 
L 504.470866 551.453189 
z
" clip-path="url(#pa71c584003)" style="fill: #c44e52; fill-opacity: 0.5; stroke: #000000; stroke-linejoin: miter"/>
   </g>
   <g id="patch_50">
    <path d="M 530.132036 603.7 
L 555.793207 603.7 
L 555.793207 481.790774 
L 530.132036 481.790774 
z
" clip-path="url(#pa71c584003)" style="fill: #c44e52; fill-opacity: 0.5; stroke: #000000; stroke-linejoin: miter"/>
   </g>
   <g id="patch_51">
    <path d="M 555.793207 603.7 
L 581.454377 603.7 
L 581.454377 359.881548 
L 555.793207 359.881548 
z
" clip-path="url(#pa71c584003)" style="fill: #c44e52; fill-opacity: 0.5; stroke: #000000; stroke-linejoin: miter"/>
   </g>
   <g id="patch_52">
    <path d="M 581.454377 603.7 
L 607.115547 603.7 
L 607.115547 388.907554 
L 581.454377 388.907554 
z
" clip-path="url(#pa71c584003)" style="fill: #c44e52; fill-opacity: 0.5; stroke: #000000; stroke-linejoin: miter"/>
   </g>
   <g id="patch_53">
    <path d="M 607.115547 603.7 
L 632.776718 603.7 
L 632.776718 435.349164 
L 607.115547 435.349164 
z
" clip-path="url(#pa71c584003)" style="fill: #c44e52; fill-opacity: 0.5; stroke: #000000; stroke-linejoin: miter"/>
   </g>
   <g id="patch_54">
    <path d="M 632.776718 603.7 
L 658.437888 603.7 
L 658.437888 499.206378 
L 632.776718 499.206378 
z
" clip-path="url(#pa71c584003)" style="fill: #c44e52; fill-opacity: 0.5; stroke: #000000; stroke-linejoin: miter"/>
   </g>
   <g id="patch_55">
    <path d="M 658.437888 603.7 
L 684.099059 603.7 
L 684.099059 481.790774 
L 658.437888 481.790774 
z
" clip-path="url(#pa71c584003)" style="fill: #c44e52; fill-opacity: 0.5; stroke: #000000; stroke-linejoin: miter"/>
   </g>
   <g id="patch_56">
    <path d="M 684.099059 603.7 
L 709.760229 603.7 
L 709.760229 528.232384 
L 684.099059 528.232384 
z
" clip-path="url(#pa71c584003)" style="fill: #c44e52; fill-opacity: 0.5; stroke: #000000; stroke-linejoin: miter"/>
   </g>
   <g id="patch_57">
    <path d="M 709.760229 603.7 
L 735.421399 603.7 
L 735.421399 580.479195 
L 709.760229 580.479195 
z
" clip-path="url(#pa71c584003)" style="fill: #c44e52; fill-opacity: 0.5; stroke: #000000; stroke-linejoin: miter"/>
   </g>
   <g id="patch_58">
    <path d="M 735.421399 603.7 
L 761.08257 603.7 
L 761.08257 568.868793 
L 735.421399 568.868793 
z
" clip-path="url(#pa71c584003)" style="fill: #c44e52; fill-opacity: 0.5; stroke: #000000; stroke-linejoin: miter"/>
   </g>
   <g id="line2d_66">
    <path d="M 504.470866 571.567776 
L 507.049878 566.922987 
L 509.62889 561.916596 
L 512.207902 556.556357 
L 516.07642 547.872396 
L 519.944938 538.443352 
L 523.813456 528.295463 
L 527.681975 517.449214 
L 531.550493 505.925731 
L 535.419011 493.762379 
L 540.577035 476.691399 
L 554.761602 428.708603 
L 557.340614 420.808205 
L 559.919626 413.496101 
L 562.498638 406.903498 
L 565.07765 401.14555 
L 567.656662 396.314056 
L 568.946168 394.266565 
L 570.235674 392.471676 
L 571.52518 390.932066 
L 572.814686 389.648273 
L 574.104192 388.618712 
L 575.393699 387.839753 
L 576.683205 387.305817 
L 577.972711 387.009523 
L 579.262217 386.941859 
L 580.551723 387.092385 
L 581.841229 387.449455 
L 583.130735 388.000456 
L 584.420241 388.732058 
L 585.709747 389.630469 
L 588.288759 391.871721 
L 590.867771 394.613874 
L 593.446783 397.753889 
L 596.025795 401.201488 
L 599.894313 406.792779 
L 605.052338 414.782357 
L 610.210362 423.211832 
L 615.368386 432.017871 
L 623.105422 445.733361 
L 629.552953 457.067821 
L 633.421471 463.455765 
L 636.000483 467.41976 
L 638.579495 471.09045 
L 641.158507 474.434232 
L 643.737519 477.436314 
L 646.316531 480.103285 
L 648.895543 482.463593 
L 651.474555 484.565753 
L 655.343074 487.37944 
L 664.369616 493.690162 
L 668.238134 496.818046 
L 670.817146 499.140348 
L 674.685664 502.988816 
L 678.554183 507.221797 
L 683.712207 513.281136 
L 694.028255 525.930295 
L 708.212822 543.597578 
L 717.239364 554.854115 
L 722.397388 560.920454 
L 726.265906 565.135158 
L 730.134425 568.99804 
L 734.002943 572.492526 
L 737.871461 575.640544 
L 741.739979 578.492922 
L 746.898003 581.948403 
L 753.345533 585.905336 
L 759.793064 589.604908 
L 761.08257 590.316427 
L 761.08257 590.316427 
" clip-path="url(#pa71c584003)" style="fill: none; stroke: #c44e52; stroke-width: 1.5; stroke-linecap: round"/>
   </g>
   <g id="line2d_67">
    <path d="M 499.254545 603.7 
L 499.254545 347.690625 
" clip-path="url(#pa71c584003)" style="fill: none; stroke-dasharray: 5.55,2.4; stroke-dashoffset: 0; stroke: #55a868; stroke-width: 1.5"/>
   </g>
   <g id="patch_59">
    <path d="M 482.4 603.7 
L 482.4 347.690625 
" style="fill: none; stroke: #cccccc; stroke-width: 1.25; stroke-linejoin: miter; stroke-linecap: square"/>
   </g>
   <g id="patch_60">
    <path d="M 853.2 603.7 
L 853.2 347.690625 
" style="fill: none; stroke: #cccccc; stroke-width: 1.25; stroke-linejoin: miter; stroke-linecap: square"/>
   </g>
   <g id="patch_61">
    <path d="M 482.4 603.7 
L 853.2 603.7 
" style="fill: none; stroke: #cccccc; stroke-width: 1.25; stroke-linejoin: miter; stroke-linecap: square"/>
   </g>
   <g id="patch_62">
    <path d="M 482.4 347.690625 
L 853.2 347.690625 
" style="fill: none; stroke: #cccccc; stroke-width: 1.25; stroke-linejoin: miter; stroke-linecap: square"/>
   </g>
   <g id="text_59">
    <!-- LAD with Outlier ($\mu = 0.0206, \sigma = 0.0038$) -->
    <g style="fill: #262626" transform="translate(531.93 341.690625) scale(0.14 -0.14)">
     <defs>
      <path id="DejaVuSans-36" d="M 2113 2584 
Q 1688 2584 1439 2293 
Q 1191 2003 1191 1497 
Q 1191 994 1439 701 
Q 1688 409 2113 409 
Q 2538 409 2786 701 
Q 3034 994 3034 1497 
Q 3034 2003 2786 2293 
Q 2538 2584 2113 2584 
z
M 3366 4563 
L 3366 3988 
Q 3128 4100 2886 4159 
Q 2644 4219 2406 4219 
Q 1781 4219 1451 3797 
Q 1122 3375 1075 2522 
Q 1259 2794 1537 2939 
Q 1816 3084 2150 3084 
Q 2853 3084 3261 2657 
Q 3669 2231 3669 1497 
Q 3669 778 3244 343 
Q 2819 -91 2113 -91 
Q 1303 -91 875 529 
Q 447 1150 447 2328 
Q 447 3434 972 4092 
Q 1497 4750 2381 4750 
Q 2619 4750 2861 4703 
Q 3103 4656 3366 4563 
z
" transform="scale(0.015625)"/>
     </defs>
     <use xlink:href="#ArialMT-4c" transform="translate(0 0.78125)"/>
     <use xlink:href="#ArialMT-41" transform="translate(55.615234 0.78125)"/>
     <use xlink:href="#ArialMT-44" transform="translate(122.314453 0.78125)"/>
     <use xlink:href="#ArialMT-20" transform="translate(194.53125 0.78125)"/>
     <use xlink:href="#ArialMT-77" transform="translate(222.314453 0.78125)"/>
     <use xlink:href="#ArialMT-69" transform="translate(294.53125 0.78125)"/>
     <use xlink:href="#ArialMT-74" transform="translate(316.748047 0.78125)"/>
     <use xlink:href="#ArialMT-68" transform="translate(344.53125 0.78125)"/>
     <use xlink:href="#ArialMT-20" transform="translate(400.146484 0.78125)"/>
     <use xlink:href="#ArialMT-4f" transform="translate(427.929688 0.78125)"/>
     <use xlink:href="#ArialMT-75" transform="translate(505.712891 0.78125)"/>
     <use xlink:href="#ArialMT-74" transform="translate(561.328125 0.78125)"/>
     <use xlink:href="#ArialMT-6c" transform="translate(589.111328 0.78125)"/>
     <use xlink:href="#ArialMT-69" transform="translate(611.328125 0.78125)"/>
     <use xlink:href="#ArialMT-65" transform="translate(633.544922 0.78125)"/>
     <use xlink:href="#ArialMT-72" transform="translate(689.160156 0.78125)"/>
     <use xlink:href="#ArialMT-20" transform="translate(722.460938 0.78125)"/>
     <use xlink:href="#ArialMT-28" transform="translate(750.244141 0.78125)"/>
     <use xlink:href="#DejaVuSans-Oblique-3bc" transform="translate(783.544922 0.78125)"/>
     <use xlink:href="#DejaVuSans-3d" transform="translate(866.650391 0.78125)"/>
     <use xlink:href="#DejaVuSans-30" transform="translate(969.921875 0.78125)"/>
     <use xlink:href="#DejaVuSans-2e" transform="translate(1033.544922 0.78125)"/>
     <use xlink:href="#DejaVuSans-30" transform="translate(1065.332031 0.78125)"/>
     <use xlink:href="#DejaVuSans-32" transform="translate(1128.955078 0.78125)"/>
     <use xlink:href="#DejaVuSans-30" transform="translate(1192.578125 0.78125)"/>
     <use xlink:href="#DejaVuSans-36" transform="translate(1256.201172 0.78125)"/>
     <use xlink:href="#DejaVuSans-2c" transform="translate(1319.824219 0.78125)"/>
     <use xlink:href="#DejaVuSans-Oblique-3c3" transform="translate(1371.09375 0.78125)"/>
     <use xlink:href="#DejaVuSans-3d" transform="translate(1453.955078 0.78125)"/>
     <use xlink:href="#DejaVuSans-30" transform="translate(1557.226562 0.78125)"/>
     <use xlink:href="#DejaVuSans-2e" transform="translate(1620.849609 0.78125)"/>
     <use xlink:href="#DejaVuSans-30" transform="translate(1652.636719 0.78125)"/>
     <use xlink:href="#DejaVuSans-30" transform="translate(1716.259766 0.78125)"/>
     <use xlink:href="#DejaVuSans-33" transform="translate(1779.882812 0.78125)"/>
     <use xlink:href="#DejaVuSans-38" transform="translate(1843.505859 0.78125)"/>
     <use xlink:href="#ArialMT-29" transform="translate(1907.128906 0.78125)"/>
    </g>
   </g>
   <g id="legend_4">
    <g id="patch_63">
     <path d="M 738.588594 372.050469 
L 845.5 372.050469 
Q 847.7 372.050469 847.7 369.850469 
L 847.7 355.390625 
Q 847.7 353.190625 845.5 353.190625 
L 738.588594 353.190625 
Q 736.388594 353.190625 736.388594 355.390625 
L 736.388594 369.850469 
Q 736.388594 372.050469 738.588594 372.050469 
z
" style="fill: #ffffff; opacity: 0.8; stroke: #cccccc; stroke-linejoin: miter"/>
    </g>
    <g id="line2d_68">
     <path d="M 740.788594 361.614219 
L 751.788594 361.614219 
L 762.788594 361.614219 
" style="fill: none; stroke-dasharray: 5.55,2.4; stroke-dashoffset: 0; stroke: #55a868; stroke-width: 1.5"/>
    </g>
    <g id="text_60">
     <!-- True Estimator -->
     <g style="fill: #262626" transform="translate(771.588594 365.464219) scale(0.11 -0.11)">
      <use xlink:href="#ArialMT-54"/>
      <use xlink:href="#ArialMT-72" x="57.333984"/>
      <use xlink:href="#ArialMT-75" x="90.634766"/>
      <use xlink:href="#ArialMT-65" x="146.25"/>
      <use xlink:href="#ArialMT-20" x="201.865234"/>
      <use xlink:href="#ArialMT-45" x="229.648438"/>
      <use xlink:href="#ArialMT-73" x="296.347656"/>
      <use xlink:href="#ArialMT-74" x="346.347656"/>
      <use xlink:href="#ArialMT-69" x="374.130859"/>
      <use xlink:href="#ArialMT-6d" x="396.347656"/>
      <use xlink:href="#ArialMT-61" x="479.648438"/>
      <use xlink:href="#ArialMT-74" x="535.263672"/>
      <use xlink:href="#ArialMT-6f" x="563.046875"/>
      <use xlink:href="#ArialMT-72" x="618.662109"/>
     </g>
    </g>
   </g>
  </g>
  <g id="text_61">
   <!-- Histogram of beta_1_se (# Samples = 100 | # Regressions = 100) -->
   <g style="fill: #262626" transform="translate(199.13875 24.6075) scale(0.16 -0.16)">
    <defs>
     <path id="ArialMT-48" d="M 513 0 
L 513 4581 
L 1119 4581 
L 1119 2700 
L 3500 2700 
L 3500 4581 
L 4106 4581 
L 4106 0 
L 3500 0 
L 3500 2159 
L 1119 2159 
L 1119 0 
L 513 0 
z
" transform="scale(0.015625)"/>
     <path id="ArialMT-67" d="M 319 -275 
L 866 -356 
Q 900 -609 1056 -725 
Q 1266 -881 1628 -881 
Q 2019 -881 2231 -725 
Q 2444 -569 2519 -288 
Q 2563 -116 2559 434 
Q 2191 0 1641 0 
Q 956 0 581 494 
Q 206 988 206 1678 
Q 206 2153 378 2554 
Q 550 2956 876 3175 
Q 1203 3394 1644 3394 
Q 2231 3394 2613 2919 
L 2613 3319 
L 3131 3319 
L 3131 450 
Q 3131 -325 2973 -648 
Q 2816 -972 2473 -1159 
Q 2131 -1347 1631 -1347 
Q 1038 -1347 672 -1080 
Q 306 -813 319 -275 
z
M 784 1719 
Q 784 1066 1043 766 
Q 1303 466 1694 466 
Q 2081 466 2343 764 
Q 2606 1063 2606 1700 
Q 2606 2309 2336 2618 
Q 2066 2928 1684 2928 
Q 1309 2928 1046 2623 
Q 784 2319 784 1719 
z
" transform="scale(0.015625)"/>
     <path id="ArialMT-66" d="M 556 0 
L 556 2881 
L 59 2881 
L 59 3319 
L 556 3319 
L 556 3672 
Q 556 4006 616 4169 
Q 697 4388 901 4523 
Q 1106 4659 1475 4659 
Q 1713 4659 2000 4603 
L 1916 4113 
Q 1741 4144 1584 4144 
Q 1328 4144 1222 4034 
Q 1116 3925 1116 3625 
L 1116 3319 
L 1763 3319 
L 1763 2881 
L 1116 2881 
L 1116 0 
L 556 0 
z
" transform="scale(0.015625)"/>
     <path id="ArialMT-23" d="M 322 -78 
L 594 1253 
L 66 1253 
L 66 1719 
L 688 1719 
L 919 2853 
L 66 2853 
L 66 3319 
L 1013 3319 
L 1284 4659 
L 1753 4659 
L 1481 3319 
L 2466 3319 
L 2738 4659 
L 3209 4659 
L 2938 3319 
L 3478 3319 
L 3478 2853 
L 2844 2853 
L 2609 1719 
L 3478 1719 
L 3478 1253 
L 2516 1253 
L 2244 -78 
L 1775 -78 
L 2044 1253 
L 1063 1253 
L 791 -78 
L 322 -78 
z
M 1156 1719 
L 2138 1719 
L 2372 2853 
L 1388 2853 
L 1156 1719 
z
" transform="scale(0.015625)"/>
     <path id="ArialMT-70" d="M 422 -1272 
L 422 3319 
L 934 3319 
L 934 2888 
Q 1116 3141 1344 3267 
Q 1572 3394 1897 3394 
Q 2322 3394 2647 3175 
Q 2972 2956 3137 2557 
Q 3303 2159 3303 1684 
Q 3303 1175 3120 767 
Q 2938 359 2589 142 
Q 2241 -75 1856 -75 
Q 1575 -75 1351 44 
Q 1128 163 984 344 
L 984 -1272 
L 422 -1272 
z
M 931 1641 
Q 931 1000 1190 694 
Q 1450 388 1819 388 
Q 2194 388 2461 705 
Q 2728 1022 2728 1688 
Q 2728 2322 2467 2637 
Q 2206 2953 1844 2953 
Q 1484 2953 1207 2617 
Q 931 2281 931 1641 
z
" transform="scale(0.015625)"/>
     <path id="ArialMT-3d" d="M 3381 2694 
L 356 2694 
L 356 3219 
L 3381 3219 
L 3381 2694 
z
M 3381 1303 
L 356 1303 
L 356 1828 
L 3381 1828 
L 3381 1303 
z
" transform="scale(0.015625)"/>
     <path id="ArialMT-7c" d="M 588 -1347 
L 588 4659 
L 1078 4659 
L 1078 -1347 
L 588 -1347 
z
" transform="scale(0.015625)"/>
     <path id="ArialMT-52" d="M 503 0 
L 503 4581 
L 2534 4581 
Q 3147 4581 3465 4457 
Q 3784 4334 3975 4021 
Q 4166 3709 4166 3331 
Q 4166 2844 3850 2509 
Q 3534 2175 2875 2084 
Q 3116 1969 3241 1856 
Q 3506 1613 3744 1247 
L 4541 0 
L 3778 0 
L 3172 953 
Q 2906 1366 2734 1584 
Q 2563 1803 2427 1890 
Q 2291 1978 2150 2013 
Q 2047 2034 1813 2034 
L 1109 2034 
L 1109 0 
L 503 0 
z
M 1109 2559 
L 2413 2559 
Q 2828 2559 3062 2645 
Q 3297 2731 3419 2920 
Q 3541 3109 3541 3331 
Q 3541 3656 3305 3865 
Q 3069 4075 2559 4075 
L 1109 4075 
L 1109 2559 
z
" transform="scale(0.015625)"/>
    </defs>
    <use xlink:href="#ArialMT-48"/>
    <use xlink:href="#ArialMT-69" x="72.216797"/>
    <use xlink:href="#ArialMT-73" x="94.433594"/>
    <use xlink:href="#ArialMT-74" x="144.433594"/>
    <use xlink:href="#ArialMT-6f" x="172.216797"/>
    <use xlink:href="#ArialMT-67" x="227.832031"/>
    <use xlink:href="#ArialMT-72" x="283.447266"/>
    <use xlink:href="#ArialMT-61" x="316.748047"/>
    <use xlink:href="#ArialMT-6d" x="372.363281"/>
    <use xlink:href="#ArialMT-20" x="455.664062"/>
    <use xlink:href="#ArialMT-6f" x="483.447266"/>
    <use xlink:href="#ArialMT-66" x="539.0625"/>
    <use xlink:href="#ArialMT-20" x="566.845703"/>
    <use xlink:href="#ArialMT-62" x="594.628906"/>
    <use xlink:href="#ArialMT-65" x="650.244141"/>
    <use xlink:href="#ArialMT-74" x="705.859375"/>
    <use xlink:href="#ArialMT-61" x="733.642578"/>
    <use xlink:href="#ArialMT-5f" x="789.257812"/>
    <use xlink:href="#ArialMT-31" x="844.873047"/>
    <use xlink:href="#ArialMT-5f" x="900.488281"/>
    <use xlink:href="#ArialMT-73" x="956.103516"/>
    <use xlink:href="#ArialMT-65" x="1006.103516"/>
    <use xlink:href="#ArialMT-20" x="1061.71875"/>
    <use xlink:href="#ArialMT-28" x="1089.501953"/>
    <use xlink:href="#ArialMT-23" x="1122.802734"/>
    <use xlink:href="#ArialMT-20" x="1178.417969"/>
    <use xlink:href="#ArialMT-53" x="1206.201172"/>
    <use xlink:href="#ArialMT-61" x="1272.900391"/>
    <use xlink:href="#ArialMT-6d" x="1328.515625"/>
    <use xlink:href="#ArialMT-70" x="1411.816406"/>
    <use xlink:href="#ArialMT-6c" x="1467.431641"/>
    <use xlink:href="#ArialMT-65" x="1489.648438"/>
    <use xlink:href="#ArialMT-73" x="1545.263672"/>
    <use xlink:href="#ArialMT-20" x="1595.263672"/>
    <use xlink:href="#ArialMT-3d" x="1623.046875"/>
    <use xlink:href="#ArialMT-20" x="1681.445312"/>
    <use xlink:href="#ArialMT-31" x="1709.228516"/>
    <use xlink:href="#ArialMT-30" x="1764.84375"/>
    <use xlink:href="#ArialMT-30" x="1820.458984"/>
    <use xlink:href="#ArialMT-20" x="1876.074219"/>
    <use xlink:href="#ArialMT-7c" x="1903.857422"/>
    <use xlink:href="#ArialMT-20" x="1929.833984"/>
    <use xlink:href="#ArialMT-23" x="1957.617188"/>
    <use xlink:href="#ArialMT-20" x="2013.232422"/>
    <use xlink:href="#ArialMT-52" x="2041.015625"/>
    <use xlink:href="#ArialMT-65" x="2113.232422"/>
    <use xlink:href="#ArialMT-67" x="2168.847656"/>
    <use xlink:href="#ArialMT-72" x="2224.462891"/>
    <use xlink:href="#ArialMT-65" x="2257.763672"/>
    <use xlink:href="#ArialMT-73" x="2313.378906"/>
    <use xlink:href="#ArialMT-73" x="2363.378906"/>
    <use xlink:href="#ArialMT-69" x="2413.378906"/>
    <use xlink:href="#ArialMT-6f" x="2435.595703"/>
    <use xlink:href="#ArialMT-6e" x="2491.210938"/>
    <use xlink:href="#ArialMT-73" x="2546.826172"/>
    <use xlink:href="#ArialMT-20" x="2596.826172"/>
    <use xlink:href="#ArialMT-3d" x="2624.609375"/>
    <use xlink:href="#ArialMT-20" x="2683.007812"/>
    <use xlink:href="#ArialMT-31" x="2710.791016"/>
    <use xlink:href="#ArialMT-30" x="2766.40625"/>
    <use xlink:href="#ArialMT-30" x="2822.021484"/>
    <use xlink:href="#ArialMT-29" x="2877.636719"/>
   </g>
  </g>
 </g>
 <defs>
  <clipPath id="p4269c19be9">
   <rect x="55.8" y="55.88125" width="370.8" height="256.009375"/>
  </clipPath>
  <clipPath id="p2cf7668631">
   <rect x="482.4" y="55.88125" width="370.8" height="256.009375"/>
  </clipPath>
  <clipPath id="p7ae1834821">
   <rect x="55.8" y="347.690625" width="370.8" height="256.009375"/>
  </clipPath>
  <clipPath id="pa71c584003">
   <rect x="482.4" y="347.690625" width="370.8" height="256.009375"/>
  </clipPath>
 </defs>
</svg>
