<?xml version="1.0" encoding="utf-8" standalone="no"?>
<!DOCTYPE svg PUBLIC "-//W3C//DTD SVG 1.1//EN"
  "http://www.w3.org/Graphics/SVG/1.1/DTD/svg11.dtd">
<svg xmlns:xlink="http://www.w3.org/1999/xlink" width="864pt" height="648pt" viewBox="0 0 864 648" xmlns="http://www.w3.org/2000/svg" version="1.1">
 <metadata>
  <rdf:RDF xmlns:dc="http://purl.org/dc/elements/1.1/" xmlns:cc="http://creativecommons.org/ns#" xmlns:rdf="http://www.w3.org/1999/02/22-rdf-syntax-ns#">
   <cc:Work>
    <dc:type rdf:resource="http://purl.org/dc/dcmitype/StillImage"/>
    <dc:date>2023-02-04T11:15:22.176909</dc:date>
    <dc:format>image/svg+xml</dc:format>
    <dc:creator>
     <cc:Agent>
      <dc:title>Matplotlib v3.6.2, https://matplotlib.org/</dc:title>
     </cc:Agent>
    </dc:creator>
   </cc:Work>
  </rdf:RDF>
 </metadata>
 <defs>
  <style type="text/css">*{stroke-linejoin: round; stroke-linecap: butt}</style>
 </defs>
 <g id="figure_1">
  <g id="patch_1">
   <path d="M 0 648 
L 864 648 
L 864 0 
L 0 0 
L 0 648 
z
" style="fill: none"/>
  </g>
  <g id="axes_1">
   <g id="patch_2">
    <path d="M 46.675 311.867187 
L 421.049235 311.867187 
L 421.049235 55.88125 
L 46.675 55.88125 
z
" style="fill: #ffffff"/>
   </g>
   <g id="matplotlib.axis_1">
    <g id="xtick_1">
     <g id="line2d_1">
      <path d="M 49.585148 311.867187 
L 49.585148 55.88125 
" clip-path="url(#pc6d492c8f2)" style="fill: none; stroke: #cccccc; stroke-linecap: round"/>
     </g>
    </g>
    <g id="xtick_2">
     <g id="line2d_2">
      <path d="M 102.561526 311.867187 
L 102.561526 55.88125 
" clip-path="url(#pc6d492c8f2)" style="fill: none; stroke: #cccccc; stroke-linecap: round"/>
     </g>
    </g>
    <g id="xtick_3">
     <g id="line2d_3">
      <path d="M 155.537903 311.867187 
L 155.537903 55.88125 
" clip-path="url(#pc6d492c8f2)" style="fill: none; stroke: #cccccc; stroke-linecap: round"/>
     </g>
    </g>
    <g id="xtick_4">
     <g id="line2d_4">
      <path d="M 208.51428 311.867187 
L 208.51428 55.88125 
" clip-path="url(#pc6d492c8f2)" style="fill: none; stroke: #cccccc; stroke-linecap: round"/>
     </g>
    </g>
    <g id="xtick_5">
     <g id="line2d_5">
      <path d="M 261.490657 311.867187 
L 261.490657 55.88125 
" clip-path="url(#pc6d492c8f2)" style="fill: none; stroke: #cccccc; stroke-linecap: round"/>
     </g>
    </g>
    <g id="xtick_6">
     <g id="line2d_6">
      <path d="M 314.467035 311.867187 
L 314.467035 55.88125 
" clip-path="url(#pc6d492c8f2)" style="fill: none; stroke: #cccccc; stroke-linecap: round"/>
     </g>
    </g>
    <g id="xtick_7">
     <g id="line2d_7">
      <path d="M 367.443412 311.867187 
L 367.443412 55.88125 
" clip-path="url(#pc6d492c8f2)" style="fill: none; stroke: #cccccc; stroke-linecap: round"/>
     </g>
    </g>
    <g id="xtick_8">
     <g id="line2d_8">
      <path d="M 420.419789 311.867187 
L 420.419789 55.88125 
" clip-path="url(#pc6d492c8f2)" style="fill: none; stroke: #cccccc; stroke-linecap: round"/>
     </g>
    </g>
   </g>
   <g id="matplotlib.axis_2">
    <g id="ytick_1">
     <g id="line2d_9">
      <path d="M 46.675 311.867187 
L 421.049235 311.867187 
" clip-path="url(#pc6d492c8f2)" style="fill: none; stroke: #cccccc; stroke-linecap: round"/>
     </g>
     <g id="text_1">
      <!-- 0 -->
      <g style="fill: #262626" transform="translate(31.057969 315.803984) scale(0.11 -0.11)">
       <defs>
        <path id="ArialMT-30" d="M 266 2259 
Q 266 3072 433 3567 
Q 600 4063 929 4331 
Q 1259 4600 1759 4600 
Q 2128 4600 2406 4451 
Q 2684 4303 2865 4023 
Q 3047 3744 3150 3342 
Q 3253 2941 3253 2259 
Q 3253 1453 3087 958 
Q 2922 463 2592 192 
Q 2263 -78 1759 -78 
Q 1097 -78 719 397 
Q 266 969 266 2259 
z
M 844 2259 
Q 844 1131 1108 757 
Q 1372 384 1759 384 
Q 2147 384 2411 759 
Q 2675 1134 2675 2259 
Q 2675 3391 2411 3762 
Q 2147 4134 1753 4134 
Q 1366 4134 1134 3806 
Q 844 3388 844 2259 
z
" transform="scale(0.015625)"/>
       </defs>
       <use xlink:href="#ArialMT-30"/>
      </g>
     </g>
    </g>
    <g id="ytick_2">
     <g id="line2d_10">
      <path d="M 46.675 256.458976 
L 421.049235 256.458976 
" clip-path="url(#pc6d492c8f2)" style="fill: none; stroke: #cccccc; stroke-linecap: round"/>
     </g>
     <g id="text_2">
      <!-- 5 -->
      <g style="fill: #262626" transform="translate(31.057969 260.395773) scale(0.11 -0.11)">
       <defs>
        <path id="ArialMT-35" d="M 266 1200 
L 856 1250 
Q 922 819 1161 601 
Q 1400 384 1738 384 
Q 2144 384 2425 690 
Q 2706 997 2706 1503 
Q 2706 1984 2436 2262 
Q 2166 2541 1728 2541 
Q 1456 2541 1237 2417 
Q 1019 2294 894 2097 
L 366 2166 
L 809 4519 
L 3088 4519 
L 3088 3981 
L 1259 3981 
L 1013 2750 
Q 1425 3038 1878 3038 
Q 2478 3038 2890 2622 
Q 3303 2206 3303 1553 
Q 3303 931 2941 478 
Q 2500 -78 1738 -78 
Q 1113 -78 717 272 
Q 322 622 266 1200 
z
" transform="scale(0.015625)"/>
       </defs>
       <use xlink:href="#ArialMT-35"/>
      </g>
     </g>
    </g>
    <g id="ytick_3">
     <g id="line2d_11">
      <path d="M 46.675 201.050764 
L 421.049235 201.050764 
" clip-path="url(#pc6d492c8f2)" style="fill: none; stroke: #cccccc; stroke-linecap: round"/>
     </g>
     <g id="text_3">
      <!-- 10 -->
      <g style="fill: #262626" transform="translate(24.940938 204.987561) scale(0.11 -0.11)">
       <defs>
        <path id="ArialMT-31" d="M 2384 0 
L 1822 0 
L 1822 3584 
Q 1619 3391 1289 3197 
Q 959 3003 697 2906 
L 697 3450 
Q 1169 3672 1522 3987 
Q 1875 4303 2022 4600 
L 2384 4600 
L 2384 0 
z
" transform="scale(0.015625)"/>
       </defs>
       <use xlink:href="#ArialMT-31"/>
       <use xlink:href="#ArialMT-30" x="55.615234"/>
      </g>
     </g>
    </g>
    <g id="ytick_4">
     <g id="line2d_12">
      <path d="M 46.675 145.642553 
L 421.049235 145.642553 
" clip-path="url(#pc6d492c8f2)" style="fill: none; stroke: #cccccc; stroke-linecap: round"/>
     </g>
     <g id="text_4">
      <!-- 15 -->
      <g style="fill: #262626" transform="translate(24.940938 149.57935) scale(0.11 -0.11)">
       <use xlink:href="#ArialMT-31"/>
       <use xlink:href="#ArialMT-35" x="55.615234"/>
      </g>
     </g>
    </g>
    <g id="ytick_5">
     <g id="line2d_13">
      <path d="M 46.675 90.234341 
L 421.049235 90.234341 
" clip-path="url(#pc6d492c8f2)" style="fill: none; stroke: #cccccc; stroke-linecap: round"/>
     </g>
     <g id="text_5">
      <!-- 20 -->
      <g style="fill: #262626" transform="translate(24.940938 94.171138) scale(0.11 -0.11)">
       <defs>
        <path id="ArialMT-32" d="M 3222 541 
L 3222 0 
L 194 0 
Q 188 203 259 391 
Q 375 700 629 1000 
Q 884 1300 1366 1694 
Q 2113 2306 2375 2664 
Q 2638 3022 2638 3341 
Q 2638 3675 2398 3904 
Q 2159 4134 1775 4134 
Q 1369 4134 1125 3890 
Q 881 3647 878 3216 
L 300 3275 
Q 359 3922 746 4261 
Q 1134 4600 1788 4600 
Q 2447 4600 2831 4234 
Q 3216 3869 3216 3328 
Q 3216 3053 3103 2787 
Q 2991 2522 2730 2228 
Q 2469 1934 1863 1422 
Q 1356 997 1212 845 
Q 1069 694 975 541 
L 3222 541 
z
" transform="scale(0.015625)"/>
       </defs>
       <use xlink:href="#ArialMT-32"/>
       <use xlink:href="#ArialMT-30" x="55.615234"/>
      </g>
     </g>
    </g>
    <g id="text_6">
     <!-- Count -->
     <g style="fill: #262626" transform="translate(18.555938 199.883906) rotate(-90) scale(0.12 -0.12)">
      <defs>
       <path id="ArialMT-43" d="M 3763 1606 
L 4369 1453 
Q 4178 706 3683 314 
Q 3188 -78 2472 -78 
Q 1731 -78 1267 223 
Q 803 525 561 1097 
Q 319 1669 319 2325 
Q 319 3041 592 3573 
Q 866 4106 1370 4382 
Q 1875 4659 2481 4659 
Q 3169 4659 3637 4309 
Q 4106 3959 4291 3325 
L 3694 3184 
Q 3534 3684 3231 3912 
Q 2928 4141 2469 4141 
Q 1941 4141 1586 3887 
Q 1231 3634 1087 3207 
Q 944 2781 944 2328 
Q 944 1744 1114 1308 
Q 1284 872 1643 656 
Q 2003 441 2422 441 
Q 2931 441 3284 734 
Q 3638 1028 3763 1606 
z
" transform="scale(0.015625)"/>
       <path id="ArialMT-6f" d="M 213 1659 
Q 213 2581 725 3025 
Q 1153 3394 1769 3394 
Q 2453 3394 2887 2945 
Q 3322 2497 3322 1706 
Q 3322 1066 3130 698 
Q 2938 331 2570 128 
Q 2203 -75 1769 -75 
Q 1072 -75 642 372 
Q 213 819 213 1659 
z
M 791 1659 
Q 791 1022 1069 705 
Q 1347 388 1769 388 
Q 2188 388 2466 706 
Q 2744 1025 2744 1678 
Q 2744 2294 2464 2611 
Q 2184 2928 1769 2928 
Q 1347 2928 1069 2612 
Q 791 2297 791 1659 
z
" transform="scale(0.015625)"/>
       <path id="ArialMT-75" d="M 2597 0 
L 2597 488 
Q 2209 -75 1544 -75 
Q 1250 -75 995 37 
Q 741 150 617 320 
Q 494 491 444 738 
Q 409 903 409 1263 
L 409 3319 
L 972 3319 
L 972 1478 
Q 972 1038 1006 884 
Q 1059 663 1231 536 
Q 1403 409 1656 409 
Q 1909 409 2131 539 
Q 2353 669 2445 892 
Q 2538 1116 2538 1541 
L 2538 3319 
L 3100 3319 
L 3100 0 
L 2597 0 
z
" transform="scale(0.015625)"/>
       <path id="ArialMT-6e" d="M 422 0 
L 422 3319 
L 928 3319 
L 928 2847 
Q 1294 3394 1984 3394 
Q 2284 3394 2536 3286 
Q 2788 3178 2913 3003 
Q 3038 2828 3088 2588 
Q 3119 2431 3119 2041 
L 3119 0 
L 2556 0 
L 2556 2019 
Q 2556 2363 2490 2533 
Q 2425 2703 2258 2804 
Q 2091 2906 1866 2906 
Q 1506 2906 1245 2678 
Q 984 2450 984 1813 
L 984 0 
L 422 0 
z
" transform="scale(0.015625)"/>
       <path id="ArialMT-74" d="M 1650 503 
L 1731 6 
Q 1494 -44 1306 -44 
Q 1000 -44 831 53 
Q 663 150 594 308 
Q 525 466 525 972 
L 525 2881 
L 113 2881 
L 113 3319 
L 525 3319 
L 525 4141 
L 1084 4478 
L 1084 3319 
L 1650 3319 
L 1650 2881 
L 1084 2881 
L 1084 941 
Q 1084 700 1114 631 
Q 1144 563 1211 522 
Q 1278 481 1403 481 
Q 1497 481 1650 503 
z
" transform="scale(0.015625)"/>
      </defs>
      <use xlink:href="#ArialMT-43"/>
      <use xlink:href="#ArialMT-6f" x="72.216797"/>
      <use xlink:href="#ArialMT-75" x="127.832031"/>
      <use xlink:href="#ArialMT-6e" x="183.447266"/>
      <use xlink:href="#ArialMT-74" x="239.0625"/>
     </g>
    </g>
   </g>
   <g id="patch_3">
    <path d="M 63.692011 311.867187 
L 79.435576 311.867187 
L 79.435576 278.622261 
L 63.692011 278.622261 
z
" clip-path="url(#pc6d492c8f2)" style="fill: #4c72b0; fill-opacity: 0.5; stroke: #000000; stroke-linejoin: miter"/>
   </g>
   <g id="patch_4">
    <path d="M 79.435576 311.867187 
L 95.179141 311.867187 
L 95.179141 267.540618 
L 79.435576 267.540618 
z
" clip-path="url(#pc6d492c8f2)" style="fill: #4c72b0; fill-opacity: 0.5; stroke: #000000; stroke-linejoin: miter"/>
   </g>
   <g id="patch_5">
    <path d="M 95.179141 311.867187 
L 110.922707 311.867187 
L 110.922707 156.724195 
L 95.179141 156.724195 
z
" clip-path="url(#pc6d492c8f2)" style="fill: #4c72b0; fill-opacity: 0.5; stroke: #000000; stroke-linejoin: miter"/>
   </g>
   <g id="patch_6">
    <path d="M 110.922707 311.867187 
L 126.666272 311.867187 
L 126.666272 112.397626 
L 110.922707 112.397626 
z
" clip-path="url(#pc6d492c8f2)" style="fill: #4c72b0; fill-opacity: 0.5; stroke: #000000; stroke-linejoin: miter"/>
   </g>
   <g id="patch_7">
    <path d="M 126.666272 311.867187 
L 142.409837 311.867187 
L 142.409837 90.234341 
L 126.666272 90.234341 
z
" clip-path="url(#pc6d492c8f2)" style="fill: #4c72b0; fill-opacity: 0.5; stroke: #000000; stroke-linejoin: miter"/>
   </g>
   <g id="patch_8">
    <path d="M 142.409837 311.867187 
L 158.153403 311.867187 
L 158.153403 68.071057 
L 142.409837 68.071057 
z
" clip-path="url(#pc6d492c8f2)" style="fill: #4c72b0; fill-opacity: 0.5; stroke: #000000; stroke-linejoin: miter"/>
   </g>
   <g id="patch_9">
    <path d="M 158.153403 311.867187 
L 173.896968 311.867187 
L 173.896968 167.805837 
L 158.153403 167.805837 
z
" clip-path="url(#pc6d492c8f2)" style="fill: #4c72b0; fill-opacity: 0.5; stroke: #000000; stroke-linejoin: miter"/>
   </g>
   <g id="patch_10">
    <path d="M 173.896968 311.867187 
L 189.640533 311.867187 
L 189.640533 245.377334 
L 173.896968 245.377334 
z
" clip-path="url(#pc6d492c8f2)" style="fill: #4c72b0; fill-opacity: 0.5; stroke: #000000; stroke-linejoin: miter"/>
   </g>
   <g id="line2d_14">
    <path d="M 63.692011 297.401742 
L 66.223639 294.196998 
L 68.755268 290.547202 
L 71.286896 286.427027 
L 73.818525 281.818176 
L 76.350154 276.694962 
L 78.881782 271.000143 
L 81.413411 264.620406 
L 83.312132 259.279523 
L 85.210854 253.354296 
L 87.109575 246.737541 
L 89.008297 239.327976 
L 90.907018 231.049127 
L 92.80574 221.870323 
L 95.337368 208.304724 
L 98.501904 189.706193 
L 104.198068 155.747622 
L 106.09679 145.749617 
L 107.995511 137.037418 
L 109.261325 132.076295 
L 110.52714 127.848177 
L 111.792954 124.366501 
L 113.058768 121.612538 
L 114.324583 119.535924 
L 115.590397 118.057361 
L 116.856211 117.073338 
L 118.122026 116.462601 
L 120.020747 115.958555 
L 122.552376 115.377192 
L 123.81819 114.872083 
L 125.084004 114.112072 
L 126.349818 113.046768 
L 127.615633 111.655239 
L 128.881447 109.945769 
L 130.780168 106.869339 
L 133.311797 102.167744 
L 136.476333 96.350387 
L 137.742147 94.359813 
L 139.007961 92.70284 
L 140.273776 91.462132 
L 141.53959 90.708652 
L 142.172497 90.533186 
L 142.805404 90.500035 
L 143.438311 90.614145 
L 144.071219 90.879522 
L 144.704126 91.299217 
L 145.337033 91.87532 
L 146.602847 93.500308 
L 147.868662 95.752065 
L 149.134476 98.613241 
L 150.40029 102.052348 
L 151.666104 106.025048 
L 153.564826 112.861107 
L 155.463547 120.551351 
L 157.995176 131.719108 
L 171.919133 195.051531 
L 178.248205 221.994972 
L 183.311462 242.662391 
L 187.108905 257.306516 
L 189.640533 266.48295 
L 189.640533 266.48295 
" clip-path="url(#pc6d492c8f2)" style="fill: none; stroke: #4c72b0; stroke-width: 1.5; stroke-linecap: round"/>
   </g>
   <g id="patch_11">
    <path d="M 46.675 311.867187 
L 46.675 55.88125 
" style="fill: none; stroke: #cccccc; stroke-width: 1.25; stroke-linejoin: miter; stroke-linecap: square"/>
   </g>
   <g id="patch_12">
    <path d="M 421.049235 311.867187 
L 421.049235 55.88125 
" style="fill: none; stroke: #cccccc; stroke-width: 1.25; stroke-linejoin: miter; stroke-linecap: square"/>
   </g>
   <g id="patch_13">
    <path d="M 46.675 311.867187 
L 421.049235 311.867187 
" style="fill: none; stroke: #cccccc; stroke-width: 1.25; stroke-linejoin: miter; stroke-linecap: square"/>
   </g>
   <g id="patch_14">
    <path d="M 46.675 55.88125 
L 421.049235 55.88125 
" style="fill: none; stroke: #cccccc; stroke-width: 1.25; stroke-linejoin: miter; stroke-linecap: square"/>
   </g>
   <g id="text_7">
    <!-- OLS ($\mu = 22.9926, \sigma = 2.5689$) -->
    <g style="fill: #262626" transform="translate(130.262118 49.88125) scale(0.14 -0.14)">
     <defs>
      <path id="ArialMT-4f" d="M 309 2231 
Q 309 3372 921 4017 
Q 1534 4663 2503 4663 
Q 3138 4663 3647 4359 
Q 4156 4056 4423 3514 
Q 4691 2972 4691 2284 
Q 4691 1588 4409 1038 
Q 4128 488 3612 205 
Q 3097 -78 2500 -78 
Q 1853 -78 1343 234 
Q 834 547 571 1087 
Q 309 1628 309 2231 
z
M 934 2222 
Q 934 1394 1379 917 
Q 1825 441 2497 441 
Q 3181 441 3623 922 
Q 4066 1403 4066 2288 
Q 4066 2847 3877 3264 
Q 3688 3681 3323 3911 
Q 2959 4141 2506 4141 
Q 1863 4141 1398 3698 
Q 934 3256 934 2222 
z
" transform="scale(0.015625)"/>
      <path id="ArialMT-4c" d="M 469 0 
L 469 4581 
L 1075 4581 
L 1075 541 
L 3331 541 
L 3331 0 
L 469 0 
z
" transform="scale(0.015625)"/>
      <path id="ArialMT-53" d="M 288 1472 
L 859 1522 
Q 900 1178 1048 958 
Q 1197 738 1509 602 
Q 1822 466 2213 466 
Q 2559 466 2825 569 
Q 3091 672 3220 851 
Q 3350 1031 3350 1244 
Q 3350 1459 3225 1620 
Q 3100 1781 2813 1891 
Q 2628 1963 1997 2114 
Q 1366 2266 1113 2400 
Q 784 2572 623 2826 
Q 463 3081 463 3397 
Q 463 3744 659 4045 
Q 856 4347 1234 4503 
Q 1613 4659 2075 4659 
Q 2584 4659 2973 4495 
Q 3363 4331 3572 4012 
Q 3781 3694 3797 3291 
L 3216 3247 
Q 3169 3681 2898 3903 
Q 2628 4125 2100 4125 
Q 1550 4125 1298 3923 
Q 1047 3722 1047 3438 
Q 1047 3191 1225 3031 
Q 1400 2872 2139 2705 
Q 2878 2538 3153 2413 
Q 3553 2228 3743 1945 
Q 3934 1663 3934 1294 
Q 3934 928 3725 604 
Q 3516 281 3123 101 
Q 2731 -78 2241 -78 
Q 1619 -78 1198 103 
Q 778 284 539 648 
Q 300 1013 288 1472 
z
" transform="scale(0.015625)"/>
      <path id="ArialMT-20" transform="scale(0.015625)"/>
      <path id="ArialMT-28" d="M 1497 -1347 
Q 1031 -759 709 28 
Q 388 816 388 1659 
Q 388 2403 628 3084 
Q 909 3875 1497 4659 
L 1900 4659 
Q 1522 4009 1400 3731 
Q 1209 3300 1100 2831 
Q 966 2247 966 1656 
Q 966 153 1900 -1347 
L 1497 -1347 
z
" transform="scale(0.015625)"/>
      <path id="DejaVuSans-Oblique-3bc" d="M -84 -1331 
L 856 3500 
L 1434 3500 
L 1009 1322 
Q 997 1256 987 1175 
Q 978 1094 978 1013 
Q 978 722 1161 565 
Q 1344 409 1684 409 
Q 2147 409 2431 671 
Q 2716 934 2816 1459 
L 3213 3500 
L 3788 3500 
L 3266 809 
Q 3253 750 3248 706 
Q 3244 663 3244 628 
Q 3244 531 3283 486 
Q 3322 441 3406 441 
Q 3438 441 3492 456 
Q 3547 472 3647 513 
L 3559 50 
Q 3422 -19 3297 -55 
Q 3172 -91 3053 -91 
Q 2847 -91 2730 40 
Q 2613 172 2613 403 
Q 2438 153 2195 31 
Q 1953 -91 1625 -91 
Q 1334 -91 1117 43 
Q 900 178 831 397 
L 494 -1331 
L -84 -1331 
z
" transform="scale(0.015625)"/>
      <path id="DejaVuSans-3d" d="M 678 2906 
L 4684 2906 
L 4684 2381 
L 678 2381 
L 678 2906 
z
M 678 1631 
L 4684 1631 
L 4684 1100 
L 678 1100 
L 678 1631 
z
" transform="scale(0.015625)"/>
      <path id="DejaVuSans-32" d="M 1228 531 
L 3431 531 
L 3431 0 
L 469 0 
L 469 531 
Q 828 903 1448 1529 
Q 2069 2156 2228 2338 
Q 2531 2678 2651 2914 
Q 2772 3150 2772 3378 
Q 2772 3750 2511 3984 
Q 2250 4219 1831 4219 
Q 1534 4219 1204 4116 
Q 875 4013 500 3803 
L 500 4441 
Q 881 4594 1212 4672 
Q 1544 4750 1819 4750 
Q 2544 4750 2975 4387 
Q 3406 4025 3406 3419 
Q 3406 3131 3298 2873 
Q 3191 2616 2906 2266 
Q 2828 2175 2409 1742 
Q 1991 1309 1228 531 
z
" transform="scale(0.015625)"/>
      <path id="DejaVuSans-2e" d="M 684 794 
L 1344 794 
L 1344 0 
L 684 0 
L 684 794 
z
" transform="scale(0.015625)"/>
      <path id="DejaVuSans-39" d="M 703 97 
L 703 672 
Q 941 559 1184 500 
Q 1428 441 1663 441 
Q 2288 441 2617 861 
Q 2947 1281 2994 2138 
Q 2813 1869 2534 1725 
Q 2256 1581 1919 1581 
Q 1219 1581 811 2004 
Q 403 2428 403 3163 
Q 403 3881 828 4315 
Q 1253 4750 1959 4750 
Q 2769 4750 3195 4129 
Q 3622 3509 3622 2328 
Q 3622 1225 3098 567 
Q 2575 -91 1691 -91 
Q 1453 -91 1209 -44 
Q 966 3 703 97 
z
M 1959 2075 
Q 2384 2075 2632 2365 
Q 2881 2656 2881 3163 
Q 2881 3666 2632 3958 
Q 2384 4250 1959 4250 
Q 1534 4250 1286 3958 
Q 1038 3666 1038 3163 
Q 1038 2656 1286 2365 
Q 1534 2075 1959 2075 
z
" transform="scale(0.015625)"/>
      <path id="DejaVuSans-36" d="M 2113 2584 
Q 1688 2584 1439 2293 
Q 1191 2003 1191 1497 
Q 1191 994 1439 701 
Q 1688 409 2113 409 
Q 2538 409 2786 701 
Q 3034 994 3034 1497 
Q 3034 2003 2786 2293 
Q 2538 2584 2113 2584 
z
M 3366 4563 
L 3366 3988 
Q 3128 4100 2886 4159 
Q 2644 4219 2406 4219 
Q 1781 4219 1451 3797 
Q 1122 3375 1075 2522 
Q 1259 2794 1537 2939 
Q 1816 3084 2150 3084 
Q 2853 3084 3261 2657 
Q 3669 2231 3669 1497 
Q 3669 778 3244 343 
Q 2819 -91 2113 -91 
Q 1303 -91 875 529 
Q 447 1150 447 2328 
Q 447 3434 972 4092 
Q 1497 4750 2381 4750 
Q 2619 4750 2861 4703 
Q 3103 4656 3366 4563 
z
" transform="scale(0.015625)"/>
      <path id="DejaVuSans-2c" d="M 750 794 
L 1409 794 
L 1409 256 
L 897 -744 
L 494 -744 
L 750 256 
L 750 794 
z
" transform="scale(0.015625)"/>
      <path id="DejaVuSans-Oblique-3c3" d="M 2219 3044 
Q 1744 3044 1422 2700 
Q 1081 2341 969 1747 
Q 844 1119 1044 756 
Q 1241 397 1706 397 
Q 2166 397 2503 759 
Q 2844 1122 2966 1747 
Q 3075 2319 2881 2700 
Q 2700 3044 2219 3044 
z
M 2309 3503 
L 4219 3500 
L 4106 2925 
L 3463 2925 
Q 3706 2438 3575 1747 
Q 3406 888 2884 400 
Q 2359 -91 1609 -91 
Q 856 -91 525 400 
Q 194 888 363 1747 
Q 528 2609 1050 3097 
Q 1484 3503 2309 3503 
z
" transform="scale(0.015625)"/>
      <path id="DejaVuSans-35" d="M 691 4666 
L 3169 4666 
L 3169 4134 
L 1269 4134 
L 1269 2991 
Q 1406 3038 1543 3061 
Q 1681 3084 1819 3084 
Q 2600 3084 3056 2656 
Q 3513 2228 3513 1497 
Q 3513 744 3044 326 
Q 2575 -91 1722 -91 
Q 1428 -91 1123 -41 
Q 819 9 494 109 
L 494 744 
Q 775 591 1075 516 
Q 1375 441 1709 441 
Q 2250 441 2565 725 
Q 2881 1009 2881 1497 
Q 2881 1984 2565 2268 
Q 2250 2553 1709 2553 
Q 1456 2553 1204 2497 
Q 953 2441 691 2322 
L 691 4666 
z
" transform="scale(0.015625)"/>
      <path id="DejaVuSans-38" d="M 2034 2216 
Q 1584 2216 1326 1975 
Q 1069 1734 1069 1313 
Q 1069 891 1326 650 
Q 1584 409 2034 409 
Q 2484 409 2743 651 
Q 3003 894 3003 1313 
Q 3003 1734 2745 1975 
Q 2488 2216 2034 2216 
z
M 1403 2484 
Q 997 2584 770 2862 
Q 544 3141 544 3541 
Q 544 4100 942 4425 
Q 1341 4750 2034 4750 
Q 2731 4750 3128 4425 
Q 3525 4100 3525 3541 
Q 3525 3141 3298 2862 
Q 3072 2584 2669 2484 
Q 3125 2378 3379 2068 
Q 3634 1759 3634 1313 
Q 3634 634 3220 271 
Q 2806 -91 2034 -91 
Q 1263 -91 848 271 
Q 434 634 434 1313 
Q 434 1759 690 2068 
Q 947 2378 1403 2484 
z
M 1172 3481 
Q 1172 3119 1398 2916 
Q 1625 2713 2034 2713 
Q 2441 2713 2670 2916 
Q 2900 3119 2900 3481 
Q 2900 3844 2670 4047 
Q 2441 4250 2034 4250 
Q 1625 4250 1398 4047 
Q 1172 3844 1172 3481 
z
" transform="scale(0.015625)"/>
      <path id="ArialMT-29" d="M 791 -1347 
L 388 -1347 
Q 1322 153 1322 1656 
Q 1322 2244 1188 2822 
Q 1081 3291 891 3722 
Q 769 4003 388 4659 
L 791 4659 
Q 1378 3875 1659 3084 
Q 1900 2403 1900 1659 
Q 1900 816 1576 28 
Q 1253 -759 791 -1347 
z
" transform="scale(0.015625)"/>
     </defs>
     <use xlink:href="#ArialMT-4f" transform="translate(0 0.78125)"/>
     <use xlink:href="#ArialMT-4c" transform="translate(77.783203 0.78125)"/>
     <use xlink:href="#ArialMT-53" transform="translate(133.398438 0.78125)"/>
     <use xlink:href="#ArialMT-20" transform="translate(200.097656 0.78125)"/>
     <use xlink:href="#ArialMT-28" transform="translate(227.880859 0.78125)"/>
     <use xlink:href="#DejaVuSans-Oblique-3bc" transform="translate(261.181641 0.78125)"/>
     <use xlink:href="#DejaVuSans-3d" transform="translate(344.287109 0.78125)"/>
     <use xlink:href="#DejaVuSans-32" transform="translate(447.558594 0.78125)"/>
     <use xlink:href="#DejaVuSans-32" transform="translate(511.181641 0.78125)"/>
     <use xlink:href="#DejaVuSans-2e" transform="translate(574.804688 0.78125)"/>
     <use xlink:href="#DejaVuSans-39" transform="translate(606.591797 0.78125)"/>
     <use xlink:href="#DejaVuSans-39" transform="translate(670.214844 0.78125)"/>
     <use xlink:href="#DejaVuSans-32" transform="translate(732.087891 0.78125)"/>
     <use xlink:href="#DejaVuSans-36" transform="translate(795.710938 0.78125)"/>
     <use xlink:href="#DejaVuSans-2c" transform="translate(859.333984 0.78125)"/>
     <use xlink:href="#DejaVuSans-Oblique-3c3" transform="translate(910.603516 0.78125)"/>
     <use xlink:href="#DejaVuSans-3d" transform="translate(993.464844 0.78125)"/>
     <use xlink:href="#DejaVuSans-32" transform="translate(1096.736328 0.78125)"/>
     <use xlink:href="#DejaVuSans-2e" transform="translate(1160.359375 0.78125)"/>
     <use xlink:href="#DejaVuSans-35" transform="translate(1192.146484 0.78125)"/>
     <use xlink:href="#DejaVuSans-36" transform="translate(1255.769531 0.78125)"/>
     <use xlink:href="#DejaVuSans-38" transform="translate(1319.392578 0.78125)"/>
     <use xlink:href="#DejaVuSans-39" transform="translate(1383.015625 0.78125)"/>
     <use xlink:href="#ArialMT-29" transform="translate(1446.638672 0.78125)"/>
    </g>
   </g>
  </g>
  <g id="axes_2">
   <g id="patch_15">
    <path d="M 473.275 311.867187 
L 847.649235 311.867187 
L 847.649235 55.88125 
L 473.275 55.88125 
z
" style="fill: #ffffff"/>
   </g>
   <g id="matplotlib.axis_3">
    <g id="xtick_9">
     <g id="line2d_15">
      <path d="M 476.185148 311.867187 
L 476.185148 55.88125 
" clip-path="url(#p0ce1f850c7)" style="fill: none; stroke: #cccccc; stroke-linecap: round"/>
     </g>
    </g>
    <g id="xtick_10">
     <g id="line2d_16">
      <path d="M 529.161526 311.867187 
L 529.161526 55.88125 
" clip-path="url(#p0ce1f850c7)" style="fill: none; stroke: #cccccc; stroke-linecap: round"/>
     </g>
    </g>
    <g id="xtick_11">
     <g id="line2d_17">
      <path d="M 582.137903 311.867187 
L 582.137903 55.88125 
" clip-path="url(#p0ce1f850c7)" style="fill: none; stroke: #cccccc; stroke-linecap: round"/>
     </g>
    </g>
    <g id="xtick_12">
     <g id="line2d_18">
      <path d="M 635.11428 311.867187 
L 635.11428 55.88125 
" clip-path="url(#p0ce1f850c7)" style="fill: none; stroke: #cccccc; stroke-linecap: round"/>
     </g>
    </g>
    <g id="xtick_13">
     <g id="line2d_19">
      <path d="M 688.090657 311.867187 
L 688.090657 55.88125 
" clip-path="url(#p0ce1f850c7)" style="fill: none; stroke: #cccccc; stroke-linecap: round"/>
     </g>
    </g>
    <g id="xtick_14">
     <g id="line2d_20">
      <path d="M 741.067035 311.867187 
L 741.067035 55.88125 
" clip-path="url(#p0ce1f850c7)" style="fill: none; stroke: #cccccc; stroke-linecap: round"/>
     </g>
    </g>
    <g id="xtick_15">
     <g id="line2d_21">
      <path d="M 794.043412 311.867187 
L 794.043412 55.88125 
" clip-path="url(#p0ce1f850c7)" style="fill: none; stroke: #cccccc; stroke-linecap: round"/>
     </g>
    </g>
    <g id="xtick_16">
     <g id="line2d_22">
      <path d="M 847.019789 311.867187 
L 847.019789 55.88125 
" clip-path="url(#p0ce1f850c7)" style="fill: none; stroke: #cccccc; stroke-linecap: round"/>
     </g>
    </g>
   </g>
   <g id="matplotlib.axis_4">
    <g id="ytick_6">
     <g id="line2d_23">
      <path d="M 473.275 311.867187 
L 847.649235 311.867187 
" clip-path="url(#p0ce1f850c7)" style="fill: none; stroke: #cccccc; stroke-linecap: round"/>
     </g>
     <g id="text_8">
      <!-- 0 -->
      <g style="fill: #262626" transform="translate(457.657969 315.803984) scale(0.11 -0.11)">
       <use xlink:href="#ArialMT-30"/>
      </g>
     </g>
    </g>
    <g id="ytick_7">
     <g id="line2d_24">
      <path d="M 473.275 266.719756 
L 847.649235 266.719756 
" clip-path="url(#p0ce1f850c7)" style="fill: none; stroke: #cccccc; stroke-linecap: round"/>
     </g>
     <g id="text_9">
      <!-- 5 -->
      <g style="fill: #262626" transform="translate(457.657969 270.656553) scale(0.11 -0.11)">
       <use xlink:href="#ArialMT-35"/>
      </g>
     </g>
    </g>
    <g id="ytick_8">
     <g id="line2d_25">
      <path d="M 473.275 221.572324 
L 847.649235 221.572324 
" clip-path="url(#p0ce1f850c7)" style="fill: none; stroke: #cccccc; stroke-linecap: round"/>
     </g>
     <g id="text_10">
      <!-- 10 -->
      <g style="fill: #262626" transform="translate(451.540938 225.509121) scale(0.11 -0.11)">
       <use xlink:href="#ArialMT-31"/>
       <use xlink:href="#ArialMT-30" x="55.615234"/>
      </g>
     </g>
    </g>
    <g id="ytick_9">
     <g id="line2d_26">
      <path d="M 473.275 176.424893 
L 847.649235 176.424893 
" clip-path="url(#p0ce1f850c7)" style="fill: none; stroke: #cccccc; stroke-linecap: round"/>
     </g>
     <g id="text_11">
      <!-- 15 -->
      <g style="fill: #262626" transform="translate(451.540938 180.361689) scale(0.11 -0.11)">
       <use xlink:href="#ArialMT-31"/>
       <use xlink:href="#ArialMT-35" x="55.615234"/>
      </g>
     </g>
    </g>
    <g id="ytick_10">
     <g id="line2d_27">
      <path d="M 473.275 131.277461 
L 847.649235 131.277461 
" clip-path="url(#p0ce1f850c7)" style="fill: none; stroke: #cccccc; stroke-linecap: round"/>
     </g>
     <g id="text_12">
      <!-- 20 -->
      <g style="fill: #262626" transform="translate(451.540938 135.214258) scale(0.11 -0.11)">
       <use xlink:href="#ArialMT-32"/>
       <use xlink:href="#ArialMT-30" x="55.615234"/>
      </g>
     </g>
    </g>
    <g id="ytick_11">
     <g id="line2d_28">
      <path d="M 473.275 86.130029 
L 847.649235 86.130029 
" clip-path="url(#p0ce1f850c7)" style="fill: none; stroke: #cccccc; stroke-linecap: round"/>
     </g>
     <g id="text_13">
      <!-- 25 -->
      <g style="fill: #262626" transform="translate(451.540938 90.066826) scale(0.11 -0.11)">
       <use xlink:href="#ArialMT-32"/>
       <use xlink:href="#ArialMT-35" x="55.615234"/>
      </g>
     </g>
    </g>
    <g id="text_14">
     <!-- Count -->
     <g style="fill: #262626" transform="translate(445.155938 199.883906) rotate(-90) scale(0.12 -0.12)">
      <use xlink:href="#ArialMT-43"/>
      <use xlink:href="#ArialMT-6f" x="72.216797"/>
      <use xlink:href="#ArialMT-75" x="127.832031"/>
      <use xlink:href="#ArialMT-6e" x="183.447266"/>
      <use xlink:href="#ArialMT-74" x="239.0625"/>
     </g>
    </g>
   </g>
   <g id="patch_16">
    <path d="M 498.929037 311.867187 
L 523.483418 311.867187 
L 523.483418 248.660783 
L 498.929037 248.660783 
z
" clip-path="url(#p0ce1f850c7)" style="fill: #4c72b0; fill-opacity: 0.5; stroke: #000000; stroke-linejoin: miter"/>
   </g>
   <g id="patch_17">
    <path d="M 523.483418 311.867187 
L 548.037799 311.867187 
L 548.037799 140.306947 
L 523.483418 140.306947 
z
" clip-path="url(#p0ce1f850c7)" style="fill: #4c72b0; fill-opacity: 0.5; stroke: #000000; stroke-linejoin: miter"/>
   </g>
   <g id="patch_18">
    <path d="M 548.037799 311.867187 
L 572.592179 311.867187 
L 572.592179 68.071057 
L 548.037799 68.071057 
z
" clip-path="url(#p0ce1f850c7)" style="fill: #4c72b0; fill-opacity: 0.5; stroke: #000000; stroke-linejoin: miter"/>
   </g>
   <g id="patch_19">
    <path d="M 572.592179 311.867187 
L 597.14656 311.867187 
L 597.14656 158.36592 
L 572.592179 158.36592 
z
" clip-path="url(#p0ce1f850c7)" style="fill: #4c72b0; fill-opacity: 0.5; stroke: #000000; stroke-linejoin: miter"/>
   </g>
   <g id="patch_20">
    <path d="M 597.14656 311.867187 
L 621.700941 311.867187 
L 621.700941 158.36592 
L 597.14656 158.36592 
z
" clip-path="url(#p0ce1f850c7)" style="fill: #4c72b0; fill-opacity: 0.5; stroke: #000000; stroke-linejoin: miter"/>
   </g>
   <g id="patch_21">
    <path d="M 621.700941 311.867187 
L 646.255322 311.867187 
L 646.255322 230.601811 
L 621.700941 230.601811 
z
" clip-path="url(#p0ce1f850c7)" style="fill: #4c72b0; fill-opacity: 0.5; stroke: #000000; stroke-linejoin: miter"/>
   </g>
   <g id="patch_22">
    <path d="M 646.255322 311.867187 
L 670.809703 311.867187 
L 670.809703 293.808215 
L 646.255322 293.808215 
z
" clip-path="url(#p0ce1f850c7)" style="fill: #4c72b0; fill-opacity: 0.5; stroke: #000000; stroke-linejoin: miter"/>
   </g>
   <g id="patch_23">
    <path d="M 670.809703 311.867187 
L 695.364084 311.867187 
L 695.364084 293.808215 
L 670.809703 293.808215 
z
" clip-path="url(#p0ce1f850c7)" style="fill: #4c72b0; fill-opacity: 0.5; stroke: #000000; stroke-linejoin: miter"/>
   </g>
   <g id="line2d_29">
    <path d="M 498.929037 275.125057 
L 501.890369 268.153378 
L 504.851701 260.541462 
L 507.813034 252.334109 
L 510.774366 243.582545 
L 514.722809 231.153818 
L 518.671253 217.943338 
L 522.619696 204.009716 
L 527.55525 185.638171 
L 533.477914 162.473058 
L 540.38769 135.334223 
L 543.349022 124.455472 
L 546.310355 114.553043 
L 548.284576 108.689193 
L 550.258798 103.547416 
L 552.233019 99.229716 
L 553.22013 97.407722 
L 554.207241 95.822845 
L 555.194352 94.482863 
L 556.181463 93.394131 
L 557.168573 92.561511 
L 558.155684 91.988322 
L 559.142795 91.676301 
L 560.129906 91.625589 
L 561.117016 91.834734 
L 562.104127 92.300705 
L 563.091238 93.01893 
L 564.078349 93.983338 
L 565.06546 95.186421 
L 566.05257 96.619297 
L 568.026792 100.132506 
L 570.001014 104.427499 
L 571.975235 109.392213 
L 573.949457 114.900957 
L 576.910789 123.883956 
L 584.807675 148.587521 
L 586.781897 154.164121 
L 588.756119 159.253195 
L 590.73034 163.762959 
L 592.704562 167.628217 
L 594.678783 170.814657 
L 596.653005 173.321851 
L 598.627226 175.184472 
L 600.601448 176.471352 
L 602.57567 177.28222 
L 604.549891 177.742172 
L 607.511224 178.089744 
L 610.472556 178.482946 
L 612.446777 179.013824 
L 614.420999 179.907885 
L 616.395221 181.265729 
L 618.369442 183.159561 
L 620.343664 185.631302 
L 622.317885 188.693031 
L 624.292107 192.329447 
L 626.266329 196.501878 
L 628.24055 201.153223 
L 631.201882 208.872253 
L 634.163215 217.242835 
L 641.07299 237.790457 
L 645.021434 249.254719 
L 647.982766 257.36241 
L 650.944098 264.883237 
L 653.905431 271.705087 
L 655.879652 275.82568 
L 657.853874 279.587917 
L 659.828095 282.986075 
L 661.802317 286.021785 
L 663.776539 288.703659 
L 665.75076 291.046677 
L 667.724982 293.071344 
L 669.699203 294.802674 
L 671.673425 296.269079 
L 673.647646 297.501212 
L 675.621868 298.53087 
L 678.5832 299.765377 
L 681.544533 300.719842 
L 685.492976 301.719237 
L 695.364084 303.883232 
L 695.364084 303.883232 
" clip-path="url(#p0ce1f850c7)" style="fill: none; stroke: #4c72b0; stroke-width: 1.5; stroke-linecap: round"/>
   </g>
   <g id="patch_24">
    <path d="M 473.275 311.867187 
L 473.275 55.88125 
" style="fill: none; stroke: #cccccc; stroke-width: 1.25; stroke-linejoin: miter; stroke-linecap: square"/>
   </g>
   <g id="patch_25">
    <path d="M 847.649235 311.867187 
L 847.649235 55.88125 
" style="fill: none; stroke: #cccccc; stroke-width: 1.25; stroke-linejoin: miter; stroke-linecap: square"/>
   </g>
   <g id="patch_26">
    <path d="M 473.275 311.867187 
L 847.649235 311.867187 
" style="fill: none; stroke: #cccccc; stroke-width: 1.25; stroke-linejoin: miter; stroke-linecap: square"/>
   </g>
   <g id="patch_27">
    <path d="M 473.275 55.88125 
L 847.649235 55.88125 
" style="fill: none; stroke: #cccccc; stroke-width: 1.25; stroke-linejoin: miter; stroke-linecap: square"/>
   </g>
   <g id="text_15">
    <!-- LAD ($\mu = 24.424, \sigma = 3.7371$) -->
    <g style="fill: #262626" transform="translate(562.112118 49.88125) scale(0.14 -0.14)">
     <defs>
      <path id="ArialMT-41" d="M -9 0 
L 1750 4581 
L 2403 4581 
L 4278 0 
L 3588 0 
L 3053 1388 
L 1138 1388 
L 634 0 
L -9 0 
z
M 1313 1881 
L 2866 1881 
L 2388 3150 
Q 2169 3728 2063 4100 
Q 1975 3659 1816 3225 
L 1313 1881 
z
" transform="scale(0.015625)"/>
      <path id="ArialMT-44" d="M 494 0 
L 494 4581 
L 2072 4581 
Q 2606 4581 2888 4516 
Q 3281 4425 3559 4188 
Q 3922 3881 4101 3404 
Q 4281 2928 4281 2316 
Q 4281 1794 4159 1391 
Q 4038 988 3847 723 
Q 3656 459 3429 307 
Q 3203 156 2883 78 
Q 2563 0 2147 0 
L 494 0 
z
M 1100 541 
L 2078 541 
Q 2531 541 2789 625 
Q 3047 709 3200 863 
Q 3416 1078 3536 1442 
Q 3656 1806 3656 2325 
Q 3656 3044 3420 3430 
Q 3184 3816 2847 3947 
Q 2603 4041 2063 4041 
L 1100 4041 
L 1100 541 
z
" transform="scale(0.015625)"/>
      <path id="DejaVuSans-34" d="M 2419 4116 
L 825 1625 
L 2419 1625 
L 2419 4116 
z
M 2253 4666 
L 3047 4666 
L 3047 1625 
L 3713 1625 
L 3713 1100 
L 3047 1100 
L 3047 0 
L 2419 0 
L 2419 1100 
L 313 1100 
L 313 1709 
L 2253 4666 
z
" transform="scale(0.015625)"/>
      <path id="DejaVuSans-33" d="M 2597 2516 
Q 3050 2419 3304 2112 
Q 3559 1806 3559 1356 
Q 3559 666 3084 287 
Q 2609 -91 1734 -91 
Q 1441 -91 1130 -33 
Q 819 25 488 141 
L 488 750 
Q 750 597 1062 519 
Q 1375 441 1716 441 
Q 2309 441 2620 675 
Q 2931 909 2931 1356 
Q 2931 1769 2642 2001 
Q 2353 2234 1838 2234 
L 1294 2234 
L 1294 2753 
L 1863 2753 
Q 2328 2753 2575 2939 
Q 2822 3125 2822 3475 
Q 2822 3834 2567 4026 
Q 2313 4219 1838 4219 
Q 1578 4219 1281 4162 
Q 984 4106 628 3988 
L 628 4550 
Q 988 4650 1302 4700 
Q 1616 4750 1894 4750 
Q 2613 4750 3031 4423 
Q 3450 4097 3450 3541 
Q 3450 3153 3228 2886 
Q 3006 2619 2597 2516 
z
" transform="scale(0.015625)"/>
      <path id="DejaVuSans-37" d="M 525 4666 
L 3525 4666 
L 3525 4397 
L 1831 0 
L 1172 0 
L 2766 4134 
L 525 4134 
L 525 4666 
z
" transform="scale(0.015625)"/>
      <path id="DejaVuSans-31" d="M 794 531 
L 1825 531 
L 1825 4091 
L 703 3866 
L 703 4441 
L 1819 4666 
L 2450 4666 
L 2450 531 
L 3481 531 
L 3481 0 
L 794 0 
L 794 531 
z
" transform="scale(0.015625)"/>
     </defs>
     <use xlink:href="#ArialMT-4c" transform="translate(0 0.78125)"/>
     <use xlink:href="#ArialMT-41" transform="translate(55.615234 0.78125)"/>
     <use xlink:href="#ArialMT-44" transform="translate(122.314453 0.78125)"/>
     <use xlink:href="#ArialMT-20" transform="translate(194.53125 0.78125)"/>
     <use xlink:href="#ArialMT-28" transform="translate(222.314453 0.78125)"/>
     <use xlink:href="#DejaVuSans-Oblique-3bc" transform="translate(255.615234 0.78125)"/>
     <use xlink:href="#DejaVuSans-3d" transform="translate(338.720703 0.78125)"/>
     <use xlink:href="#DejaVuSans-32" transform="translate(441.992188 0.78125)"/>
     <use xlink:href="#DejaVuSans-34" transform="translate(505.615234 0.78125)"/>
     <use xlink:href="#DejaVuSans-2e" transform="translate(569.238281 0.78125)"/>
     <use xlink:href="#DejaVuSans-34" transform="translate(601.025391 0.78125)"/>
     <use xlink:href="#DejaVuSans-32" transform="translate(664.648438 0.78125)"/>
     <use xlink:href="#DejaVuSans-34" transform="translate(728.271484 0.78125)"/>
     <use xlink:href="#DejaVuSans-2c" transform="translate(791.894531 0.78125)"/>
     <use xlink:href="#DejaVuSans-Oblique-3c3" transform="translate(843.164062 0.78125)"/>
     <use xlink:href="#DejaVuSans-3d" transform="translate(926.025391 0.78125)"/>
     <use xlink:href="#DejaVuSans-33" transform="translate(1029.296875 0.78125)"/>
     <use xlink:href="#DejaVuSans-2e" transform="translate(1092.919922 0.78125)"/>
     <use xlink:href="#DejaVuSans-37" transform="translate(1116.957031 0.78125)"/>
     <use xlink:href="#DejaVuSans-33" transform="translate(1180.580078 0.78125)"/>
     <use xlink:href="#DejaVuSans-37" transform="translate(1244.203125 0.78125)"/>
     <use xlink:href="#DejaVuSans-31" transform="translate(1307.826172 0.78125)"/>
     <use xlink:href="#ArialMT-29" transform="translate(1371.449219 0.78125)"/>
    </g>
   </g>
  </g>
  <g id="axes_3">
   <g id="patch_28">
    <path d="M 46.675 603.653125 
L 421.049235 603.653125 
L 421.049235 347.667187 
L 46.675 347.667187 
z
" style="fill: #ffffff"/>
   </g>
   <g id="matplotlib.axis_5">
    <g id="xtick_17">
     <g id="line2d_30">
      <path d="M 49.585148 603.653125 
L 49.585148 347.667187 
" clip-path="url(#pfc2ba01f36)" style="fill: none; stroke: #cccccc; stroke-linecap: round"/>
     </g>
     <g id="text_16">
      <!-- 15 -->
      <g style="fill: #262626" transform="translate(43.468117 621.026719) scale(0.11 -0.11)">
       <use xlink:href="#ArialMT-31"/>
       <use xlink:href="#ArialMT-35" x="55.615234"/>
      </g>
     </g>
    </g>
    <g id="xtick_18">
     <g id="line2d_31">
      <path d="M 102.561526 603.653125 
L 102.561526 347.667187 
" clip-path="url(#pfc2ba01f36)" style="fill: none; stroke: #cccccc; stroke-linecap: round"/>
     </g>
     <g id="text_17">
      <!-- 20 -->
      <g style="fill: #262626" transform="translate(96.444494 621.026719) scale(0.11 -0.11)">
       <use xlink:href="#ArialMT-32"/>
       <use xlink:href="#ArialMT-30" x="55.615234"/>
      </g>
     </g>
    </g>
    <g id="xtick_19">
     <g id="line2d_32">
      <path d="M 155.537903 603.653125 
L 155.537903 347.667187 
" clip-path="url(#pfc2ba01f36)" style="fill: none; stroke: #cccccc; stroke-linecap: round"/>
     </g>
     <g id="text_18">
      <!-- 25 -->
      <g style="fill: #262626" transform="translate(149.420872 621.026719) scale(0.11 -0.11)">
       <use xlink:href="#ArialMT-32"/>
       <use xlink:href="#ArialMT-35" x="55.615234"/>
      </g>
     </g>
    </g>
    <g id="xtick_20">
     <g id="line2d_33">
      <path d="M 208.51428 603.653125 
L 208.51428 347.667187 
" clip-path="url(#pfc2ba01f36)" style="fill: none; stroke: #cccccc; stroke-linecap: round"/>
     </g>
     <g id="text_19">
      <!-- 30 -->
      <g style="fill: #262626" transform="translate(202.397249 621.026719) scale(0.11 -0.11)">
       <defs>
        <path id="ArialMT-33" d="M 269 1209 
L 831 1284 
Q 928 806 1161 595 
Q 1394 384 1728 384 
Q 2125 384 2398 659 
Q 2672 934 2672 1341 
Q 2672 1728 2419 1979 
Q 2166 2231 1775 2231 
Q 1616 2231 1378 2169 
L 1441 2663 
Q 1497 2656 1531 2656 
Q 1891 2656 2178 2843 
Q 2466 3031 2466 3422 
Q 2466 3731 2256 3934 
Q 2047 4138 1716 4138 
Q 1388 4138 1169 3931 
Q 950 3725 888 3313 
L 325 3413 
Q 428 3978 793 4289 
Q 1159 4600 1703 4600 
Q 2078 4600 2393 4439 
Q 2709 4278 2876 4000 
Q 3044 3722 3044 3409 
Q 3044 3113 2884 2869 
Q 2725 2625 2413 2481 
Q 2819 2388 3044 2092 
Q 3269 1797 3269 1353 
Q 3269 753 2831 336 
Q 2394 -81 1725 -81 
Q 1122 -81 723 278 
Q 325 638 269 1209 
z
" transform="scale(0.015625)"/>
       </defs>
       <use xlink:href="#ArialMT-33"/>
       <use xlink:href="#ArialMT-30" x="55.615234"/>
      </g>
     </g>
    </g>
    <g id="xtick_21">
     <g id="line2d_34">
      <path d="M 261.490657 603.653125 
L 261.490657 347.667187 
" clip-path="url(#pfc2ba01f36)" style="fill: none; stroke: #cccccc; stroke-linecap: round"/>
     </g>
     <g id="text_20">
      <!-- 35 -->
      <g style="fill: #262626" transform="translate(255.373626 621.026719) scale(0.11 -0.11)">
       <use xlink:href="#ArialMT-33"/>
       <use xlink:href="#ArialMT-35" x="55.615234"/>
      </g>
     </g>
    </g>
    <g id="xtick_22">
     <g id="line2d_35">
      <path d="M 314.467035 603.653125 
L 314.467035 347.667187 
" clip-path="url(#pfc2ba01f36)" style="fill: none; stroke: #cccccc; stroke-linecap: round"/>
     </g>
     <g id="text_21">
      <!-- 40 -->
      <g style="fill: #262626" transform="translate(308.350003 621.026719) scale(0.11 -0.11)">
       <defs>
        <path id="ArialMT-34" d="M 2069 0 
L 2069 1097 
L 81 1097 
L 81 1613 
L 2172 4581 
L 2631 4581 
L 2631 1613 
L 3250 1613 
L 3250 1097 
L 2631 1097 
L 2631 0 
L 2069 0 
z
M 2069 1613 
L 2069 3678 
L 634 1613 
L 2069 1613 
z
" transform="scale(0.015625)"/>
       </defs>
       <use xlink:href="#ArialMT-34"/>
       <use xlink:href="#ArialMT-30" x="55.615234"/>
      </g>
     </g>
    </g>
    <g id="xtick_23">
     <g id="line2d_36">
      <path d="M 367.443412 603.653125 
L 367.443412 347.667187 
" clip-path="url(#pfc2ba01f36)" style="fill: none; stroke: #cccccc; stroke-linecap: round"/>
     </g>
     <g id="text_22">
      <!-- 45 -->
      <g style="fill: #262626" transform="translate(361.326381 621.026719) scale(0.11 -0.11)">
       <use xlink:href="#ArialMT-34"/>
       <use xlink:href="#ArialMT-35" x="55.615234"/>
      </g>
     </g>
    </g>
    <g id="xtick_24">
     <g id="line2d_37">
      <path d="M 420.419789 603.653125 
L 420.419789 347.667187 
" clip-path="url(#pfc2ba01f36)" style="fill: none; stroke: #cccccc; stroke-linecap: round"/>
     </g>
     <g id="text_23">
      <!-- 50 -->
      <g style="fill: #262626" transform="translate(414.302758 621.026719) scale(0.11 -0.11)">
       <use xlink:href="#ArialMT-35"/>
       <use xlink:href="#ArialMT-30" x="55.615234"/>
      </g>
     </g>
    </g>
    <g id="text_24">
     <!-- intercept_1_se -->
     <g style="fill: #262626" transform="translate(194.50493 635.837969) scale(0.12 -0.12)">
      <defs>
       <path id="ArialMT-69" d="M 425 3934 
L 425 4581 
L 988 4581 
L 988 3934 
L 425 3934 
z
M 425 0 
L 425 3319 
L 988 3319 
L 988 0 
L 425 0 
z
" transform="scale(0.015625)"/>
       <path id="ArialMT-65" d="M 2694 1069 
L 3275 997 
Q 3138 488 2766 206 
Q 2394 -75 1816 -75 
Q 1088 -75 661 373 
Q 234 822 234 1631 
Q 234 2469 665 2931 
Q 1097 3394 1784 3394 
Q 2450 3394 2872 2941 
Q 3294 2488 3294 1666 
Q 3294 1616 3291 1516 
L 816 1516 
Q 847 969 1125 678 
Q 1403 388 1819 388 
Q 2128 388 2347 550 
Q 2566 713 2694 1069 
z
M 847 1978 
L 2700 1978 
Q 2663 2397 2488 2606 
Q 2219 2931 1791 2931 
Q 1403 2931 1139 2672 
Q 875 2413 847 1978 
z
" transform="scale(0.015625)"/>
       <path id="ArialMT-72" d="M 416 0 
L 416 3319 
L 922 3319 
L 922 2816 
Q 1116 3169 1280 3281 
Q 1444 3394 1641 3394 
Q 1925 3394 2219 3213 
L 2025 2691 
Q 1819 2813 1613 2813 
Q 1428 2813 1281 2702 
Q 1134 2591 1072 2394 
Q 978 2094 978 1738 
L 978 0 
L 416 0 
z
" transform="scale(0.015625)"/>
       <path id="ArialMT-63" d="M 2588 1216 
L 3141 1144 
Q 3050 572 2676 248 
Q 2303 -75 1759 -75 
Q 1078 -75 664 370 
Q 250 816 250 1647 
Q 250 2184 428 2587 
Q 606 2991 970 3192 
Q 1334 3394 1763 3394 
Q 2303 3394 2647 3120 
Q 2991 2847 3088 2344 
L 2541 2259 
Q 2463 2594 2264 2762 
Q 2066 2931 1784 2931 
Q 1359 2931 1093 2626 
Q 828 2322 828 1663 
Q 828 994 1084 691 
Q 1341 388 1753 388 
Q 2084 388 2306 591 
Q 2528 794 2588 1216 
z
" transform="scale(0.015625)"/>
       <path id="ArialMT-70" d="M 422 -1272 
L 422 3319 
L 934 3319 
L 934 2888 
Q 1116 3141 1344 3267 
Q 1572 3394 1897 3394 
Q 2322 3394 2647 3175 
Q 2972 2956 3137 2557 
Q 3303 2159 3303 1684 
Q 3303 1175 3120 767 
Q 2938 359 2589 142 
Q 2241 -75 1856 -75 
Q 1575 -75 1351 44 
Q 1128 163 984 344 
L 984 -1272 
L 422 -1272 
z
M 931 1641 
Q 931 1000 1190 694 
Q 1450 388 1819 388 
Q 2194 388 2461 705 
Q 2728 1022 2728 1688 
Q 2728 2322 2467 2637 
Q 2206 2953 1844 2953 
Q 1484 2953 1207 2617 
Q 931 2281 931 1641 
z
" transform="scale(0.015625)"/>
       <path id="ArialMT-5f" d="M -97 -1272 
L -97 -866 
L 3631 -866 
L 3631 -1272 
L -97 -1272 
z
" transform="scale(0.015625)"/>
       <path id="ArialMT-73" d="M 197 991 
L 753 1078 
Q 800 744 1014 566 
Q 1228 388 1613 388 
Q 2000 388 2187 545 
Q 2375 703 2375 916 
Q 2375 1106 2209 1216 
Q 2094 1291 1634 1406 
Q 1016 1563 777 1677 
Q 538 1791 414 1992 
Q 291 2194 291 2438 
Q 291 2659 392 2848 
Q 494 3038 669 3163 
Q 800 3259 1026 3326 
Q 1253 3394 1513 3394 
Q 1903 3394 2198 3281 
Q 2494 3169 2634 2976 
Q 2775 2784 2828 2463 
L 2278 2388 
Q 2241 2644 2061 2787 
Q 1881 2931 1553 2931 
Q 1166 2931 1000 2803 
Q 834 2675 834 2503 
Q 834 2394 903 2306 
Q 972 2216 1119 2156 
Q 1203 2125 1616 2013 
Q 2213 1853 2448 1751 
Q 2684 1650 2818 1456 
Q 2953 1263 2953 975 
Q 2953 694 2789 445 
Q 2625 197 2315 61 
Q 2006 -75 1616 -75 
Q 969 -75 630 194 
Q 291 463 197 991 
z
" transform="scale(0.015625)"/>
      </defs>
      <use xlink:href="#ArialMT-69"/>
      <use xlink:href="#ArialMT-6e" x="22.216797"/>
      <use xlink:href="#ArialMT-74" x="77.832031"/>
      <use xlink:href="#ArialMT-65" x="105.615234"/>
      <use xlink:href="#ArialMT-72" x="161.230469"/>
      <use xlink:href="#ArialMT-63" x="194.53125"/>
      <use xlink:href="#ArialMT-65" x="244.53125"/>
      <use xlink:href="#ArialMT-70" x="300.146484"/>
      <use xlink:href="#ArialMT-74" x="355.761719"/>
      <use xlink:href="#ArialMT-5f" x="383.544922"/>
      <use xlink:href="#ArialMT-31" x="439.160156"/>
      <use xlink:href="#ArialMT-5f" x="494.775391"/>
      <use xlink:href="#ArialMT-73" x="550.390625"/>
      <use xlink:href="#ArialMT-65" x="600.390625"/>
     </g>
    </g>
   </g>
   <g id="matplotlib.axis_6">
    <g id="ytick_12">
     <g id="line2d_38">
      <path d="M 46.675 603.653125 
L 421.049235 603.653125 
" clip-path="url(#pfc2ba01f36)" style="fill: none; stroke: #cccccc; stroke-linecap: round"/>
     </g>
     <g id="text_25">
      <!-- 0 -->
      <g style="fill: #262626" transform="translate(31.057969 607.589922) scale(0.11 -0.11)">
       <use xlink:href="#ArialMT-30"/>
      </g>
     </g>
    </g>
    <g id="ytick_13">
     <g id="line2d_39">
      <path d="M 46.675 552.862264 
L 421.049235 552.862264 
" clip-path="url(#pfc2ba01f36)" style="fill: none; stroke: #cccccc; stroke-linecap: round"/>
     </g>
     <g id="text_26">
      <!-- 10 -->
      <g style="fill: #262626" transform="translate(24.940938 556.799061) scale(0.11 -0.11)">
       <use xlink:href="#ArialMT-31"/>
       <use xlink:href="#ArialMT-30" x="55.615234"/>
      </g>
     </g>
    </g>
    <g id="ytick_14">
     <g id="line2d_40">
      <path d="M 46.675 502.071404 
L 421.049235 502.071404 
" clip-path="url(#pfc2ba01f36)" style="fill: none; stroke: #cccccc; stroke-linecap: round"/>
     </g>
     <g id="text_27">
      <!-- 20 -->
      <g style="fill: #262626" transform="translate(24.940938 506.008201) scale(0.11 -0.11)">
       <use xlink:href="#ArialMT-32"/>
       <use xlink:href="#ArialMT-30" x="55.615234"/>
      </g>
     </g>
    </g>
    <g id="ytick_15">
     <g id="line2d_41">
      <path d="M 46.675 451.280543 
L 421.049235 451.280543 
" clip-path="url(#pfc2ba01f36)" style="fill: none; stroke: #cccccc; stroke-linecap: round"/>
     </g>
     <g id="text_28">
      <!-- 30 -->
      <g style="fill: #262626" transform="translate(24.940938 455.21734) scale(0.11 -0.11)">
       <use xlink:href="#ArialMT-33"/>
       <use xlink:href="#ArialMT-30" x="55.615234"/>
      </g>
     </g>
    </g>
    <g id="ytick_16">
     <g id="line2d_42">
      <path d="M 46.675 400.489683 
L 421.049235 400.489683 
" clip-path="url(#pfc2ba01f36)" style="fill: none; stroke: #cccccc; stroke-linecap: round"/>
     </g>
     <g id="text_29">
      <!-- 40 -->
      <g style="fill: #262626" transform="translate(24.940938 404.426479) scale(0.11 -0.11)">
       <use xlink:href="#ArialMT-34"/>
       <use xlink:href="#ArialMT-30" x="55.615234"/>
      </g>
     </g>
    </g>
    <g id="ytick_17">
     <g id="line2d_43">
      <path d="M 46.675 349.698822 
L 421.049235 349.698822 
" clip-path="url(#pfc2ba01f36)" style="fill: none; stroke: #cccccc; stroke-linecap: round"/>
     </g>
     <g id="text_30">
      <!-- 50 -->
      <g style="fill: #262626" transform="translate(24.940938 353.635619) scale(0.11 -0.11)">
       <use xlink:href="#ArialMT-35"/>
       <use xlink:href="#ArialMT-30" x="55.615234"/>
      </g>
     </g>
    </g>
    <g id="text_31">
     <!-- Count -->
     <g style="fill: #262626" transform="translate(18.555938 491.669844) rotate(-90) scale(0.12 -0.12)">
      <use xlink:href="#ArialMT-43"/>
      <use xlink:href="#ArialMT-6f" x="72.216797"/>
      <use xlink:href="#ArialMT-75" x="127.832031"/>
      <use xlink:href="#ArialMT-6e" x="183.447266"/>
      <use xlink:href="#ArialMT-74" x="239.0625"/>
     </g>
    </g>
   </g>
   <g id="patch_29">
    <path d="M 63.692011 603.653125 
L 101.50759 603.653125 
L 101.50759 552.862264 
L 63.692011 552.862264 
z
" clip-path="url(#pfc2ba01f36)" style="fill: #c44e52; fill-opacity: 0.5; stroke: #000000; stroke-linejoin: miter"/>
   </g>
   <g id="patch_30">
    <path d="M 101.50759 603.653125 
L 139.323169 603.653125 
L 139.323169 359.856994 
L 101.50759 359.856994 
z
" clip-path="url(#pfc2ba01f36)" style="fill: #c44e52; fill-opacity: 0.5; stroke: #000000; stroke-linejoin: miter"/>
   </g>
   <g id="patch_31">
    <path d="M 139.323169 603.653125 
L 177.138749 603.653125 
L 177.138749 410.647855 
L 139.323169 410.647855 
z
" clip-path="url(#pfc2ba01f36)" style="fill: #c44e52; fill-opacity: 0.5; stroke: #000000; stroke-linejoin: miter"/>
   </g>
   <g id="patch_32">
    <path d="M 177.138749 603.653125 
L 214.954328 603.653125 
L 214.954328 552.862264 
L 177.138749 552.862264 
z
" clip-path="url(#pfc2ba01f36)" style="fill: #c44e52; fill-opacity: 0.5; stroke: #000000; stroke-linejoin: miter"/>
   </g>
   <g id="patch_33">
    <path d="M 214.954328 603.653125 
L 252.769907 603.653125 
L 252.769907 537.625006 
L 214.954328 537.625006 
z
" clip-path="url(#pfc2ba01f36)" style="fill: #c44e52; fill-opacity: 0.5; stroke: #000000; stroke-linejoin: miter"/>
   </g>
   <g id="patch_34">
    <path d="M 252.769907 603.653125 
L 290.585487 603.653125 
L 290.585487 425.885113 
L 252.769907 425.885113 
z
" clip-path="url(#pfc2ba01f36)" style="fill: #c44e52; fill-opacity: 0.5; stroke: #000000; stroke-linejoin: miter"/>
   </g>
   <g id="patch_35">
    <path d="M 290.585487 603.653125 
L 328.401066 603.653125 
L 328.401066 456.359629 
L 290.585487 456.359629 
z
" clip-path="url(#pfc2ba01f36)" style="fill: #c44e52; fill-opacity: 0.5; stroke: #000000; stroke-linejoin: miter"/>
   </g>
   <g id="patch_36">
    <path d="M 328.401066 603.653125 
L 366.216645 603.653125 
L 366.216645 537.625006 
L 328.401066 537.625006 
z
" clip-path="url(#pfc2ba01f36)" style="fill: #c44e52; fill-opacity: 0.5; stroke: #000000; stroke-linejoin: miter"/>
   </g>
   <g id="patch_37">
    <path d="M 366.216645 603.653125 
L 404.032224 603.653125 
L 404.032224 583.336781 
L 366.216645 583.336781 
z
" clip-path="url(#pfc2ba01f36)" style="fill: #c44e52; fill-opacity: 0.5; stroke: #000000; stroke-linejoin: miter"/>
   </g>
   <g id="line2d_44">
    <path d="M 63.692011 560.404993 
L 67.112515 553.764474 
L 70.53302 546.543492 
L 73.953525 538.773732 
L 77.374029 530.503448 
L 82.504786 517.306512 
L 87.635543 503.421941 
L 101.317562 465.952455 
L 104.738067 457.190983 
L 108.158571 448.942232 
L 111.579076 441.335263 
L 114.999581 434.490196 
L 118.420085 428.515223 
L 120.130338 425.883919 
L 121.84059 423.503998 
L 123.550842 421.38454 
L 125.261095 419.533467 
L 126.971347 417.957506 
L 128.681599 416.662143 
L 130.391852 415.651604 
L 132.102104 414.928824 
L 133.812356 414.495434 
L 135.522609 414.351751 
L 137.232861 414.496772 
L 138.943113 414.928181 
L 140.653366 415.642355 
L 142.363618 416.634382 
L 144.07387 417.898081 
L 145.784123 419.426031 
L 147.494375 421.209606 
L 149.204627 423.239017 
L 150.91488 425.503359 
L 152.625132 427.990661 
L 156.045637 433.581319 
L 159.466141 439.896382 
L 162.886646 446.808605 
L 166.307151 454.18074 
L 171.437908 465.784206 
L 179.989169 485.337018 
L 183.409674 492.806214 
L 186.830178 499.867962 
L 190.250683 506.397997 
L 193.671188 512.284899 
L 197.091692 517.432194 
L 198.801945 519.702876 
L 200.512197 521.760144 
L 202.222449 523.596881 
L 203.932702 525.207176 
L 205.642954 526.586344 
L 207.353206 527.73095 
L 209.063459 528.638812 
L 210.773711 529.309008 
L 212.483963 529.741871 
L 214.194216 529.938978 
L 215.904468 529.903129 
L 217.61472 529.638324 
L 219.324973 529.149722 
L 221.035225 528.443607 
L 222.745477 527.527335 
L 224.45573 526.409281 
L 226.165982 525.098773 
L 227.876234 523.60603 
L 229.586487 521.942087 
L 233.006991 518.148347 
L 236.427496 513.819108 
L 239.848001 509.063696 
L 244.978758 501.382146 
L 256.950524 482.913582 
L 260.371029 477.98601 
L 263.791533 473.390627 
L 267.212038 469.208495 
L 270.632543 465.509488 
L 274.053047 462.35164 
L 275.7633 460.990461 
L 277.473552 459.780811 
L 279.183804 458.726514 
L 280.894057 457.830643 
L 282.604309 457.095531 
L 284.314561 456.522792 
L 286.024814 456.113343 
L 287.735066 455.867422 
L 289.445318 455.784623 
L 291.155571 455.863923 
L 292.865823 456.103715 
L 294.576075 456.501845 
L 296.286328 457.055649 
L 297.99658 457.761992 
L 299.706832 458.617309 
L 301.417085 459.617645 
L 303.127337 460.758696 
L 306.547842 463.444233 
L 309.968346 466.634061 
L 313.388851 470.285246 
L 316.809356 474.352877 
L 320.22986 478.790974 
L 323.650365 483.553215 
L 328.781122 491.203514 
L 333.911879 499.325845 
L 340.752888 510.630574 
L 356.145159 536.376076 
L 361.275916 544.562071 
L 366.406673 552.34104 
L 371.53743 559.609099 
L 374.957935 564.128911 
L 378.378439 568.366245 
L 381.798944 572.308274 
L 385.219449 575.94771 
L 388.639953 579.282715 
L 392.060458 582.316589 
L 395.480963 585.057257 
L 398.901467 587.516611 
L 402.321972 589.709728 
L 404.032224 590.71183 
L 404.032224 590.71183 
" clip-path="url(#pfc2ba01f36)" style="fill: none; stroke: #c44e52; stroke-width: 1.5; stroke-linecap: round"/>
   </g>
   <g id="patch_38">
    <path d="M 46.675 603.653125 
L 46.675 347.667187 
" style="fill: none; stroke: #cccccc; stroke-width: 1.25; stroke-linejoin: miter; stroke-linecap: square"/>
   </g>
   <g id="patch_39">
    <path d="M 421.049235 603.653125 
L 421.049235 347.667187 
" style="fill: none; stroke: #cccccc; stroke-width: 1.25; stroke-linejoin: miter; stroke-linecap: square"/>
   </g>
   <g id="patch_40">
    <path d="M 46.675 603.653125 
L 421.049235 603.653125 
" style="fill: none; stroke: #cccccc; stroke-width: 1.25; stroke-linejoin: miter; stroke-linecap: square"/>
   </g>
   <g id="patch_41">
    <path d="M 46.675 347.667187 
L 421.049235 347.667187 
" style="fill: none; stroke: #cccccc; stroke-width: 1.25; stroke-linejoin: miter; stroke-linecap: square"/>
   </g>
   <g id="text_32">
    <!-- OLS with Outlier ($\mu = 30.3095, \sigma = 8.1211$) -->
    <g style="fill: #262626" transform="translate(93.162118 341.667187) scale(0.14 -0.14)">
     <defs>
      <path id="ArialMT-77" d="M 1034 0 
L 19 3319 
L 600 3319 
L 1128 1403 
L 1325 691 
Q 1338 744 1497 1375 
L 2025 3319 
L 2603 3319 
L 3100 1394 
L 3266 759 
L 3456 1400 
L 4025 3319 
L 4572 3319 
L 3534 0 
L 2950 0 
L 2422 1988 
L 2294 2553 
L 1622 0 
L 1034 0 
z
" transform="scale(0.015625)"/>
      <path id="ArialMT-68" d="M 422 0 
L 422 4581 
L 984 4581 
L 984 2938 
Q 1378 3394 1978 3394 
Q 2347 3394 2619 3248 
Q 2891 3103 3008 2847 
Q 3125 2591 3125 2103 
L 3125 0 
L 2563 0 
L 2563 2103 
Q 2563 2525 2380 2717 
Q 2197 2909 1863 2909 
Q 1613 2909 1392 2779 
Q 1172 2650 1078 2428 
Q 984 2206 984 1816 
L 984 0 
L 422 0 
z
" transform="scale(0.015625)"/>
      <path id="ArialMT-6c" d="M 409 0 
L 409 4581 
L 972 4581 
L 972 0 
L 409 0 
z
" transform="scale(0.015625)"/>
      <path id="DejaVuSans-30" d="M 2034 4250 
Q 1547 4250 1301 3770 
Q 1056 3291 1056 2328 
Q 1056 1369 1301 889 
Q 1547 409 2034 409 
Q 2525 409 2770 889 
Q 3016 1369 3016 2328 
Q 3016 3291 2770 3770 
Q 2525 4250 2034 4250 
z
M 2034 4750 
Q 2819 4750 3233 4129 
Q 3647 3509 3647 2328 
Q 3647 1150 3233 529 
Q 2819 -91 2034 -91 
Q 1250 -91 836 529 
Q 422 1150 422 2328 
Q 422 3509 836 4129 
Q 1250 4750 2034 4750 
z
" transform="scale(0.015625)"/>
     </defs>
     <use xlink:href="#ArialMT-4f" transform="translate(0 0.78125)"/>
     <use xlink:href="#ArialMT-4c" transform="translate(77.783203 0.78125)"/>
     <use xlink:href="#ArialMT-53" transform="translate(133.398438 0.78125)"/>
     <use xlink:href="#ArialMT-20" transform="translate(200.097656 0.78125)"/>
     <use xlink:href="#ArialMT-77" transform="translate(227.880859 0.78125)"/>
     <use xlink:href="#ArialMT-69" transform="translate(300.097656 0.78125)"/>
     <use xlink:href="#ArialMT-74" transform="translate(322.314453 0.78125)"/>
     <use xlink:href="#ArialMT-68" transform="translate(350.097656 0.78125)"/>
     <use xlink:href="#ArialMT-20" transform="translate(405.712891 0.78125)"/>
     <use xlink:href="#ArialMT-4f" transform="translate(433.496094 0.78125)"/>
     <use xlink:href="#ArialMT-75" transform="translate(511.279297 0.78125)"/>
     <use xlink:href="#ArialMT-74" transform="translate(566.894531 0.78125)"/>
     <use xlink:href="#ArialMT-6c" transform="translate(594.677734 0.78125)"/>
     <use xlink:href="#ArialMT-69" transform="translate(616.894531 0.78125)"/>
     <use xlink:href="#ArialMT-65" transform="translate(639.111328 0.78125)"/>
     <use xlink:href="#ArialMT-72" transform="translate(694.726562 0.78125)"/>
     <use xlink:href="#ArialMT-20" transform="translate(728.027344 0.78125)"/>
     <use xlink:href="#ArialMT-28" transform="translate(755.810547 0.78125)"/>
     <use xlink:href="#DejaVuSans-Oblique-3bc" transform="translate(789.111328 0.78125)"/>
     <use xlink:href="#DejaVuSans-3d" transform="translate(872.216797 0.78125)"/>
     <use xlink:href="#DejaVuSans-33" transform="translate(975.488281 0.78125)"/>
     <use xlink:href="#DejaVuSans-30" transform="translate(1039.111328 0.78125)"/>
     <use xlink:href="#DejaVuSans-2e" transform="translate(1102.734375 0.78125)"/>
     <use xlink:href="#DejaVuSans-33" transform="translate(1134.521484 0.78125)"/>
     <use xlink:href="#DejaVuSans-30" transform="translate(1198.144531 0.78125)"/>
     <use xlink:href="#DejaVuSans-39" transform="translate(1261.767578 0.78125)"/>
     <use xlink:href="#DejaVuSans-35" transform="translate(1325.390625 0.78125)"/>
     <use xlink:href="#DejaVuSans-2c" transform="translate(1389.013672 0.78125)"/>
     <use xlink:href="#DejaVuSans-Oblique-3c3" transform="translate(1440.283203 0.78125)"/>
     <use xlink:href="#DejaVuSans-3d" transform="translate(1523.144531 0.78125)"/>
     <use xlink:href="#DejaVuSans-38" transform="translate(1626.416016 0.78125)"/>
     <use xlink:href="#DejaVuSans-2e" transform="translate(1690.039062 0.78125)"/>
     <use xlink:href="#DejaVuSans-31" transform="translate(1721.826172 0.78125)"/>
     <use xlink:href="#DejaVuSans-32" transform="translate(1785.449219 0.78125)"/>
     <use xlink:href="#DejaVuSans-31" transform="translate(1849.072266 0.78125)"/>
     <use xlink:href="#DejaVuSans-31" transform="translate(1912.695312 0.78125)"/>
     <use xlink:href="#ArialMT-29" transform="translate(1976.318359 0.78125)"/>
    </g>
   </g>
  </g>
  <g id="axes_4">
   <g id="patch_42">
    <path d="M 473.275 603.653125 
L 847.649235 603.653125 
L 847.649235 347.667187 
L 473.275 347.667187 
z
" style="fill: #ffffff"/>
   </g>
   <g id="matplotlib.axis_7">
    <g id="xtick_25">
     <g id="line2d_45">
      <path d="M 476.185148 603.653125 
L 476.185148 347.667187 
" clip-path="url(#p07ffdfd8c6)" style="fill: none; stroke: #cccccc; stroke-linecap: round"/>
     </g>
     <g id="text_33">
      <!-- 15 -->
      <g style="fill: #262626" transform="translate(470.068117 621.026719) scale(0.11 -0.11)">
       <use xlink:href="#ArialMT-31"/>
       <use xlink:href="#ArialMT-35" x="55.615234"/>
      </g>
     </g>
    </g>
    <g id="xtick_26">
     <g id="line2d_46">
      <path d="M 529.161526 603.653125 
L 529.161526 347.667187 
" clip-path="url(#p07ffdfd8c6)" style="fill: none; stroke: #cccccc; stroke-linecap: round"/>
     </g>
     <g id="text_34">
      <!-- 20 -->
      <g style="fill: #262626" transform="translate(523.044494 621.026719) scale(0.11 -0.11)">
       <use xlink:href="#ArialMT-32"/>
       <use xlink:href="#ArialMT-30" x="55.615234"/>
      </g>
     </g>
    </g>
    <g id="xtick_27">
     <g id="line2d_47">
      <path d="M 582.137903 603.653125 
L 582.137903 347.667187 
" clip-path="url(#p07ffdfd8c6)" style="fill: none; stroke: #cccccc; stroke-linecap: round"/>
     </g>
     <g id="text_35">
      <!-- 25 -->
      <g style="fill: #262626" transform="translate(576.020872 621.026719) scale(0.11 -0.11)">
       <use xlink:href="#ArialMT-32"/>
       <use xlink:href="#ArialMT-35" x="55.615234"/>
      </g>
     </g>
    </g>
    <g id="xtick_28">
     <g id="line2d_48">
      <path d="M 635.11428 603.653125 
L 635.11428 347.667187 
" clip-path="url(#p07ffdfd8c6)" style="fill: none; stroke: #cccccc; stroke-linecap: round"/>
     </g>
     <g id="text_36">
      <!-- 30 -->
      <g style="fill: #262626" transform="translate(628.997249 621.026719) scale(0.11 -0.11)">
       <use xlink:href="#ArialMT-33"/>
       <use xlink:href="#ArialMT-30" x="55.615234"/>
      </g>
     </g>
    </g>
    <g id="xtick_29">
     <g id="line2d_49">
      <path d="M 688.090657 603.653125 
L 688.090657 347.667187 
" clip-path="url(#p07ffdfd8c6)" style="fill: none; stroke: #cccccc; stroke-linecap: round"/>
     </g>
     <g id="text_37">
      <!-- 35 -->
      <g style="fill: #262626" transform="translate(681.973626 621.026719) scale(0.11 -0.11)">
       <use xlink:href="#ArialMT-33"/>
       <use xlink:href="#ArialMT-35" x="55.615234"/>
      </g>
     </g>
    </g>
    <g id="xtick_30">
     <g id="line2d_50">
      <path d="M 741.067035 603.653125 
L 741.067035 347.667187 
" clip-path="url(#p07ffdfd8c6)" style="fill: none; stroke: #cccccc; stroke-linecap: round"/>
     </g>
     <g id="text_38">
      <!-- 40 -->
      <g style="fill: #262626" transform="translate(734.950003 621.026719) scale(0.11 -0.11)">
       <use xlink:href="#ArialMT-34"/>
       <use xlink:href="#ArialMT-30" x="55.615234"/>
      </g>
     </g>
    </g>
    <g id="xtick_31">
     <g id="line2d_51">
      <path d="M 794.043412 603.653125 
L 794.043412 347.667187 
" clip-path="url(#p07ffdfd8c6)" style="fill: none; stroke: #cccccc; stroke-linecap: round"/>
     </g>
     <g id="text_39">
      <!-- 45 -->
      <g style="fill: #262626" transform="translate(787.926381 621.026719) scale(0.11 -0.11)">
       <use xlink:href="#ArialMT-34"/>
       <use xlink:href="#ArialMT-35" x="55.615234"/>
      </g>
     </g>
    </g>
    <g id="xtick_32">
     <g id="line2d_52">
      <path d="M 847.019789 603.653125 
L 847.019789 347.667187 
" clip-path="url(#p07ffdfd8c6)" style="fill: none; stroke: #cccccc; stroke-linecap: round"/>
     </g>
     <g id="text_40">
      <!-- 50 -->
      <g style="fill: #262626" transform="translate(840.902758 621.026719) scale(0.11 -0.11)">
       <use xlink:href="#ArialMT-35"/>
       <use xlink:href="#ArialMT-30" x="55.615234"/>
      </g>
     </g>
    </g>
    <g id="text_41">
     <!-- intercept_1_se -->
     <g style="fill: #262626" transform="translate(621.10493 635.837969) scale(0.12 -0.12)">
      <use xlink:href="#ArialMT-69"/>
      <use xlink:href="#ArialMT-6e" x="22.216797"/>
      <use xlink:href="#ArialMT-74" x="77.832031"/>
      <use xlink:href="#ArialMT-65" x="105.615234"/>
      <use xlink:href="#ArialMT-72" x="161.230469"/>
      <use xlink:href="#ArialMT-63" x="194.53125"/>
      <use xlink:href="#ArialMT-65" x="244.53125"/>
      <use xlink:href="#ArialMT-70" x="300.146484"/>
      <use xlink:href="#ArialMT-74" x="355.761719"/>
      <use xlink:href="#ArialMT-5f" x="383.544922"/>
      <use xlink:href="#ArialMT-31" x="439.160156"/>
      <use xlink:href="#ArialMT-5f" x="494.775391"/>
      <use xlink:href="#ArialMT-73" x="550.390625"/>
      <use xlink:href="#ArialMT-65" x="600.390625"/>
     </g>
    </g>
   </g>
   <g id="matplotlib.axis_8">
    <g id="ytick_18">
     <g id="line2d_53">
      <path d="M 473.275 603.653125 
L 847.649235 603.653125 
" clip-path="url(#p07ffdfd8c6)" style="fill: none; stroke: #cccccc; stroke-linecap: round"/>
     </g>
     <g id="text_42">
      <!-- 0 -->
      <g style="fill: #262626" transform="translate(457.657969 607.589922) scale(0.11 -0.11)">
       <use xlink:href="#ArialMT-30"/>
      </g>
     </g>
    </g>
    <g id="ytick_19">
     <g id="line2d_54">
      <path d="M 473.275 546.95635 
L 847.649235 546.95635 
" clip-path="url(#p07ffdfd8c6)" style="fill: none; stroke: #cccccc; stroke-linecap: round"/>
     </g>
     <g id="text_43">
      <!-- 10 -->
      <g style="fill: #262626" transform="translate(451.540938 550.893147) scale(0.11 -0.11)">
       <use xlink:href="#ArialMT-31"/>
       <use xlink:href="#ArialMT-30" x="55.615234"/>
      </g>
     </g>
    </g>
    <g id="ytick_20">
     <g id="line2d_55">
      <path d="M 473.275 490.259576 
L 847.649235 490.259576 
" clip-path="url(#p07ffdfd8c6)" style="fill: none; stroke: #cccccc; stroke-linecap: round"/>
     </g>
     <g id="text_44">
      <!-- 20 -->
      <g style="fill: #262626" transform="translate(451.540938 494.196373) scale(0.11 -0.11)">
       <use xlink:href="#ArialMT-32"/>
       <use xlink:href="#ArialMT-30" x="55.615234"/>
      </g>
     </g>
    </g>
    <g id="ytick_21">
     <g id="line2d_56">
      <path d="M 473.275 433.562801 
L 847.649235 433.562801 
" clip-path="url(#p07ffdfd8c6)" style="fill: none; stroke: #cccccc; stroke-linecap: round"/>
     </g>
     <g id="text_45">
      <!-- 30 -->
      <g style="fill: #262626" transform="translate(451.540938 437.499598) scale(0.11 -0.11)">
       <use xlink:href="#ArialMT-33"/>
       <use xlink:href="#ArialMT-30" x="55.615234"/>
      </g>
     </g>
    </g>
    <g id="ytick_22">
     <g id="line2d_57">
      <path d="M 473.275 376.866026 
L 847.649235 376.866026 
" clip-path="url(#p07ffdfd8c6)" style="fill: none; stroke: #cccccc; stroke-linecap: round"/>
     </g>
     <g id="text_46">
      <!-- 40 -->
      <g style="fill: #262626" transform="translate(451.540938 380.802823) scale(0.11 -0.11)">
       <use xlink:href="#ArialMT-34"/>
       <use xlink:href="#ArialMT-30" x="55.615234"/>
      </g>
     </g>
    </g>
    <g id="text_47">
     <!-- Count -->
     <g style="fill: #262626" transform="translate(445.155938 491.669844) rotate(-90) scale(0.12 -0.12)">
      <use xlink:href="#ArialMT-43"/>
      <use xlink:href="#ArialMT-6f" x="72.216797"/>
      <use xlink:href="#ArialMT-75" x="127.832031"/>
      <use xlink:href="#ArialMT-6e" x="183.447266"/>
      <use xlink:href="#ArialMT-74" x="239.0625"/>
     </g>
    </g>
   </g>
   <g id="patch_43">
    <path d="M 498.929037 603.653125 
L 518.173616 603.653125 
L 518.173616 541.286673 
L 498.929037 541.286673 
z
" clip-path="url(#p07ffdfd8c6)" style="fill: #c44e52; fill-opacity: 0.5; stroke: #000000; stroke-linejoin: miter"/>
   </g>
   <g id="patch_44">
    <path d="M 518.173616 603.653125 
L 537.418195 603.653125 
L 537.418195 495.929253 
L 518.173616 495.929253 
z
" clip-path="url(#p07ffdfd8c6)" style="fill: #c44e52; fill-opacity: 0.5; stroke: #000000; stroke-linejoin: miter"/>
   </g>
   <g id="patch_45">
    <path d="M 537.418195 603.653125 
L 556.662775 603.653125 
L 556.662775 456.241511 
L 537.418195 456.241511 
z
" clip-path="url(#p07ffdfd8c6)" style="fill: #c44e52; fill-opacity: 0.5; stroke: #000000; stroke-linejoin: miter"/>
   </g>
   <g id="patch_46">
    <path d="M 556.662775 603.653125 
L 575.907354 603.653125 
L 575.907354 359.856994 
L 556.662775 359.856994 
z
" clip-path="url(#p07ffdfd8c6)" style="fill: #c44e52; fill-opacity: 0.5; stroke: #000000; stroke-linejoin: miter"/>
   </g>
   <g id="patch_47">
    <path d="M 575.907354 603.653125 
L 595.151933 603.653125 
L 595.151933 399.544736 
L 575.907354 399.544736 
z
" clip-path="url(#p07ffdfd8c6)" style="fill: #c44e52; fill-opacity: 0.5; stroke: #000000; stroke-linejoin: miter"/>
   </g>
   <g id="patch_48">
    <path d="M 595.151933 603.653125 
L 614.396512 603.653125 
L 614.396512 484.589898 
L 595.151933 484.589898 
z
" clip-path="url(#p07ffdfd8c6)" style="fill: #c44e52; fill-opacity: 0.5; stroke: #000000; stroke-linejoin: miter"/>
   </g>
   <g id="patch_49">
    <path d="M 614.396512 603.653125 
L 633.641092 603.653125 
L 633.641092 484.589898 
L 614.396512 484.589898 
z
" clip-path="url(#p07ffdfd8c6)" style="fill: #c44e52; fill-opacity: 0.5; stroke: #000000; stroke-linejoin: miter"/>
   </g>
   <g id="patch_50">
    <path d="M 633.641092 603.653125 
L 652.885671 603.653125 
L 652.885671 529.947318 
L 633.641092 529.947318 
z
" clip-path="url(#p07ffdfd8c6)" style="fill: #c44e52; fill-opacity: 0.5; stroke: #000000; stroke-linejoin: miter"/>
   </g>
   <g id="patch_51">
    <path d="M 652.885671 603.653125 
L 672.13025 603.653125 
L 672.13025 592.31377 
L 652.885671 592.31377 
z
" clip-path="url(#p07ffdfd8c6)" style="fill: #c44e52; fill-opacity: 0.5; stroke: #000000; stroke-linejoin: miter"/>
   </g>
   <g id="patch_52">
    <path d="M 672.13025 603.653125 
L 691.374829 603.653125 
L 691.374829 580.974415 
L 672.13025 580.974415 
z
" clip-path="url(#p07ffdfd8c6)" style="fill: #c44e52; fill-opacity: 0.5; stroke: #000000; stroke-linejoin: miter"/>
   </g>
   <g id="patch_53">
    <path d="M 691.374829 603.653125 
L 710.619409 603.653125 
L 710.619409 592.31377 
L 691.374829 592.31377 
z
" clip-path="url(#p07ffdfd8c6)" style="fill: #c44e52; fill-opacity: 0.5; stroke: #000000; stroke-linejoin: miter"/>
   </g>
   <g id="patch_54">
    <path d="M 710.619409 603.653125 
L 729.863988 603.653125 
L 729.863988 603.653125 
L 710.619409 603.653125 
z
" clip-path="url(#p07ffdfd8c6)" style="fill: #c44e52; fill-opacity: 0.5; stroke: #000000; stroke-linejoin: miter"/>
   </g>
   <g id="patch_55">
    <path d="M 729.863988 603.653125 
L 749.108567 603.653125 
L 749.108567 603.653125 
L 729.863988 603.653125 
z
" clip-path="url(#p07ffdfd8c6)" style="fill: #c44e52; fill-opacity: 0.5; stroke: #000000; stroke-linejoin: miter"/>
   </g>
   <g id="patch_56">
    <path d="M 749.108567 603.653125 
L 768.353147 603.653125 
L 768.353147 597.983448 
L 749.108567 597.983448 
z
" clip-path="url(#p07ffdfd8c6)" style="fill: #c44e52; fill-opacity: 0.5; stroke: #000000; stroke-linejoin: miter"/>
   </g>
   <g id="patch_57">
    <path d="M 768.353147 603.653125 
L 787.597726 603.653125 
L 787.597726 597.983448 
L 768.353147 597.983448 
z
" clip-path="url(#p07ffdfd8c6)" style="fill: #c44e52; fill-opacity: 0.5; stroke: #000000; stroke-linejoin: miter"/>
   </g>
   <g id="line2d_58">
    <path d="M 498.929037 568.659038 
L 501.83023 561.876759 
L 504.731422 554.612247 
L 509.083212 543.096749 
L 532.292755 479.94203 
L 536.644544 467.162456 
L 542.44693 449.241321 
L 548.249315 431.478287 
L 551.150508 423.316343 
L 554.051701 416.039164 
L 555.502297 412.8217 
L 556.952894 409.926776 
L 558.40349 407.380717 
L 559.854087 405.205155 
L 561.304683 403.41665 
L 562.75528 402.026485 
L 564.205876 401.04062 
L 565.656472 400.459787 
L 567.107069 400.279704 
L 568.557665 400.491396 
L 570.008262 401.081568 
L 571.458858 402.033038 
L 572.909455 403.32518 
L 574.360051 404.934385 
L 575.810647 406.8345 
L 577.261244 408.997268 
L 580.162437 413.989735 
L 583.06363 419.659656 
L 587.415419 428.871507 
L 593.217805 441.236912 
L 596.118997 447.04461 
L 599.02019 452.467685 
L 601.921383 457.49433 
L 606.273172 464.431176 
L 616.427347 480.090379 
L 619.32854 485.016192 
L 622.229733 490.284345 
L 625.130926 495.904364 
L 629.482715 504.932984 
L 633.834505 514.515383 
L 648.340469 547.025022 
L 651.241662 552.908631 
L 654.142854 558.350559 
L 657.044047 563.272372 
L 659.94524 567.623414 
L 662.846433 571.386926 
L 665.747626 574.581647 
L 668.648819 577.2585 
L 671.550012 579.493062 
L 674.451204 581.375382 
L 677.352397 582.999122 
L 681.704187 585.138061 
L 709.265519 597.760017 
L 713.617308 599.373062 
L 717.969097 600.667624 
L 720.87029 601.33285 
L 723.771483 601.835648 
L 726.672676 602.179818 
L 731.024465 602.420121 
L 735.376254 602.374409 
L 739.728044 602.108845 
L 746.981026 601.396985 
L 755.684604 600.568423 
L 761.48699 600.233316 
L 768.739972 600.062365 
L 778.894147 600.081398 
L 786.147129 600.303622 
L 787.597726 600.382432 
L 787.597726 600.382432 
" clip-path="url(#p07ffdfd8c6)" style="fill: none; stroke: #c44e52; stroke-width: 1.5; stroke-linecap: round"/>
   </g>
   <g id="patch_58">
    <path d="M 473.275 603.653125 
L 473.275 347.667187 
" style="fill: none; stroke: #cccccc; stroke-width: 1.25; stroke-linejoin: miter; stroke-linecap: square"/>
   </g>
   <g id="patch_59">
    <path d="M 847.649235 603.653125 
L 847.649235 347.667187 
" style="fill: none; stroke: #cccccc; stroke-width: 1.25; stroke-linejoin: miter; stroke-linecap: square"/>
   </g>
   <g id="patch_60">
    <path d="M 473.275 603.653125 
L 847.649235 603.653125 
" style="fill: none; stroke: #cccccc; stroke-width: 1.25; stroke-linejoin: miter; stroke-linecap: square"/>
   </g>
   <g id="patch_61">
    <path d="M 473.275 347.667187 
L 847.649235 347.667187 
" style="fill: none; stroke: #cccccc; stroke-width: 1.25; stroke-linejoin: miter; stroke-linecap: square"/>
   </g>
   <g id="text_48">
    <!-- LAD with Outlier ($\mu = 24.9429, \sigma = 4.2669$) -->
    <g style="fill: #262626" transform="translate(520.672118 341.667187) scale(0.14 -0.14)">
     <use xlink:href="#ArialMT-4c" transform="translate(0 0.78125)"/>
     <use xlink:href="#ArialMT-41" transform="translate(55.615234 0.78125)"/>
     <use xlink:href="#ArialMT-44" transform="translate(122.314453 0.78125)"/>
     <use xlink:href="#ArialMT-20" transform="translate(194.53125 0.78125)"/>
     <use xlink:href="#ArialMT-77" transform="translate(222.314453 0.78125)"/>
     <use xlink:href="#ArialMT-69" transform="translate(294.53125 0.78125)"/>
     <use xlink:href="#ArialMT-74" transform="translate(316.748047 0.78125)"/>
     <use xlink:href="#ArialMT-68" transform="translate(344.53125 0.78125)"/>
     <use xlink:href="#ArialMT-20" transform="translate(400.146484 0.78125)"/>
     <use xlink:href="#ArialMT-4f" transform="translate(427.929688 0.78125)"/>
     <use xlink:href="#ArialMT-75" transform="translate(505.712891 0.78125)"/>
     <use xlink:href="#ArialMT-74" transform="translate(561.328125 0.78125)"/>
     <use xlink:href="#ArialMT-6c" transform="translate(589.111328 0.78125)"/>
     <use xlink:href="#ArialMT-69" transform="translate(611.328125 0.78125)"/>
     <use xlink:href="#ArialMT-65" transform="translate(633.544922 0.78125)"/>
     <use xlink:href="#ArialMT-72" transform="translate(689.160156 0.78125)"/>
     <use xlink:href="#ArialMT-20" transform="translate(722.460938 0.78125)"/>
     <use xlink:href="#ArialMT-28" transform="translate(750.244141 0.78125)"/>
     <use xlink:href="#DejaVuSans-Oblique-3bc" transform="translate(783.544922 0.78125)"/>
     <use xlink:href="#DejaVuSans-3d" transform="translate(866.650391 0.78125)"/>
     <use xlink:href="#DejaVuSans-32" transform="translate(969.921875 0.78125)"/>
     <use xlink:href="#DejaVuSans-34" transform="translate(1033.544922 0.78125)"/>
     <use xlink:href="#DejaVuSans-2e" transform="translate(1097.167969 0.78125)"/>
     <use xlink:href="#DejaVuSans-39" transform="translate(1128.955078 0.78125)"/>
     <use xlink:href="#DejaVuSans-34" transform="translate(1192.578125 0.78125)"/>
     <use xlink:href="#DejaVuSans-32" transform="translate(1256.201172 0.78125)"/>
     <use xlink:href="#DejaVuSans-39" transform="translate(1318.074219 0.78125)"/>
     <use xlink:href="#DejaVuSans-2c" transform="translate(1381.697266 0.78125)"/>
     <use xlink:href="#DejaVuSans-Oblique-3c3" transform="translate(1432.966797 0.78125)"/>
     <use xlink:href="#DejaVuSans-3d" transform="translate(1515.828125 0.78125)"/>
     <use xlink:href="#DejaVuSans-34" transform="translate(1619.099609 0.78125)"/>
     <use xlink:href="#DejaVuSans-2e" transform="translate(1682.722656 0.78125)"/>
     <use xlink:href="#DejaVuSans-32" transform="translate(1709.009766 0.78125)"/>
     <use xlink:href="#DejaVuSans-36" transform="translate(1772.632812 0.78125)"/>
     <use xlink:href="#DejaVuSans-36" transform="translate(1836.255859 0.78125)"/>
     <use xlink:href="#DejaVuSans-39" transform="translate(1899.878906 0.78125)"/>
     <use xlink:href="#ArialMT-29" transform="translate(1963.501953 0.78125)"/>
    </g>
   </g>
  </g>
  <g id="text_49">
   <!-- Histogram of intercept_1_se -->
   <g style="fill: #262626" transform="translate(331.95625 24.6075) scale(0.16 -0.16)">
    <defs>
     <path id="ArialMT-48" d="M 513 0 
L 513 4581 
L 1119 4581 
L 1119 2700 
L 3500 2700 
L 3500 4581 
L 4106 4581 
L 4106 0 
L 3500 0 
L 3500 2159 
L 1119 2159 
L 1119 0 
L 513 0 
z
" transform="scale(0.015625)"/>
     <path id="ArialMT-67" d="M 319 -275 
L 866 -356 
Q 900 -609 1056 -725 
Q 1266 -881 1628 -881 
Q 2019 -881 2231 -725 
Q 2444 -569 2519 -288 
Q 2563 -116 2559 434 
Q 2191 0 1641 0 
Q 956 0 581 494 
Q 206 988 206 1678 
Q 206 2153 378 2554 
Q 550 2956 876 3175 
Q 1203 3394 1644 3394 
Q 2231 3394 2613 2919 
L 2613 3319 
L 3131 3319 
L 3131 450 
Q 3131 -325 2973 -648 
Q 2816 -972 2473 -1159 
Q 2131 -1347 1631 -1347 
Q 1038 -1347 672 -1080 
Q 306 -813 319 -275 
z
M 784 1719 
Q 784 1066 1043 766 
Q 1303 466 1694 466 
Q 2081 466 2343 764 
Q 2606 1063 2606 1700 
Q 2606 2309 2336 2618 
Q 2066 2928 1684 2928 
Q 1309 2928 1046 2623 
Q 784 2319 784 1719 
z
" transform="scale(0.015625)"/>
     <path id="ArialMT-61" d="M 2588 409 
Q 2275 144 1986 34 
Q 1697 -75 1366 -75 
Q 819 -75 525 192 
Q 231 459 231 875 
Q 231 1119 342 1320 
Q 453 1522 633 1644 
Q 813 1766 1038 1828 
Q 1203 1872 1538 1913 
Q 2219 1994 2541 2106 
Q 2544 2222 2544 2253 
Q 2544 2597 2384 2738 
Q 2169 2928 1744 2928 
Q 1347 2928 1158 2789 
Q 969 2650 878 2297 
L 328 2372 
Q 403 2725 575 2942 
Q 747 3159 1072 3276 
Q 1397 3394 1825 3394 
Q 2250 3394 2515 3294 
Q 2781 3194 2906 3042 
Q 3031 2891 3081 2659 
Q 3109 2516 3109 2141 
L 3109 1391 
Q 3109 606 3145 398 
Q 3181 191 3288 0 
L 2700 0 
Q 2613 175 2588 409 
z
M 2541 1666 
Q 2234 1541 1622 1453 
Q 1275 1403 1131 1340 
Q 988 1278 909 1158 
Q 831 1038 831 891 
Q 831 666 1001 516 
Q 1172 366 1500 366 
Q 1825 366 2078 508 
Q 2331 650 2450 897 
Q 2541 1088 2541 1459 
L 2541 1666 
z
" transform="scale(0.015625)"/>
     <path id="ArialMT-6d" d="M 422 0 
L 422 3319 
L 925 3319 
L 925 2853 
Q 1081 3097 1340 3245 
Q 1600 3394 1931 3394 
Q 2300 3394 2536 3241 
Q 2772 3088 2869 2813 
Q 3263 3394 3894 3394 
Q 4388 3394 4653 3120 
Q 4919 2847 4919 2278 
L 4919 0 
L 4359 0 
L 4359 2091 
Q 4359 2428 4304 2576 
Q 4250 2725 4106 2815 
Q 3963 2906 3769 2906 
Q 3419 2906 3187 2673 
Q 2956 2441 2956 1928 
L 2956 0 
L 2394 0 
L 2394 2156 
Q 2394 2531 2256 2718 
Q 2119 2906 1806 2906 
Q 1569 2906 1367 2781 
Q 1166 2656 1075 2415 
Q 984 2175 984 1722 
L 984 0 
L 422 0 
z
" transform="scale(0.015625)"/>
     <path id="ArialMT-66" d="M 556 0 
L 556 2881 
L 59 2881 
L 59 3319 
L 556 3319 
L 556 3672 
Q 556 4006 616 4169 
Q 697 4388 901 4523 
Q 1106 4659 1475 4659 
Q 1713 4659 2000 4603 
L 1916 4113 
Q 1741 4144 1584 4144 
Q 1328 4144 1222 4034 
Q 1116 3925 1116 3625 
L 1116 3319 
L 1763 3319 
L 1763 2881 
L 1116 2881 
L 1116 0 
L 556 0 
z
" transform="scale(0.015625)"/>
    </defs>
    <use xlink:href="#ArialMT-48"/>
    <use xlink:href="#ArialMT-69" x="72.216797"/>
    <use xlink:href="#ArialMT-73" x="94.433594"/>
    <use xlink:href="#ArialMT-74" x="144.433594"/>
    <use xlink:href="#ArialMT-6f" x="172.216797"/>
    <use xlink:href="#ArialMT-67" x="227.832031"/>
    <use xlink:href="#ArialMT-72" x="283.447266"/>
    <use xlink:href="#ArialMT-61" x="316.748047"/>
    <use xlink:href="#ArialMT-6d" x="372.363281"/>
    <use xlink:href="#ArialMT-20" x="455.664062"/>
    <use xlink:href="#ArialMT-6f" x="483.447266"/>
    <use xlink:href="#ArialMT-66" x="539.0625"/>
    <use xlink:href="#ArialMT-20" x="566.845703"/>
    <use xlink:href="#ArialMT-69" x="594.628906"/>
    <use xlink:href="#ArialMT-6e" x="616.845703"/>
    <use xlink:href="#ArialMT-74" x="672.460938"/>
    <use xlink:href="#ArialMT-65" x="700.244141"/>
    <use xlink:href="#ArialMT-72" x="755.859375"/>
    <use xlink:href="#ArialMT-63" x="789.160156"/>
    <use xlink:href="#ArialMT-65" x="839.160156"/>
    <use xlink:href="#ArialMT-70" x="894.775391"/>
    <use xlink:href="#ArialMT-74" x="950.390625"/>
    <use xlink:href="#ArialMT-5f" x="978.173828"/>
    <use xlink:href="#ArialMT-31" x="1033.789062"/>
    <use xlink:href="#ArialMT-5f" x="1089.404297"/>
    <use xlink:href="#ArialMT-73" x="1145.019531"/>
    <use xlink:href="#ArialMT-65" x="1195.019531"/>
   </g>
  </g>
 </g>
 <defs>
  <clipPath id="pc6d492c8f2">
   <rect x="46.675" y="55.88125" width="374.374235" height="255.985937"/>
  </clipPath>
  <clipPath id="p0ce1f850c7">
   <rect x="473.275" y="55.88125" width="374.374235" height="255.985937"/>
  </clipPath>
  <clipPath id="pfc2ba01f36">
   <rect x="46.675" y="347.667187" width="374.374235" height="255.985938"/>
  </clipPath>
  <clipPath id="p07ffdfd8c6">
   <rect x="473.275" y="347.667187" width="374.374235" height="255.985938"/>
  </clipPath>
 </defs>
</svg>
