<?xml version="1.0" encoding="utf-8" standalone="no"?>
<!DOCTYPE svg PUBLIC "-//W3C//DTD SVG 1.1//EN"
  "http://www.w3.org/Graphics/SVG/1.1/DTD/svg11.dtd">
<svg xmlns:xlink="http://www.w3.org/1999/xlink" width="864pt" height="648pt" viewBox="0 0 864 648" xmlns="http://www.w3.org/2000/svg" version="1.1">
 <metadata>
  <rdf:RDF xmlns:dc="http://purl.org/dc/elements/1.1/" xmlns:cc="http://creativecommons.org/ns#" xmlns:rdf="http://www.w3.org/1999/02/22-rdf-syntax-ns#">
   <cc:Work>
    <dc:type rdf:resource="http://purl.org/dc/dcmitype/StillImage"/>
    <dc:date>2023-02-04T11:15:23.495380</dc:date>
    <dc:format>image/svg+xml</dc:format>
    <dc:creator>
     <cc:Agent>
      <dc:title>Matplotlib v3.6.2, https://matplotlib.org/</dc:title>
     </cc:Agent>
    </dc:creator>
   </cc:Work>
  </rdf:RDF>
 </metadata>
 <defs>
  <style type="text/css">*{stroke-linejoin: round; stroke-linecap: butt}</style>
 </defs>
 <g id="figure_1">
  <g id="patch_1">
   <path d="M 0 648 
L 864 648 
L 864 0 
L 0 0 
L 0 648 
z
" style="fill: none"/>
  </g>
  <g id="axes_1">
   <g id="patch_2">
    <path d="M 46.55 311.890625 
L 423.198018 311.890625 
L 423.198018 55.88125 
L 46.55 55.88125 
z
" style="fill: #ffffff"/>
   </g>
   <g id="matplotlib.axis_1">
    <g id="xtick_1">
     <g id="line2d_1">
      <path d="M 88.022583 311.890625 
L 88.022583 55.88125 
" clip-path="url(#p6e4e17a0a3)" style="fill: none; stroke: #cccccc; stroke-linecap: round"/>
     </g>
    </g>
    <g id="xtick_2">
     <g id="line2d_2">
      <path d="M 168.595705 311.890625 
L 168.595705 55.88125 
" clip-path="url(#p6e4e17a0a3)" style="fill: none; stroke: #cccccc; stroke-linecap: round"/>
     </g>
    </g>
    <g id="xtick_3">
     <g id="line2d_3">
      <path d="M 249.168826 311.890625 
L 249.168826 55.88125 
" clip-path="url(#p6e4e17a0a3)" style="fill: none; stroke: #cccccc; stroke-linecap: round"/>
     </g>
    </g>
    <g id="xtick_4">
     <g id="line2d_4">
      <path d="M 329.741948 311.890625 
L 329.741948 55.88125 
" clip-path="url(#p6e4e17a0a3)" style="fill: none; stroke: #cccccc; stroke-linecap: round"/>
     </g>
    </g>
    <g id="xtick_5">
     <g id="line2d_5">
      <path d="M 410.31507 311.890625 
L 410.31507 55.88125 
" clip-path="url(#p6e4e17a0a3)" style="fill: none; stroke: #cccccc; stroke-linecap: round"/>
     </g>
    </g>
   </g>
   <g id="matplotlib.axis_2">
    <g id="ytick_1">
     <g id="line2d_6">
      <path d="M 46.55 311.890625 
L 423.198018 311.890625 
" clip-path="url(#p6e4e17a0a3)" style="fill: none; stroke: #cccccc; stroke-linecap: round"/>
     </g>
     <g id="text_1">
      <!-- 0 -->
      <g style="fill: #262626" transform="translate(30.932969 315.827422) scale(0.11 -0.11)">
       <defs>
        <path id="ArialMT-30" d="M 266 2259 
Q 266 3072 433 3567 
Q 600 4063 929 4331 
Q 1259 4600 1759 4600 
Q 2128 4600 2406 4451 
Q 2684 4303 2865 4023 
Q 3047 3744 3150 3342 
Q 3253 2941 3253 2259 
Q 3253 1453 3087 958 
Q 2922 463 2592 192 
Q 2263 -78 1759 -78 
Q 1097 -78 719 397 
Q 266 969 266 2259 
z
M 844 2259 
Q 844 1131 1108 757 
Q 1372 384 1759 384 
Q 2147 384 2411 759 
Q 2675 1134 2675 2259 
Q 2675 3391 2411 3762 
Q 2147 4134 1753 4134 
Q 1366 4134 1134 3806 
Q 844 3388 844 2259 
z
" transform="scale(0.015625)"/>
       </defs>
       <use xlink:href="#ArialMT-30"/>
      </g>
     </g>
    </g>
    <g id="ytick_2">
     <g id="line2d_7">
      <path d="M 46.55 256.47734 
L 423.198018 256.47734 
" clip-path="url(#p6e4e17a0a3)" style="fill: none; stroke: #cccccc; stroke-linecap: round"/>
     </g>
     <g id="text_2">
      <!-- 5 -->
      <g style="fill: #262626" transform="translate(30.932969 260.414137) scale(0.11 -0.11)">
       <defs>
        <path id="ArialMT-35" d="M 266 1200 
L 856 1250 
Q 922 819 1161 601 
Q 1400 384 1738 384 
Q 2144 384 2425 690 
Q 2706 997 2706 1503 
Q 2706 1984 2436 2262 
Q 2166 2541 1728 2541 
Q 1456 2541 1237 2417 
Q 1019 2294 894 2097 
L 366 2166 
L 809 4519 
L 3088 4519 
L 3088 3981 
L 1259 3981 
L 1013 2750 
Q 1425 3038 1878 3038 
Q 2478 3038 2890 2622 
Q 3303 2206 3303 1553 
Q 3303 931 2941 478 
Q 2500 -78 1738 -78 
Q 1113 -78 717 272 
Q 322 622 266 1200 
z
" transform="scale(0.015625)"/>
       </defs>
       <use xlink:href="#ArialMT-35"/>
      </g>
     </g>
    </g>
    <g id="ytick_3">
     <g id="line2d_8">
      <path d="M 46.55 201.064056 
L 423.198018 201.064056 
" clip-path="url(#p6e4e17a0a3)" style="fill: none; stroke: #cccccc; stroke-linecap: round"/>
     </g>
     <g id="text_3">
      <!-- 10 -->
      <g style="fill: #262626" transform="translate(24.815938 205.000853) scale(0.11 -0.11)">
       <defs>
        <path id="ArialMT-31" d="M 2384 0 
L 1822 0 
L 1822 3584 
Q 1619 3391 1289 3197 
Q 959 3003 697 2906 
L 697 3450 
Q 1169 3672 1522 3987 
Q 1875 4303 2022 4600 
L 2384 4600 
L 2384 0 
z
" transform="scale(0.015625)"/>
       </defs>
       <use xlink:href="#ArialMT-31"/>
       <use xlink:href="#ArialMT-30" x="55.615234"/>
      </g>
     </g>
    </g>
    <g id="ytick_4">
     <g id="line2d_9">
      <path d="M 46.55 145.650771 
L 423.198018 145.650771 
" clip-path="url(#p6e4e17a0a3)" style="fill: none; stroke: #cccccc; stroke-linecap: round"/>
     </g>
     <g id="text_4">
      <!-- 15 -->
      <g style="fill: #262626" transform="translate(24.815938 149.587568) scale(0.11 -0.11)">
       <use xlink:href="#ArialMT-31"/>
       <use xlink:href="#ArialMT-35" x="55.615234"/>
      </g>
     </g>
    </g>
    <g id="ytick_5">
     <g id="line2d_10">
      <path d="M 46.55 90.237486 
L 423.198018 90.237486 
" clip-path="url(#p6e4e17a0a3)" style="fill: none; stroke: #cccccc; stroke-linecap: round"/>
     </g>
     <g id="text_5">
      <!-- 20 -->
      <g style="fill: #262626" transform="translate(24.815938 94.174283) scale(0.11 -0.11)">
       <defs>
        <path id="ArialMT-32" d="M 3222 541 
L 3222 0 
L 194 0 
Q 188 203 259 391 
Q 375 700 629 1000 
Q 884 1300 1366 1694 
Q 2113 2306 2375 2664 
Q 2638 3022 2638 3341 
Q 2638 3675 2398 3904 
Q 2159 4134 1775 4134 
Q 1369 4134 1125 3890 
Q 881 3647 878 3216 
L 300 3275 
Q 359 3922 746 4261 
Q 1134 4600 1788 4600 
Q 2447 4600 2831 4234 
Q 3216 3869 3216 3328 
Q 3216 3053 3103 2787 
Q 2991 2522 2730 2228 
Q 2469 1934 1863 1422 
Q 1356 997 1212 845 
Q 1069 694 975 541 
L 3222 541 
z
" transform="scale(0.015625)"/>
       </defs>
       <use xlink:href="#ArialMT-32"/>
       <use xlink:href="#ArialMT-30" x="55.615234"/>
      </g>
     </g>
    </g>
    <g id="text_6">
     <!-- Count -->
     <g style="fill: #262626" transform="translate(18.430938 199.895625) rotate(-90) scale(0.12 -0.12)">
      <defs>
       <path id="ArialMT-43" d="M 3763 1606 
L 4369 1453 
Q 4178 706 3683 314 
Q 3188 -78 2472 -78 
Q 1731 -78 1267 223 
Q 803 525 561 1097 
Q 319 1669 319 2325 
Q 319 3041 592 3573 
Q 866 4106 1370 4382 
Q 1875 4659 2481 4659 
Q 3169 4659 3637 4309 
Q 4106 3959 4291 3325 
L 3694 3184 
Q 3534 3684 3231 3912 
Q 2928 4141 2469 4141 
Q 1941 4141 1586 3887 
Q 1231 3634 1087 3207 
Q 944 2781 944 2328 
Q 944 1744 1114 1308 
Q 1284 872 1643 656 
Q 2003 441 2422 441 
Q 2931 441 3284 734 
Q 3638 1028 3763 1606 
z
" transform="scale(0.015625)"/>
       <path id="ArialMT-6f" d="M 213 1659 
Q 213 2581 725 3025 
Q 1153 3394 1769 3394 
Q 2453 3394 2887 2945 
Q 3322 2497 3322 1706 
Q 3322 1066 3130 698 
Q 2938 331 2570 128 
Q 2203 -75 1769 -75 
Q 1072 -75 642 372 
Q 213 819 213 1659 
z
M 791 1659 
Q 791 1022 1069 705 
Q 1347 388 1769 388 
Q 2188 388 2466 706 
Q 2744 1025 2744 1678 
Q 2744 2294 2464 2611 
Q 2184 2928 1769 2928 
Q 1347 2928 1069 2612 
Q 791 2297 791 1659 
z
" transform="scale(0.015625)"/>
       <path id="ArialMT-75" d="M 2597 0 
L 2597 488 
Q 2209 -75 1544 -75 
Q 1250 -75 995 37 
Q 741 150 617 320 
Q 494 491 444 738 
Q 409 903 409 1263 
L 409 3319 
L 972 3319 
L 972 1478 
Q 972 1038 1006 884 
Q 1059 663 1231 536 
Q 1403 409 1656 409 
Q 1909 409 2131 539 
Q 2353 669 2445 892 
Q 2538 1116 2538 1541 
L 2538 3319 
L 3100 3319 
L 3100 0 
L 2597 0 
z
" transform="scale(0.015625)"/>
       <path id="ArialMT-6e" d="M 422 0 
L 422 3319 
L 928 3319 
L 928 2847 
Q 1294 3394 1984 3394 
Q 2284 3394 2536 3286 
Q 2788 3178 2913 3003 
Q 3038 2828 3088 2588 
Q 3119 2431 3119 2041 
L 3119 0 
L 2556 0 
L 2556 2019 
Q 2556 2363 2490 2533 
Q 2425 2703 2258 2804 
Q 2091 2906 1866 2906 
Q 1506 2906 1245 2678 
Q 984 2450 984 1813 
L 984 0 
L 422 0 
z
" transform="scale(0.015625)"/>
       <path id="ArialMT-74" d="M 1650 503 
L 1731 6 
Q 1494 -44 1306 -44 
Q 1000 -44 831 53 
Q 663 150 594 308 
Q 525 466 525 972 
L 525 2881 
L 113 2881 
L 113 3319 
L 525 3319 
L 525 4141 
L 1084 4478 
L 1084 3319 
L 1650 3319 
L 1650 2881 
L 1084 2881 
L 1084 941 
Q 1084 700 1114 631 
Q 1144 563 1211 522 
Q 1278 481 1403 481 
Q 1497 481 1650 503 
z
" transform="scale(0.015625)"/>
      </defs>
      <use xlink:href="#ArialMT-43"/>
      <use xlink:href="#ArialMT-6f" x="72.216797"/>
      <use xlink:href="#ArialMT-75" x="127.832031"/>
      <use xlink:href="#ArialMT-6e" x="183.447266"/>
      <use xlink:href="#ArialMT-74" x="239.0625"/>
     </g>
    </g>
   </g>
   <g id="patch_3">
    <path d="M 63.670364 311.890625 
L 85.953622 311.890625 
L 85.953622 300.807968 
L 63.670364 300.807968 
z
" clip-path="url(#p6e4e17a0a3)" style="fill: #4c72b0; fill-opacity: 0.5; stroke: #000000; stroke-linejoin: miter"/>
   </g>
   <g id="patch_4">
    <path d="M 85.953622 311.890625 
L 108.236879 311.890625 
L 108.236879 289.725311 
L 85.953622 289.725311 
z
" clip-path="url(#p6e4e17a0a3)" style="fill: #4c72b0; fill-opacity: 0.5; stroke: #000000; stroke-linejoin: miter"/>
   </g>
   <g id="patch_5">
    <path d="M 108.236879 311.890625 
L 130.520136 311.890625 
L 130.520136 256.47734 
L 108.236879 256.47734 
z
" clip-path="url(#p6e4e17a0a3)" style="fill: #4c72b0; fill-opacity: 0.5; stroke: #000000; stroke-linejoin: miter"/>
   </g>
   <g id="patch_6">
    <path d="M 130.520136 311.890625 
L 152.803393 311.890625 
L 152.803393 156.733428 
L 130.520136 156.733428 
z
" clip-path="url(#p6e4e17a0a3)" style="fill: #4c72b0; fill-opacity: 0.5; stroke: #000000; stroke-linejoin: miter"/>
   </g>
   <g id="patch_7">
    <path d="M 152.803393 311.890625 
L 175.086651 311.890625 
L 175.086651 90.237486 
L 152.803393 90.237486 
z
" clip-path="url(#p6e4e17a0a3)" style="fill: #4c72b0; fill-opacity: 0.5; stroke: #000000; stroke-linejoin: miter"/>
   </g>
   <g id="patch_8">
    <path d="M 175.086651 311.890625 
L 197.369908 311.890625 
L 197.369908 68.072173 
L 175.086651 68.072173 
z
" clip-path="url(#p6e4e17a0a3)" style="fill: #4c72b0; fill-opacity: 0.5; stroke: #000000; stroke-linejoin: miter"/>
   </g>
   <g id="patch_9">
    <path d="M 197.369908 311.890625 
L 219.653165 311.890625 
L 219.653165 123.485457 
L 197.369908 123.485457 
z
" clip-path="url(#p6e4e17a0a3)" style="fill: #4c72b0; fill-opacity: 0.5; stroke: #000000; stroke-linejoin: miter"/>
   </g>
   <g id="patch_10">
    <path d="M 219.653165 311.890625 
L 241.936422 311.890625 
L 241.936422 167.816085 
L 219.653165 167.816085 
z
" clip-path="url(#p6e4e17a0a3)" style="fill: #4c72b0; fill-opacity: 0.5; stroke: #000000; stroke-linejoin: miter"/>
   </g>
   <g id="patch_11">
    <path d="M 241.936422 311.890625 
L 264.21968 311.890625 
L 264.21968 278.642654 
L 241.936422 278.642654 
z
" clip-path="url(#p6e4e17a0a3)" style="fill: #4c72b0; fill-opacity: 0.5; stroke: #000000; stroke-linejoin: miter"/>
   </g>
   <g id="patch_12">
    <path d="M 264.21968 311.890625 
L 286.502937 311.890625 
L 286.502937 278.642654 
L 264.21968 278.642654 
z
" clip-path="url(#p6e4e17a0a3)" style="fill: #4c72b0; fill-opacity: 0.5; stroke: #000000; stroke-linejoin: miter"/>
   </g>
   <g id="line2d_11">
    <path d="M 63.670364 305.039485 
L 74.867981 303.801266 
L 77.107505 303.288075 
L 79.347028 302.574166 
L 81.586551 301.615359 
L 83.826075 300.37542 
L 86.065598 298.828561 
L 88.305121 296.960967 
L 90.544645 294.771189 
L 92.784168 292.269317 
L 95.023691 289.474997 
L 98.382976 284.793436 
L 101.742261 279.609903 
L 105.101546 274.004594 
L 108.460831 268.01391 
L 111.820116 261.612308 
L 115.179401 254.709026 
L 118.538686 247.162327 
L 120.77821 241.693316 
L 123.017733 235.821219 
L 125.257256 229.511469 
L 128.616541 219.190005 
L 131.975826 207.868496 
L 135.335111 195.685505 
L 139.814158 178.543792 
L 147.65249 148.418839 
L 151.011775 136.422245 
L 154.37106 125.441142 
L 156.610583 118.804259 
L 158.850106 112.775642 
L 161.08963 107.389707 
L 163.329153 102.665097 
L 165.568676 98.605557 
L 167.8082 95.20148 
L 170.047723 92.432137 
L 172.287246 90.268524 
L 174.52677 88.676581 
L 175.646531 88.083753 
L 176.766293 87.620382 
L 177.886055 87.282136 
L 179.005817 87.064852 
L 180.125578 86.964579 
L 182.365102 87.100317 
L 184.604625 87.661795 
L 186.844148 88.623719 
L 189.083672 89.961557 
L 191.323195 91.650131 
L 193.562718 93.662944 
L 195.802242 95.972795 
L 198.041765 98.553824 
L 200.281288 101.384818 
L 203.640573 106.075592 
L 206.999858 111.314791 
L 209.239382 115.151912 
L 211.478905 119.31228 
L 213.718428 123.847035 
L 215.957952 128.809344 
L 218.197475 134.246751 
L 220.436998 140.193512 
L 222.676522 146.664033 
L 224.916045 153.648338 
L 228.27533 165.001635 
L 231.634615 177.19615 
L 245.071755 227.303224 
L 248.43104 238.379389 
L 250.670563 245.162513 
L 252.910087 251.419798 
L 255.14961 257.133388 
L 257.389133 262.302937 
L 259.628657 266.944016 
L 261.86818 271.085912 
L 264.107703 274.768928 
L 266.347227 278.041322 
L 268.58675 280.956068 
L 270.826273 283.567622 
L 274.185558 287.031229 
L 277.544843 290.090083 
L 280.904128 292.8692 
L 285.383175 296.278742 
L 286.502937 297.088934 
L 286.502937 297.088934 
" clip-path="url(#p6e4e17a0a3)" style="fill: none; stroke: #4c72b0; stroke-width: 1.5; stroke-linecap: round"/>
   </g>
   <g id="patch_13">
    <path d="M 46.55 311.890625 
L 46.55 55.88125 
" style="fill: none; stroke: #cccccc; stroke-width: 1.25; stroke-linejoin: miter; stroke-linecap: square"/>
   </g>
   <g id="patch_14">
    <path d="M 423.198018 311.890625 
L 423.198018 55.88125 
" style="fill: none; stroke: #cccccc; stroke-width: 1.25; stroke-linejoin: miter; stroke-linecap: square"/>
   </g>
   <g id="patch_15">
    <path d="M 46.55 311.890625 
L 423.198018 311.890625 
" style="fill: none; stroke: #cccccc; stroke-width: 1.25; stroke-linejoin: miter; stroke-linecap: square"/>
   </g>
   <g id="patch_16">
    <path d="M 46.55 55.88125 
L 423.198018 55.88125 
" style="fill: none; stroke: #cccccc; stroke-width: 1.25; stroke-linejoin: miter; stroke-linecap: square"/>
   </g>
   <g id="text_7">
    <!-- OLS ($\mu = 0.021, \sigma = 0.0025$) -->
    <g style="fill: #262626" transform="translate(140.024009 49.88125) scale(0.14 -0.14)">
     <defs>
      <path id="ArialMT-4f" d="M 309 2231 
Q 309 3372 921 4017 
Q 1534 4663 2503 4663 
Q 3138 4663 3647 4359 
Q 4156 4056 4423 3514 
Q 4691 2972 4691 2284 
Q 4691 1588 4409 1038 
Q 4128 488 3612 205 
Q 3097 -78 2500 -78 
Q 1853 -78 1343 234 
Q 834 547 571 1087 
Q 309 1628 309 2231 
z
M 934 2222 
Q 934 1394 1379 917 
Q 1825 441 2497 441 
Q 3181 441 3623 922 
Q 4066 1403 4066 2288 
Q 4066 2847 3877 3264 
Q 3688 3681 3323 3911 
Q 2959 4141 2506 4141 
Q 1863 4141 1398 3698 
Q 934 3256 934 2222 
z
" transform="scale(0.015625)"/>
      <path id="ArialMT-4c" d="M 469 0 
L 469 4581 
L 1075 4581 
L 1075 541 
L 3331 541 
L 3331 0 
L 469 0 
z
" transform="scale(0.015625)"/>
      <path id="ArialMT-53" d="M 288 1472 
L 859 1522 
Q 900 1178 1048 958 
Q 1197 738 1509 602 
Q 1822 466 2213 466 
Q 2559 466 2825 569 
Q 3091 672 3220 851 
Q 3350 1031 3350 1244 
Q 3350 1459 3225 1620 
Q 3100 1781 2813 1891 
Q 2628 1963 1997 2114 
Q 1366 2266 1113 2400 
Q 784 2572 623 2826 
Q 463 3081 463 3397 
Q 463 3744 659 4045 
Q 856 4347 1234 4503 
Q 1613 4659 2075 4659 
Q 2584 4659 2973 4495 
Q 3363 4331 3572 4012 
Q 3781 3694 3797 3291 
L 3216 3247 
Q 3169 3681 2898 3903 
Q 2628 4125 2100 4125 
Q 1550 4125 1298 3923 
Q 1047 3722 1047 3438 
Q 1047 3191 1225 3031 
Q 1400 2872 2139 2705 
Q 2878 2538 3153 2413 
Q 3553 2228 3743 1945 
Q 3934 1663 3934 1294 
Q 3934 928 3725 604 
Q 3516 281 3123 101 
Q 2731 -78 2241 -78 
Q 1619 -78 1198 103 
Q 778 284 539 648 
Q 300 1013 288 1472 
z
" transform="scale(0.015625)"/>
      <path id="ArialMT-20" transform="scale(0.015625)"/>
      <path id="ArialMT-28" d="M 1497 -1347 
Q 1031 -759 709 28 
Q 388 816 388 1659 
Q 388 2403 628 3084 
Q 909 3875 1497 4659 
L 1900 4659 
Q 1522 4009 1400 3731 
Q 1209 3300 1100 2831 
Q 966 2247 966 1656 
Q 966 153 1900 -1347 
L 1497 -1347 
z
" transform="scale(0.015625)"/>
      <path id="DejaVuSans-Oblique-3bc" d="M -84 -1331 
L 856 3500 
L 1434 3500 
L 1009 1322 
Q 997 1256 987 1175 
Q 978 1094 978 1013 
Q 978 722 1161 565 
Q 1344 409 1684 409 
Q 2147 409 2431 671 
Q 2716 934 2816 1459 
L 3213 3500 
L 3788 3500 
L 3266 809 
Q 3253 750 3248 706 
Q 3244 663 3244 628 
Q 3244 531 3283 486 
Q 3322 441 3406 441 
Q 3438 441 3492 456 
Q 3547 472 3647 513 
L 3559 50 
Q 3422 -19 3297 -55 
Q 3172 -91 3053 -91 
Q 2847 -91 2730 40 
Q 2613 172 2613 403 
Q 2438 153 2195 31 
Q 1953 -91 1625 -91 
Q 1334 -91 1117 43 
Q 900 178 831 397 
L 494 -1331 
L -84 -1331 
z
" transform="scale(0.015625)"/>
      <path id="DejaVuSans-3d" d="M 678 2906 
L 4684 2906 
L 4684 2381 
L 678 2381 
L 678 2906 
z
M 678 1631 
L 4684 1631 
L 4684 1100 
L 678 1100 
L 678 1631 
z
" transform="scale(0.015625)"/>
      <path id="DejaVuSans-30" d="M 2034 4250 
Q 1547 4250 1301 3770 
Q 1056 3291 1056 2328 
Q 1056 1369 1301 889 
Q 1547 409 2034 409 
Q 2525 409 2770 889 
Q 3016 1369 3016 2328 
Q 3016 3291 2770 3770 
Q 2525 4250 2034 4250 
z
M 2034 4750 
Q 2819 4750 3233 4129 
Q 3647 3509 3647 2328 
Q 3647 1150 3233 529 
Q 2819 -91 2034 -91 
Q 1250 -91 836 529 
Q 422 1150 422 2328 
Q 422 3509 836 4129 
Q 1250 4750 2034 4750 
z
" transform="scale(0.015625)"/>
      <path id="DejaVuSans-2e" d="M 684 794 
L 1344 794 
L 1344 0 
L 684 0 
L 684 794 
z
" transform="scale(0.015625)"/>
      <path id="DejaVuSans-32" d="M 1228 531 
L 3431 531 
L 3431 0 
L 469 0 
L 469 531 
Q 828 903 1448 1529 
Q 2069 2156 2228 2338 
Q 2531 2678 2651 2914 
Q 2772 3150 2772 3378 
Q 2772 3750 2511 3984 
Q 2250 4219 1831 4219 
Q 1534 4219 1204 4116 
Q 875 4013 500 3803 
L 500 4441 
Q 881 4594 1212 4672 
Q 1544 4750 1819 4750 
Q 2544 4750 2975 4387 
Q 3406 4025 3406 3419 
Q 3406 3131 3298 2873 
Q 3191 2616 2906 2266 
Q 2828 2175 2409 1742 
Q 1991 1309 1228 531 
z
" transform="scale(0.015625)"/>
      <path id="DejaVuSans-31" d="M 794 531 
L 1825 531 
L 1825 4091 
L 703 3866 
L 703 4441 
L 1819 4666 
L 2450 4666 
L 2450 531 
L 3481 531 
L 3481 0 
L 794 0 
L 794 531 
z
" transform="scale(0.015625)"/>
      <path id="DejaVuSans-2c" d="M 750 794 
L 1409 794 
L 1409 256 
L 897 -744 
L 494 -744 
L 750 256 
L 750 794 
z
" transform="scale(0.015625)"/>
      <path id="DejaVuSans-Oblique-3c3" d="M 2219 3044 
Q 1744 3044 1422 2700 
Q 1081 2341 969 1747 
Q 844 1119 1044 756 
Q 1241 397 1706 397 
Q 2166 397 2503 759 
Q 2844 1122 2966 1747 
Q 3075 2319 2881 2700 
Q 2700 3044 2219 3044 
z
M 2309 3503 
L 4219 3500 
L 4106 2925 
L 3463 2925 
Q 3706 2438 3575 1747 
Q 3406 888 2884 400 
Q 2359 -91 1609 -91 
Q 856 -91 525 400 
Q 194 888 363 1747 
Q 528 2609 1050 3097 
Q 1484 3503 2309 3503 
z
" transform="scale(0.015625)"/>
      <path id="DejaVuSans-35" d="M 691 4666 
L 3169 4666 
L 3169 4134 
L 1269 4134 
L 1269 2991 
Q 1406 3038 1543 3061 
Q 1681 3084 1819 3084 
Q 2600 3084 3056 2656 
Q 3513 2228 3513 1497 
Q 3513 744 3044 326 
Q 2575 -91 1722 -91 
Q 1428 -91 1123 -41 
Q 819 9 494 109 
L 494 744 
Q 775 591 1075 516 
Q 1375 441 1709 441 
Q 2250 441 2565 725 
Q 2881 1009 2881 1497 
Q 2881 1984 2565 2268 
Q 2250 2553 1709 2553 
Q 1456 2553 1204 2497 
Q 953 2441 691 2322 
L 691 4666 
z
" transform="scale(0.015625)"/>
      <path id="ArialMT-29" d="M 791 -1347 
L 388 -1347 
Q 1322 153 1322 1656 
Q 1322 2244 1188 2822 
Q 1081 3291 891 3722 
Q 769 4003 388 4659 
L 791 4659 
Q 1378 3875 1659 3084 
Q 1900 2403 1900 1659 
Q 1900 816 1576 28 
Q 1253 -759 791 -1347 
z
" transform="scale(0.015625)"/>
     </defs>
     <use xlink:href="#ArialMT-4f" transform="translate(0 0.78125)"/>
     <use xlink:href="#ArialMT-4c" transform="translate(77.783203 0.78125)"/>
     <use xlink:href="#ArialMT-53" transform="translate(133.398438 0.78125)"/>
     <use xlink:href="#ArialMT-20" transform="translate(200.097656 0.78125)"/>
     <use xlink:href="#ArialMT-28" transform="translate(227.880859 0.78125)"/>
     <use xlink:href="#DejaVuSans-Oblique-3bc" transform="translate(261.181641 0.78125)"/>
     <use xlink:href="#DejaVuSans-3d" transform="translate(344.287109 0.78125)"/>
     <use xlink:href="#DejaVuSans-30" transform="translate(447.558594 0.78125)"/>
     <use xlink:href="#DejaVuSans-2e" transform="translate(511.181641 0.78125)"/>
     <use xlink:href="#DejaVuSans-30" transform="translate(542.96875 0.78125)"/>
     <use xlink:href="#DejaVuSans-32" transform="translate(606.591797 0.78125)"/>
     <use xlink:href="#DejaVuSans-31" transform="translate(670.214844 0.78125)"/>
     <use xlink:href="#DejaVuSans-2c" transform="translate(733.837891 0.78125)"/>
     <use xlink:href="#DejaVuSans-Oblique-3c3" transform="translate(785.107422 0.78125)"/>
     <use xlink:href="#DejaVuSans-3d" transform="translate(867.96875 0.78125)"/>
     <use xlink:href="#DejaVuSans-30" transform="translate(971.240234 0.78125)"/>
     <use xlink:href="#DejaVuSans-2e" transform="translate(1034.863281 0.78125)"/>
     <use xlink:href="#DejaVuSans-30" transform="translate(1066.650391 0.78125)"/>
     <use xlink:href="#DejaVuSans-30" transform="translate(1130.273438 0.78125)"/>
     <use xlink:href="#DejaVuSans-32" transform="translate(1193.896484 0.78125)"/>
     <use xlink:href="#DejaVuSans-35" transform="translate(1257.519531 0.78125)"/>
     <use xlink:href="#ArialMT-29" transform="translate(1321.142578 0.78125)"/>
    </g>
   </g>
  </g>
  <g id="axes_2">
   <g id="patch_17">
    <path d="M 473.2125 311.890625 
L 849.860518 311.890625 
L 849.860518 55.88125 
L 473.2125 55.88125 
z
" style="fill: #ffffff"/>
   </g>
   <g id="matplotlib.axis_3">
    <g id="xtick_6">
     <g id="line2d_12">
      <path d="M 514.685083 311.890625 
L 514.685083 55.88125 
" clip-path="url(#p860b621fdd)" style="fill: none; stroke: #cccccc; stroke-linecap: round"/>
     </g>
    </g>
    <g id="xtick_7">
     <g id="line2d_13">
      <path d="M 595.258205 311.890625 
L 595.258205 55.88125 
" clip-path="url(#p860b621fdd)" style="fill: none; stroke: #cccccc; stroke-linecap: round"/>
     </g>
    </g>
    <g id="xtick_8">
     <g id="line2d_14">
      <path d="M 675.831326 311.890625 
L 675.831326 55.88125 
" clip-path="url(#p860b621fdd)" style="fill: none; stroke: #cccccc; stroke-linecap: round"/>
     </g>
    </g>
    <g id="xtick_9">
     <g id="line2d_15">
      <path d="M 756.404448 311.890625 
L 756.404448 55.88125 
" clip-path="url(#p860b621fdd)" style="fill: none; stroke: #cccccc; stroke-linecap: round"/>
     </g>
    </g>
    <g id="xtick_10">
     <g id="line2d_16">
      <path d="M 836.97757 311.890625 
L 836.97757 55.88125 
" clip-path="url(#p860b621fdd)" style="fill: none; stroke: #cccccc; stroke-linecap: round"/>
     </g>
    </g>
   </g>
   <g id="matplotlib.axis_4">
    <g id="ytick_6">
     <g id="line2d_17">
      <path d="M 473.2125 311.890625 
L 849.860518 311.890625 
" clip-path="url(#p860b621fdd)" style="fill: none; stroke: #cccccc; stroke-linecap: round"/>
     </g>
     <g id="text_8">
      <!-- 0 -->
      <g style="fill: #262626" transform="translate(457.595469 315.827422) scale(0.11 -0.11)">
       <use xlink:href="#ArialMT-30"/>
      </g>
     </g>
    </g>
    <g id="ytick_7">
     <g id="line2d_18">
      <path d="M 473.2125 256.47734 
L 849.860518 256.47734 
" clip-path="url(#p860b621fdd)" style="fill: none; stroke: #cccccc; stroke-linecap: round"/>
     </g>
     <g id="text_9">
      <!-- 5 -->
      <g style="fill: #262626" transform="translate(457.595469 260.414137) scale(0.11 -0.11)">
       <use xlink:href="#ArialMT-35"/>
      </g>
     </g>
    </g>
    <g id="ytick_8">
     <g id="line2d_19">
      <path d="M 473.2125 201.064056 
L 849.860518 201.064056 
" clip-path="url(#p860b621fdd)" style="fill: none; stroke: #cccccc; stroke-linecap: round"/>
     </g>
     <g id="text_10">
      <!-- 10 -->
      <g style="fill: #262626" transform="translate(451.478437 205.000853) scale(0.11 -0.11)">
       <use xlink:href="#ArialMT-31"/>
       <use xlink:href="#ArialMT-30" x="55.615234"/>
      </g>
     </g>
    </g>
    <g id="ytick_9">
     <g id="line2d_20">
      <path d="M 473.2125 145.650771 
L 849.860518 145.650771 
" clip-path="url(#p860b621fdd)" style="fill: none; stroke: #cccccc; stroke-linecap: round"/>
     </g>
     <g id="text_11">
      <!-- 15 -->
      <g style="fill: #262626" transform="translate(451.478437 149.587568) scale(0.11 -0.11)">
       <use xlink:href="#ArialMT-31"/>
       <use xlink:href="#ArialMT-35" x="55.615234"/>
      </g>
     </g>
    </g>
    <g id="ytick_10">
     <g id="line2d_21">
      <path d="M 473.2125 90.237486 
L 849.860518 90.237486 
" clip-path="url(#p860b621fdd)" style="fill: none; stroke: #cccccc; stroke-linecap: round"/>
     </g>
     <g id="text_12">
      <!-- 20 -->
      <g style="fill: #262626" transform="translate(451.478437 94.174283) scale(0.11 -0.11)">
       <use xlink:href="#ArialMT-32"/>
       <use xlink:href="#ArialMT-30" x="55.615234"/>
      </g>
     </g>
    </g>
    <g id="text_13">
     <!-- Count -->
     <g style="fill: #262626" transform="translate(445.093437 199.895625) rotate(-90) scale(0.12 -0.12)">
      <use xlink:href="#ArialMT-43"/>
      <use xlink:href="#ArialMT-6f" x="72.216797"/>
      <use xlink:href="#ArialMT-75" x="127.832031"/>
      <use xlink:href="#ArialMT-6e" x="183.447266"/>
      <use xlink:href="#ArialMT-74" x="239.0625"/>
     </g>
    </g>
   </g>
   <g id="patch_18">
    <path d="M 504.608286 311.890625 
L 544.695787 311.890625 
L 544.695787 201.064056 
L 504.608286 201.064056 
z
" clip-path="url(#p860b621fdd)" style="fill: #4c72b0; fill-opacity: 0.5; stroke: #000000; stroke-linejoin: miter"/>
   </g>
   <g id="patch_19">
    <path d="M 544.695787 311.890625 
L 584.783289 311.890625 
L 584.783289 134.568114 
L 544.695787 134.568114 
z
" clip-path="url(#p860b621fdd)" style="fill: #4c72b0; fill-opacity: 0.5; stroke: #000000; stroke-linejoin: miter"/>
   </g>
   <g id="patch_20">
    <path d="M 584.783289 311.890625 
L 624.87079 311.890625 
L 624.87079 68.072173 
L 584.783289 68.072173 
z
" clip-path="url(#p860b621fdd)" style="fill: #4c72b0; fill-opacity: 0.5; stroke: #000000; stroke-linejoin: miter"/>
   </g>
   <g id="patch_21">
    <path d="M 624.87079 311.890625 
L 664.958292 311.890625 
L 664.958292 90.237486 
L 624.87079 90.237486 
z
" clip-path="url(#p860b621fdd)" style="fill: #4c72b0; fill-opacity: 0.5; stroke: #000000; stroke-linejoin: miter"/>
   </g>
   <g id="patch_22">
    <path d="M 664.958292 311.890625 
L 705.045793 311.890625 
L 705.045793 145.650771 
L 664.958292 145.650771 
z
" clip-path="url(#p860b621fdd)" style="fill: #4c72b0; fill-opacity: 0.5; stroke: #000000; stroke-linejoin: miter"/>
   </g>
   <g id="patch_23">
    <path d="M 705.045793 311.890625 
L 745.133295 311.890625 
L 745.133295 178.898742 
L 705.045793 178.898742 
z
" clip-path="url(#p860b621fdd)" style="fill: #4c72b0; fill-opacity: 0.5; stroke: #000000; stroke-linejoin: miter"/>
   </g>
   <g id="patch_24">
    <path d="M 745.133295 311.890625 
L 785.220796 311.890625 
L 785.220796 278.642654 
L 745.133295 278.642654 
z
" clip-path="url(#p860b621fdd)" style="fill: #4c72b0; fill-opacity: 0.5; stroke: #000000; stroke-linejoin: miter"/>
   </g>
   <g id="patch_25">
    <path d="M 785.220796 311.890625 
L 825.308298 311.890625 
L 825.308298 289.725311 
L 785.220796 289.725311 
z
" clip-path="url(#p860b621fdd)" style="fill: #4c72b0; fill-opacity: 0.5; stroke: #000000; stroke-linejoin: miter"/>
   </g>
   <g id="line2d_22">
    <path d="M 504.608286 253.83885 
L 509.442959 243.999778 
L 515.889191 230.320737 
L 528.781653 202.719599 
L 535.227885 189.508818 
L 540.062558 180.019888 
L 546.50879 167.938601 
L 552.955021 156.420177 
L 561.01281 142.592757 
L 569.0706 129.228246 
L 575.516831 118.936965 
L 580.351505 111.600936 
L 585.186178 104.763014 
L 588.409294 100.570537 
L 591.632409 96.735523 
L 594.855525 93.310592 
L 598.078641 90.342818 
L 601.301757 87.87145 
L 602.913314 86.831641 
L 604.524872 85.926339 
L 606.13643 85.157679 
L 607.747988 84.527146 
L 609.359546 84.035602 
L 610.971104 83.683298 
L 612.582662 83.469914 
L 614.194219 83.39459 
L 615.805777 83.455971 
L 617.417335 83.652245 
L 619.028893 83.981189 
L 620.640451 84.440206 
L 622.252009 85.026368 
L 625.475124 86.566944 
L 628.69824 88.573979 
L 631.921356 91.014809 
L 635.144471 93.853329 
L 638.367587 97.049981 
L 641.590703 100.561552 
L 644.813819 104.340964 
L 649.648492 110.399729 
L 656.094723 118.910961 
L 664.152513 129.582082 
L 668.987186 135.662185 
L 673.82186 141.306169 
L 677.044976 144.771571 
L 680.268091 147.977058 
L 683.491207 150.917749 
L 686.714323 153.601757 
L 689.937438 156.050064 
L 694.772112 159.356328 
L 701.218343 163.339141 
L 707.664575 167.291502 
L 710.88769 169.431361 
L 714.110806 171.776067 
L 717.333922 174.394108 
L 720.557037 177.347851 
L 723.780153 180.690611 
L 727.003269 184.463836 
L 730.226385 188.694553 
L 733.4495 193.393255 
L 736.672616 198.552389 
L 739.895732 204.145629 
L 743.118847 210.128027 
L 747.953521 219.690405 
L 754.399752 233.09851 
L 762.457542 249.802987 
L 767.292215 259.186811 
L 770.515331 264.987175 
L 773.738447 270.338628 
L 776.961562 275.187161 
L 780.184678 279.497045 
L 783.407794 283.251516 
L 786.630909 286.452499 
L 789.854025 289.11944 
L 793.077141 291.287352 
L 796.300256 293.004235 
L 799.523372 294.328042 
L 802.746488 295.323365 
L 805.969604 296.05804 
L 810.804277 296.818849 
L 818.862066 297.684224 
L 825.308298 298.439009 
L 825.308298 298.439009 
" clip-path="url(#p860b621fdd)" style="fill: none; stroke: #4c72b0; stroke-width: 1.5; stroke-linecap: round"/>
   </g>
   <g id="patch_26">
    <path d="M 473.2125 311.890625 
L 473.2125 55.88125 
" style="fill: none; stroke: #cccccc; stroke-width: 1.25; stroke-linejoin: miter; stroke-linecap: square"/>
   </g>
   <g id="patch_27">
    <path d="M 849.860518 311.890625 
L 849.860518 55.88125 
" style="fill: none; stroke: #cccccc; stroke-width: 1.25; stroke-linejoin: miter; stroke-linecap: square"/>
   </g>
   <g id="patch_28">
    <path d="M 473.2125 311.890625 
L 849.860518 311.890625 
" style="fill: none; stroke: #cccccc; stroke-width: 1.25; stroke-linejoin: miter; stroke-linecap: square"/>
   </g>
   <g id="patch_29">
    <path d="M 473.2125 55.88125 
L 849.860518 55.88125 
" style="fill: none; stroke: #cccccc; stroke-width: 1.25; stroke-linejoin: miter; stroke-linecap: square"/>
   </g>
   <g id="text_14">
    <!-- LAD ($\mu = 0.0225, \sigma = 0.0043$) -->
    <g style="fill: #262626" transform="translate(562.626509 49.88125) scale(0.14 -0.14)">
     <defs>
      <path id="ArialMT-41" d="M -9 0 
L 1750 4581 
L 2403 4581 
L 4278 0 
L 3588 0 
L 3053 1388 
L 1138 1388 
L 634 0 
L -9 0 
z
M 1313 1881 
L 2866 1881 
L 2388 3150 
Q 2169 3728 2063 4100 
Q 1975 3659 1816 3225 
L 1313 1881 
z
" transform="scale(0.015625)"/>
      <path id="ArialMT-44" d="M 494 0 
L 494 4581 
L 2072 4581 
Q 2606 4581 2888 4516 
Q 3281 4425 3559 4188 
Q 3922 3881 4101 3404 
Q 4281 2928 4281 2316 
Q 4281 1794 4159 1391 
Q 4038 988 3847 723 
Q 3656 459 3429 307 
Q 3203 156 2883 78 
Q 2563 0 2147 0 
L 494 0 
z
M 1100 541 
L 2078 541 
Q 2531 541 2789 625 
Q 3047 709 3200 863 
Q 3416 1078 3536 1442 
Q 3656 1806 3656 2325 
Q 3656 3044 3420 3430 
Q 3184 3816 2847 3947 
Q 2603 4041 2063 4041 
L 1100 4041 
L 1100 541 
z
" transform="scale(0.015625)"/>
      <path id="DejaVuSans-34" d="M 2419 4116 
L 825 1625 
L 2419 1625 
L 2419 4116 
z
M 2253 4666 
L 3047 4666 
L 3047 1625 
L 3713 1625 
L 3713 1100 
L 3047 1100 
L 3047 0 
L 2419 0 
L 2419 1100 
L 313 1100 
L 313 1709 
L 2253 4666 
z
" transform="scale(0.015625)"/>
      <path id="DejaVuSans-33" d="M 2597 2516 
Q 3050 2419 3304 2112 
Q 3559 1806 3559 1356 
Q 3559 666 3084 287 
Q 2609 -91 1734 -91 
Q 1441 -91 1130 -33 
Q 819 25 488 141 
L 488 750 
Q 750 597 1062 519 
Q 1375 441 1716 441 
Q 2309 441 2620 675 
Q 2931 909 2931 1356 
Q 2931 1769 2642 2001 
Q 2353 2234 1838 2234 
L 1294 2234 
L 1294 2753 
L 1863 2753 
Q 2328 2753 2575 2939 
Q 2822 3125 2822 3475 
Q 2822 3834 2567 4026 
Q 2313 4219 1838 4219 
Q 1578 4219 1281 4162 
Q 984 4106 628 3988 
L 628 4550 
Q 988 4650 1302 4700 
Q 1616 4750 1894 4750 
Q 2613 4750 3031 4423 
Q 3450 4097 3450 3541 
Q 3450 3153 3228 2886 
Q 3006 2619 2597 2516 
z
" transform="scale(0.015625)"/>
     </defs>
     <use xlink:href="#ArialMT-4c" transform="translate(0 0.78125)"/>
     <use xlink:href="#ArialMT-41" transform="translate(55.615234 0.78125)"/>
     <use xlink:href="#ArialMT-44" transform="translate(122.314453 0.78125)"/>
     <use xlink:href="#ArialMT-20" transform="translate(194.53125 0.78125)"/>
     <use xlink:href="#ArialMT-28" transform="translate(222.314453 0.78125)"/>
     <use xlink:href="#DejaVuSans-Oblique-3bc" transform="translate(255.615234 0.78125)"/>
     <use xlink:href="#DejaVuSans-3d" transform="translate(338.720703 0.78125)"/>
     <use xlink:href="#DejaVuSans-30" transform="translate(441.992188 0.78125)"/>
     <use xlink:href="#DejaVuSans-2e" transform="translate(505.615234 0.78125)"/>
     <use xlink:href="#DejaVuSans-30" transform="translate(537.402344 0.78125)"/>
     <use xlink:href="#DejaVuSans-32" transform="translate(601.025391 0.78125)"/>
     <use xlink:href="#DejaVuSans-32" transform="translate(664.648438 0.78125)"/>
     <use xlink:href="#DejaVuSans-35" transform="translate(728.271484 0.78125)"/>
     <use xlink:href="#DejaVuSans-2c" transform="translate(791.894531 0.78125)"/>
     <use xlink:href="#DejaVuSans-Oblique-3c3" transform="translate(843.164062 0.78125)"/>
     <use xlink:href="#DejaVuSans-3d" transform="translate(926.025391 0.78125)"/>
     <use xlink:href="#DejaVuSans-30" transform="translate(1029.296875 0.78125)"/>
     <use xlink:href="#DejaVuSans-2e" transform="translate(1092.919922 0.78125)"/>
     <use xlink:href="#DejaVuSans-30" transform="translate(1124.707031 0.78125)"/>
     <use xlink:href="#DejaVuSans-30" transform="translate(1188.330078 0.78125)"/>
     <use xlink:href="#DejaVuSans-34" transform="translate(1251.953125 0.78125)"/>
     <use xlink:href="#DejaVuSans-33" transform="translate(1315.576172 0.78125)"/>
     <use xlink:href="#ArialMT-29" transform="translate(1379.199219 0.78125)"/>
    </g>
   </g>
  </g>
  <g id="axes_3">
   <g id="patch_30">
    <path d="M 46.55 603.7 
L 423.198018 603.7 
L 423.198018 347.690625 
L 46.55 347.690625 
z
" style="fill: #ffffff"/>
   </g>
   <g id="matplotlib.axis_5">
    <g id="xtick_11">
     <g id="line2d_23">
      <path d="M 88.022583 603.7 
L 88.022583 347.690625 
" clip-path="url(#p05eb2d0722)" style="fill: none; stroke: #cccccc; stroke-linecap: round"/>
     </g>
     <g id="text_15">
      <!-- 0.015 -->
      <g style="fill: #262626" transform="translate(74.260552 621.073594) scale(0.11 -0.11)">
       <defs>
        <path id="ArialMT-2e" d="M 581 0 
L 581 641 
L 1222 641 
L 1222 0 
L 581 0 
z
" transform="scale(0.015625)"/>
       </defs>
       <use xlink:href="#ArialMT-30"/>
       <use xlink:href="#ArialMT-2e" x="55.615234"/>
       <use xlink:href="#ArialMT-30" x="83.398438"/>
       <use xlink:href="#ArialMT-31" x="139.013672"/>
       <use xlink:href="#ArialMT-35" x="194.628906"/>
      </g>
     </g>
    </g>
    <g id="xtick_12">
     <g id="line2d_24">
      <path d="M 168.595705 603.7 
L 168.595705 347.690625 
" clip-path="url(#p05eb2d0722)" style="fill: none; stroke: #cccccc; stroke-linecap: round"/>
     </g>
     <g id="text_16">
      <!-- 0.020 -->
      <g style="fill: #262626" transform="translate(154.833673 621.073594) scale(0.11 -0.11)">
       <use xlink:href="#ArialMT-30"/>
       <use xlink:href="#ArialMT-2e" x="55.615234"/>
       <use xlink:href="#ArialMT-30" x="83.398438"/>
       <use xlink:href="#ArialMT-32" x="139.013672"/>
       <use xlink:href="#ArialMT-30" x="194.628906"/>
      </g>
     </g>
    </g>
    <g id="xtick_13">
     <g id="line2d_25">
      <path d="M 249.168826 603.7 
L 249.168826 347.690625 
" clip-path="url(#p05eb2d0722)" style="fill: none; stroke: #cccccc; stroke-linecap: round"/>
     </g>
     <g id="text_17">
      <!-- 0.025 -->
      <g style="fill: #262626" transform="translate(235.406795 621.073594) scale(0.11 -0.11)">
       <use xlink:href="#ArialMT-30"/>
       <use xlink:href="#ArialMT-2e" x="55.615234"/>
       <use xlink:href="#ArialMT-30" x="83.398438"/>
       <use xlink:href="#ArialMT-32" x="139.013672"/>
       <use xlink:href="#ArialMT-35" x="194.628906"/>
      </g>
     </g>
    </g>
    <g id="xtick_14">
     <g id="line2d_26">
      <path d="M 329.741948 603.7 
L 329.741948 347.690625 
" clip-path="url(#p05eb2d0722)" style="fill: none; stroke: #cccccc; stroke-linecap: round"/>
     </g>
     <g id="text_18">
      <!-- 0.030 -->
      <g style="fill: #262626" transform="translate(315.979917 621.073594) scale(0.11 -0.11)">
       <defs>
        <path id="ArialMT-33" d="M 269 1209 
L 831 1284 
Q 928 806 1161 595 
Q 1394 384 1728 384 
Q 2125 384 2398 659 
Q 2672 934 2672 1341 
Q 2672 1728 2419 1979 
Q 2166 2231 1775 2231 
Q 1616 2231 1378 2169 
L 1441 2663 
Q 1497 2656 1531 2656 
Q 1891 2656 2178 2843 
Q 2466 3031 2466 3422 
Q 2466 3731 2256 3934 
Q 2047 4138 1716 4138 
Q 1388 4138 1169 3931 
Q 950 3725 888 3313 
L 325 3413 
Q 428 3978 793 4289 
Q 1159 4600 1703 4600 
Q 2078 4600 2393 4439 
Q 2709 4278 2876 4000 
Q 3044 3722 3044 3409 
Q 3044 3113 2884 2869 
Q 2725 2625 2413 2481 
Q 2819 2388 3044 2092 
Q 3269 1797 3269 1353 
Q 3269 753 2831 336 
Q 2394 -81 1725 -81 
Q 1122 -81 723 278 
Q 325 638 269 1209 
z
" transform="scale(0.015625)"/>
       </defs>
       <use xlink:href="#ArialMT-30"/>
       <use xlink:href="#ArialMT-2e" x="55.615234"/>
       <use xlink:href="#ArialMT-30" x="83.398438"/>
       <use xlink:href="#ArialMT-33" x="139.013672"/>
       <use xlink:href="#ArialMT-30" x="194.628906"/>
      </g>
     </g>
    </g>
    <g id="xtick_15">
     <g id="line2d_27">
      <path d="M 410.31507 603.7 
L 410.31507 347.690625 
" clip-path="url(#p05eb2d0722)" style="fill: none; stroke: #cccccc; stroke-linecap: round"/>
     </g>
     <g id="text_19">
      <!-- 0.035 -->
      <g style="fill: #262626" transform="translate(396.553038 621.073594) scale(0.11 -0.11)">
       <use xlink:href="#ArialMT-30"/>
       <use xlink:href="#ArialMT-2e" x="55.615234"/>
       <use xlink:href="#ArialMT-30" x="83.398438"/>
       <use xlink:href="#ArialMT-33" x="139.013672"/>
       <use xlink:href="#ArialMT-35" x="194.628906"/>
      </g>
     </g>
    </g>
    <g id="text_20">
     <!-- beta_1_se -->
     <g style="fill: #262626" transform="translate(206.851197 635.884844) scale(0.12 -0.12)">
      <defs>
       <path id="ArialMT-62" d="M 941 0 
L 419 0 
L 419 4581 
L 981 4581 
L 981 2947 
Q 1338 3394 1891 3394 
Q 2197 3394 2470 3270 
Q 2744 3147 2920 2923 
Q 3097 2700 3197 2384 
Q 3297 2069 3297 1709 
Q 3297 856 2875 390 
Q 2453 -75 1863 -75 
Q 1275 -75 941 416 
L 941 0 
z
M 934 1684 
Q 934 1088 1097 822 
Q 1363 388 1816 388 
Q 2184 388 2453 708 
Q 2722 1028 2722 1663 
Q 2722 2313 2464 2622 
Q 2206 2931 1841 2931 
Q 1472 2931 1203 2611 
Q 934 2291 934 1684 
z
" transform="scale(0.015625)"/>
       <path id="ArialMT-65" d="M 2694 1069 
L 3275 997 
Q 3138 488 2766 206 
Q 2394 -75 1816 -75 
Q 1088 -75 661 373 
Q 234 822 234 1631 
Q 234 2469 665 2931 
Q 1097 3394 1784 3394 
Q 2450 3394 2872 2941 
Q 3294 2488 3294 1666 
Q 3294 1616 3291 1516 
L 816 1516 
Q 847 969 1125 678 
Q 1403 388 1819 388 
Q 2128 388 2347 550 
Q 2566 713 2694 1069 
z
M 847 1978 
L 2700 1978 
Q 2663 2397 2488 2606 
Q 2219 2931 1791 2931 
Q 1403 2931 1139 2672 
Q 875 2413 847 1978 
z
" transform="scale(0.015625)"/>
       <path id="ArialMT-61" d="M 2588 409 
Q 2275 144 1986 34 
Q 1697 -75 1366 -75 
Q 819 -75 525 192 
Q 231 459 231 875 
Q 231 1119 342 1320 
Q 453 1522 633 1644 
Q 813 1766 1038 1828 
Q 1203 1872 1538 1913 
Q 2219 1994 2541 2106 
Q 2544 2222 2544 2253 
Q 2544 2597 2384 2738 
Q 2169 2928 1744 2928 
Q 1347 2928 1158 2789 
Q 969 2650 878 2297 
L 328 2372 
Q 403 2725 575 2942 
Q 747 3159 1072 3276 
Q 1397 3394 1825 3394 
Q 2250 3394 2515 3294 
Q 2781 3194 2906 3042 
Q 3031 2891 3081 2659 
Q 3109 2516 3109 2141 
L 3109 1391 
Q 3109 606 3145 398 
Q 3181 191 3288 0 
L 2700 0 
Q 2613 175 2588 409 
z
M 2541 1666 
Q 2234 1541 1622 1453 
Q 1275 1403 1131 1340 
Q 988 1278 909 1158 
Q 831 1038 831 891 
Q 831 666 1001 516 
Q 1172 366 1500 366 
Q 1825 366 2078 508 
Q 2331 650 2450 897 
Q 2541 1088 2541 1459 
L 2541 1666 
z
" transform="scale(0.015625)"/>
       <path id="ArialMT-5f" d="M -97 -1272 
L -97 -866 
L 3631 -866 
L 3631 -1272 
L -97 -1272 
z
" transform="scale(0.015625)"/>
       <path id="ArialMT-73" d="M 197 991 
L 753 1078 
Q 800 744 1014 566 
Q 1228 388 1613 388 
Q 2000 388 2187 545 
Q 2375 703 2375 916 
Q 2375 1106 2209 1216 
Q 2094 1291 1634 1406 
Q 1016 1563 777 1677 
Q 538 1791 414 1992 
Q 291 2194 291 2438 
Q 291 2659 392 2848 
Q 494 3038 669 3163 
Q 800 3259 1026 3326 
Q 1253 3394 1513 3394 
Q 1903 3394 2198 3281 
Q 2494 3169 2634 2976 
Q 2775 2784 2828 2463 
L 2278 2388 
Q 2241 2644 2061 2787 
Q 1881 2931 1553 2931 
Q 1166 2931 1000 2803 
Q 834 2675 834 2503 
Q 834 2394 903 2306 
Q 972 2216 1119 2156 
Q 1203 2125 1616 2013 
Q 2213 1853 2448 1751 
Q 2684 1650 2818 1456 
Q 2953 1263 2953 975 
Q 2953 694 2789 445 
Q 2625 197 2315 61 
Q 2006 -75 1616 -75 
Q 969 -75 630 194 
Q 291 463 197 991 
z
" transform="scale(0.015625)"/>
      </defs>
      <use xlink:href="#ArialMT-62"/>
      <use xlink:href="#ArialMT-65" x="55.615234"/>
      <use xlink:href="#ArialMT-74" x="111.230469"/>
      <use xlink:href="#ArialMT-61" x="139.013672"/>
      <use xlink:href="#ArialMT-5f" x="194.628906"/>
      <use xlink:href="#ArialMT-31" x="250.244141"/>
      <use xlink:href="#ArialMT-5f" x="305.859375"/>
      <use xlink:href="#ArialMT-73" x="361.474609"/>
      <use xlink:href="#ArialMT-65" x="411.474609"/>
     </g>
    </g>
   </g>
   <g id="matplotlib.axis_6">
    <g id="ytick_11">
     <g id="line2d_28">
      <path d="M 46.55 603.7 
L 423.198018 603.7 
" clip-path="url(#p05eb2d0722)" style="fill: none; stroke: #cccccc; stroke-linecap: round"/>
     </g>
     <g id="text_21">
      <!-- 0 -->
      <g style="fill: #262626" transform="translate(30.932969 607.636797) scale(0.11 -0.11)">
       <use xlink:href="#ArialMT-30"/>
      </g>
     </g>
    </g>
    <g id="ytick_12">
     <g id="line2d_29">
      <path d="M 46.55 570.75156 
L 423.198018 570.75156 
" clip-path="url(#p05eb2d0722)" style="fill: none; stroke: #cccccc; stroke-linecap: round"/>
     </g>
     <g id="text_22">
      <!-- 5 -->
      <g style="fill: #262626" transform="translate(30.932969 574.688357) scale(0.11 -0.11)">
       <use xlink:href="#ArialMT-35"/>
      </g>
     </g>
    </g>
    <g id="ytick_13">
     <g id="line2d_30">
      <path d="M 46.55 537.803121 
L 423.198018 537.803121 
" clip-path="url(#p05eb2d0722)" style="fill: none; stroke: #cccccc; stroke-linecap: round"/>
     </g>
     <g id="text_23">
      <!-- 10 -->
      <g style="fill: #262626" transform="translate(24.815938 541.739918) scale(0.11 -0.11)">
       <use xlink:href="#ArialMT-31"/>
       <use xlink:href="#ArialMT-30" x="55.615234"/>
      </g>
     </g>
    </g>
    <g id="ytick_14">
     <g id="line2d_31">
      <path d="M 46.55 504.854681 
L 423.198018 504.854681 
" clip-path="url(#p05eb2d0722)" style="fill: none; stroke: #cccccc; stroke-linecap: round"/>
     </g>
     <g id="text_24">
      <!-- 15 -->
      <g style="fill: #262626" transform="translate(24.815938 508.791478) scale(0.11 -0.11)">
       <use xlink:href="#ArialMT-31"/>
       <use xlink:href="#ArialMT-35" x="55.615234"/>
      </g>
     </g>
    </g>
    <g id="ytick_15">
     <g id="line2d_32">
      <path d="M 46.55 471.906242 
L 423.198018 471.906242 
" clip-path="url(#p05eb2d0722)" style="fill: none; stroke: #cccccc; stroke-linecap: round"/>
     </g>
     <g id="text_25">
      <!-- 20 -->
      <g style="fill: #262626" transform="translate(24.815938 475.843039) scale(0.11 -0.11)">
       <use xlink:href="#ArialMT-32"/>
       <use xlink:href="#ArialMT-30" x="55.615234"/>
      </g>
     </g>
    </g>
    <g id="ytick_16">
     <g id="line2d_33">
      <path d="M 46.55 438.957802 
L 423.198018 438.957802 
" clip-path="url(#p05eb2d0722)" style="fill: none; stroke: #cccccc; stroke-linecap: round"/>
     </g>
     <g id="text_26">
      <!-- 25 -->
      <g style="fill: #262626" transform="translate(24.815938 442.894599) scale(0.11 -0.11)">
       <use xlink:href="#ArialMT-32"/>
       <use xlink:href="#ArialMT-35" x="55.615234"/>
      </g>
     </g>
    </g>
    <g id="ytick_17">
     <g id="line2d_34">
      <path d="M 46.55 406.009363 
L 423.198018 406.009363 
" clip-path="url(#p05eb2d0722)" style="fill: none; stroke: #cccccc; stroke-linecap: round"/>
     </g>
     <g id="text_27">
      <!-- 30 -->
      <g style="fill: #262626" transform="translate(24.815938 409.94616) scale(0.11 -0.11)">
       <use xlink:href="#ArialMT-33"/>
       <use xlink:href="#ArialMT-30" x="55.615234"/>
      </g>
     </g>
    </g>
    <g id="ytick_18">
     <g id="line2d_35">
      <path d="M 46.55 373.060923 
L 423.198018 373.060923 
" clip-path="url(#p05eb2d0722)" style="fill: none; stroke: #cccccc; stroke-linecap: round"/>
     </g>
     <g id="text_28">
      <!-- 35 -->
      <g style="fill: #262626" transform="translate(24.815938 376.99772) scale(0.11 -0.11)">
       <use xlink:href="#ArialMT-33"/>
       <use xlink:href="#ArialMT-35" x="55.615234"/>
      </g>
     </g>
    </g>
    <g id="text_29">
     <!-- Count -->
     <g style="fill: #262626" transform="translate(18.430938 491.705) rotate(-90) scale(0.12 -0.12)">
      <use xlink:href="#ArialMT-43"/>
      <use xlink:href="#ArialMT-6f" x="72.216797"/>
      <use xlink:href="#ArialMT-75" x="127.832031"/>
      <use xlink:href="#ArialMT-6e" x="183.447266"/>
      <use xlink:href="#ArialMT-74" x="239.0625"/>
     </g>
    </g>
   </g>
   <g id="patch_31">
    <path d="M 63.670364 603.7 
L 101.715619 603.7 
L 101.715619 597.110312 
L 63.670364 597.110312 
z
" clip-path="url(#p05eb2d0722)" style="fill: #c44e52; fill-opacity: 0.5; stroke: #000000; stroke-linejoin: miter"/>
   </g>
   <g id="patch_32">
    <path d="M 101.715619 603.7 
L 139.760873 603.7 
L 139.760873 531.213433 
L 101.715619 531.213433 
z
" clip-path="url(#p05eb2d0722)" style="fill: #c44e52; fill-opacity: 0.5; stroke: #000000; stroke-linejoin: miter"/>
   </g>
   <g id="patch_33">
    <path d="M 139.760873 603.7 
L 177.806128 603.7 
L 177.806128 379.650611 
L 139.760873 379.650611 
z
" clip-path="url(#p05eb2d0722)" style="fill: #c44e52; fill-opacity: 0.5; stroke: #000000; stroke-linejoin: miter"/>
   </g>
   <g id="patch_34">
    <path d="M 177.806128 603.7 
L 215.851382 603.7 
L 215.851382 386.240299 
L 177.806128 386.240299 
z
" clip-path="url(#p05eb2d0722)" style="fill: #c44e52; fill-opacity: 0.5; stroke: #000000; stroke-linejoin: miter"/>
   </g>
   <g id="patch_35">
    <path d="M 215.851382 603.7 
L 253.896636 603.7 
L 253.896636 406.009363 
L 215.851382 406.009363 
z
" clip-path="url(#p05eb2d0722)" style="fill: #c44e52; fill-opacity: 0.5; stroke: #000000; stroke-linejoin: miter"/>
   </g>
   <g id="patch_36">
    <path d="M 253.896636 603.7 
L 291.941891 603.7 
L 291.941891 359.881548 
L 253.896636 359.881548 
z
" clip-path="url(#p05eb2d0722)" style="fill: #c44e52; fill-opacity: 0.5; stroke: #000000; stroke-linejoin: miter"/>
   </g>
   <g id="patch_37">
    <path d="M 291.941891 603.7 
L 329.987145 603.7 
L 329.987145 445.54749 
L 291.941891 445.54749 
z
" clip-path="url(#p05eb2d0722)" style="fill: #c44e52; fill-opacity: 0.5; stroke: #000000; stroke-linejoin: miter"/>
   </g>
   <g id="patch_38">
    <path d="M 329.987145 603.7 
L 368.032399 603.7 
L 368.032399 471.906242 
L 329.987145 471.906242 
z
" clip-path="url(#p05eb2d0722)" style="fill: #c44e52; fill-opacity: 0.5; stroke: #000000; stroke-linejoin: miter"/>
   </g>
   <g id="patch_39">
    <path d="M 368.032399 603.7 
L 406.077654 603.7 
L 406.077654 537.803121 
L 368.032399 537.803121 
z
" clip-path="url(#p05eb2d0722)" style="fill: #c44e52; fill-opacity: 0.5; stroke: #000000; stroke-linejoin: miter"/>
   </g>
   <g id="line2d_36">
    <path d="M 63.670364 595.18783 
L 67.111644 593.883502 
L 70.552923 592.357747 
L 73.994202 590.568784 
L 77.435482 588.472671 
L 80.876761 586.024828 
L 84.31804 583.181512 
L 87.759319 579.901126 
L 91.200599 576.145282 
L 94.641878 571.879606 
L 98.083157 567.074368 
L 101.524437 561.705058 
L 104.965716 555.753088 
L 108.406995 549.206759 
L 111.848275 542.062589 
L 115.289554 534.327022 
L 118.730833 526.018413 
L 122.172112 517.169067 
L 125.613392 507.827066 
L 130.775311 493.037598 
L 137.657869 472.346252 
L 147.981707 441.135299 
L 153.143626 426.424405 
L 156.584905 417.250434 
L 160.026185 408.719675 
L 163.467464 400.9319 
L 166.908743 393.968211 
L 170.350022 387.889168 
L 172.070662 385.194468 
L 173.791302 382.73394 
L 175.511941 380.509149 
L 177.232581 378.520376 
L 178.953221 376.766659 
L 180.67386 375.245837 
L 182.3945 373.954607 
L 184.11514 372.888582 
L 185.835779 372.042353 
L 187.556419 371.40955 
L 189.277059 370.98291 
L 190.997698 370.754341 
L 192.718338 370.714985 
L 194.438977 370.855283 
L 196.159617 371.165038 
L 197.880257 371.633473 
L 199.600896 372.249292 
L 201.321536 373.000736 
L 204.762815 374.861488 
L 208.204095 377.114506 
L 211.645374 379.654703 
L 218.527933 385.168389 
L 223.689851 389.268572 
L 227.131131 391.800965 
L 230.57241 394.07296 
L 234.013689 396.015653 
L 237.454969 397.579306 
L 240.896248 398.73718 
L 244.337527 399.488533 
L 247.778806 399.860274 
L 251.220086 399.906797 
L 254.661365 399.707703 
L 266.705843 398.63014 
L 270.147122 398.695576 
L 273.588401 399.118849 
L 275.309041 399.488357 
L 277.02968 399.972251 
L 278.75032 400.574985 
L 280.47096 401.299014 
L 283.912239 403.110793 
L 287.353518 405.388207 
L 290.794798 408.084405 
L 294.236077 411.131256 
L 297.677356 414.447508 
L 302.839275 419.741912 
L 330.369509 448.829518 
L 333.810789 452.814366 
L 337.252068 457.054026 
L 340.693347 461.59709 
L 344.134627 466.476996 
L 347.575906 471.709374 
L 351.017185 477.291247 
L 354.458464 483.201866 
L 359.620383 492.601005 
L 364.782302 502.48208 
L 383.709338 539.326087 
L 388.871257 548.615117 
L 392.312537 554.457186 
L 395.753816 559.977641 
L 399.195095 565.150079 
L 402.636375 569.955856 
L 406.077654 574.383734 
L 406.077654 574.383734 
" clip-path="url(#p05eb2d0722)" style="fill: none; stroke: #c44e52; stroke-width: 1.5; stroke-linecap: round"/>
   </g>
   <g id="patch_40">
    <path d="M 46.55 603.7 
L 46.55 347.690625 
" style="fill: none; stroke: #cccccc; stroke-width: 1.25; stroke-linejoin: miter; stroke-linecap: square"/>
   </g>
   <g id="patch_41">
    <path d="M 423.198018 603.7 
L 423.198018 347.690625 
" style="fill: none; stroke: #cccccc; stroke-width: 1.25; stroke-linejoin: miter; stroke-linecap: square"/>
   </g>
   <g id="patch_42">
    <path d="M 46.55 603.7 
L 423.198018 603.7 
" style="fill: none; stroke: #cccccc; stroke-width: 1.25; stroke-linejoin: miter; stroke-linecap: square"/>
   </g>
   <g id="patch_43">
    <path d="M 46.55 347.690625 
L 423.198018 347.690625 
" style="fill: none; stroke: #cccccc; stroke-width: 1.25; stroke-linejoin: miter; stroke-linecap: square"/>
   </g>
   <g id="text_30">
    <!-- OLS with Outlier ($\mu = 0.0246, \sigma = 0.0045$) -->
    <g style="fill: #262626" transform="translate(98.654009 341.690625) scale(0.14 -0.14)">
     <defs>
      <path id="ArialMT-77" d="M 1034 0 
L 19 3319 
L 600 3319 
L 1128 1403 
L 1325 691 
Q 1338 744 1497 1375 
L 2025 3319 
L 2603 3319 
L 3100 1394 
L 3266 759 
L 3456 1400 
L 4025 3319 
L 4572 3319 
L 3534 0 
L 2950 0 
L 2422 1988 
L 2294 2553 
L 1622 0 
L 1034 0 
z
" transform="scale(0.015625)"/>
      <path id="ArialMT-69" d="M 425 3934 
L 425 4581 
L 988 4581 
L 988 3934 
L 425 3934 
z
M 425 0 
L 425 3319 
L 988 3319 
L 988 0 
L 425 0 
z
" transform="scale(0.015625)"/>
      <path id="ArialMT-68" d="M 422 0 
L 422 4581 
L 984 4581 
L 984 2938 
Q 1378 3394 1978 3394 
Q 2347 3394 2619 3248 
Q 2891 3103 3008 2847 
Q 3125 2591 3125 2103 
L 3125 0 
L 2563 0 
L 2563 2103 
Q 2563 2525 2380 2717 
Q 2197 2909 1863 2909 
Q 1613 2909 1392 2779 
Q 1172 2650 1078 2428 
Q 984 2206 984 1816 
L 984 0 
L 422 0 
z
" transform="scale(0.015625)"/>
      <path id="ArialMT-6c" d="M 409 0 
L 409 4581 
L 972 4581 
L 972 0 
L 409 0 
z
" transform="scale(0.015625)"/>
      <path id="ArialMT-72" d="M 416 0 
L 416 3319 
L 922 3319 
L 922 2816 
Q 1116 3169 1280 3281 
Q 1444 3394 1641 3394 
Q 1925 3394 2219 3213 
L 2025 2691 
Q 1819 2813 1613 2813 
Q 1428 2813 1281 2702 
Q 1134 2591 1072 2394 
Q 978 2094 978 1738 
L 978 0 
L 416 0 
z
" transform="scale(0.015625)"/>
      <path id="DejaVuSans-36" d="M 2113 2584 
Q 1688 2584 1439 2293 
Q 1191 2003 1191 1497 
Q 1191 994 1439 701 
Q 1688 409 2113 409 
Q 2538 409 2786 701 
Q 3034 994 3034 1497 
Q 3034 2003 2786 2293 
Q 2538 2584 2113 2584 
z
M 3366 4563 
L 3366 3988 
Q 3128 4100 2886 4159 
Q 2644 4219 2406 4219 
Q 1781 4219 1451 3797 
Q 1122 3375 1075 2522 
Q 1259 2794 1537 2939 
Q 1816 3084 2150 3084 
Q 2853 3084 3261 2657 
Q 3669 2231 3669 1497 
Q 3669 778 3244 343 
Q 2819 -91 2113 -91 
Q 1303 -91 875 529 
Q 447 1150 447 2328 
Q 447 3434 972 4092 
Q 1497 4750 2381 4750 
Q 2619 4750 2861 4703 
Q 3103 4656 3366 4563 
z
" transform="scale(0.015625)"/>
     </defs>
     <use xlink:href="#ArialMT-4f" transform="translate(0 0.78125)"/>
     <use xlink:href="#ArialMT-4c" transform="translate(77.783203 0.78125)"/>
     <use xlink:href="#ArialMT-53" transform="translate(133.398438 0.78125)"/>
     <use xlink:href="#ArialMT-20" transform="translate(200.097656 0.78125)"/>
     <use xlink:href="#ArialMT-77" transform="translate(227.880859 0.78125)"/>
     <use xlink:href="#ArialMT-69" transform="translate(300.097656 0.78125)"/>
     <use xlink:href="#ArialMT-74" transform="translate(322.314453 0.78125)"/>
     <use xlink:href="#ArialMT-68" transform="translate(350.097656 0.78125)"/>
     <use xlink:href="#ArialMT-20" transform="translate(405.712891 0.78125)"/>
     <use xlink:href="#ArialMT-4f" transform="translate(433.496094 0.78125)"/>
     <use xlink:href="#ArialMT-75" transform="translate(511.279297 0.78125)"/>
     <use xlink:href="#ArialMT-74" transform="translate(566.894531 0.78125)"/>
     <use xlink:href="#ArialMT-6c" transform="translate(594.677734 0.78125)"/>
     <use xlink:href="#ArialMT-69" transform="translate(616.894531 0.78125)"/>
     <use xlink:href="#ArialMT-65" transform="translate(639.111328 0.78125)"/>
     <use xlink:href="#ArialMT-72" transform="translate(694.726562 0.78125)"/>
     <use xlink:href="#ArialMT-20" transform="translate(728.027344 0.78125)"/>
     <use xlink:href="#ArialMT-28" transform="translate(755.810547 0.78125)"/>
     <use xlink:href="#DejaVuSans-Oblique-3bc" transform="translate(789.111328 0.78125)"/>
     <use xlink:href="#DejaVuSans-3d" transform="translate(872.216797 0.78125)"/>
     <use xlink:href="#DejaVuSans-30" transform="translate(975.488281 0.78125)"/>
     <use xlink:href="#DejaVuSans-2e" transform="translate(1039.111328 0.78125)"/>
     <use xlink:href="#DejaVuSans-30" transform="translate(1070.898438 0.78125)"/>
     <use xlink:href="#DejaVuSans-32" transform="translate(1134.521484 0.78125)"/>
     <use xlink:href="#DejaVuSans-34" transform="translate(1198.144531 0.78125)"/>
     <use xlink:href="#DejaVuSans-36" transform="translate(1261.767578 0.78125)"/>
     <use xlink:href="#DejaVuSans-2c" transform="translate(1325.390625 0.78125)"/>
     <use xlink:href="#DejaVuSans-Oblique-3c3" transform="translate(1376.660156 0.78125)"/>
     <use xlink:href="#DejaVuSans-3d" transform="translate(1459.521484 0.78125)"/>
     <use xlink:href="#DejaVuSans-30" transform="translate(1562.792969 0.78125)"/>
     <use xlink:href="#DejaVuSans-2e" transform="translate(1626.416016 0.78125)"/>
     <use xlink:href="#DejaVuSans-30" transform="translate(1658.203125 0.78125)"/>
     <use xlink:href="#DejaVuSans-30" transform="translate(1721.826172 0.78125)"/>
     <use xlink:href="#DejaVuSans-34" transform="translate(1785.449219 0.78125)"/>
     <use xlink:href="#DejaVuSans-35" transform="translate(1849.072266 0.78125)"/>
     <use xlink:href="#ArialMT-29" transform="translate(1912.695312 0.78125)"/>
    </g>
   </g>
  </g>
  <g id="axes_4">
   <g id="patch_44">
    <path d="M 473.2125 603.7 
L 849.860518 603.7 
L 849.860518 347.690625 
L 473.2125 347.690625 
z
" style="fill: #ffffff"/>
   </g>
   <g id="matplotlib.axis_7">
    <g id="xtick_16">
     <g id="line2d_37">
      <path d="M 514.685083 603.7 
L 514.685083 347.690625 
" clip-path="url(#p2d406347f9)" style="fill: none; stroke: #cccccc; stroke-linecap: round"/>
     </g>
     <g id="text_31">
      <!-- 0.015 -->
      <g style="fill: #262626" transform="translate(500.923052 621.073594) scale(0.11 -0.11)">
       <use xlink:href="#ArialMT-30"/>
       <use xlink:href="#ArialMT-2e" x="55.615234"/>
       <use xlink:href="#ArialMT-30" x="83.398438"/>
       <use xlink:href="#ArialMT-31" x="139.013672"/>
       <use xlink:href="#ArialMT-35" x="194.628906"/>
      </g>
     </g>
    </g>
    <g id="xtick_17">
     <g id="line2d_38">
      <path d="M 595.258205 603.7 
L 595.258205 347.690625 
" clip-path="url(#p2d406347f9)" style="fill: none; stroke: #cccccc; stroke-linecap: round"/>
     </g>
     <g id="text_32">
      <!-- 0.020 -->
      <g style="fill: #262626" transform="translate(581.496173 621.073594) scale(0.11 -0.11)">
       <use xlink:href="#ArialMT-30"/>
       <use xlink:href="#ArialMT-2e" x="55.615234"/>
       <use xlink:href="#ArialMT-30" x="83.398438"/>
       <use xlink:href="#ArialMT-32" x="139.013672"/>
       <use xlink:href="#ArialMT-30" x="194.628906"/>
      </g>
     </g>
    </g>
    <g id="xtick_18">
     <g id="line2d_39">
      <path d="M 675.831326 603.7 
L 675.831326 347.690625 
" clip-path="url(#p2d406347f9)" style="fill: none; stroke: #cccccc; stroke-linecap: round"/>
     </g>
     <g id="text_33">
      <!-- 0.025 -->
      <g style="fill: #262626" transform="translate(662.069295 621.073594) scale(0.11 -0.11)">
       <use xlink:href="#ArialMT-30"/>
       <use xlink:href="#ArialMT-2e" x="55.615234"/>
       <use xlink:href="#ArialMT-30" x="83.398438"/>
       <use xlink:href="#ArialMT-32" x="139.013672"/>
       <use xlink:href="#ArialMT-35" x="194.628906"/>
      </g>
     </g>
    </g>
    <g id="xtick_19">
     <g id="line2d_40">
      <path d="M 756.404448 603.7 
L 756.404448 347.690625 
" clip-path="url(#p2d406347f9)" style="fill: none; stroke: #cccccc; stroke-linecap: round"/>
     </g>
     <g id="text_34">
      <!-- 0.030 -->
      <g style="fill: #262626" transform="translate(742.642417 621.073594) scale(0.11 -0.11)">
       <use xlink:href="#ArialMT-30"/>
       <use xlink:href="#ArialMT-2e" x="55.615234"/>
       <use xlink:href="#ArialMT-30" x="83.398438"/>
       <use xlink:href="#ArialMT-33" x="139.013672"/>
       <use xlink:href="#ArialMT-30" x="194.628906"/>
      </g>
     </g>
    </g>
    <g id="xtick_20">
     <g id="line2d_41">
      <path d="M 836.97757 603.7 
L 836.97757 347.690625 
" clip-path="url(#p2d406347f9)" style="fill: none; stroke: #cccccc; stroke-linecap: round"/>
     </g>
     <g id="text_35">
      <!-- 0.035 -->
      <g style="fill: #262626" transform="translate(823.215538 621.073594) scale(0.11 -0.11)">
       <use xlink:href="#ArialMT-30"/>
       <use xlink:href="#ArialMT-2e" x="55.615234"/>
       <use xlink:href="#ArialMT-30" x="83.398438"/>
       <use xlink:href="#ArialMT-33" x="139.013672"/>
       <use xlink:href="#ArialMT-35" x="194.628906"/>
      </g>
     </g>
    </g>
    <g id="text_36">
     <!-- beta_1_se -->
     <g style="fill: #262626" transform="translate(633.513697 635.884844) scale(0.12 -0.12)">
      <use xlink:href="#ArialMT-62"/>
      <use xlink:href="#ArialMT-65" x="55.615234"/>
      <use xlink:href="#ArialMT-74" x="111.230469"/>
      <use xlink:href="#ArialMT-61" x="139.013672"/>
      <use xlink:href="#ArialMT-5f" x="194.628906"/>
      <use xlink:href="#ArialMT-31" x="250.244141"/>
      <use xlink:href="#ArialMT-5f" x="305.859375"/>
      <use xlink:href="#ArialMT-73" x="361.474609"/>
      <use xlink:href="#ArialMT-65" x="411.474609"/>
     </g>
    </g>
   </g>
   <g id="matplotlib.axis_8">
    <g id="ytick_19">
     <g id="line2d_42">
      <path d="M 473.2125 603.7 
L 849.860518 603.7 
" clip-path="url(#p2d406347f9)" style="fill: none; stroke: #cccccc; stroke-linecap: round"/>
     </g>
     <g id="text_37">
      <!-- 0 -->
      <g style="fill: #262626" transform="translate(457.595469 607.636797) scale(0.11 -0.11)">
       <use xlink:href="#ArialMT-30"/>
      </g>
     </g>
    </g>
    <g id="ytick_20">
     <g id="line2d_43">
      <path d="M 473.2125 549.518122 
L 849.860518 549.518122 
" clip-path="url(#p2d406347f9)" style="fill: none; stroke: #cccccc; stroke-linecap: round"/>
     </g>
     <g id="text_38">
      <!-- 10 -->
      <g style="fill: #262626" transform="translate(451.478437 553.454919) scale(0.11 -0.11)">
       <use xlink:href="#ArialMT-31"/>
       <use xlink:href="#ArialMT-30" x="55.615234"/>
      </g>
     </g>
    </g>
    <g id="ytick_21">
     <g id="line2d_44">
      <path d="M 473.2125 495.336243 
L 849.860518 495.336243 
" clip-path="url(#p2d406347f9)" style="fill: none; stroke: #cccccc; stroke-linecap: round"/>
     </g>
     <g id="text_39">
      <!-- 20 -->
      <g style="fill: #262626" transform="translate(451.478437 499.27304) scale(0.11 -0.11)">
       <use xlink:href="#ArialMT-32"/>
       <use xlink:href="#ArialMT-30" x="55.615234"/>
      </g>
     </g>
    </g>
    <g id="ytick_22">
     <g id="line2d_45">
      <path d="M 473.2125 441.154365 
L 849.860518 441.154365 
" clip-path="url(#p2d406347f9)" style="fill: none; stroke: #cccccc; stroke-linecap: round"/>
     </g>
     <g id="text_40">
      <!-- 30 -->
      <g style="fill: #262626" transform="translate(451.478437 445.091162) scale(0.11 -0.11)">
       <use xlink:href="#ArialMT-33"/>
       <use xlink:href="#ArialMT-30" x="55.615234"/>
      </g>
     </g>
    </g>
    <g id="ytick_23">
     <g id="line2d_46">
      <path d="M 473.2125 386.972487 
L 849.860518 386.972487 
" clip-path="url(#p2d406347f9)" style="fill: none; stroke: #cccccc; stroke-linecap: round"/>
     </g>
     <g id="text_41">
      <!-- 40 -->
      <g style="fill: #262626" transform="translate(451.478437 390.909284) scale(0.11 -0.11)">
       <defs>
        <path id="ArialMT-34" d="M 2069 0 
L 2069 1097 
L 81 1097 
L 81 1613 
L 2172 4581 
L 2631 4581 
L 2631 1613 
L 3250 1613 
L 3250 1097 
L 2631 1097 
L 2631 0 
L 2069 0 
z
M 2069 1613 
L 2069 3678 
L 634 1613 
L 2069 1613 
z
" transform="scale(0.015625)"/>
       </defs>
       <use xlink:href="#ArialMT-34"/>
       <use xlink:href="#ArialMT-30" x="55.615234"/>
      </g>
     </g>
    </g>
    <g id="text_42">
     <!-- Count -->
     <g style="fill: #262626" transform="translate(445.093437 491.705) rotate(-90) scale(0.12 -0.12)">
      <use xlink:href="#ArialMT-43"/>
      <use xlink:href="#ArialMT-6f" x="72.216797"/>
      <use xlink:href="#ArialMT-75" x="127.832031"/>
      <use xlink:href="#ArialMT-6e" x="183.447266"/>
      <use xlink:href="#ArialMT-74" x="239.0625"/>
     </g>
    </g>
   </g>
   <g id="patch_45">
    <path d="M 495.170941 603.7 
L 522.682387 603.7 
L 522.682387 522.427183 
L 495.170941 522.427183 
z
" clip-path="url(#p2d406347f9)" style="fill: #c44e52; fill-opacity: 0.5; stroke: #000000; stroke-linejoin: miter"/>
   </g>
   <g id="patch_46">
    <path d="M 522.682387 603.7 
L 550.193833 603.7 
L 550.193833 462.827116 
L 522.682387 462.827116 
z
" clip-path="url(#p2d406347f9)" style="fill: #c44e52; fill-opacity: 0.5; stroke: #000000; stroke-linejoin: miter"/>
   </g>
   <g id="patch_47">
    <path d="M 550.193833 603.7 
L 577.70528 603.7 
L 577.70528 435.736177 
L 550.193833 435.736177 
z
" clip-path="url(#p2d406347f9)" style="fill: #c44e52; fill-opacity: 0.5; stroke: #000000; stroke-linejoin: miter"/>
   </g>
   <g id="patch_48">
    <path d="M 577.70528 603.7 
L 605.216726 603.7 
L 605.216726 359.881548 
L 577.70528 359.881548 
z
" clip-path="url(#p2d406347f9)" style="fill: #c44e52; fill-opacity: 0.5; stroke: #000000; stroke-linejoin: miter"/>
   </g>
   <g id="patch_49">
    <path d="M 605.216726 603.7 
L 632.728173 603.7 
L 632.728173 473.663492 
L 605.216726 473.663492 
z
" clip-path="url(#p2d406347f9)" style="fill: #c44e52; fill-opacity: 0.5; stroke: #000000; stroke-linejoin: miter"/>
   </g>
   <g id="patch_50">
    <path d="M 632.728173 603.7 
L 660.239619 603.7 
L 660.239619 511.590807 
L 632.728173 511.590807 
z
" clip-path="url(#p2d406347f9)" style="fill: #c44e52; fill-opacity: 0.5; stroke: #000000; stroke-linejoin: miter"/>
   </g>
   <g id="patch_51">
    <path d="M 660.239619 603.7 
L 687.751066 603.7 
L 687.751066 533.263558 
L 660.239619 533.263558 
z
" clip-path="url(#p2d406347f9)" style="fill: #c44e52; fill-opacity: 0.5; stroke: #000000; stroke-linejoin: miter"/>
   </g>
   <g id="patch_52">
    <path d="M 687.751066 603.7 
L 715.262512 603.7 
L 715.262512 544.099934 
L 687.751066 544.099934 
z
" clip-path="url(#p2d406347f9)" style="fill: #c44e52; fill-opacity: 0.5; stroke: #000000; stroke-linejoin: miter"/>
   </g>
   <g id="patch_53">
    <path d="M 715.262512 603.7 
L 742.773958 603.7 
L 742.773958 549.518122 
L 715.262512 549.518122 
z
" clip-path="url(#p2d406347f9)" style="fill: #c44e52; fill-opacity: 0.5; stroke: #000000; stroke-linejoin: miter"/>
   </g>
   <g id="patch_54">
    <path d="M 742.773958 603.7 
L 770.285405 603.7 
L 770.285405 571.190873 
L 742.773958 571.190873 
z
" clip-path="url(#p2d406347f9)" style="fill: #c44e52; fill-opacity: 0.5; stroke: #000000; stroke-linejoin: miter"/>
   </g>
   <g id="patch_55">
    <path d="M 770.285405 603.7 
L 797.796851 603.7 
L 797.796851 603.7 
L 770.285405 603.7 
z
" clip-path="url(#p2d406347f9)" style="fill: #c44e52; fill-opacity: 0.5; stroke: #000000; stroke-linejoin: miter"/>
   </g>
   <g id="patch_56">
    <path d="M 797.796851 603.7 
L 825.308298 603.7 
L 825.308298 592.863624 
L 797.796851 592.863624 
z
" clip-path="url(#p2d406347f9)" style="fill: #c44e52; fill-opacity: 0.5; stroke: #000000; stroke-linejoin: miter"/>
   </g>
   <g id="line2d_47">
    <path d="M 495.170941 558.364846 
L 498.488904 551.837167 
L 503.465849 541.427542 
L 510.101776 526.763083 
L 523.373629 497.029828 
L 528.350574 486.479351 
L 533.32752 476.54976 
L 536.645483 470.331718 
L 539.963446 464.455298 
L 543.28141 458.922669 
L 546.599373 453.723685 
L 549.917336 448.838372 
L 553.2353 444.24076 
L 558.212245 437.826159 
L 563.18919 431.936617 
L 566.507153 428.301977 
L 569.825117 424.930127 
L 573.14308 421.872676 
L 576.461044 419.204209 
L 579.779007 417.018383 
L 581.437989 416.139276 
L 583.09697 415.420927 
L 584.755952 414.876877 
L 586.414934 414.520144 
L 588.073915 414.362864 
L 589.732897 414.415949 
L 591.391879 414.688755 
L 593.050861 415.188792 
L 594.709842 415.92147 
L 596.368824 416.889896 
L 598.027806 418.094731 
L 599.686787 419.534111 
L 601.345769 421.203623 
L 603.004751 423.096359 
L 604.663732 425.203022 
L 607.981696 430.01006 
L 611.299659 435.510196 
L 614.617623 441.566008 
L 619.594568 451.362512 
L 632.866421 478.28569 
L 637.843366 487.622623 
L 641.16133 493.428918 
L 644.479293 498.860178 
L 647.797256 503.897587 
L 651.11522 508.533271 
L 654.433183 512.768089 
L 657.751147 516.610118 
L 661.06911 520.073731 
L 664.387073 523.179024 
L 667.705037 525.951332 
L 671.023 528.420566 
L 674.340964 530.620214 
L 677.658927 532.585973 
L 680.97689 534.354083 
L 685.953835 536.711521 
L 690.93078 538.807285 
L 697.566707 541.334995 
L 707.520597 544.822252 
L 717.474488 548.304567 
L 722.451433 550.231226 
L 727.428378 552.423974 
L 730.746341 554.090706 
L 734.064305 555.956451 
L 737.382268 558.042654 
L 740.700231 560.359415 
L 744.018195 562.902998 
L 748.99514 567.098198 
L 753.972085 571.631971 
L 765.584957 582.416379 
L 768.90292 585.253902 
L 772.220884 587.872867 
L 775.538847 590.22811 
L 778.85681 592.287415 
L 782.174774 594.032602 
L 785.492737 595.459627 
L 788.8107 596.577832 
L 792.128664 597.408493 
L 795.446627 597.982843 
L 798.764591 598.339734 
L 803.741536 598.564136 
L 810.377462 598.525149 
L 820.331353 598.406901 
L 825.308298 598.528858 
L 825.308298 598.528858 
" clip-path="url(#p2d406347f9)" style="fill: none; stroke: #c44e52; stroke-width: 1.5; stroke-linecap: round"/>
   </g>
   <g id="patch_57">
    <path d="M 473.2125 603.7 
L 473.2125 347.690625 
" style="fill: none; stroke: #cccccc; stroke-width: 1.25; stroke-linejoin: miter; stroke-linecap: square"/>
   </g>
   <g id="patch_58">
    <path d="M 849.860518 603.7 
L 849.860518 347.690625 
" style="fill: none; stroke: #cccccc; stroke-width: 1.25; stroke-linejoin: miter; stroke-linecap: square"/>
   </g>
   <g id="patch_59">
    <path d="M 473.2125 603.7 
L 849.860518 603.7 
" style="fill: none; stroke: #cccccc; stroke-width: 1.25; stroke-linejoin: miter; stroke-linecap: square"/>
   </g>
   <g id="patch_60">
    <path d="M 473.2125 347.690625 
L 849.860518 347.690625 
" style="fill: none; stroke: #cccccc; stroke-width: 1.25; stroke-linejoin: miter; stroke-linecap: square"/>
   </g>
   <g id="text_43">
    <!-- LAD with Outlier ($\mu = 0.0208, \sigma = 0.0041$) -->
    <g style="fill: #262626" transform="translate(525.666509 341.690625) scale(0.14 -0.14)">
     <defs>
      <path id="DejaVuSans-38" d="M 2034 2216 
Q 1584 2216 1326 1975 
Q 1069 1734 1069 1313 
Q 1069 891 1326 650 
Q 1584 409 2034 409 
Q 2484 409 2743 651 
Q 3003 894 3003 1313 
Q 3003 1734 2745 1975 
Q 2488 2216 2034 2216 
z
M 1403 2484 
Q 997 2584 770 2862 
Q 544 3141 544 3541 
Q 544 4100 942 4425 
Q 1341 4750 2034 4750 
Q 2731 4750 3128 4425 
Q 3525 4100 3525 3541 
Q 3525 3141 3298 2862 
Q 3072 2584 2669 2484 
Q 3125 2378 3379 2068 
Q 3634 1759 3634 1313 
Q 3634 634 3220 271 
Q 2806 -91 2034 -91 
Q 1263 -91 848 271 
Q 434 634 434 1313 
Q 434 1759 690 2068 
Q 947 2378 1403 2484 
z
M 1172 3481 
Q 1172 3119 1398 2916 
Q 1625 2713 2034 2713 
Q 2441 2713 2670 2916 
Q 2900 3119 2900 3481 
Q 2900 3844 2670 4047 
Q 2441 4250 2034 4250 
Q 1625 4250 1398 4047 
Q 1172 3844 1172 3481 
z
" transform="scale(0.015625)"/>
     </defs>
     <use xlink:href="#ArialMT-4c" transform="translate(0 0.78125)"/>
     <use xlink:href="#ArialMT-41" transform="translate(55.615234 0.78125)"/>
     <use xlink:href="#ArialMT-44" transform="translate(122.314453 0.78125)"/>
     <use xlink:href="#ArialMT-20" transform="translate(194.53125 0.78125)"/>
     <use xlink:href="#ArialMT-77" transform="translate(222.314453 0.78125)"/>
     <use xlink:href="#ArialMT-69" transform="translate(294.53125 0.78125)"/>
     <use xlink:href="#ArialMT-74" transform="translate(316.748047 0.78125)"/>
     <use xlink:href="#ArialMT-68" transform="translate(344.53125 0.78125)"/>
     <use xlink:href="#ArialMT-20" transform="translate(400.146484 0.78125)"/>
     <use xlink:href="#ArialMT-4f" transform="translate(427.929688 0.78125)"/>
     <use xlink:href="#ArialMT-75" transform="translate(505.712891 0.78125)"/>
     <use xlink:href="#ArialMT-74" transform="translate(561.328125 0.78125)"/>
     <use xlink:href="#ArialMT-6c" transform="translate(589.111328 0.78125)"/>
     <use xlink:href="#ArialMT-69" transform="translate(611.328125 0.78125)"/>
     <use xlink:href="#ArialMT-65" transform="translate(633.544922 0.78125)"/>
     <use xlink:href="#ArialMT-72" transform="translate(689.160156 0.78125)"/>
     <use xlink:href="#ArialMT-20" transform="translate(722.460938 0.78125)"/>
     <use xlink:href="#ArialMT-28" transform="translate(750.244141 0.78125)"/>
     <use xlink:href="#DejaVuSans-Oblique-3bc" transform="translate(783.544922 0.78125)"/>
     <use xlink:href="#DejaVuSans-3d" transform="translate(866.650391 0.78125)"/>
     <use xlink:href="#DejaVuSans-30" transform="translate(969.921875 0.78125)"/>
     <use xlink:href="#DejaVuSans-2e" transform="translate(1033.544922 0.78125)"/>
     <use xlink:href="#DejaVuSans-30" transform="translate(1065.332031 0.78125)"/>
     <use xlink:href="#DejaVuSans-32" transform="translate(1128.955078 0.78125)"/>
     <use xlink:href="#DejaVuSans-30" transform="translate(1192.578125 0.78125)"/>
     <use xlink:href="#DejaVuSans-38" transform="translate(1256.201172 0.78125)"/>
     <use xlink:href="#DejaVuSans-2c" transform="translate(1319.824219 0.78125)"/>
     <use xlink:href="#DejaVuSans-Oblique-3c3" transform="translate(1371.09375 0.78125)"/>
     <use xlink:href="#DejaVuSans-3d" transform="translate(1453.955078 0.78125)"/>
     <use xlink:href="#DejaVuSans-30" transform="translate(1557.226562 0.78125)"/>
     <use xlink:href="#DejaVuSans-2e" transform="translate(1620.849609 0.78125)"/>
     <use xlink:href="#DejaVuSans-30" transform="translate(1652.636719 0.78125)"/>
     <use xlink:href="#DejaVuSans-30" transform="translate(1716.259766 0.78125)"/>
     <use xlink:href="#DejaVuSans-34" transform="translate(1779.882812 0.78125)"/>
     <use xlink:href="#DejaVuSans-31" transform="translate(1843.505859 0.78125)"/>
     <use xlink:href="#ArialMT-29" transform="translate(1907.128906 0.78125)"/>
    </g>
   </g>
  </g>
  <g id="text_44">
   <!-- Histogram of beta_1_se -->
   <g style="fill: #262626" transform="translate(347.06875 24.6075) scale(0.16 -0.16)">
    <defs>
     <path id="ArialMT-48" d="M 513 0 
L 513 4581 
L 1119 4581 
L 1119 2700 
L 3500 2700 
L 3500 4581 
L 4106 4581 
L 4106 0 
L 3500 0 
L 3500 2159 
L 1119 2159 
L 1119 0 
L 513 0 
z
" transform="scale(0.015625)"/>
     <path id="ArialMT-67" d="M 319 -275 
L 866 -356 
Q 900 -609 1056 -725 
Q 1266 -881 1628 -881 
Q 2019 -881 2231 -725 
Q 2444 -569 2519 -288 
Q 2563 -116 2559 434 
Q 2191 0 1641 0 
Q 956 0 581 494 
Q 206 988 206 1678 
Q 206 2153 378 2554 
Q 550 2956 876 3175 
Q 1203 3394 1644 3394 
Q 2231 3394 2613 2919 
L 2613 3319 
L 3131 3319 
L 3131 450 
Q 3131 -325 2973 -648 
Q 2816 -972 2473 -1159 
Q 2131 -1347 1631 -1347 
Q 1038 -1347 672 -1080 
Q 306 -813 319 -275 
z
M 784 1719 
Q 784 1066 1043 766 
Q 1303 466 1694 466 
Q 2081 466 2343 764 
Q 2606 1063 2606 1700 
Q 2606 2309 2336 2618 
Q 2066 2928 1684 2928 
Q 1309 2928 1046 2623 
Q 784 2319 784 1719 
z
" transform="scale(0.015625)"/>
     <path id="ArialMT-6d" d="M 422 0 
L 422 3319 
L 925 3319 
L 925 2853 
Q 1081 3097 1340 3245 
Q 1600 3394 1931 3394 
Q 2300 3394 2536 3241 
Q 2772 3088 2869 2813 
Q 3263 3394 3894 3394 
Q 4388 3394 4653 3120 
Q 4919 2847 4919 2278 
L 4919 0 
L 4359 0 
L 4359 2091 
Q 4359 2428 4304 2576 
Q 4250 2725 4106 2815 
Q 3963 2906 3769 2906 
Q 3419 2906 3187 2673 
Q 2956 2441 2956 1928 
L 2956 0 
L 2394 0 
L 2394 2156 
Q 2394 2531 2256 2718 
Q 2119 2906 1806 2906 
Q 1569 2906 1367 2781 
Q 1166 2656 1075 2415 
Q 984 2175 984 1722 
L 984 0 
L 422 0 
z
" transform="scale(0.015625)"/>
     <path id="ArialMT-66" d="M 556 0 
L 556 2881 
L 59 2881 
L 59 3319 
L 556 3319 
L 556 3672 
Q 556 4006 616 4169 
Q 697 4388 901 4523 
Q 1106 4659 1475 4659 
Q 1713 4659 2000 4603 
L 1916 4113 
Q 1741 4144 1584 4144 
Q 1328 4144 1222 4034 
Q 1116 3925 1116 3625 
L 1116 3319 
L 1763 3319 
L 1763 2881 
L 1116 2881 
L 1116 0 
L 556 0 
z
" transform="scale(0.015625)"/>
    </defs>
    <use xlink:href="#ArialMT-48"/>
    <use xlink:href="#ArialMT-69" x="72.216797"/>
    <use xlink:href="#ArialMT-73" x="94.433594"/>
    <use xlink:href="#ArialMT-74" x="144.433594"/>
    <use xlink:href="#ArialMT-6f" x="172.216797"/>
    <use xlink:href="#ArialMT-67" x="227.832031"/>
    <use xlink:href="#ArialMT-72" x="283.447266"/>
    <use xlink:href="#ArialMT-61" x="316.748047"/>
    <use xlink:href="#ArialMT-6d" x="372.363281"/>
    <use xlink:href="#ArialMT-20" x="455.664062"/>
    <use xlink:href="#ArialMT-6f" x="483.447266"/>
    <use xlink:href="#ArialMT-66" x="539.0625"/>
    <use xlink:href="#ArialMT-20" x="566.845703"/>
    <use xlink:href="#ArialMT-62" x="594.628906"/>
    <use xlink:href="#ArialMT-65" x="650.244141"/>
    <use xlink:href="#ArialMT-74" x="705.859375"/>
    <use xlink:href="#ArialMT-61" x="733.642578"/>
    <use xlink:href="#ArialMT-5f" x="789.257812"/>
    <use xlink:href="#ArialMT-31" x="844.873047"/>
    <use xlink:href="#ArialMT-5f" x="900.488281"/>
    <use xlink:href="#ArialMT-73" x="956.103516"/>
    <use xlink:href="#ArialMT-65" x="1006.103516"/>
   </g>
  </g>
 </g>
 <defs>
  <clipPath id="p6e4e17a0a3">
   <rect x="46.55" y="55.88125" width="376.648018" height="256.009375"/>
  </clipPath>
  <clipPath id="p860b621fdd">
   <rect x="473.2125" y="55.88125" width="376.648018" height="256.009375"/>
  </clipPath>
  <clipPath id="p05eb2d0722">
   <rect x="46.55" y="347.690625" width="376.648018" height="256.009375"/>
  </clipPath>
  <clipPath id="p2d406347f9">
   <rect x="473.2125" y="347.690625" width="376.648018" height="256.009375"/>
  </clipPath>
 </defs>
</svg>
