<?xml version="1.0" encoding="utf-8" standalone="no"?>
<!DOCTYPE svg PUBLIC "-//W3C//DTD SVG 1.1//EN"
  "http://www.w3.org/Graphics/SVG/1.1/DTD/svg11.dtd">
<svg xmlns:xlink="http://www.w3.org/1999/xlink" width="864pt" height="648pt" viewBox="0 0 864 648" xmlns="http://www.w3.org/2000/svg" version="1.1">
 <metadata>
  <rdf:RDF xmlns:dc="http://purl.org/dc/elements/1.1/" xmlns:cc="http://creativecommons.org/ns#" xmlns:rdf="http://www.w3.org/1999/02/22-rdf-syntax-ns#">
   <cc:Work>
    <dc:type rdf:resource="http://purl.org/dc/dcmitype/StillImage"/>
    <dc:date>2023-02-04T11:15:20.744281</dc:date>
    <dc:format>image/svg+xml</dc:format>
    <dc:creator>
     <cc:Agent>
      <dc:title>Matplotlib v3.6.2, https://matplotlib.org/</dc:title>
     </cc:Agent>
    </dc:creator>
   </cc:Work>
  </rdf:RDF>
 </metadata>
 <defs>
  <style type="text/css">*{stroke-linejoin: round; stroke-linecap: butt}</style>
 </defs>
 <g id="figure_1">
  <g id="patch_1">
   <path d="M 0 648 
L 864 648 
L 864 0 
L 0 0 
L 0 648 
z
" style="fill: none"/>
  </g>
  <g id="axes_1">
   <g id="patch_2">
    <path d="M 55.8 311.890625 
L 431.1625 311.890625 
L 431.1625 55.88125 
L 55.8 55.88125 
z
" style="fill: #ffffff"/>
   </g>
   <g id="matplotlib.axis_1">
    <g id="xtick_1">
     <g id="line2d_1">
      <path d="M 73.69257 311.890625 
L 73.69257 55.88125 
" clip-path="url(#pefe28595c2)" style="fill: none; stroke: #cccccc; stroke-linecap: round"/>
     </g>
    </g>
    <g id="xtick_2">
     <g id="line2d_2">
      <path d="M 133.9874 311.890625 
L 133.9874 55.88125 
" clip-path="url(#pefe28595c2)" style="fill: none; stroke: #cccccc; stroke-linecap: round"/>
     </g>
    </g>
    <g id="xtick_3">
     <g id="line2d_3">
      <path d="M 194.28223 311.890625 
L 194.28223 55.88125 
" clip-path="url(#pefe28595c2)" style="fill: none; stroke: #cccccc; stroke-linecap: round"/>
     </g>
    </g>
    <g id="xtick_4">
     <g id="line2d_4">
      <path d="M 254.577059 311.890625 
L 254.577059 55.88125 
" clip-path="url(#pefe28595c2)" style="fill: none; stroke: #cccccc; stroke-linecap: round"/>
     </g>
    </g>
    <g id="xtick_5">
     <g id="line2d_5">
      <path d="M 314.871889 311.890625 
L 314.871889 55.88125 
" clip-path="url(#pefe28595c2)" style="fill: none; stroke: #cccccc; stroke-linecap: round"/>
     </g>
    </g>
    <g id="xtick_6">
     <g id="line2d_6">
      <path d="M 375.166719 311.890625 
L 375.166719 55.88125 
" clip-path="url(#pefe28595c2)" style="fill: none; stroke: #cccccc; stroke-linecap: round"/>
     </g>
    </g>
   </g>
   <g id="matplotlib.axis_2">
    <g id="ytick_1">
     <g id="line2d_7">
      <path d="M 55.8 311.890625 
L 431.1625 311.890625 
" clip-path="url(#pefe28595c2)" style="fill: none; stroke: #cccccc; stroke-linecap: round"/>
     </g>
     <g id="text_1">
      <!-- 0.0 -->
      <g style="fill: #262626" transform="translate(31.01 315.827422) scale(0.11 -0.11)">
       <defs>
        <path id="ArialMT-30" d="M 266 2259 
Q 266 3072 433 3567 
Q 600 4063 929 4331 
Q 1259 4600 1759 4600 
Q 2128 4600 2406 4451 
Q 2684 4303 2865 4023 
Q 3047 3744 3150 3342 
Q 3253 2941 3253 2259 
Q 3253 1453 3087 958 
Q 2922 463 2592 192 
Q 2263 -78 1759 -78 
Q 1097 -78 719 397 
Q 266 969 266 2259 
z
M 844 2259 
Q 844 1131 1108 757 
Q 1372 384 1759 384 
Q 2147 384 2411 759 
Q 2675 1134 2675 2259 
Q 2675 3391 2411 3762 
Q 2147 4134 1753 4134 
Q 1366 4134 1134 3806 
Q 844 3388 844 2259 
z
" transform="scale(0.015625)"/>
        <path id="ArialMT-2e" d="M 581 0 
L 581 641 
L 1222 641 
L 1222 0 
L 581 0 
z
" transform="scale(0.015625)"/>
       </defs>
       <use xlink:href="#ArialMT-30"/>
       <use xlink:href="#ArialMT-2e" x="55.615234"/>
       <use xlink:href="#ArialMT-30" x="83.398438"/>
      </g>
     </g>
    </g>
    <g id="ytick_2">
     <g id="line2d_8">
      <path d="M 55.8 282.864619 
L 431.1625 282.864619 
" clip-path="url(#pefe28595c2)" style="fill: none; stroke: #cccccc; stroke-linecap: round"/>
     </g>
     <g id="text_2">
      <!-- 2.5 -->
      <g style="fill: #262626" transform="translate(31.01 286.801416) scale(0.11 -0.11)">
       <defs>
        <path id="ArialMT-32" d="M 3222 541 
L 3222 0 
L 194 0 
Q 188 203 259 391 
Q 375 700 629 1000 
Q 884 1300 1366 1694 
Q 2113 2306 2375 2664 
Q 2638 3022 2638 3341 
Q 2638 3675 2398 3904 
Q 2159 4134 1775 4134 
Q 1369 4134 1125 3890 
Q 881 3647 878 3216 
L 300 3275 
Q 359 3922 746 4261 
Q 1134 4600 1788 4600 
Q 2447 4600 2831 4234 
Q 3216 3869 3216 3328 
Q 3216 3053 3103 2787 
Q 2991 2522 2730 2228 
Q 2469 1934 1863 1422 
Q 1356 997 1212 845 
Q 1069 694 975 541 
L 3222 541 
z
" transform="scale(0.015625)"/>
        <path id="ArialMT-35" d="M 266 1200 
L 856 1250 
Q 922 819 1161 601 
Q 1400 384 1738 384 
Q 2144 384 2425 690 
Q 2706 997 2706 1503 
Q 2706 1984 2436 2262 
Q 2166 2541 1728 2541 
Q 1456 2541 1237 2417 
Q 1019 2294 894 2097 
L 366 2166 
L 809 4519 
L 3088 4519 
L 3088 3981 
L 1259 3981 
L 1013 2750 
Q 1425 3038 1878 3038 
Q 2478 3038 2890 2622 
Q 3303 2206 3303 1553 
Q 3303 931 2941 478 
Q 2500 -78 1738 -78 
Q 1113 -78 717 272 
Q 322 622 266 1200 
z
" transform="scale(0.015625)"/>
       </defs>
       <use xlink:href="#ArialMT-32"/>
       <use xlink:href="#ArialMT-2e" x="55.615234"/>
       <use xlink:href="#ArialMT-35" x="83.398438"/>
      </g>
     </g>
    </g>
    <g id="ytick_3">
     <g id="line2d_9">
      <path d="M 55.8 253.838613 
L 431.1625 253.838613 
" clip-path="url(#pefe28595c2)" style="fill: none; stroke: #cccccc; stroke-linecap: round"/>
     </g>
     <g id="text_3">
      <!-- 5.0 -->
      <g style="fill: #262626" transform="translate(31.01 257.775409) scale(0.11 -0.11)">
       <use xlink:href="#ArialMT-35"/>
       <use xlink:href="#ArialMT-2e" x="55.615234"/>
       <use xlink:href="#ArialMT-30" x="83.398438"/>
      </g>
     </g>
    </g>
    <g id="ytick_4">
     <g id="line2d_10">
      <path d="M 55.8 224.812606 
L 431.1625 224.812606 
" clip-path="url(#pefe28595c2)" style="fill: none; stroke: #cccccc; stroke-linecap: round"/>
     </g>
     <g id="text_4">
      <!-- 7.5 -->
      <g style="fill: #262626" transform="translate(31.01 228.749403) scale(0.11 -0.11)">
       <defs>
        <path id="ArialMT-37" d="M 303 3981 
L 303 4522 
L 3269 4522 
L 3269 4084 
Q 2831 3619 2401 2847 
Q 1972 2075 1738 1259 
Q 1569 684 1522 0 
L 944 0 
Q 953 541 1156 1306 
Q 1359 2072 1739 2783 
Q 2119 3494 2547 3981 
L 303 3981 
z
" transform="scale(0.015625)"/>
       </defs>
       <use xlink:href="#ArialMT-37"/>
       <use xlink:href="#ArialMT-2e" x="55.615234"/>
       <use xlink:href="#ArialMT-35" x="83.398438"/>
      </g>
     </g>
    </g>
    <g id="ytick_5">
     <g id="line2d_11">
      <path d="M 55.8 195.7866 
L 431.1625 195.7866 
" clip-path="url(#pefe28595c2)" style="fill: none; stroke: #cccccc; stroke-linecap: round"/>
     </g>
     <g id="text_5">
      <!-- 10.0 -->
      <g style="fill: #262626" transform="translate(24.892969 199.723397) scale(0.11 -0.11)">
       <defs>
        <path id="ArialMT-31" d="M 2384 0 
L 1822 0 
L 1822 3584 
Q 1619 3391 1289 3197 
Q 959 3003 697 2906 
L 697 3450 
Q 1169 3672 1522 3987 
Q 1875 4303 2022 4600 
L 2384 4600 
L 2384 0 
z
" transform="scale(0.015625)"/>
       </defs>
       <use xlink:href="#ArialMT-31"/>
       <use xlink:href="#ArialMT-30" x="55.615234"/>
       <use xlink:href="#ArialMT-2e" x="111.230469"/>
       <use xlink:href="#ArialMT-30" x="139.013672"/>
      </g>
     </g>
    </g>
    <g id="ytick_6">
     <g id="line2d_12">
      <path d="M 55.8 166.760594 
L 431.1625 166.760594 
" clip-path="url(#pefe28595c2)" style="fill: none; stroke: #cccccc; stroke-linecap: round"/>
     </g>
     <g id="text_6">
      <!-- 12.5 -->
      <g style="fill: #262626" transform="translate(24.892969 170.697391) scale(0.11 -0.11)">
       <use xlink:href="#ArialMT-31"/>
       <use xlink:href="#ArialMT-32" x="55.615234"/>
       <use xlink:href="#ArialMT-2e" x="111.230469"/>
       <use xlink:href="#ArialMT-35" x="139.013672"/>
      </g>
     </g>
    </g>
    <g id="ytick_7">
     <g id="line2d_13">
      <path d="M 55.8 137.734588 
L 431.1625 137.734588 
" clip-path="url(#pefe28595c2)" style="fill: none; stroke: #cccccc; stroke-linecap: round"/>
     </g>
     <g id="text_7">
      <!-- 15.0 -->
      <g style="fill: #262626" transform="translate(24.892969 141.671384) scale(0.11 -0.11)">
       <use xlink:href="#ArialMT-31"/>
       <use xlink:href="#ArialMT-35" x="55.615234"/>
       <use xlink:href="#ArialMT-2e" x="111.230469"/>
       <use xlink:href="#ArialMT-30" x="139.013672"/>
      </g>
     </g>
    </g>
    <g id="ytick_8">
     <g id="line2d_14">
      <path d="M 55.8 108.708581 
L 431.1625 108.708581 
" clip-path="url(#pefe28595c2)" style="fill: none; stroke: #cccccc; stroke-linecap: round"/>
     </g>
     <g id="text_8">
      <!-- 17.5 -->
      <g style="fill: #262626" transform="translate(24.892969 112.645378) scale(0.11 -0.11)">
       <use xlink:href="#ArialMT-31"/>
       <use xlink:href="#ArialMT-37" x="55.615234"/>
       <use xlink:href="#ArialMT-2e" x="111.230469"/>
       <use xlink:href="#ArialMT-35" x="139.013672"/>
      </g>
     </g>
    </g>
    <g id="ytick_9">
     <g id="line2d_15">
      <path d="M 55.8 79.682575 
L 431.1625 79.682575 
" clip-path="url(#pefe28595c2)" style="fill: none; stroke: #cccccc; stroke-linecap: round"/>
     </g>
     <g id="text_9">
      <!-- 20.0 -->
      <g style="fill: #262626" transform="translate(24.892969 83.619372) scale(0.11 -0.11)">
       <use xlink:href="#ArialMT-32"/>
       <use xlink:href="#ArialMT-30" x="55.615234"/>
       <use xlink:href="#ArialMT-2e" x="111.230469"/>
       <use xlink:href="#ArialMT-30" x="139.013672"/>
      </g>
     </g>
    </g>
    <g id="text_10">
     <!-- Count -->
     <g style="fill: #262626" transform="translate(18.507969 199.895625) rotate(-90) scale(0.12 -0.12)">
      <defs>
       <path id="ArialMT-43" d="M 3763 1606 
L 4369 1453 
Q 4178 706 3683 314 
Q 3188 -78 2472 -78 
Q 1731 -78 1267 223 
Q 803 525 561 1097 
Q 319 1669 319 2325 
Q 319 3041 592 3573 
Q 866 4106 1370 4382 
Q 1875 4659 2481 4659 
Q 3169 4659 3637 4309 
Q 4106 3959 4291 3325 
L 3694 3184 
Q 3534 3684 3231 3912 
Q 2928 4141 2469 4141 
Q 1941 4141 1586 3887 
Q 1231 3634 1087 3207 
Q 944 2781 944 2328 
Q 944 1744 1114 1308 
Q 1284 872 1643 656 
Q 2003 441 2422 441 
Q 2931 441 3284 734 
Q 3638 1028 3763 1606 
z
" transform="scale(0.015625)"/>
       <path id="ArialMT-6f" d="M 213 1659 
Q 213 2581 725 3025 
Q 1153 3394 1769 3394 
Q 2453 3394 2887 2945 
Q 3322 2497 3322 1706 
Q 3322 1066 3130 698 
Q 2938 331 2570 128 
Q 2203 -75 1769 -75 
Q 1072 -75 642 372 
Q 213 819 213 1659 
z
M 791 1659 
Q 791 1022 1069 705 
Q 1347 388 1769 388 
Q 2188 388 2466 706 
Q 2744 1025 2744 1678 
Q 2744 2294 2464 2611 
Q 2184 2928 1769 2928 
Q 1347 2928 1069 2612 
Q 791 2297 791 1659 
z
" transform="scale(0.015625)"/>
       <path id="ArialMT-75" d="M 2597 0 
L 2597 488 
Q 2209 -75 1544 -75 
Q 1250 -75 995 37 
Q 741 150 617 320 
Q 494 491 444 738 
Q 409 903 409 1263 
L 409 3319 
L 972 3319 
L 972 1478 
Q 972 1038 1006 884 
Q 1059 663 1231 536 
Q 1403 409 1656 409 
Q 1909 409 2131 539 
Q 2353 669 2445 892 
Q 2538 1116 2538 1541 
L 2538 3319 
L 3100 3319 
L 3100 0 
L 2597 0 
z
" transform="scale(0.015625)"/>
       <path id="ArialMT-6e" d="M 422 0 
L 422 3319 
L 928 3319 
L 928 2847 
Q 1294 3394 1984 3394 
Q 2284 3394 2536 3286 
Q 2788 3178 2913 3003 
Q 3038 2828 3088 2588 
Q 3119 2431 3119 2041 
L 3119 0 
L 2556 0 
L 2556 2019 
Q 2556 2363 2490 2533 
Q 2425 2703 2258 2804 
Q 2091 2906 1866 2906 
Q 1506 2906 1245 2678 
Q 984 2450 984 1813 
L 984 0 
L 422 0 
z
" transform="scale(0.015625)"/>
       <path id="ArialMT-74" d="M 1650 503 
L 1731 6 
Q 1494 -44 1306 -44 
Q 1000 -44 831 53 
Q 663 150 594 308 
Q 525 466 525 972 
L 525 2881 
L 113 2881 
L 113 3319 
L 525 3319 
L 525 4141 
L 1084 4478 
L 1084 3319 
L 1650 3319 
L 1650 2881 
L 1084 2881 
L 1084 941 
Q 1084 700 1114 631 
Q 1144 563 1211 522 
Q 1278 481 1403 481 
Q 1497 481 1650 503 
z
" transform="scale(0.015625)"/>
      </defs>
      <use xlink:href="#ArialMT-43"/>
      <use xlink:href="#ArialMT-6f" x="72.216797"/>
      <use xlink:href="#ArialMT-75" x="127.832031"/>
      <use xlink:href="#ArialMT-6e" x="183.447266"/>
      <use xlink:href="#ArialMT-74" x="239.0625"/>
     </g>
    </g>
   </g>
   <g id="patch_3">
    <path d="M 225.836186 311.890625 
L 248.159826 311.890625 
L 248.159826 265.449015 
L 225.836186 265.449015 
z
" clip-path="url(#pefe28595c2)" style="fill: #4c72b0; fill-opacity: 0.5; stroke: #000000; stroke-linejoin: miter"/>
   </g>
   <g id="patch_4">
    <path d="M 248.159826 311.890625 
L 270.483466 311.890625 
L 270.483466 172.565795 
L 248.159826 172.565795 
z
" clip-path="url(#pefe28595c2)" style="fill: #4c72b0; fill-opacity: 0.5; stroke: #000000; stroke-linejoin: miter"/>
   </g>
   <g id="patch_5">
    <path d="M 270.483466 311.890625 
L 292.807106 311.890625 
L 292.807106 137.734588 
L 270.483466 137.734588 
z
" clip-path="url(#pefe28595c2)" style="fill: #4c72b0; fill-opacity: 0.5; stroke: #000000; stroke-linejoin: miter"/>
   </g>
   <g id="patch_6">
    <path d="M 292.807106 311.890625 
L 315.130745 311.890625 
L 315.130745 184.176198 
L 292.807106 184.176198 
z
" clip-path="url(#pefe28595c2)" style="fill: #4c72b0; fill-opacity: 0.5; stroke: #000000; stroke-linejoin: miter"/>
   </g>
   <g id="patch_7">
    <path d="M 315.130745 311.890625 
L 337.454385 311.890625 
L 337.454385 79.682575 
L 315.130745 79.682575 
z
" clip-path="url(#pefe28595c2)" style="fill: #4c72b0; fill-opacity: 0.5; stroke: #000000; stroke-linejoin: miter"/>
   </g>
   <g id="patch_8">
    <path d="M 337.454385 311.890625 
L 359.778025 311.890625 
L 359.778025 172.565795 
L 337.454385 172.565795 
z
" clip-path="url(#pefe28595c2)" style="fill: #4c72b0; fill-opacity: 0.5; stroke: #000000; stroke-linejoin: miter"/>
   </g>
   <g id="patch_9">
    <path d="M 359.778025 311.890625 
L 382.101664 311.890625 
L 382.101664 68.072173 
L 359.778025 68.072173 
z
" clip-path="url(#pefe28595c2)" style="fill: #4c72b0; fill-opacity: 0.5; stroke: #000000; stroke-linejoin: miter"/>
   </g>
   <g id="patch_10">
    <path d="M 382.101664 311.890625 
L 404.425304 311.890625 
L 404.425304 253.838613 
L 382.101664 253.838613 
z
" clip-path="url(#pefe28595c2)" style="fill: #4c72b0; fill-opacity: 0.5; stroke: #000000; stroke-linejoin: miter"/>
   </g>
   <g id="line2d_16">
    <path d="M 225.836186 286.23041 
L 228.528485 281.665153 
L 231.220783 276.508774 
L 233.913081 270.707264 
L 236.605379 264.212457 
L 239.297678 256.989948 
L 241.989976 249.02844 
L 244.682274 240.349477 
L 247.374572 231.016233 
L 250.964303 217.753468 
L 261.733497 176.888334 
L 264.425795 167.795697 
L 266.22066 162.270766 
L 268.015526 157.257472 
L 269.810391 152.81504 
L 271.605257 148.990317 
L 273.400122 145.816024 
L 275.194988 143.309501 
L 276.989853 141.471985 
L 277.887286 140.800039 
L 278.784719 140.288455 
L 279.682152 139.932881 
L 280.579584 139.728028 
L 281.477017 139.667711 
L 282.37445 139.744897 
L 283.271883 139.951766 
L 285.066748 140.719674 
L 286.861614 141.895521 
L 288.656479 143.395243 
L 291.348777 146.055406 
L 297.630807 152.585528 
L 299.425672 154.155506 
L 301.220538 155.46562 
L 303.015403 156.464624 
L 304.810269 157.115162 
L 306.605134 157.394586 
L 308.4 157.295182 
L 310.194865 156.823788 
L 311.989731 156.000823 
L 313.784596 154.858739 
L 315.579462 153.439994 
L 318.27176 150.903952 
L 321.861491 147.053551 
L 328.14352 140.212223 
L 330.835818 137.588805 
L 333.528117 135.247723 
L 336.220415 133.187438 
L 339.810146 130.797585 
L 344.29731 128.14955 
L 350.579339 124.678018 
L 353.271637 123.342079 
L 355.963936 122.27316 
L 357.758801 121.809456 
L 359.553667 121.629872 
L 361.348532 121.814299 
L 362.245965 122.068639 
L 363.143398 122.444603 
L 364.04083 122.952026 
L 364.938263 123.60032 
L 365.835696 124.398338 
L 366.733129 125.354246 
L 368.527994 127.768225 
L 370.32286 130.889386 
L 372.117725 134.747076 
L 373.912591 139.350682 
L 375.707456 144.688468 
L 377.502322 150.727483 
L 379.297187 157.414533 
L 381.989485 168.49947 
L 384.681784 180.574977 
L 389.168947 201.929894 
L 394.553544 227.484973 
L 398.143275 243.285106 
L 400.835573 254.087094 
L 403.527871 263.830753 
L 404.425304 266.829558 
L 404.425304 266.829558 
" clip-path="url(#pefe28595c2)" style="fill: none; stroke: #4c72b0; stroke-width: 1.5; stroke-linecap: round"/>
   </g>
   <g id="patch_11">
    <path d="M 55.8 311.890625 
L 55.8 55.88125 
" style="fill: none; stroke: #cccccc; stroke-width: 1.25; stroke-linejoin: miter; stroke-linecap: square"/>
   </g>
   <g id="patch_12">
    <path d="M 431.1625 311.890625 
L 431.1625 55.88125 
" style="fill: none; stroke: #cccccc; stroke-width: 1.25; stroke-linejoin: miter; stroke-linecap: square"/>
   </g>
   <g id="patch_13">
    <path d="M 55.8 311.890625 
L 431.1625 311.890625 
" style="fill: none; stroke: #cccccc; stroke-width: 1.25; stroke-linejoin: miter; stroke-linecap: square"/>
   </g>
   <g id="patch_14">
    <path d="M 55.8 55.88125 
L 431.1625 55.88125 
" style="fill: none; stroke: #cccccc; stroke-width: 1.25; stroke-linejoin: miter; stroke-linecap: square"/>
   </g>
   <g id="text_11">
    <!-- OLS ($\mu = 0.5112, \sigma = 0.0721$) -->
    <g style="fill: #262626" transform="translate(144.15125 49.88125) scale(0.14 -0.14)">
     <defs>
      <path id="ArialMT-4f" d="M 309 2231 
Q 309 3372 921 4017 
Q 1534 4663 2503 4663 
Q 3138 4663 3647 4359 
Q 4156 4056 4423 3514 
Q 4691 2972 4691 2284 
Q 4691 1588 4409 1038 
Q 4128 488 3612 205 
Q 3097 -78 2500 -78 
Q 1853 -78 1343 234 
Q 834 547 571 1087 
Q 309 1628 309 2231 
z
M 934 2222 
Q 934 1394 1379 917 
Q 1825 441 2497 441 
Q 3181 441 3623 922 
Q 4066 1403 4066 2288 
Q 4066 2847 3877 3264 
Q 3688 3681 3323 3911 
Q 2959 4141 2506 4141 
Q 1863 4141 1398 3698 
Q 934 3256 934 2222 
z
" transform="scale(0.015625)"/>
      <path id="ArialMT-4c" d="M 469 0 
L 469 4581 
L 1075 4581 
L 1075 541 
L 3331 541 
L 3331 0 
L 469 0 
z
" transform="scale(0.015625)"/>
      <path id="ArialMT-53" d="M 288 1472 
L 859 1522 
Q 900 1178 1048 958 
Q 1197 738 1509 602 
Q 1822 466 2213 466 
Q 2559 466 2825 569 
Q 3091 672 3220 851 
Q 3350 1031 3350 1244 
Q 3350 1459 3225 1620 
Q 3100 1781 2813 1891 
Q 2628 1963 1997 2114 
Q 1366 2266 1113 2400 
Q 784 2572 623 2826 
Q 463 3081 463 3397 
Q 463 3744 659 4045 
Q 856 4347 1234 4503 
Q 1613 4659 2075 4659 
Q 2584 4659 2973 4495 
Q 3363 4331 3572 4012 
Q 3781 3694 3797 3291 
L 3216 3247 
Q 3169 3681 2898 3903 
Q 2628 4125 2100 4125 
Q 1550 4125 1298 3923 
Q 1047 3722 1047 3438 
Q 1047 3191 1225 3031 
Q 1400 2872 2139 2705 
Q 2878 2538 3153 2413 
Q 3553 2228 3743 1945 
Q 3934 1663 3934 1294 
Q 3934 928 3725 604 
Q 3516 281 3123 101 
Q 2731 -78 2241 -78 
Q 1619 -78 1198 103 
Q 778 284 539 648 
Q 300 1013 288 1472 
z
" transform="scale(0.015625)"/>
      <path id="ArialMT-20" transform="scale(0.015625)"/>
      <path id="ArialMT-28" d="M 1497 -1347 
Q 1031 -759 709 28 
Q 388 816 388 1659 
Q 388 2403 628 3084 
Q 909 3875 1497 4659 
L 1900 4659 
Q 1522 4009 1400 3731 
Q 1209 3300 1100 2831 
Q 966 2247 966 1656 
Q 966 153 1900 -1347 
L 1497 -1347 
z
" transform="scale(0.015625)"/>
      <path id="DejaVuSans-Oblique-3bc" d="M -84 -1331 
L 856 3500 
L 1434 3500 
L 1009 1322 
Q 997 1256 987 1175 
Q 978 1094 978 1013 
Q 978 722 1161 565 
Q 1344 409 1684 409 
Q 2147 409 2431 671 
Q 2716 934 2816 1459 
L 3213 3500 
L 3788 3500 
L 3266 809 
Q 3253 750 3248 706 
Q 3244 663 3244 628 
Q 3244 531 3283 486 
Q 3322 441 3406 441 
Q 3438 441 3492 456 
Q 3547 472 3647 513 
L 3559 50 
Q 3422 -19 3297 -55 
Q 3172 -91 3053 -91 
Q 2847 -91 2730 40 
Q 2613 172 2613 403 
Q 2438 153 2195 31 
Q 1953 -91 1625 -91 
Q 1334 -91 1117 43 
Q 900 178 831 397 
L 494 -1331 
L -84 -1331 
z
" transform="scale(0.015625)"/>
      <path id="DejaVuSans-3d" d="M 678 2906 
L 4684 2906 
L 4684 2381 
L 678 2381 
L 678 2906 
z
M 678 1631 
L 4684 1631 
L 4684 1100 
L 678 1100 
L 678 1631 
z
" transform="scale(0.015625)"/>
      <path id="DejaVuSans-30" d="M 2034 4250 
Q 1547 4250 1301 3770 
Q 1056 3291 1056 2328 
Q 1056 1369 1301 889 
Q 1547 409 2034 409 
Q 2525 409 2770 889 
Q 3016 1369 3016 2328 
Q 3016 3291 2770 3770 
Q 2525 4250 2034 4250 
z
M 2034 4750 
Q 2819 4750 3233 4129 
Q 3647 3509 3647 2328 
Q 3647 1150 3233 529 
Q 2819 -91 2034 -91 
Q 1250 -91 836 529 
Q 422 1150 422 2328 
Q 422 3509 836 4129 
Q 1250 4750 2034 4750 
z
" transform="scale(0.015625)"/>
      <path id="DejaVuSans-2e" d="M 684 794 
L 1344 794 
L 1344 0 
L 684 0 
L 684 794 
z
" transform="scale(0.015625)"/>
      <path id="DejaVuSans-35" d="M 691 4666 
L 3169 4666 
L 3169 4134 
L 1269 4134 
L 1269 2991 
Q 1406 3038 1543 3061 
Q 1681 3084 1819 3084 
Q 2600 3084 3056 2656 
Q 3513 2228 3513 1497 
Q 3513 744 3044 326 
Q 2575 -91 1722 -91 
Q 1428 -91 1123 -41 
Q 819 9 494 109 
L 494 744 
Q 775 591 1075 516 
Q 1375 441 1709 441 
Q 2250 441 2565 725 
Q 2881 1009 2881 1497 
Q 2881 1984 2565 2268 
Q 2250 2553 1709 2553 
Q 1456 2553 1204 2497 
Q 953 2441 691 2322 
L 691 4666 
z
" transform="scale(0.015625)"/>
      <path id="DejaVuSans-31" d="M 794 531 
L 1825 531 
L 1825 4091 
L 703 3866 
L 703 4441 
L 1819 4666 
L 2450 4666 
L 2450 531 
L 3481 531 
L 3481 0 
L 794 0 
L 794 531 
z
" transform="scale(0.015625)"/>
      <path id="DejaVuSans-32" d="M 1228 531 
L 3431 531 
L 3431 0 
L 469 0 
L 469 531 
Q 828 903 1448 1529 
Q 2069 2156 2228 2338 
Q 2531 2678 2651 2914 
Q 2772 3150 2772 3378 
Q 2772 3750 2511 3984 
Q 2250 4219 1831 4219 
Q 1534 4219 1204 4116 
Q 875 4013 500 3803 
L 500 4441 
Q 881 4594 1212 4672 
Q 1544 4750 1819 4750 
Q 2544 4750 2975 4387 
Q 3406 4025 3406 3419 
Q 3406 3131 3298 2873 
Q 3191 2616 2906 2266 
Q 2828 2175 2409 1742 
Q 1991 1309 1228 531 
z
" transform="scale(0.015625)"/>
      <path id="DejaVuSans-2c" d="M 750 794 
L 1409 794 
L 1409 256 
L 897 -744 
L 494 -744 
L 750 256 
L 750 794 
z
" transform="scale(0.015625)"/>
      <path id="DejaVuSans-Oblique-3c3" d="M 2219 3044 
Q 1744 3044 1422 2700 
Q 1081 2341 969 1747 
Q 844 1119 1044 756 
Q 1241 397 1706 397 
Q 2166 397 2503 759 
Q 2844 1122 2966 1747 
Q 3075 2319 2881 2700 
Q 2700 3044 2219 3044 
z
M 2309 3503 
L 4219 3500 
L 4106 2925 
L 3463 2925 
Q 3706 2438 3575 1747 
Q 3406 888 2884 400 
Q 2359 -91 1609 -91 
Q 856 -91 525 400 
Q 194 888 363 1747 
Q 528 2609 1050 3097 
Q 1484 3503 2309 3503 
z
" transform="scale(0.015625)"/>
      <path id="DejaVuSans-37" d="M 525 4666 
L 3525 4666 
L 3525 4397 
L 1831 0 
L 1172 0 
L 2766 4134 
L 525 4134 
L 525 4666 
z
" transform="scale(0.015625)"/>
      <path id="ArialMT-29" d="M 791 -1347 
L 388 -1347 
Q 1322 153 1322 1656 
Q 1322 2244 1188 2822 
Q 1081 3291 891 3722 
Q 769 4003 388 4659 
L 791 4659 
Q 1378 3875 1659 3084 
Q 1900 2403 1900 1659 
Q 1900 816 1576 28 
Q 1253 -759 791 -1347 
z
" transform="scale(0.015625)"/>
     </defs>
     <use xlink:href="#ArialMT-4f" transform="translate(0 0.78125)"/>
     <use xlink:href="#ArialMT-4c" transform="translate(77.783203 0.78125)"/>
     <use xlink:href="#ArialMT-53" transform="translate(133.398438 0.78125)"/>
     <use xlink:href="#ArialMT-20" transform="translate(200.097656 0.78125)"/>
     <use xlink:href="#ArialMT-28" transform="translate(227.880859 0.78125)"/>
     <use xlink:href="#DejaVuSans-Oblique-3bc" transform="translate(261.181641 0.78125)"/>
     <use xlink:href="#DejaVuSans-3d" transform="translate(344.287109 0.78125)"/>
     <use xlink:href="#DejaVuSans-30" transform="translate(447.558594 0.78125)"/>
     <use xlink:href="#DejaVuSans-2e" transform="translate(511.181641 0.78125)"/>
     <use xlink:href="#DejaVuSans-35" transform="translate(542.96875 0.78125)"/>
     <use xlink:href="#DejaVuSans-31" transform="translate(606.591797 0.78125)"/>
     <use xlink:href="#DejaVuSans-31" transform="translate(670.214844 0.78125)"/>
     <use xlink:href="#DejaVuSans-32" transform="translate(733.837891 0.78125)"/>
     <use xlink:href="#DejaVuSans-2c" transform="translate(797.460938 0.78125)"/>
     <use xlink:href="#DejaVuSans-Oblique-3c3" transform="translate(848.730469 0.78125)"/>
     <use xlink:href="#DejaVuSans-3d" transform="translate(931.591797 0.78125)"/>
     <use xlink:href="#DejaVuSans-30" transform="translate(1034.863281 0.78125)"/>
     <use xlink:href="#DejaVuSans-2e" transform="translate(1098.486328 0.78125)"/>
     <use xlink:href="#DejaVuSans-30" transform="translate(1130.273438 0.78125)"/>
     <use xlink:href="#DejaVuSans-37" transform="translate(1193.896484 0.78125)"/>
     <use xlink:href="#DejaVuSans-32" transform="translate(1257.519531 0.78125)"/>
     <use xlink:href="#DejaVuSans-31" transform="translate(1321.142578 0.78125)"/>
     <use xlink:href="#ArialMT-29" transform="translate(1384.765625 0.78125)"/>
    </g>
   </g>
  </g>
  <g id="axes_2">
   <g id="patch_15">
    <path d="M 477.8375 311.890625 
L 853.2 311.890625 
L 853.2 55.88125 
L 477.8375 55.88125 
z
" style="fill: #ffffff"/>
   </g>
   <g id="matplotlib.axis_3">
    <g id="xtick_7">
     <g id="line2d_17">
      <path d="M 495.73007 311.890625 
L 495.73007 55.88125 
" clip-path="url(#p9221fe7d80)" style="fill: none; stroke: #cccccc; stroke-linecap: round"/>
     </g>
    </g>
    <g id="xtick_8">
     <g id="line2d_18">
      <path d="M 556.0249 311.890625 
L 556.0249 55.88125 
" clip-path="url(#p9221fe7d80)" style="fill: none; stroke: #cccccc; stroke-linecap: round"/>
     </g>
    </g>
    <g id="xtick_9">
     <g id="line2d_19">
      <path d="M 616.31973 311.890625 
L 616.31973 55.88125 
" clip-path="url(#p9221fe7d80)" style="fill: none; stroke: #cccccc; stroke-linecap: round"/>
     </g>
    </g>
    <g id="xtick_10">
     <g id="line2d_20">
      <path d="M 676.614559 311.890625 
L 676.614559 55.88125 
" clip-path="url(#p9221fe7d80)" style="fill: none; stroke: #cccccc; stroke-linecap: round"/>
     </g>
    </g>
    <g id="xtick_11">
     <g id="line2d_21">
      <path d="M 736.909389 311.890625 
L 736.909389 55.88125 
" clip-path="url(#p9221fe7d80)" style="fill: none; stroke: #cccccc; stroke-linecap: round"/>
     </g>
    </g>
    <g id="xtick_12">
     <g id="line2d_22">
      <path d="M 797.204219 311.890625 
L 797.204219 55.88125 
" clip-path="url(#p9221fe7d80)" style="fill: none; stroke: #cccccc; stroke-linecap: round"/>
     </g>
    </g>
   </g>
   <g id="matplotlib.axis_4">
    <g id="ytick_10">
     <g id="line2d_23">
      <path d="M 477.8375 311.890625 
L 853.2 311.890625 
" clip-path="url(#p9221fe7d80)" style="fill: none; stroke: #cccccc; stroke-linecap: round"/>
     </g>
     <g id="text_12">
      <!-- 0 -->
      <g style="fill: #262626" transform="translate(462.220469 315.827422) scale(0.11 -0.11)">
       <use xlink:href="#ArialMT-30"/>
      </g>
     </g>
    </g>
    <g id="ytick_11">
     <g id="line2d_24">
      <path d="M 477.8375 256.47734 
L 853.2 256.47734 
" clip-path="url(#p9221fe7d80)" style="fill: none; stroke: #cccccc; stroke-linecap: round"/>
     </g>
     <g id="text_13">
      <!-- 5 -->
      <g style="fill: #262626" transform="translate(462.220469 260.414137) scale(0.11 -0.11)">
       <use xlink:href="#ArialMT-35"/>
      </g>
     </g>
    </g>
    <g id="ytick_12">
     <g id="line2d_25">
      <path d="M 477.8375 201.064056 
L 853.2 201.064056 
" clip-path="url(#p9221fe7d80)" style="fill: none; stroke: #cccccc; stroke-linecap: round"/>
     </g>
     <g id="text_14">
      <!-- 10 -->
      <g style="fill: #262626" transform="translate(456.103438 205.000853) scale(0.11 -0.11)">
       <use xlink:href="#ArialMT-31"/>
       <use xlink:href="#ArialMT-30" x="55.615234"/>
      </g>
     </g>
    </g>
    <g id="ytick_13">
     <g id="line2d_26">
      <path d="M 477.8375 145.650771 
L 853.2 145.650771 
" clip-path="url(#p9221fe7d80)" style="fill: none; stroke: #cccccc; stroke-linecap: round"/>
     </g>
     <g id="text_15">
      <!-- 15 -->
      <g style="fill: #262626" transform="translate(456.103438 149.587568) scale(0.11 -0.11)">
       <use xlink:href="#ArialMT-31"/>
       <use xlink:href="#ArialMT-35" x="55.615234"/>
      </g>
     </g>
    </g>
    <g id="ytick_14">
     <g id="line2d_27">
      <path d="M 477.8375 90.237486 
L 853.2 90.237486 
" clip-path="url(#p9221fe7d80)" style="fill: none; stroke: #cccccc; stroke-linecap: round"/>
     </g>
     <g id="text_16">
      <!-- 20 -->
      <g style="fill: #262626" transform="translate(456.103438 94.174283) scale(0.11 -0.11)">
       <use xlink:href="#ArialMT-32"/>
       <use xlink:href="#ArialMT-30" x="55.615234"/>
      </g>
     </g>
    </g>
    <g id="text_17">
     <!-- Count -->
     <g style="fill: #262626" transform="translate(449.718438 199.895625) rotate(-90) scale(0.12 -0.12)">
      <use xlink:href="#ArialMT-43"/>
      <use xlink:href="#ArialMT-6f" x="72.216797"/>
      <use xlink:href="#ArialMT-75" x="127.832031"/>
      <use xlink:href="#ArialMT-6e" x="183.447266"/>
      <use xlink:href="#ArialMT-74" x="239.0625"/>
     </g>
    </g>
   </g>
   <g id="patch_16">
    <path d="M 696.481039 311.890625 
L 713.938168 311.890625 
L 713.938168 234.312027 
L 696.481039 234.312027 
z
" clip-path="url(#p9221fe7d80)" style="fill: #4c72b0; fill-opacity: 0.5; stroke: #000000; stroke-linejoin: miter"/>
   </g>
   <g id="patch_17">
    <path d="M 713.938168 311.890625 
L 731.395296 311.890625 
L 731.395296 234.312027 
L 713.938168 234.312027 
z
" clip-path="url(#p9221fe7d80)" style="fill: #4c72b0; fill-opacity: 0.5; stroke: #000000; stroke-linejoin: miter"/>
   </g>
   <g id="patch_18">
    <path d="M 731.395296 311.890625 
L 748.852425 311.890625 
L 748.852425 189.981399 
L 731.395296 189.981399 
z
" clip-path="url(#p9221fe7d80)" style="fill: #4c72b0; fill-opacity: 0.5; stroke: #000000; stroke-linejoin: miter"/>
   </g>
   <g id="patch_19">
    <path d="M 748.852425 311.890625 
L 766.309554 311.890625 
L 766.309554 90.237486 
L 748.852425 90.237486 
z
" clip-path="url(#p9221fe7d80)" style="fill: #4c72b0; fill-opacity: 0.5; stroke: #000000; stroke-linejoin: miter"/>
   </g>
   <g id="patch_20">
    <path d="M 766.309554 311.890625 
L 783.766682 311.890625 
L 783.766682 134.568114 
L 766.309554 134.568114 
z
" clip-path="url(#p9221fe7d80)" style="fill: #4c72b0; fill-opacity: 0.5; stroke: #000000; stroke-linejoin: miter"/>
   </g>
   <g id="patch_21">
    <path d="M 783.766682 311.890625 
L 801.223811 311.890625 
L 801.223811 68.072173 
L 783.766682 68.072173 
z
" clip-path="url(#p9221fe7d80)" style="fill: #4c72b0; fill-opacity: 0.5; stroke: #000000; stroke-linejoin: miter"/>
   </g>
   <g id="patch_22">
    <path d="M 801.223811 311.890625 
L 818.68094 311.890625 
L 818.68094 167.816085 
L 801.223811 167.816085 
z
" clip-path="url(#p9221fe7d80)" style="fill: #4c72b0; fill-opacity: 0.5; stroke: #000000; stroke-linejoin: miter"/>
   </g>
   <g id="patch_23">
    <path d="M 818.68094 311.890625 
L 836.138068 311.890625 
L 836.138068 267.559997 
L 818.68094 267.559997 
z
" clip-path="url(#p9221fe7d80)" style="fill: #4c72b0; fill-opacity: 0.5; stroke: #000000; stroke-linejoin: miter"/>
   </g>
   <g id="line2d_28">
    <path d="M 696.481039 274.120826 
L 705.604362 251.340418 
L 708.411539 245.029571 
L 711.218715 239.270471 
L 714.025892 234.044315 
L 717.534862 228.089307 
L 727.35998 211.931155 
L 730.167157 206.722669 
L 732.974333 201.026916 
L 735.78151 194.749385 
L 738.588686 187.797764 
L 741.395862 180.093882 
L 744.203039 171.607939 
L 747.010215 162.404911 
L 751.22098 147.730024 
L 755.431745 133.162528 
L 758.238921 124.301734 
L 760.344304 118.414887 
L 762.449686 113.319105 
L 763.853274 110.391752 
L 765.256862 107.840795 
L 766.660451 105.65136 
L 768.064039 103.796929 
L 769.467627 102.242246 
L 770.871215 100.947026 
L 772.274804 99.870167 
L 774.380186 98.584115 
L 776.485568 97.615708 
L 778.590951 96.935895 
L 779.994539 96.661858 
L 781.398127 96.565124 
L 782.801715 96.688259 
L 784.205304 97.082147 
L 785.608892 97.801747 
L 787.01248 98.901421 
L 788.416068 100.430287 
L 789.819656 102.428042 
L 791.223245 104.921663 
L 792.626833 107.923283 
L 794.030421 111.429402 
L 795.434009 115.421481 
L 797.539392 122.248396 
L 799.644774 129.947593 
L 802.451951 141.271409 
L 805.960921 156.581946 
L 810.87348 179.212975 
L 825.611156 248.103052 
L 828.418333 259.638275 
L 830.523715 267.527634 
L 832.629098 274.672033 
L 834.73448 281.026531 
L 836.138068 284.818144 
L 836.138068 284.818144 
" clip-path="url(#p9221fe7d80)" style="fill: none; stroke: #4c72b0; stroke-width: 1.5; stroke-linecap: round"/>
   </g>
   <g id="patch_24">
    <path d="M 477.8375 311.890625 
L 477.8375 55.88125 
" style="fill: none; stroke: #cccccc; stroke-width: 1.25; stroke-linejoin: miter; stroke-linecap: square"/>
   </g>
   <g id="patch_25">
    <path d="M 853.2 311.890625 
L 853.2 55.88125 
" style="fill: none; stroke: #cccccc; stroke-width: 1.25; stroke-linejoin: miter; stroke-linecap: square"/>
   </g>
   <g id="patch_26">
    <path d="M 477.8375 311.890625 
L 853.2 311.890625 
" style="fill: none; stroke: #cccccc; stroke-width: 1.25; stroke-linejoin: miter; stroke-linecap: square"/>
   </g>
   <g id="patch_27">
    <path d="M 477.8375 55.88125 
L 853.2 55.88125 
" style="fill: none; stroke: #cccccc; stroke-width: 1.25; stroke-linejoin: miter; stroke-linecap: square"/>
   </g>
   <g id="text_18">
    <!-- LAD ($\mu = 0.5537, \sigma = 0.0531$) -->
    <g style="fill: #262626" transform="translate(566.60875 49.88125) scale(0.14 -0.14)">
     <defs>
      <path id="ArialMT-41" d="M -9 0 
L 1750 4581 
L 2403 4581 
L 4278 0 
L 3588 0 
L 3053 1388 
L 1138 1388 
L 634 0 
L -9 0 
z
M 1313 1881 
L 2866 1881 
L 2388 3150 
Q 2169 3728 2063 4100 
Q 1975 3659 1816 3225 
L 1313 1881 
z
" transform="scale(0.015625)"/>
      <path id="ArialMT-44" d="M 494 0 
L 494 4581 
L 2072 4581 
Q 2606 4581 2888 4516 
Q 3281 4425 3559 4188 
Q 3922 3881 4101 3404 
Q 4281 2928 4281 2316 
Q 4281 1794 4159 1391 
Q 4038 988 3847 723 
Q 3656 459 3429 307 
Q 3203 156 2883 78 
Q 2563 0 2147 0 
L 494 0 
z
M 1100 541 
L 2078 541 
Q 2531 541 2789 625 
Q 3047 709 3200 863 
Q 3416 1078 3536 1442 
Q 3656 1806 3656 2325 
Q 3656 3044 3420 3430 
Q 3184 3816 2847 3947 
Q 2603 4041 2063 4041 
L 1100 4041 
L 1100 541 
z
" transform="scale(0.015625)"/>
      <path id="DejaVuSans-33" d="M 2597 2516 
Q 3050 2419 3304 2112 
Q 3559 1806 3559 1356 
Q 3559 666 3084 287 
Q 2609 -91 1734 -91 
Q 1441 -91 1130 -33 
Q 819 25 488 141 
L 488 750 
Q 750 597 1062 519 
Q 1375 441 1716 441 
Q 2309 441 2620 675 
Q 2931 909 2931 1356 
Q 2931 1769 2642 2001 
Q 2353 2234 1838 2234 
L 1294 2234 
L 1294 2753 
L 1863 2753 
Q 2328 2753 2575 2939 
Q 2822 3125 2822 3475 
Q 2822 3834 2567 4026 
Q 2313 4219 1838 4219 
Q 1578 4219 1281 4162 
Q 984 4106 628 3988 
L 628 4550 
Q 988 4650 1302 4700 
Q 1616 4750 1894 4750 
Q 2613 4750 3031 4423 
Q 3450 4097 3450 3541 
Q 3450 3153 3228 2886 
Q 3006 2619 2597 2516 
z
" transform="scale(0.015625)"/>
     </defs>
     <use xlink:href="#ArialMT-4c" transform="translate(0 0.78125)"/>
     <use xlink:href="#ArialMT-41" transform="translate(55.615234 0.78125)"/>
     <use xlink:href="#ArialMT-44" transform="translate(122.314453 0.78125)"/>
     <use xlink:href="#ArialMT-20" transform="translate(194.53125 0.78125)"/>
     <use xlink:href="#ArialMT-28" transform="translate(222.314453 0.78125)"/>
     <use xlink:href="#DejaVuSans-Oblique-3bc" transform="translate(255.615234 0.78125)"/>
     <use xlink:href="#DejaVuSans-3d" transform="translate(338.720703 0.78125)"/>
     <use xlink:href="#DejaVuSans-30" transform="translate(441.992188 0.78125)"/>
     <use xlink:href="#DejaVuSans-2e" transform="translate(505.615234 0.78125)"/>
     <use xlink:href="#DejaVuSans-35" transform="translate(537.402344 0.78125)"/>
     <use xlink:href="#DejaVuSans-35" transform="translate(601.025391 0.78125)"/>
     <use xlink:href="#DejaVuSans-33" transform="translate(664.648438 0.78125)"/>
     <use xlink:href="#DejaVuSans-37" transform="translate(728.271484 0.78125)"/>
     <use xlink:href="#DejaVuSans-2c" transform="translate(791.894531 0.78125)"/>
     <use xlink:href="#DejaVuSans-Oblique-3c3" transform="translate(843.164062 0.78125)"/>
     <use xlink:href="#DejaVuSans-3d" transform="translate(926.025391 0.78125)"/>
     <use xlink:href="#DejaVuSans-30" transform="translate(1029.296875 0.78125)"/>
     <use xlink:href="#DejaVuSans-2e" transform="translate(1092.919922 0.78125)"/>
     <use xlink:href="#DejaVuSans-30" transform="translate(1124.707031 0.78125)"/>
     <use xlink:href="#DejaVuSans-35" transform="translate(1188.330078 0.78125)"/>
     <use xlink:href="#DejaVuSans-33" transform="translate(1251.953125 0.78125)"/>
     <use xlink:href="#DejaVuSans-31" transform="translate(1315.576172 0.78125)"/>
     <use xlink:href="#ArialMT-29" transform="translate(1379.199219 0.78125)"/>
    </g>
   </g>
  </g>
  <g id="axes_3">
   <g id="patch_28">
    <path d="M 55.8 603.7 
L 431.1625 603.7 
L 431.1625 347.690625 
L 55.8 347.690625 
z
" style="fill: #ffffff"/>
   </g>
   <g id="matplotlib.axis_5">
    <g id="xtick_13">
     <g id="line2d_29">
      <path d="M 73.69257 603.7 
L 73.69257 347.690625 
" clip-path="url(#p1d12623ca4)" style="fill: none; stroke: #cccccc; stroke-linecap: round"/>
     </g>
     <g id="text_19">
      <!-- 0.1 -->
      <g style="fill: #262626" transform="translate(66.04757 621.073594) scale(0.11 -0.11)">
       <use xlink:href="#ArialMT-30"/>
       <use xlink:href="#ArialMT-2e" x="55.615234"/>
       <use xlink:href="#ArialMT-31" x="83.398438"/>
      </g>
     </g>
    </g>
    <g id="xtick_14">
     <g id="line2d_30">
      <path d="M 133.9874 603.7 
L 133.9874 347.690625 
" clip-path="url(#p1d12623ca4)" style="fill: none; stroke: #cccccc; stroke-linecap: round"/>
     </g>
     <g id="text_20">
      <!-- 0.2 -->
      <g style="fill: #262626" transform="translate(126.3424 621.073594) scale(0.11 -0.11)">
       <use xlink:href="#ArialMT-30"/>
       <use xlink:href="#ArialMT-2e" x="55.615234"/>
       <use xlink:href="#ArialMT-32" x="83.398438"/>
      </g>
     </g>
    </g>
    <g id="xtick_15">
     <g id="line2d_31">
      <path d="M 194.28223 603.7 
L 194.28223 347.690625 
" clip-path="url(#p1d12623ca4)" style="fill: none; stroke: #cccccc; stroke-linecap: round"/>
     </g>
     <g id="text_21">
      <!-- 0.3 -->
      <g style="fill: #262626" transform="translate(186.63723 621.073594) scale(0.11 -0.11)">
       <defs>
        <path id="ArialMT-33" d="M 269 1209 
L 831 1284 
Q 928 806 1161 595 
Q 1394 384 1728 384 
Q 2125 384 2398 659 
Q 2672 934 2672 1341 
Q 2672 1728 2419 1979 
Q 2166 2231 1775 2231 
Q 1616 2231 1378 2169 
L 1441 2663 
Q 1497 2656 1531 2656 
Q 1891 2656 2178 2843 
Q 2466 3031 2466 3422 
Q 2466 3731 2256 3934 
Q 2047 4138 1716 4138 
Q 1388 4138 1169 3931 
Q 950 3725 888 3313 
L 325 3413 
Q 428 3978 793 4289 
Q 1159 4600 1703 4600 
Q 2078 4600 2393 4439 
Q 2709 4278 2876 4000 
Q 3044 3722 3044 3409 
Q 3044 3113 2884 2869 
Q 2725 2625 2413 2481 
Q 2819 2388 3044 2092 
Q 3269 1797 3269 1353 
Q 3269 753 2831 336 
Q 2394 -81 1725 -81 
Q 1122 -81 723 278 
Q 325 638 269 1209 
z
" transform="scale(0.015625)"/>
       </defs>
       <use xlink:href="#ArialMT-30"/>
       <use xlink:href="#ArialMT-2e" x="55.615234"/>
       <use xlink:href="#ArialMT-33" x="83.398438"/>
      </g>
     </g>
    </g>
    <g id="xtick_16">
     <g id="line2d_32">
      <path d="M 254.577059 603.7 
L 254.577059 347.690625 
" clip-path="url(#p1d12623ca4)" style="fill: none; stroke: #cccccc; stroke-linecap: round"/>
     </g>
     <g id="text_22">
      <!-- 0.4 -->
      <g style="fill: #262626" transform="translate(246.932059 621.073594) scale(0.11 -0.11)">
       <defs>
        <path id="ArialMT-34" d="M 2069 0 
L 2069 1097 
L 81 1097 
L 81 1613 
L 2172 4581 
L 2631 4581 
L 2631 1613 
L 3250 1613 
L 3250 1097 
L 2631 1097 
L 2631 0 
L 2069 0 
z
M 2069 1613 
L 2069 3678 
L 634 1613 
L 2069 1613 
z
" transform="scale(0.015625)"/>
       </defs>
       <use xlink:href="#ArialMT-30"/>
       <use xlink:href="#ArialMT-2e" x="55.615234"/>
       <use xlink:href="#ArialMT-34" x="83.398438"/>
      </g>
     </g>
    </g>
    <g id="xtick_17">
     <g id="line2d_33">
      <path d="M 314.871889 603.7 
L 314.871889 347.690625 
" clip-path="url(#p1d12623ca4)" style="fill: none; stroke: #cccccc; stroke-linecap: round"/>
     </g>
     <g id="text_23">
      <!-- 0.5 -->
      <g style="fill: #262626" transform="translate(307.226889 621.073594) scale(0.11 -0.11)">
       <use xlink:href="#ArialMT-30"/>
       <use xlink:href="#ArialMT-2e" x="55.615234"/>
       <use xlink:href="#ArialMT-35" x="83.398438"/>
      </g>
     </g>
    </g>
    <g id="xtick_18">
     <g id="line2d_34">
      <path d="M 375.166719 603.7 
L 375.166719 347.690625 
" clip-path="url(#p1d12623ca4)" style="fill: none; stroke: #cccccc; stroke-linecap: round"/>
     </g>
     <g id="text_24">
      <!-- 0.6 -->
      <g style="fill: #262626" transform="translate(367.521719 621.073594) scale(0.11 -0.11)">
       <defs>
        <path id="ArialMT-36" d="M 3184 3459 
L 2625 3416 
Q 2550 3747 2413 3897 
Q 2184 4138 1850 4138 
Q 1581 4138 1378 3988 
Q 1113 3794 959 3422 
Q 806 3050 800 2363 
Q 1003 2672 1297 2822 
Q 1591 2972 1913 2972 
Q 2475 2972 2870 2558 
Q 3266 2144 3266 1488 
Q 3266 1056 3080 686 
Q 2894 316 2569 119 
Q 2244 -78 1831 -78 
Q 1128 -78 684 439 
Q 241 956 241 2144 
Q 241 3472 731 4075 
Q 1159 4600 1884 4600 
Q 2425 4600 2770 4297 
Q 3116 3994 3184 3459 
z
M 888 1484 
Q 888 1194 1011 928 
Q 1134 663 1356 523 
Q 1578 384 1822 384 
Q 2178 384 2434 671 
Q 2691 959 2691 1453 
Q 2691 1928 2437 2201 
Q 2184 2475 1800 2475 
Q 1419 2475 1153 2201 
Q 888 1928 888 1484 
z
" transform="scale(0.015625)"/>
       </defs>
       <use xlink:href="#ArialMT-30"/>
       <use xlink:href="#ArialMT-2e" x="55.615234"/>
       <use xlink:href="#ArialMT-36" x="83.398438"/>
      </g>
     </g>
    </g>
    <g id="text_25">
     <!-- beta_1 -->
     <g style="fill: #262626" transform="translate(225.131563 635.884844) scale(0.12 -0.12)">
      <defs>
       <path id="ArialMT-62" d="M 941 0 
L 419 0 
L 419 4581 
L 981 4581 
L 981 2947 
Q 1338 3394 1891 3394 
Q 2197 3394 2470 3270 
Q 2744 3147 2920 2923 
Q 3097 2700 3197 2384 
Q 3297 2069 3297 1709 
Q 3297 856 2875 390 
Q 2453 -75 1863 -75 
Q 1275 -75 941 416 
L 941 0 
z
M 934 1684 
Q 934 1088 1097 822 
Q 1363 388 1816 388 
Q 2184 388 2453 708 
Q 2722 1028 2722 1663 
Q 2722 2313 2464 2622 
Q 2206 2931 1841 2931 
Q 1472 2931 1203 2611 
Q 934 2291 934 1684 
z
" transform="scale(0.015625)"/>
       <path id="ArialMT-65" d="M 2694 1069 
L 3275 997 
Q 3138 488 2766 206 
Q 2394 -75 1816 -75 
Q 1088 -75 661 373 
Q 234 822 234 1631 
Q 234 2469 665 2931 
Q 1097 3394 1784 3394 
Q 2450 3394 2872 2941 
Q 3294 2488 3294 1666 
Q 3294 1616 3291 1516 
L 816 1516 
Q 847 969 1125 678 
Q 1403 388 1819 388 
Q 2128 388 2347 550 
Q 2566 713 2694 1069 
z
M 847 1978 
L 2700 1978 
Q 2663 2397 2488 2606 
Q 2219 2931 1791 2931 
Q 1403 2931 1139 2672 
Q 875 2413 847 1978 
z
" transform="scale(0.015625)"/>
       <path id="ArialMT-61" d="M 2588 409 
Q 2275 144 1986 34 
Q 1697 -75 1366 -75 
Q 819 -75 525 192 
Q 231 459 231 875 
Q 231 1119 342 1320 
Q 453 1522 633 1644 
Q 813 1766 1038 1828 
Q 1203 1872 1538 1913 
Q 2219 1994 2541 2106 
Q 2544 2222 2544 2253 
Q 2544 2597 2384 2738 
Q 2169 2928 1744 2928 
Q 1347 2928 1158 2789 
Q 969 2650 878 2297 
L 328 2372 
Q 403 2725 575 2942 
Q 747 3159 1072 3276 
Q 1397 3394 1825 3394 
Q 2250 3394 2515 3294 
Q 2781 3194 2906 3042 
Q 3031 2891 3081 2659 
Q 3109 2516 3109 2141 
L 3109 1391 
Q 3109 606 3145 398 
Q 3181 191 3288 0 
L 2700 0 
Q 2613 175 2588 409 
z
M 2541 1666 
Q 2234 1541 1622 1453 
Q 1275 1403 1131 1340 
Q 988 1278 909 1158 
Q 831 1038 831 891 
Q 831 666 1001 516 
Q 1172 366 1500 366 
Q 1825 366 2078 508 
Q 2331 650 2450 897 
Q 2541 1088 2541 1459 
L 2541 1666 
z
" transform="scale(0.015625)"/>
       <path id="ArialMT-5f" d="M -97 -1272 
L -97 -866 
L 3631 -866 
L 3631 -1272 
L -97 -1272 
z
" transform="scale(0.015625)"/>
      </defs>
      <use xlink:href="#ArialMT-62"/>
      <use xlink:href="#ArialMT-65" x="55.615234"/>
      <use xlink:href="#ArialMT-74" x="111.230469"/>
      <use xlink:href="#ArialMT-61" x="139.013672"/>
      <use xlink:href="#ArialMT-5f" x="194.628906"/>
      <use xlink:href="#ArialMT-31" x="250.244141"/>
     </g>
    </g>
   </g>
   <g id="matplotlib.axis_6">
    <g id="ytick_15">
     <g id="line2d_35">
      <path d="M 55.8 603.7 
L 431.1625 603.7 
" clip-path="url(#p1d12623ca4)" style="fill: none; stroke: #cccccc; stroke-linecap: round"/>
     </g>
     <g id="text_26">
      <!-- 0 -->
      <g style="fill: #262626" transform="translate(40.182969 607.636797) scale(0.11 -0.11)">
       <use xlink:href="#ArialMT-30"/>
      </g>
     </g>
    </g>
    <g id="ytick_16">
     <g id="line2d_36">
      <path d="M 55.8 572.441224 
L 431.1625 572.441224 
" clip-path="url(#p1d12623ca4)" style="fill: none; stroke: #cccccc; stroke-linecap: round"/>
     </g>
     <g id="text_27">
      <!-- 5 -->
      <g style="fill: #262626" transform="translate(40.182969 576.378021) scale(0.11 -0.11)">
       <use xlink:href="#ArialMT-35"/>
      </g>
     </g>
    </g>
    <g id="ytick_17">
     <g id="line2d_37">
      <path d="M 55.8 541.182448 
L 431.1625 541.182448 
" clip-path="url(#p1d12623ca4)" style="fill: none; stroke: #cccccc; stroke-linecap: round"/>
     </g>
     <g id="text_28">
      <!-- 10 -->
      <g style="fill: #262626" transform="translate(34.065938 545.119245) scale(0.11 -0.11)">
       <use xlink:href="#ArialMT-31"/>
       <use xlink:href="#ArialMT-30" x="55.615234"/>
      </g>
     </g>
    </g>
    <g id="ytick_18">
     <g id="line2d_38">
      <path d="M 55.8 509.923672 
L 431.1625 509.923672 
" clip-path="url(#p1d12623ca4)" style="fill: none; stroke: #cccccc; stroke-linecap: round"/>
     </g>
     <g id="text_29">
      <!-- 15 -->
      <g style="fill: #262626" transform="translate(34.065938 513.860469) scale(0.11 -0.11)">
       <use xlink:href="#ArialMT-31"/>
       <use xlink:href="#ArialMT-35" x="55.615234"/>
      </g>
     </g>
    </g>
    <g id="ytick_19">
     <g id="line2d_39">
      <path d="M 55.8 478.664896 
L 431.1625 478.664896 
" clip-path="url(#p1d12623ca4)" style="fill: none; stroke: #cccccc; stroke-linecap: round"/>
     </g>
     <g id="text_30">
      <!-- 20 -->
      <g style="fill: #262626" transform="translate(34.065938 482.601693) scale(0.11 -0.11)">
       <use xlink:href="#ArialMT-32"/>
       <use xlink:href="#ArialMT-30" x="55.615234"/>
      </g>
     </g>
    </g>
    <g id="ytick_20">
     <g id="line2d_40">
      <path d="M 55.8 447.40612 
L 431.1625 447.40612 
" clip-path="url(#p1d12623ca4)" style="fill: none; stroke: #cccccc; stroke-linecap: round"/>
     </g>
     <g id="text_31">
      <!-- 25 -->
      <g style="fill: #262626" transform="translate(34.065938 451.342917) scale(0.11 -0.11)">
       <use xlink:href="#ArialMT-32"/>
       <use xlink:href="#ArialMT-35" x="55.615234"/>
      </g>
     </g>
    </g>
    <g id="ytick_21">
     <g id="line2d_41">
      <path d="M 55.8 416.147344 
L 431.1625 416.147344 
" clip-path="url(#p1d12623ca4)" style="fill: none; stroke: #cccccc; stroke-linecap: round"/>
     </g>
     <g id="text_32">
      <!-- 30 -->
      <g style="fill: #262626" transform="translate(34.065938 420.084141) scale(0.11 -0.11)">
       <use xlink:href="#ArialMT-33"/>
       <use xlink:href="#ArialMT-30" x="55.615234"/>
      </g>
     </g>
    </g>
    <g id="ytick_22">
     <g id="line2d_42">
      <path d="M 55.8 384.888568 
L 431.1625 384.888568 
" clip-path="url(#p1d12623ca4)" style="fill: none; stroke: #cccccc; stroke-linecap: round"/>
     </g>
     <g id="text_33">
      <!-- 35 -->
      <g style="fill: #262626" transform="translate(34.065938 388.825365) scale(0.11 -0.11)">
       <use xlink:href="#ArialMT-33"/>
       <use xlink:href="#ArialMT-35" x="55.615234"/>
      </g>
     </g>
    </g>
    <g id="ytick_23">
     <g id="line2d_43">
      <path d="M 55.8 353.629792 
L 431.1625 353.629792 
" clip-path="url(#p1d12623ca4)" style="fill: none; stroke: #cccccc; stroke-linecap: round"/>
     </g>
     <g id="text_34">
      <!-- 40 -->
      <g style="fill: #262626" transform="translate(34.065938 357.566589) scale(0.11 -0.11)">
       <use xlink:href="#ArialMT-34"/>
       <use xlink:href="#ArialMT-30" x="55.615234"/>
      </g>
     </g>
    </g>
    <g id="text_35">
     <!-- Count -->
     <g style="fill: #262626" transform="translate(27.680938 491.705) rotate(-90) scale(0.12 -0.12)">
      <use xlink:href="#ArialMT-43"/>
      <use xlink:href="#ArialMT-6f" x="72.216797"/>
      <use xlink:href="#ArialMT-75" x="127.832031"/>
      <use xlink:href="#ArialMT-6e" x="183.447266"/>
      <use xlink:href="#ArialMT-74" x="239.0625"/>
     </g>
    </g>
   </g>
   <g id="patch_29">
    <path d="M 72.861932 603.7 
L 109.702307 603.7 
L 109.702307 466.161386 
L 72.861932 466.161386 
z
" clip-path="url(#p1d12623ca4)" style="fill: #c44e52; fill-opacity: 0.5; stroke: #000000; stroke-linejoin: miter"/>
   </g>
   <g id="patch_30">
    <path d="M 109.702307 603.7 
L 146.542681 603.7 
L 146.542681 359.881548 
L 109.702307 359.881548 
z
" clip-path="url(#p1d12623ca4)" style="fill: #c44e52; fill-opacity: 0.5; stroke: #000000; stroke-linejoin: miter"/>
   </g>
   <g id="patch_31">
    <path d="M 146.542681 603.7 
L 183.383056 603.7 
L 183.383056 484.916651 
L 146.542681 484.916651 
z
" clip-path="url(#p1d12623ca4)" style="fill: #c44e52; fill-opacity: 0.5; stroke: #000000; stroke-linejoin: miter"/>
   </g>
   <g id="patch_32">
    <path d="M 183.383056 603.7 
L 220.223431 603.7 
L 220.223431 528.678938 
L 183.383056 528.678938 
z
" clip-path="url(#p1d12623ca4)" style="fill: #c44e52; fill-opacity: 0.5; stroke: #000000; stroke-linejoin: miter"/>
   </g>
   <g id="patch_33">
    <path d="M 220.223431 603.7 
L 257.063805 603.7 
L 257.063805 534.930693 
L 220.223431 534.930693 
z
" clip-path="url(#p1d12623ca4)" style="fill: #c44e52; fill-opacity: 0.5; stroke: #000000; stroke-linejoin: miter"/>
   </g>
   <g id="patch_34">
    <path d="M 257.063805 603.7 
L 293.90418 603.7 
L 293.90418 422.3991 
L 257.063805 422.3991 
z
" clip-path="url(#p1d12623ca4)" style="fill: #c44e52; fill-opacity: 0.5; stroke: #000000; stroke-linejoin: miter"/>
   </g>
   <g id="patch_35">
    <path d="M 293.90418 603.7 
L 330.744555 603.7 
L 330.744555 484.916651 
L 293.90418 484.916651 
z
" clip-path="url(#p1d12623ca4)" style="fill: #c44e52; fill-opacity: 0.5; stroke: #000000; stroke-linejoin: miter"/>
   </g>
   <g id="patch_36">
    <path d="M 330.744555 603.7 
L 367.584929 603.7 
L 367.584929 434.90261 
L 330.744555 434.90261 
z
" clip-path="url(#p1d12623ca4)" style="fill: #c44e52; fill-opacity: 0.5; stroke: #000000; stroke-linejoin: miter"/>
   </g>
   <g id="patch_37">
    <path d="M 367.584929 603.7 
L 404.425304 603.7 
L 404.425304 466.161386 
L 367.584929 466.161386 
z
" clip-path="url(#p1d12623ca4)" style="fill: #c44e52; fill-opacity: 0.5; stroke: #000000; stroke-linejoin: miter"/>
   </g>
   <g id="line2d_44">
    <path d="M 72.861932 519.807795 
L 82.858817 496.633675 
L 89.523408 481.494156 
L 94.521851 470.829517 
L 97.854146 464.22191 
L 101.186441 458.117459 
L 104.518736 452.595043 
L 107.851031 447.723978 
L 109.517179 445.551272 
L 111.183327 443.562108 
L 112.849474 441.761666 
L 114.515622 440.154236 
L 116.181769 438.743194 
L 117.847917 437.530977 
L 119.514065 436.519082 
L 121.180212 435.708056 
L 122.84636 435.097503 
L 124.512507 434.686101 
L 126.178655 434.471615 
L 127.844803 434.450933 
L 129.51095 434.620091 
L 131.177098 434.974323 
L 132.843245 435.5081 
L 134.509393 436.215185 
L 136.175541 437.08869 
L 137.841688 438.121134 
L 139.507836 439.304505 
L 142.840131 442.089733 
L 146.172426 445.372205 
L 149.504721 449.075529 
L 152.837017 453.121169 
L 157.835459 459.659559 
L 164.50005 468.856828 
L 172.830788 480.348274 
L 177.829231 486.883048 
L 181.161526 490.984887 
L 184.493821 494.833272 
L 187.826116 498.390758 
L 191.158411 501.62406 
L 194.490707 504.503728 
L 197.823002 507.003932 
L 201.155297 509.102392 
L 204.487592 510.780478 
L 207.819887 512.023469 
L 211.152183 512.820958 
L 212.81833 513.050691 
L 214.484478 513.167362 
L 216.150625 513.171121 
L 217.816773 513.062487 
L 221.149068 512.512081 
L 224.481363 511.528313 
L 227.813659 510.130115 
L 231.145954 508.34331 
L 234.478249 506.200507 
L 237.810544 503.740696 
L 241.142839 501.008552 
L 246.141282 496.508699 
L 252.805873 490.041347 
L 262.802758 480.217102 
L 267.801201 475.604365 
L 272.799644 471.359826 
L 276.131939 468.775625 
L 279.464234 466.40467 
L 282.796529 464.252503 
L 286.128825 462.317431 
L 289.46112 460.591534 
L 292.793415 459.061978 
L 296.12571 457.712562 
L 301.124153 455.987043 
L 306.122596 454.568273 
L 311.121039 453.410687 
L 316.119481 452.49209 
L 321.117924 451.821135 
L 326.116367 451.440846 
L 329.448662 451.385368 
L 332.780957 451.52257 
L 336.113253 451.887095 
L 339.445548 452.516776 
L 342.777843 453.45101 
L 346.110138 454.728959 
L 349.442433 456.387667 
L 352.774729 458.460174 
L 356.107024 460.973701 
L 359.439319 463.948012 
L 362.771614 467.394007 
L 366.103909 471.312636 
L 369.436205 475.694191 
L 372.7685 480.518003 
L 376.100795 485.752596 
L 379.43309 491.356269 
L 384.431533 500.340244 
L 389.429976 509.835219 
L 404.425304 539.05931 
L 404.425304 539.05931 
" clip-path="url(#p1d12623ca4)" style="fill: none; stroke: #c44e52; stroke-width: 1.5; stroke-linecap: round"/>
   </g>
   <g id="patch_38">
    <path d="M 55.8 603.7 
L 55.8 347.690625 
" style="fill: none; stroke: #cccccc; stroke-width: 1.25; stroke-linejoin: miter; stroke-linecap: square"/>
   </g>
   <g id="patch_39">
    <path d="M 431.1625 603.7 
L 431.1625 347.690625 
" style="fill: none; stroke: #cccccc; stroke-width: 1.25; stroke-linejoin: miter; stroke-linecap: square"/>
   </g>
   <g id="patch_40">
    <path d="M 55.8 603.7 
L 431.1625 603.7 
" style="fill: none; stroke: #cccccc; stroke-width: 1.25; stroke-linejoin: miter; stroke-linecap: square"/>
   </g>
   <g id="patch_41">
    <path d="M 55.8 347.690625 
L 431.1625 347.690625 
" style="fill: none; stroke: #cccccc; stroke-width: 1.25; stroke-linejoin: miter; stroke-linecap: square"/>
   </g>
   <g id="text_36">
    <!-- OLS with Outlier ($\mu = 0.3651, \sigma = 0.1657$) -->
    <g style="fill: #262626" transform="translate(107.75125 341.690625) scale(0.14 -0.14)">
     <defs>
      <path id="ArialMT-77" d="M 1034 0 
L 19 3319 
L 600 3319 
L 1128 1403 
L 1325 691 
Q 1338 744 1497 1375 
L 2025 3319 
L 2603 3319 
L 3100 1394 
L 3266 759 
L 3456 1400 
L 4025 3319 
L 4572 3319 
L 3534 0 
L 2950 0 
L 2422 1988 
L 2294 2553 
L 1622 0 
L 1034 0 
z
" transform="scale(0.015625)"/>
      <path id="ArialMT-69" d="M 425 3934 
L 425 4581 
L 988 4581 
L 988 3934 
L 425 3934 
z
M 425 0 
L 425 3319 
L 988 3319 
L 988 0 
L 425 0 
z
" transform="scale(0.015625)"/>
      <path id="ArialMT-68" d="M 422 0 
L 422 4581 
L 984 4581 
L 984 2938 
Q 1378 3394 1978 3394 
Q 2347 3394 2619 3248 
Q 2891 3103 3008 2847 
Q 3125 2591 3125 2103 
L 3125 0 
L 2563 0 
L 2563 2103 
Q 2563 2525 2380 2717 
Q 2197 2909 1863 2909 
Q 1613 2909 1392 2779 
Q 1172 2650 1078 2428 
Q 984 2206 984 1816 
L 984 0 
L 422 0 
z
" transform="scale(0.015625)"/>
      <path id="ArialMT-6c" d="M 409 0 
L 409 4581 
L 972 4581 
L 972 0 
L 409 0 
z
" transform="scale(0.015625)"/>
      <path id="ArialMT-72" d="M 416 0 
L 416 3319 
L 922 3319 
L 922 2816 
Q 1116 3169 1280 3281 
Q 1444 3394 1641 3394 
Q 1925 3394 2219 3213 
L 2025 2691 
Q 1819 2813 1613 2813 
Q 1428 2813 1281 2702 
Q 1134 2591 1072 2394 
Q 978 2094 978 1738 
L 978 0 
L 416 0 
z
" transform="scale(0.015625)"/>
      <path id="DejaVuSans-36" d="M 2113 2584 
Q 1688 2584 1439 2293 
Q 1191 2003 1191 1497 
Q 1191 994 1439 701 
Q 1688 409 2113 409 
Q 2538 409 2786 701 
Q 3034 994 3034 1497 
Q 3034 2003 2786 2293 
Q 2538 2584 2113 2584 
z
M 3366 4563 
L 3366 3988 
Q 3128 4100 2886 4159 
Q 2644 4219 2406 4219 
Q 1781 4219 1451 3797 
Q 1122 3375 1075 2522 
Q 1259 2794 1537 2939 
Q 1816 3084 2150 3084 
Q 2853 3084 3261 2657 
Q 3669 2231 3669 1497 
Q 3669 778 3244 343 
Q 2819 -91 2113 -91 
Q 1303 -91 875 529 
Q 447 1150 447 2328 
Q 447 3434 972 4092 
Q 1497 4750 2381 4750 
Q 2619 4750 2861 4703 
Q 3103 4656 3366 4563 
z
" transform="scale(0.015625)"/>
     </defs>
     <use xlink:href="#ArialMT-4f" transform="translate(0 0.78125)"/>
     <use xlink:href="#ArialMT-4c" transform="translate(77.783203 0.78125)"/>
     <use xlink:href="#ArialMT-53" transform="translate(133.398438 0.78125)"/>
     <use xlink:href="#ArialMT-20" transform="translate(200.097656 0.78125)"/>
     <use xlink:href="#ArialMT-77" transform="translate(227.880859 0.78125)"/>
     <use xlink:href="#ArialMT-69" transform="translate(300.097656 0.78125)"/>
     <use xlink:href="#ArialMT-74" transform="translate(322.314453 0.78125)"/>
     <use xlink:href="#ArialMT-68" transform="translate(350.097656 0.78125)"/>
     <use xlink:href="#ArialMT-20" transform="translate(405.712891 0.78125)"/>
     <use xlink:href="#ArialMT-4f" transform="translate(433.496094 0.78125)"/>
     <use xlink:href="#ArialMT-75" transform="translate(511.279297 0.78125)"/>
     <use xlink:href="#ArialMT-74" transform="translate(566.894531 0.78125)"/>
     <use xlink:href="#ArialMT-6c" transform="translate(594.677734 0.78125)"/>
     <use xlink:href="#ArialMT-69" transform="translate(616.894531 0.78125)"/>
     <use xlink:href="#ArialMT-65" transform="translate(639.111328 0.78125)"/>
     <use xlink:href="#ArialMT-72" transform="translate(694.726562 0.78125)"/>
     <use xlink:href="#ArialMT-20" transform="translate(728.027344 0.78125)"/>
     <use xlink:href="#ArialMT-28" transform="translate(755.810547 0.78125)"/>
     <use xlink:href="#DejaVuSans-Oblique-3bc" transform="translate(789.111328 0.78125)"/>
     <use xlink:href="#DejaVuSans-3d" transform="translate(872.216797 0.78125)"/>
     <use xlink:href="#DejaVuSans-30" transform="translate(975.488281 0.78125)"/>
     <use xlink:href="#DejaVuSans-2e" transform="translate(1039.111328 0.78125)"/>
     <use xlink:href="#DejaVuSans-33" transform="translate(1070.898438 0.78125)"/>
     <use xlink:href="#DejaVuSans-36" transform="translate(1134.521484 0.78125)"/>
     <use xlink:href="#DejaVuSans-35" transform="translate(1198.144531 0.78125)"/>
     <use xlink:href="#DejaVuSans-31" transform="translate(1261.767578 0.78125)"/>
     <use xlink:href="#DejaVuSans-2c" transform="translate(1325.390625 0.78125)"/>
     <use xlink:href="#DejaVuSans-Oblique-3c3" transform="translate(1376.660156 0.78125)"/>
     <use xlink:href="#DejaVuSans-3d" transform="translate(1459.521484 0.78125)"/>
     <use xlink:href="#DejaVuSans-30" transform="translate(1562.792969 0.78125)"/>
     <use xlink:href="#DejaVuSans-2e" transform="translate(1626.416016 0.78125)"/>
     <use xlink:href="#DejaVuSans-31" transform="translate(1658.203125 0.78125)"/>
     <use xlink:href="#DejaVuSans-36" transform="translate(1721.826172 0.78125)"/>
     <use xlink:href="#DejaVuSans-35" transform="translate(1785.449219 0.78125)"/>
     <use xlink:href="#DejaVuSans-37" transform="translate(1841.822266 0.78125)"/>
     <use xlink:href="#ArialMT-29" transform="translate(1905.445312 0.78125)"/>
    </g>
   </g>
  </g>
  <g id="axes_4">
   <g id="patch_42">
    <path d="M 477.8375 603.7 
L 853.2 603.7 
L 853.2 347.690625 
L 477.8375 347.690625 
z
" style="fill: #ffffff"/>
   </g>
   <g id="matplotlib.axis_7">
    <g id="xtick_19">
     <g id="line2d_45">
      <path d="M 495.73007 603.7 
L 495.73007 347.690625 
" clip-path="url(#p27ba3cca96)" style="fill: none; stroke: #cccccc; stroke-linecap: round"/>
     </g>
     <g id="text_37">
      <!-- 0.1 -->
      <g style="fill: #262626" transform="translate(488.08507 621.073594) scale(0.11 -0.11)">
       <use xlink:href="#ArialMT-30"/>
       <use xlink:href="#ArialMT-2e" x="55.615234"/>
       <use xlink:href="#ArialMT-31" x="83.398438"/>
      </g>
     </g>
    </g>
    <g id="xtick_20">
     <g id="line2d_46">
      <path d="M 556.0249 603.7 
L 556.0249 347.690625 
" clip-path="url(#p27ba3cca96)" style="fill: none; stroke: #cccccc; stroke-linecap: round"/>
     </g>
     <g id="text_38">
      <!-- 0.2 -->
      <g style="fill: #262626" transform="translate(548.3799 621.073594) scale(0.11 -0.11)">
       <use xlink:href="#ArialMT-30"/>
       <use xlink:href="#ArialMT-2e" x="55.615234"/>
       <use xlink:href="#ArialMT-32" x="83.398438"/>
      </g>
     </g>
    </g>
    <g id="xtick_21">
     <g id="line2d_47">
      <path d="M 616.31973 603.7 
L 616.31973 347.690625 
" clip-path="url(#p27ba3cca96)" style="fill: none; stroke: #cccccc; stroke-linecap: round"/>
     </g>
     <g id="text_39">
      <!-- 0.3 -->
      <g style="fill: #262626" transform="translate(608.67473 621.073594) scale(0.11 -0.11)">
       <use xlink:href="#ArialMT-30"/>
       <use xlink:href="#ArialMT-2e" x="55.615234"/>
       <use xlink:href="#ArialMT-33" x="83.398438"/>
      </g>
     </g>
    </g>
    <g id="xtick_22">
     <g id="line2d_48">
      <path d="M 676.614559 603.7 
L 676.614559 347.690625 
" clip-path="url(#p27ba3cca96)" style="fill: none; stroke: #cccccc; stroke-linecap: round"/>
     </g>
     <g id="text_40">
      <!-- 0.4 -->
      <g style="fill: #262626" transform="translate(668.969559 621.073594) scale(0.11 -0.11)">
       <use xlink:href="#ArialMT-30"/>
       <use xlink:href="#ArialMT-2e" x="55.615234"/>
       <use xlink:href="#ArialMT-34" x="83.398438"/>
      </g>
     </g>
    </g>
    <g id="xtick_23">
     <g id="line2d_49">
      <path d="M 736.909389 603.7 
L 736.909389 347.690625 
" clip-path="url(#p27ba3cca96)" style="fill: none; stroke: #cccccc; stroke-linecap: round"/>
     </g>
     <g id="text_41">
      <!-- 0.5 -->
      <g style="fill: #262626" transform="translate(729.264389 621.073594) scale(0.11 -0.11)">
       <use xlink:href="#ArialMT-30"/>
       <use xlink:href="#ArialMT-2e" x="55.615234"/>
       <use xlink:href="#ArialMT-35" x="83.398438"/>
      </g>
     </g>
    </g>
    <g id="xtick_24">
     <g id="line2d_50">
      <path d="M 797.204219 603.7 
L 797.204219 347.690625 
" clip-path="url(#p27ba3cca96)" style="fill: none; stroke: #cccccc; stroke-linecap: round"/>
     </g>
     <g id="text_42">
      <!-- 0.6 -->
      <g style="fill: #262626" transform="translate(789.559219 621.073594) scale(0.11 -0.11)">
       <use xlink:href="#ArialMT-30"/>
       <use xlink:href="#ArialMT-2e" x="55.615234"/>
       <use xlink:href="#ArialMT-36" x="83.398438"/>
      </g>
     </g>
    </g>
    <g id="text_43">
     <!-- beta_1 -->
     <g style="fill: #262626" transform="translate(647.169063 635.884844) scale(0.12 -0.12)">
      <use xlink:href="#ArialMT-62"/>
      <use xlink:href="#ArialMT-65" x="55.615234"/>
      <use xlink:href="#ArialMT-74" x="111.230469"/>
      <use xlink:href="#ArialMT-61" x="139.013672"/>
      <use xlink:href="#ArialMT-5f" x="194.628906"/>
      <use xlink:href="#ArialMT-31" x="250.244141"/>
     </g>
    </g>
   </g>
   <g id="matplotlib.axis_8">
    <g id="ytick_24">
     <g id="line2d_51">
      <path d="M 477.8375 603.7 
L 853.2 603.7 
" clip-path="url(#p27ba3cca96)" style="fill: none; stroke: #cccccc; stroke-linecap: round"/>
     </g>
     <g id="text_44">
      <!-- 0 -->
      <g style="fill: #262626" transform="translate(462.220469 607.636797) scale(0.11 -0.11)">
       <use xlink:href="#ArialMT-30"/>
      </g>
     </g>
    </g>
    <g id="ytick_25">
     <g id="line2d_52">
      <path d="M 477.8375 546.998034 
L 853.2 546.998034 
" clip-path="url(#p27ba3cca96)" style="fill: none; stroke: #cccccc; stroke-linecap: round"/>
     </g>
     <g id="text_45">
      <!-- 10 -->
      <g style="fill: #262626" transform="translate(456.103438 550.934831) scale(0.11 -0.11)">
       <use xlink:href="#ArialMT-31"/>
       <use xlink:href="#ArialMT-30" x="55.615234"/>
      </g>
     </g>
    </g>
    <g id="ytick_26">
     <g id="line2d_53">
      <path d="M 477.8375 490.296069 
L 853.2 490.296069 
" clip-path="url(#p27ba3cca96)" style="fill: none; stroke: #cccccc; stroke-linecap: round"/>
     </g>
     <g id="text_46">
      <!-- 20 -->
      <g style="fill: #262626" transform="translate(456.103438 494.232866) scale(0.11 -0.11)">
       <use xlink:href="#ArialMT-32"/>
       <use xlink:href="#ArialMT-30" x="55.615234"/>
      </g>
     </g>
    </g>
    <g id="ytick_27">
     <g id="line2d_54">
      <path d="M 477.8375 433.594103 
L 853.2 433.594103 
" clip-path="url(#p27ba3cca96)" style="fill: none; stroke: #cccccc; stroke-linecap: round"/>
     </g>
     <g id="text_47">
      <!-- 30 -->
      <g style="fill: #262626" transform="translate(456.103438 437.5309) scale(0.11 -0.11)">
       <use xlink:href="#ArialMT-33"/>
       <use xlink:href="#ArialMT-30" x="55.615234"/>
      </g>
     </g>
    </g>
    <g id="ytick_28">
     <g id="line2d_55">
      <path d="M 477.8375 376.892137 
L 853.2 376.892137 
" clip-path="url(#p27ba3cca96)" style="fill: none; stroke: #cccccc; stroke-linecap: round"/>
     </g>
     <g id="text_48">
      <!-- 40 -->
      <g style="fill: #262626" transform="translate(456.103438 380.828934) scale(0.11 -0.11)">
       <use xlink:href="#ArialMT-34"/>
       <use xlink:href="#ArialMT-30" x="55.615234"/>
      </g>
     </g>
    </g>
    <g id="text_49">
     <!-- Count -->
     <g style="fill: #262626" transform="translate(449.718438 491.705) rotate(-90) scale(0.12 -0.12)">
      <use xlink:href="#ArialMT-43"/>
      <use xlink:href="#ArialMT-6f" x="72.216797"/>
      <use xlink:href="#ArialMT-75" x="127.832031"/>
      <use xlink:href="#ArialMT-6e" x="183.447266"/>
      <use xlink:href="#ArialMT-74" x="239.0625"/>
     </g>
    </g>
   </g>
   <g id="patch_43">
    <path d="M 548.3813 603.7 
L 577.156977 603.7 
L 577.156977 592.359607 
L 548.3813 592.359607 
z
" clip-path="url(#p27ba3cca96)" style="fill: #c44e52; fill-opacity: 0.5; stroke: #000000; stroke-linejoin: miter"/>
   </g>
   <g id="patch_44">
    <path d="M 577.156977 603.7 
L 605.932654 603.7 
L 605.932654 575.349017 
L 577.156977 575.349017 
z
" clip-path="url(#p27ba3cca96)" style="fill: #c44e52; fill-opacity: 0.5; stroke: #000000; stroke-linejoin: miter"/>
   </g>
   <g id="patch_45">
    <path d="M 605.932654 603.7 
L 634.708331 603.7 
L 634.708331 524.317248 
L 605.932654 524.317248 
z
" clip-path="url(#p27ba3cca96)" style="fill: #c44e52; fill-opacity: 0.5; stroke: #000000; stroke-linejoin: miter"/>
   </g>
   <g id="patch_46">
    <path d="M 634.708331 603.7 
L 663.484007 603.7 
L 663.484007 552.668231 
L 634.708331 552.668231 
z
" clip-path="url(#p27ba3cca96)" style="fill: #c44e52; fill-opacity: 0.5; stroke: #000000; stroke-linejoin: miter"/>
   </g>
   <g id="patch_47">
    <path d="M 663.484007 603.7 
L 692.259684 603.7 
L 692.259684 484.625872 
L 663.484007 484.625872 
z
" clip-path="url(#p27ba3cca96)" style="fill: #c44e52; fill-opacity: 0.5; stroke: #000000; stroke-linejoin: miter"/>
   </g>
   <g id="patch_48">
    <path d="M 692.259684 603.7 
L 721.035361 603.7 
L 721.035361 359.881548 
L 692.259684 359.881548 
z
" clip-path="url(#p27ba3cca96)" style="fill: #c44e52; fill-opacity: 0.5; stroke: #000000; stroke-linejoin: miter"/>
   </g>
   <g id="patch_49">
    <path d="M 721.035361 603.7 
L 749.811038 603.7 
L 749.811038 478.955676 
L 721.035361 478.955676 
z
" clip-path="url(#p27ba3cca96)" style="fill: #c44e52; fill-opacity: 0.5; stroke: #000000; stroke-linejoin: miter"/>
   </g>
   <g id="patch_50">
    <path d="M 749.811038 603.7 
L 778.586715 603.7 
L 778.586715 376.892137 
L 749.811038 376.892137 
z
" clip-path="url(#p27ba3cca96)" style="fill: #c44e52; fill-opacity: 0.5; stroke: #000000; stroke-linejoin: miter"/>
   </g>
   <g id="patch_51">
    <path d="M 778.586715 603.7 
L 807.362391 603.7 
L 807.362391 433.594103 
L 778.586715 433.594103 
z
" clip-path="url(#p27ba3cca96)" style="fill: #c44e52; fill-opacity: 0.5; stroke: #000000; stroke-linejoin: miter"/>
   </g>
   <g id="patch_52">
    <path d="M 807.362391 603.7 
L 836.138068 603.7 
L 836.138068 524.317248 
L 807.362391 524.317248 
z
" clip-path="url(#p27ba3cca96)" style="fill: #c44e52; fill-opacity: 0.5; stroke: #000000; stroke-linejoin: miter"/>
   </g>
   <g id="line2d_56">
    <path d="M 548.3813 596.591673 
L 552.719342 595.194172 
L 557.057384 593.609117 
L 561.395425 591.820681 
L 565.733467 589.819835 
L 570.071509 587.603824 
L 574.409551 585.171274 
L 578.747592 582.514334 
L 583.085634 579.611573 
L 587.423676 576.426601 
L 591.761718 572.916424 
L 596.099759 569.050228 
L 600.437801 564.834407 
L 606.221857 558.793921 
L 614.89794 549.599216 
L 619.235982 545.388338 
L 622.12801 542.847467 
L 625.020037 540.551888 
L 627.912065 538.501084 
L 630.804093 536.666452 
L 635.142135 534.189877 
L 640.92619 530.932455 
L 643.818218 529.082657 
L 646.710246 526.940174 
L 649.602274 524.40759 
L 652.494302 521.404879 
L 655.38633 517.873848 
L 658.278357 513.78035 
L 661.170385 509.114467 
L 664.062413 503.889168 
L 666.954441 498.138117 
L 669.846469 491.913319 
L 674.18451 481.841613 
L 679.968566 467.518468 
L 687.198636 449.481956 
L 690.090663 442.671157 
L 692.982691 436.320282 
L 695.874719 430.582349 
L 698.766747 425.599328 
L 700.212761 423.429692 
L 701.658775 421.491683 
L 703.104789 419.795231 
L 704.550802 418.347623 
L 705.996816 417.153242 
L 707.44283 416.213354 
L 708.888844 415.525953 
L 710.334858 415.085668 
L 711.780872 414.883741 
L 713.226886 414.908077 
L 714.6729 415.143373 
L 716.118914 415.571318 
L 717.564928 416.170873 
L 720.456955 417.78912 
L 723.348983 419.789664 
L 729.133039 424.039226 
L 732.025067 425.857383 
L 733.471081 426.608051 
L 734.917095 427.22859 
L 736.363108 427.704507 
L 737.809122 428.024714 
L 739.255136 428.181686 
L 740.70115 428.17153 
L 742.147164 427.99399 
L 743.593178 427.652365 
L 745.039192 427.153365 
L 746.485206 426.506896 
L 749.377234 424.825513 
L 752.269261 422.740129 
L 758.053317 418.021998 
L 760.945345 415.752357 
L 763.837373 413.781433 
L 765.283387 412.959598 
L 766.729401 412.271864 
L 768.175414 411.735155 
L 769.621428 411.364799 
L 771.067442 411.174472 
L 772.513456 411.176171 
L 773.95947 411.38022 
L 775.405484 411.795296 
L 776.851498 412.428476 
L 778.297512 413.285294 
L 779.743526 414.369812 
L 781.18954 415.684689 
L 782.635554 417.231255 
L 784.081567 419.009578 
L 785.527581 421.018532 
L 786.973595 423.255852 
L 788.419609 425.718182 
L 791.311637 431.29927 
L 794.203665 437.714658 
L 797.095693 444.901927 
L 799.98772 452.78413 
L 802.879748 461.270613 
L 807.21779 474.90447 
L 813.001846 494.148326 
L 821.677929 523.203475 
L 826.015971 536.887354 
L 828.907999 545.440997 
L 831.800026 553.436428 
L 834.692054 560.806606 
L 836.138068 564.241935 
L 836.138068 564.241935 
" clip-path="url(#p27ba3cca96)" style="fill: none; stroke: #c44e52; stroke-width: 1.5; stroke-linecap: round"/>
   </g>
   <g id="patch_53">
    <path d="M 477.8375 603.7 
L 477.8375 347.690625 
" style="fill: none; stroke: #cccccc; stroke-width: 1.25; stroke-linejoin: miter; stroke-linecap: square"/>
   </g>
   <g id="patch_54">
    <path d="M 853.2 603.7 
L 853.2 347.690625 
" style="fill: none; stroke: #cccccc; stroke-width: 1.25; stroke-linejoin: miter; stroke-linecap: square"/>
   </g>
   <g id="patch_55">
    <path d="M 477.8375 603.7 
L 853.2 603.7 
" style="fill: none; stroke: #cccccc; stroke-width: 1.25; stroke-linejoin: miter; stroke-linecap: square"/>
   </g>
   <g id="patch_56">
    <path d="M 477.8375 347.690625 
L 853.2 347.690625 
" style="fill: none; stroke: #cccccc; stroke-width: 1.25; stroke-linejoin: miter; stroke-linecap: square"/>
   </g>
   <g id="text_50">
    <!-- LAD with Outlier ($\mu = 0.4829, \sigma = 0.0995$) -->
    <g style="fill: #262626" transform="translate(529.78875 341.690625) scale(0.14 -0.14)">
     <defs>
      <path id="DejaVuSans-34" d="M 2419 4116 
L 825 1625 
L 2419 1625 
L 2419 4116 
z
M 2253 4666 
L 3047 4666 
L 3047 1625 
L 3713 1625 
L 3713 1100 
L 3047 1100 
L 3047 0 
L 2419 0 
L 2419 1100 
L 313 1100 
L 313 1709 
L 2253 4666 
z
" transform="scale(0.015625)"/>
      <path id="DejaVuSans-38" d="M 2034 2216 
Q 1584 2216 1326 1975 
Q 1069 1734 1069 1313 
Q 1069 891 1326 650 
Q 1584 409 2034 409 
Q 2484 409 2743 651 
Q 3003 894 3003 1313 
Q 3003 1734 2745 1975 
Q 2488 2216 2034 2216 
z
M 1403 2484 
Q 997 2584 770 2862 
Q 544 3141 544 3541 
Q 544 4100 942 4425 
Q 1341 4750 2034 4750 
Q 2731 4750 3128 4425 
Q 3525 4100 3525 3541 
Q 3525 3141 3298 2862 
Q 3072 2584 2669 2484 
Q 3125 2378 3379 2068 
Q 3634 1759 3634 1313 
Q 3634 634 3220 271 
Q 2806 -91 2034 -91 
Q 1263 -91 848 271 
Q 434 634 434 1313 
Q 434 1759 690 2068 
Q 947 2378 1403 2484 
z
M 1172 3481 
Q 1172 3119 1398 2916 
Q 1625 2713 2034 2713 
Q 2441 2713 2670 2916 
Q 2900 3119 2900 3481 
Q 2900 3844 2670 4047 
Q 2441 4250 2034 4250 
Q 1625 4250 1398 4047 
Q 1172 3844 1172 3481 
z
" transform="scale(0.015625)"/>
      <path id="DejaVuSans-39" d="M 703 97 
L 703 672 
Q 941 559 1184 500 
Q 1428 441 1663 441 
Q 2288 441 2617 861 
Q 2947 1281 2994 2138 
Q 2813 1869 2534 1725 
Q 2256 1581 1919 1581 
Q 1219 1581 811 2004 
Q 403 2428 403 3163 
Q 403 3881 828 4315 
Q 1253 4750 1959 4750 
Q 2769 4750 3195 4129 
Q 3622 3509 3622 2328 
Q 3622 1225 3098 567 
Q 2575 -91 1691 -91 
Q 1453 -91 1209 -44 
Q 966 3 703 97 
z
M 1959 2075 
Q 2384 2075 2632 2365 
Q 2881 2656 2881 3163 
Q 2881 3666 2632 3958 
Q 2384 4250 1959 4250 
Q 1534 4250 1286 3958 
Q 1038 3666 1038 3163 
Q 1038 2656 1286 2365 
Q 1534 2075 1959 2075 
z
" transform="scale(0.015625)"/>
     </defs>
     <use xlink:href="#ArialMT-4c" transform="translate(0 0.78125)"/>
     <use xlink:href="#ArialMT-41" transform="translate(55.615234 0.78125)"/>
     <use xlink:href="#ArialMT-44" transform="translate(122.314453 0.78125)"/>
     <use xlink:href="#ArialMT-20" transform="translate(194.53125 0.78125)"/>
     <use xlink:href="#ArialMT-77" transform="translate(222.314453 0.78125)"/>
     <use xlink:href="#ArialMT-69" transform="translate(294.53125 0.78125)"/>
     <use xlink:href="#ArialMT-74" transform="translate(316.748047 0.78125)"/>
     <use xlink:href="#ArialMT-68" transform="translate(344.53125 0.78125)"/>
     <use xlink:href="#ArialMT-20" transform="translate(400.146484 0.78125)"/>
     <use xlink:href="#ArialMT-4f" transform="translate(427.929688 0.78125)"/>
     <use xlink:href="#ArialMT-75" transform="translate(505.712891 0.78125)"/>
     <use xlink:href="#ArialMT-74" transform="translate(561.328125 0.78125)"/>
     <use xlink:href="#ArialMT-6c" transform="translate(589.111328 0.78125)"/>
     <use xlink:href="#ArialMT-69" transform="translate(611.328125 0.78125)"/>
     <use xlink:href="#ArialMT-65" transform="translate(633.544922 0.78125)"/>
     <use xlink:href="#ArialMT-72" transform="translate(689.160156 0.78125)"/>
     <use xlink:href="#ArialMT-20" transform="translate(722.460938 0.78125)"/>
     <use xlink:href="#ArialMT-28" transform="translate(750.244141 0.78125)"/>
     <use xlink:href="#DejaVuSans-Oblique-3bc" transform="translate(783.544922 0.78125)"/>
     <use xlink:href="#DejaVuSans-3d" transform="translate(866.650391 0.78125)"/>
     <use xlink:href="#DejaVuSans-30" transform="translate(969.921875 0.78125)"/>
     <use xlink:href="#DejaVuSans-2e" transform="translate(1033.544922 0.78125)"/>
     <use xlink:href="#DejaVuSans-34" transform="translate(1065.332031 0.78125)"/>
     <use xlink:href="#DejaVuSans-38" transform="translate(1128.955078 0.78125)"/>
     <use xlink:href="#DejaVuSans-32" transform="translate(1192.578125 0.78125)"/>
     <use xlink:href="#DejaVuSans-39" transform="translate(1254.451172 0.78125)"/>
     <use xlink:href="#DejaVuSans-2c" transform="translate(1318.074219 0.78125)"/>
     <use xlink:href="#DejaVuSans-Oblique-3c3" transform="translate(1369.34375 0.78125)"/>
     <use xlink:href="#DejaVuSans-3d" transform="translate(1452.205078 0.78125)"/>
     <use xlink:href="#DejaVuSans-30" transform="translate(1555.476562 0.78125)"/>
     <use xlink:href="#DejaVuSans-2e" transform="translate(1619.099609 0.78125)"/>
     <use xlink:href="#DejaVuSans-30" transform="translate(1650.886719 0.78125)"/>
     <use xlink:href="#DejaVuSans-39" transform="translate(1714.509766 0.78125)"/>
     <use xlink:href="#DejaVuSans-39" transform="translate(1778.132812 0.78125)"/>
     <use xlink:href="#DejaVuSans-35" transform="translate(1841.755859 0.78125)"/>
     <use xlink:href="#ArialMT-29" transform="translate(1905.378906 0.78125)"/>
    </g>
   </g>
  </g>
  <g id="text_51">
   <!-- Histogram of beta_1 -->
   <g style="fill: #262626" transform="translate(359.96625 24.6075) scale(0.16 -0.16)">
    <defs>
     <path id="ArialMT-48" d="M 513 0 
L 513 4581 
L 1119 4581 
L 1119 2700 
L 3500 2700 
L 3500 4581 
L 4106 4581 
L 4106 0 
L 3500 0 
L 3500 2159 
L 1119 2159 
L 1119 0 
L 513 0 
z
" transform="scale(0.015625)"/>
     <path id="ArialMT-73" d="M 197 991 
L 753 1078 
Q 800 744 1014 566 
Q 1228 388 1613 388 
Q 2000 388 2187 545 
Q 2375 703 2375 916 
Q 2375 1106 2209 1216 
Q 2094 1291 1634 1406 
Q 1016 1563 777 1677 
Q 538 1791 414 1992 
Q 291 2194 291 2438 
Q 291 2659 392 2848 
Q 494 3038 669 3163 
Q 800 3259 1026 3326 
Q 1253 3394 1513 3394 
Q 1903 3394 2198 3281 
Q 2494 3169 2634 2976 
Q 2775 2784 2828 2463 
L 2278 2388 
Q 2241 2644 2061 2787 
Q 1881 2931 1553 2931 
Q 1166 2931 1000 2803 
Q 834 2675 834 2503 
Q 834 2394 903 2306 
Q 972 2216 1119 2156 
Q 1203 2125 1616 2013 
Q 2213 1853 2448 1751 
Q 2684 1650 2818 1456 
Q 2953 1263 2953 975 
Q 2953 694 2789 445 
Q 2625 197 2315 61 
Q 2006 -75 1616 -75 
Q 969 -75 630 194 
Q 291 463 197 991 
z
" transform="scale(0.015625)"/>
     <path id="ArialMT-67" d="M 319 -275 
L 866 -356 
Q 900 -609 1056 -725 
Q 1266 -881 1628 -881 
Q 2019 -881 2231 -725 
Q 2444 -569 2519 -288 
Q 2563 -116 2559 434 
Q 2191 0 1641 0 
Q 956 0 581 494 
Q 206 988 206 1678 
Q 206 2153 378 2554 
Q 550 2956 876 3175 
Q 1203 3394 1644 3394 
Q 2231 3394 2613 2919 
L 2613 3319 
L 3131 3319 
L 3131 450 
Q 3131 -325 2973 -648 
Q 2816 -972 2473 -1159 
Q 2131 -1347 1631 -1347 
Q 1038 -1347 672 -1080 
Q 306 -813 319 -275 
z
M 784 1719 
Q 784 1066 1043 766 
Q 1303 466 1694 466 
Q 2081 466 2343 764 
Q 2606 1063 2606 1700 
Q 2606 2309 2336 2618 
Q 2066 2928 1684 2928 
Q 1309 2928 1046 2623 
Q 784 2319 784 1719 
z
" transform="scale(0.015625)"/>
     <path id="ArialMT-6d" d="M 422 0 
L 422 3319 
L 925 3319 
L 925 2853 
Q 1081 3097 1340 3245 
Q 1600 3394 1931 3394 
Q 2300 3394 2536 3241 
Q 2772 3088 2869 2813 
Q 3263 3394 3894 3394 
Q 4388 3394 4653 3120 
Q 4919 2847 4919 2278 
L 4919 0 
L 4359 0 
L 4359 2091 
Q 4359 2428 4304 2576 
Q 4250 2725 4106 2815 
Q 3963 2906 3769 2906 
Q 3419 2906 3187 2673 
Q 2956 2441 2956 1928 
L 2956 0 
L 2394 0 
L 2394 2156 
Q 2394 2531 2256 2718 
Q 2119 2906 1806 2906 
Q 1569 2906 1367 2781 
Q 1166 2656 1075 2415 
Q 984 2175 984 1722 
L 984 0 
L 422 0 
z
" transform="scale(0.015625)"/>
     <path id="ArialMT-66" d="M 556 0 
L 556 2881 
L 59 2881 
L 59 3319 
L 556 3319 
L 556 3672 
Q 556 4006 616 4169 
Q 697 4388 901 4523 
Q 1106 4659 1475 4659 
Q 1713 4659 2000 4603 
L 1916 4113 
Q 1741 4144 1584 4144 
Q 1328 4144 1222 4034 
Q 1116 3925 1116 3625 
L 1116 3319 
L 1763 3319 
L 1763 2881 
L 1116 2881 
L 1116 0 
L 556 0 
z
" transform="scale(0.015625)"/>
    </defs>
    <use xlink:href="#ArialMT-48"/>
    <use xlink:href="#ArialMT-69" x="72.216797"/>
    <use xlink:href="#ArialMT-73" x="94.433594"/>
    <use xlink:href="#ArialMT-74" x="144.433594"/>
    <use xlink:href="#ArialMT-6f" x="172.216797"/>
    <use xlink:href="#ArialMT-67" x="227.832031"/>
    <use xlink:href="#ArialMT-72" x="283.447266"/>
    <use xlink:href="#ArialMT-61" x="316.748047"/>
    <use xlink:href="#ArialMT-6d" x="372.363281"/>
    <use xlink:href="#ArialMT-20" x="455.664062"/>
    <use xlink:href="#ArialMT-6f" x="483.447266"/>
    <use xlink:href="#ArialMT-66" x="539.0625"/>
    <use xlink:href="#ArialMT-20" x="566.845703"/>
    <use xlink:href="#ArialMT-62" x="594.628906"/>
    <use xlink:href="#ArialMT-65" x="650.244141"/>
    <use xlink:href="#ArialMT-74" x="705.859375"/>
    <use xlink:href="#ArialMT-61" x="733.642578"/>
    <use xlink:href="#ArialMT-5f" x="789.257812"/>
    <use xlink:href="#ArialMT-31" x="844.873047"/>
   </g>
  </g>
 </g>
 <defs>
  <clipPath id="pefe28595c2">
   <rect x="55.8" y="55.88125" width="375.3625" height="256.009375"/>
  </clipPath>
  <clipPath id="p9221fe7d80">
   <rect x="477.8375" y="55.88125" width="375.3625" height="256.009375"/>
  </clipPath>
  <clipPath id="p1d12623ca4">
   <rect x="55.8" y="347.690625" width="375.3625" height="256.009375"/>
  </clipPath>
  <clipPath id="p27ba3cca96">
   <rect x="477.8375" y="347.690625" width="375.3625" height="256.009375"/>
  </clipPath>
 </defs>
</svg>
